<svg width="354" height="82" viewBox="0 0 354 82" fill="none" xmlns="http://www.w3.org/2000/svg">
<rect y="82" width="82" height="354" transform="rotate(-90 0 82)" fill="#91040C"/>
<path d="M353 40.5L20 40.5M20 40.5L50.858 17M20 40.5L50.858 64" stroke="#EFDBBF" stroke-width="10"/>
<path fill-rule="evenodd" clip-rule="evenodd" d="M325.807 64.1654C325.291 66.8712 324.249 69.2642 322.681 71.3428C317.968 77.5904 309.59 79.7305 302.417 76.5192C299.74 75.3207 300.053 75.6111 281.929 57.5421L265 40.6637L265 39.9956L265 39.3276L281.929 22.4479C297.398 7.02457 298.981 5.49003 300.273 4.66247C305.207 1.5019 311.268 1.13378 316.569 3.67289C319.378 5.01826 321.554 6.90726 323.289 9.50682C327.095 15.2114 326.872 23.1589 322.756 28.5615C322.351 29.0924 319.675 31.8626 316.808 34.7174L311.595 39.908L316.911 45.2605C322.575 50.9647 323.284 51.8144 324.476 54.3238C325.507 56.4963 325.891 58.19 325.957 60.8592C325.994 62.3526 325.945 63.4421 325.807 64.1654Z" fill="#EFDBBF"/>
<path fill-rule="evenodd" clip-rule="evenodd" d="M258.807 64.1654C258.291 66.8712 257.249 69.2642 255.681 71.3428C250.968 77.5904 242.59 79.7305 235.417 76.5192C232.74 75.3207 233.053 75.6111 214.929 57.5421L198 40.6637L198 39.9956L198 39.3276L214.929 22.4479C230.398 7.02457 231.981 5.49003 233.273 4.66247C238.207 1.5019 244.268 1.13378 249.569 3.67289C252.378 5.01826 254.554 6.90726 256.289 9.50682C260.095 15.2114 259.872 23.1589 255.756 28.5615C255.351 29.0924 252.675 31.8626 249.808 34.7174L244.595 39.908L249.911 45.2605C255.575 50.9647 256.284 51.8144 257.476 54.3238C258.507 56.4963 258.891 58.19 258.957 60.8592C258.994 62.3526 258.945 63.4421 258.807 64.1654Z" fill="#EFDBBF"/>
<path fill-rule="evenodd" clip-rule="evenodd" d="M190.81 64.1654C190.303 66.8712 189.278 69.2642 187.736 71.3428C183.1 77.5904 174.859 79.7305 167.803 76.5192C165.17 75.3207 165.478 75.6111 147.652 57.5421L131 40.6637L131 39.9956L131 39.3276L147.652 22.4479C162.867 7.02457 164.424 5.49003 165.694 4.66247C170.548 1.5019 176.509 1.13378 181.724 3.67289C184.487 5.01826 186.627 6.90726 188.333 9.50682C192.077 15.2114 191.858 23.1589 187.809 28.5615C187.411 29.0924 184.778 31.8626 181.959 34.7174L176.832 39.908L182.06 45.2605C187.631 50.9647 188.329 51.8144 189.501 54.3238C190.515 56.4963 190.893 58.19 190.958 60.8592C190.994 62.3526 190.945 63.4421 190.81 64.1654Z" fill="#EFDBBF"/>
<path fill-rule="evenodd" clip-rule="evenodd" d="M123.813 64.1654C123.315 66.8712 122.307 69.2642 120.79 71.3428C116.232 77.5904 108.128 79.7305 101.19 76.5192C98.6005 75.3207 98.9038 75.6111 81.3743 57.5421L65 40.6637L65 39.9956L65 39.3276L81.3743 22.4479C96.3359 7.02457 97.8667 5.49003 99.1161 4.66247C103.889 1.5019 109.751 1.13378 114.879 3.67289C117.596 5.01826 119.7 6.90726 121.378 9.50682C125.059 15.2114 124.844 23.1589 120.862 28.5615C120.471 29.0924 117.882 31.8626 115.109 34.7174L110.068 39.908L115.209 45.2605C120.687 50.9647 121.373 51.8144 122.526 54.3238C123.523 56.4963 123.895 58.19 123.958 60.8592C123.994 62.3526 123.946 63.4421 123.813 64.1654Z" fill="#EFDBBF"/>
<circle cx="1.00865" cy="1.00865" r="1.00865" transform="matrix(-0.707107 -0.707107 -0.707107 0.707107 166.104 40.3867)" fill="#23140D"/>
<path d="M167.822 28.4023L151.783 43.9826" stroke="#23140D" stroke-width="3" stroke-linecap="round"/>
<path d="M176.713 37.0996L160.821 52.9913" stroke="#23140D" stroke-width="3" stroke-linecap="round"/>
<path d="M168.299 52.9492L151.815 36.465" stroke="#23140D" stroke-width="3" stroke-linecap="round"/>
<path d="M176.736 44.5138L168.494 36.2717M160.89 27.7767L168.494 36.2717M168.494 36.2717L170.521 34.2448M158.457 47.1426L160.484 45.1157M169.349 44.5656L171.285 46.5014M158.222 33.4393L160.158 35.3751" stroke="#23140D" stroke-width="3" stroke-linecap="round"/>
<circle cx="1.00865" cy="1.00865" r="1.00865" transform="matrix(-0.707107 -0.707107 -0.707107 0.707107 98.9434 40.3848)" fill="#23140D"/>
<path d="M100.66 28.4023L84.6212 43.9826" stroke="#23140D" stroke-width="3" stroke-linecap="round"/>
<path d="M109.555 37.0977L93.663 52.9893" stroke="#23140D" stroke-width="3" stroke-linecap="round"/>
<path d="M101.139 52.9492L84.6545 36.465" stroke="#23140D" stroke-width="3" stroke-linecap="round"/>
<path d="M109.574 44.5118L101.332 36.2697M93.7282 27.7747L101.332 36.2697M101.332 36.2697L103.359 34.2429M91.2954 47.1406L93.3222 45.1138M102.187 44.5636L104.122 46.4995M91.0603 33.4373L92.9962 35.3732" stroke="#23140D" stroke-width="3" stroke-linecap="round"/>
<circle cx="1.00865" cy="1.00865" r="1.00865" transform="matrix(-0.707107 -0.707107 -0.707107 0.707107 233.26 40.3867)" fill="#23140D"/>
<path d="M234.977 28.4023L218.938 43.9826" stroke="#23140D" stroke-width="3" stroke-linecap="round"/>
<path d="M243.867 37.0996L227.975 52.9913" stroke="#23140D" stroke-width="3" stroke-linecap="round"/>
<path d="M235.453 52.9492L218.969 36.465" stroke="#23140D" stroke-width="3" stroke-linecap="round"/>
<path d="M243.891 44.5138L235.649 36.2717M228.045 27.7767L235.649 36.2717M235.649 36.2717L237.675 34.2448M225.612 47.1426L227.639 45.1157M236.503 44.5656L238.439 46.5014M225.377 33.4393L227.313 35.3751" stroke="#23140D" stroke-width="3" stroke-linecap="round"/>
<circle cx="1.00865" cy="1.00865" r="1.00865" transform="matrix(-0.707107 -0.707107 -0.707107 0.707107 300.414 40.3867)" fill="#23140D"/>
<path d="M302.133 28.4023L286.094 43.9826" stroke="#23140D" stroke-width="3" stroke-linecap="round"/>
<path d="M311.023 37.0996L295.132 52.9913" stroke="#23140D" stroke-width="3" stroke-linecap="round"/>
<path d="M302.611 52.9492L286.127 36.465" stroke="#23140D" stroke-width="3" stroke-linecap="round"/>
<path d="M311.047 44.5138L302.805 36.2717M295.201 27.7767L302.805 36.2717M302.805 36.2717L304.832 34.2448M292.768 47.1426L294.795 45.1157M303.659 44.5656L305.595 46.5014M292.533 33.4393L294.469 35.3751" stroke="#23140D" stroke-width="3" stroke-linecap="round"/>
<path d="M9 41C9 41 35.3333 22.6667 47.5 13L55 20.5L35.5 35L36.5 45.5L55 60L49 69C34.8333 59.5 9 41 9 41Z" fill="#EFDBBF"/>
</svg>
