<svg width="276" height="82" viewBox="0 0 276 82" fill="none" xmlns="http://www.w3.org/2000/svg">
<rect width="82" height="354" transform="matrix(0 -1 -1 0 276 82)" fill="#91040C"/>
<path d="M-77 40.5L256 40.5M256 40.5L225.142 17M256 40.5L225.142 64" stroke="#EFDBBF" stroke-width="10"/>
<path fill-rule="evenodd" clip-rule="evenodd" d="M-49.8067 64.1654C-49.2913 66.8712 -48.2492 69.2642 -46.6811 71.3428C-41.9683 77.5904 -33.5902 79.7305 -26.4168 76.5192C-23.7395 75.3207 -24.0531 75.6111 -5.92936 57.5421L11 40.6637L11 39.9956L11 39.3276L-5.92937 22.4479C-21.3981 7.02457 -22.9808 5.49003 -24.2726 4.66247C-29.2068 1.5019 -35.2679 1.13378 -40.5695 3.67289C-43.3785 5.01826 -45.5541 6.90726 -47.2887 9.50682C-51.0947 15.2114 -50.8725 23.1589 -46.7559 28.5615C-46.3513 29.0924 -43.6748 31.8626 -40.8079 34.7174L-35.5954 39.908L-40.9106 45.2605C-46.5749 50.9647 -47.2842 51.8144 -48.4756 54.3238C-49.507 56.4963 -49.891 58.19 -49.957 60.8592C-49.9941 62.3526 -49.9445 63.4421 -49.8067 64.1654Z" fill="#EFDBBF"/>
<path fill-rule="evenodd" clip-rule="evenodd" d="M17.1933 64.1654C17.7087 66.8712 18.7508 69.2642 20.3189 71.3428C25.0317 77.5904 33.4098 79.7305 40.5832 76.5192C43.2605 75.3207 42.9469 75.6111 61.0706 57.5421L78 40.6637L78 39.9956L78 39.3276L61.0706 22.4479C45.6019 7.02457 44.0192 5.49003 42.7274 4.66247C37.7932 1.5019 31.7321 1.13378 26.4305 3.67289C23.6215 5.01826 21.4459 6.90726 19.7113 9.50682C15.9053 15.2114 16.1275 23.1589 20.2441 28.5615C20.6487 29.0924 23.3252 31.8626 26.1921 34.7174L31.4046 39.908L26.0894 45.2605C20.4251 50.9647 19.7158 51.8144 18.5244 54.3238C17.493 56.4963 17.109 58.19 17.043 60.8592C17.0059 62.3526 17.0555 63.4421 17.1933 64.1654Z" fill="#EFDBBF"/>
<path fill-rule="evenodd" clip-rule="evenodd" d="M85.1901 64.1654C85.6971 66.8712 86.7221 69.2642 88.2644 71.3428C92.9 77.5904 101.141 79.7305 108.197 76.5192C110.83 75.3207 110.522 75.6111 128.348 57.5421L145 40.6637L145 39.9956L145 39.3276L128.348 22.4479C113.133 7.02457 111.576 5.49003 110.306 4.66247C105.452 1.5019 99.4906 1.13378 94.2759 3.67289C91.513 5.01826 89.373 6.90726 87.6669 9.50682C83.9233 15.2114 84.1418 23.1589 88.191 28.5615C88.5888 29.0924 91.2215 31.8626 94.0414 34.7174L99.1684 39.908L93.9404 45.2605C88.369 50.9647 87.6713 51.8144 86.4994 54.3238C85.4849 56.4963 85.1073 58.19 85.0423 60.8592C85.0058 62.3526 85.0546 63.4421 85.1901 64.1654Z" fill="#EFDBBF"/>
<path fill-rule="evenodd" clip-rule="evenodd" d="M152.187 64.1654C152.685 66.8712 153.693 69.2642 155.21 71.3428C159.768 77.5904 167.872 79.7305 174.81 76.5192C177.399 75.3207 177.096 75.6111 194.626 57.5421L211 40.6637L211 39.9956L211 39.3276L194.626 22.4479C179.664 7.02457 178.133 5.49003 176.884 4.66247C172.111 1.5019 166.249 1.13378 161.121 3.67289C158.404 5.01826 156.3 6.90726 154.622 9.50682C150.941 15.2114 151.156 23.1589 155.138 28.5615C155.529 29.0924 158.118 31.8626 160.891 34.7174L165.932 39.908L160.791 45.2605C155.313 50.9647 154.627 51.8144 153.474 54.3238C152.477 56.4963 152.105 58.19 152.042 60.8592C152.006 62.3526 152.054 63.4421 152.187 64.1654Z" fill="#EFDBBF"/>
<circle cx="111.323" cy="40.3867" r="1.00865" transform="rotate(-45 111.323 40.3867)" fill="#23140D"/>
<path d="M108.178 28.4004L124.217 43.9806" stroke="#23140D" stroke-width="3" stroke-linecap="round"/>
<path d="M99.2871 37.0977L115.179 52.9893" stroke="#23140D" stroke-width="3" stroke-linecap="round"/>
<path d="M107.701 52.9492L124.185 36.465" stroke="#23140D" stroke-width="3" stroke-linecap="round"/>
<path d="M99.2637 44.5118L107.506 36.2697M115.11 27.7747L107.506 36.2697M107.506 36.2697L105.479 34.2429M117.543 47.1406L115.516 45.1138M106.651 44.5636L104.715 46.4995M117.778 33.4373L115.842 35.3732" stroke="#23140D" stroke-width="3" stroke-linecap="round"/>
<circle cx="178.483" cy="40.3848" r="1.00865" transform="rotate(-45 178.483 40.3848)" fill="#23140D"/>
<path d="M175.34 28.4023L191.379 43.9826" stroke="#23140D" stroke-width="3" stroke-linecap="round"/>
<path d="M166.445 37.0996L182.337 52.9913" stroke="#23140D" stroke-width="3" stroke-linecap="round"/>
<path d="M174.861 52.9512L191.346 36.467" stroke="#23140D" stroke-width="3" stroke-linecap="round"/>
<path d="M166.426 44.5138L174.668 36.2717M182.272 27.7767L174.668 36.2717M174.668 36.2717L172.641 34.2448M184.705 47.1426L182.678 45.1157M173.813 44.5656L171.878 46.5014M184.94 33.4393L183.004 35.3751" stroke="#23140D" stroke-width="3" stroke-linecap="round"/>
<circle cx="44.1667" cy="40.3867" r="1.00865" transform="rotate(-45 44.1667 40.3867)" fill="#23140D"/>
<path d="M41.0234 28.4004L57.0624 43.9806" stroke="#23140D" stroke-width="3" stroke-linecap="round"/>
<path d="M32.1328 37.0977L48.0245 52.9893" stroke="#23140D" stroke-width="3" stroke-linecap="round"/>
<path d="M40.5469 52.9492L57.0311 36.465" stroke="#23140D" stroke-width="3" stroke-linecap="round"/>
<path d="M32.1094 44.5118L40.3515 36.2697M47.9554 27.7747L40.3515 36.2697M40.3515 36.2697L38.3246 34.2429M50.3882 47.1406L48.3614 45.1138M39.497 44.5636L37.5611 46.4995M50.6233 33.4373L48.6874 35.3732" stroke="#23140D" stroke-width="3" stroke-linecap="round"/>
<path d="M267 41C267 41 240.667 22.6667 228.5 13L221 20.5L240.5 35L239.5 45.5L221 60L227 69C241.167 59.5 267 41 267 41Z" fill="#EFDBBF"/>
</svg>
