<svg width="1129" height="570" viewBox="0 0 1129 570" fill="none" xmlns="http://www.w3.org/2000/svg">
<path d="M521.872 560.921L0.881847 560.999L0 229.472C4.51965 4.04425 497.363 1.45011 519.998 221.755C523.765 328.943 517.022 427.273 521.872 534.267C522.111 539.676 522.975 555.396 521.854 560.934L521.872 560.921Z" fill="#91040C"/>
<path d="M249.218 47.3419C245.999 46 242.033 42.1388 241.499 41.5C230.662 28.5085 236.975 5.97737 253.466 1.24852C285.741 -8.00314 299.236 36.8231 269.424 48.1764C263.708 50.3503 254.462 51.1436 249.218 47.3419Z" fill="#91040C"/>
<path d="M9.64417 374.899C12.1162 328.545 6.39855 280.612 9.56873 234.429C10.1726 225.652 11.8142 213.283 13.6446 204.597C53.0454 17.8654 491.04 26.3158 507.91 222.674C511.495 264.482 513.797 319.69 509.797 361.224C509.57 363.627 507.589 374.873 506.06 375.617L9.64417 374.886V374.899Z" fill="#23140D"/>
<path d="M11.3105 384.881L509.174 385.523V546.127H11.3105V384.881Z" fill="#23140D"/>
<path d="M343.982 199.853C357.075 201.236 380.777 208.789 381.947 224.465C383.569 246.298 347.558 253.837 331.353 255.712C329.745 258.013 338.186 262.919 340.02 264.98C368.534 296.918 351.944 326.29 311.347 306.957L290.144 292.943C290.743 307.05 285.505 331.941 272.265 339.547C251.647 351.394 234.579 309.763 235.629 294.259C233.037 291.812 225.925 300.827 223.971 302.184C210.997 311.186 191.137 322.74 177.126 309.577C167.036 300.109 171.915 286.148 178.149 275.99C180.25 272.572 195.67 255.526 193.091 253.053C180.515 252.907 164.205 250.819 153.145 244.477C113.505 221.766 167.222 195.346 191.761 201.183C192.386 197.035 188.571 196.037 186.71 193.684C177.79 182.422 169.269 170.428 169.083 155.337C168.724 126.762 197.185 130.379 215.29 141.096C217.51 142.412 233.436 155.656 234.3 154.645C233.037 136.668 241.332 98.1348 266.257 104.756C282.767 109.144 288.124 138.822 287.486 153.316L311.36 137.985C322.433 132.014 342.453 129.754 349.764 142.226C358.71 157.504 345.058 178.207 334.716 189.269C331.34 192.873 325.331 194.801 324.707 199.867C330.914 200.332 337.88 199.229 343.982 199.867V199.853Z" fill="#91040C"/>
<path d="M257.013 154.886C257.157 153.816 258.095 150.555 259.596 149.537C264.272 148.829 268.789 154.097 268.789 158.228V197.671C276.152 191.213 286.583 161.918 294.748 159.177C301.676 156.851 301.4 161.023 299.766 166.959C298.002 173.417 277.06 200.586 280.643 204.343C290.639 204.183 312.489 176.492 320.615 179.059C322.051 179.514 322.762 180.691 322.789 182.215C322.907 193.433 294.169 207.044 288.545 216.363C300.464 215.574 314.333 211.042 326.055 210.935C339.067 210.814 342.465 217.313 328.333 221.337C315.268 225.054 300.662 225.375 287.228 227.086C287.373 229.105 289.283 229.105 290.507 229.761C298.265 233.892 323.816 243.011 326.476 250.766C327.978 255.138 325.317 256.675 321.142 256.208C314.978 255.512 286.24 237.529 283.29 240.444C284.014 251.207 305.153 270.3 304.402 279.887C303.836 287.187 294.577 281.224 292.549 277.173L271.436 245.792V287.909C271.436 291.024 265.22 294.782 262.322 290.463C258.977 285.476 260.373 254.977 259.57 247.129C251.22 250.913 235.441 285.382 228.645 285.422C225.84 285.436 223.851 282.949 224.009 280.007C224.391 273.095 249.534 241.874 247.729 240.457C234.519 242.89 222.481 255.352 209.561 258.507C202.475 260.245 196.641 260.299 202.265 252.437L239.827 229.761C232.188 228.958 224.418 227.822 216.765 227.086C207.915 226.231 189.252 230.523 191.096 216.377C204.675 213.047 219.439 219.024 232.583 219.158C234.322 219.171 238.102 218.984 238.497 217.018C239.564 211.63 209.245 196.815 204.925 192.296C199.104 186.213 201.343 180.918 209.877 183.258C214.026 184.394 242.632 208.18 245.095 205.667C246.096 196.856 221.941 166.986 224.602 161.584C226.34 158.041 229.238 158.322 231.951 160.875C241.895 170.262 248.23 189.074 258.266 198.995C259.583 184.983 255.235 168.484 257.013 154.886Z" fill="#EFDBBF"/>
<path d="M131.058 407C133.049 409.5 117.277 426.825 115.452 429.303C94.9509 457.205 93.0059 473.19 112.253 503.452C117.646 511.927 125.094 518.857 129.224 528.212C127.408 529.982 109.313 509.256 106.612 506.799C98.7487 499.612 88.4429 491.63 78.0634 491.663C59.443 491.716 40.4262 518.836 25.9907 530.379C25.705 528.598 26.7098 527.504 27.4472 526.184C36.0384 510.801 51.2113 499.408 57.1201 480.259C66.1998 450.865 43.0349 435.289 29.6872 416.108C28.9313 415.024 24.4329 407.751 25.0597 407.021C27.8343 407.29 30.1757 410.09 32.3327 411.956C52.8337 429.625 68.0434 455.897 96.3151 437.917C109.248 429.689 118.383 415.357 131.058 407.021V407Z" fill="#91040C"/>
<path d="M59.5586 491.607C64.2222 480.128 67.4486 469.792 63.3043 457.137C62.2102 453.79 59.9665 451.609 59.5586 448.188C64.7043 448.707 69.0434 452.435 74.1612 453.197C83.8963 454.659 90.8685 450.137 98.4804 443.941C98.4804 449.777 94.5864 454.33 93.1864 459.594C89.9228 471.867 93.6499 482.447 98.4711 493.196C85.1572 484.703 73.3361 482.913 59.5586 491.597V491.607Z" fill="#EFDBBF"/>
<path d="M373.57 407C375.561 409.5 359.789 426.825 357.963 429.303C337.463 457.205 335.518 473.19 354.765 503.452C360.157 511.927 367.606 518.857 371.735 528.212C369.919 529.982 351.824 509.256 349.123 506.799C341.26 499.612 330.955 491.63 320.575 491.663C301.955 491.716 282.938 518.836 268.502 530.379C268.217 528.598 269.221 527.504 269.959 526.184C278.55 510.801 293.723 499.408 299.632 480.259C308.712 450.865 285.547 435.289 272.199 416.108C271.443 415.024 266.945 407.751 267.571 407.021C270.346 407.29 272.687 410.09 274.844 411.956C295.345 429.625 310.555 455.897 338.827 437.917C351.76 429.689 360.895 415.357 373.57 407.021V407Z" fill="#91040C"/>
<path d="M302.07 491.607C306.734 480.128 309.96 469.792 305.816 457.137C304.722 453.79 302.478 451.609 302.07 448.188C307.216 448.707 311.555 452.435 316.673 453.197C326.408 454.659 333.38 450.137 340.992 443.941C340.992 449.777 337.098 454.33 335.698 459.594C332.435 471.867 336.162 482.447 340.983 493.196C327.669 484.703 315.848 482.913 302.07 491.597V491.607Z" fill="#EFDBBF"/>
<path d="M146.43 407C144.439 409.5 160.211 426.825 162.037 429.303C182.537 457.205 184.482 473.19 165.235 503.452C159.843 511.927 152.394 518.857 148.265 528.212C150.081 529.982 168.176 509.256 170.877 506.799C178.74 499.612 189.045 491.63 199.425 491.663C218.045 491.716 237.062 518.836 251.498 530.379C251.783 528.598 250.779 527.504 250.041 526.184C241.45 510.801 226.277 499.408 220.368 480.259C211.288 450.865 234.453 435.289 247.801 416.108C248.557 415.024 253.055 407.751 252.429 407.021C249.654 407.29 247.313 410.09 245.156 411.956C224.655 429.625 209.445 455.897 181.173 437.917C168.24 429.689 159.105 415.357 146.43 407.021V407Z" fill="#91040C"/>
<path d="M217.928 491.607C213.264 480.128 210.038 469.792 214.182 457.137C215.276 453.79 217.52 451.609 217.928 448.188C212.782 448.707 208.443 452.435 203.325 453.197C193.59 454.659 186.618 450.137 179.006 443.941C179.006 449.777 182.9 454.33 184.3 459.594C187.564 471.867 183.836 482.447 179.015 493.196C192.329 484.703 204.15 482.913 217.928 491.597V491.607Z" fill="#EFDBBF"/>
<path d="M388.942 407C386.951 409.5 402.723 426.825 404.548 429.303C425.049 457.205 426.994 473.19 407.747 503.452C402.354 511.927 394.906 518.857 390.776 528.212C392.592 529.982 410.687 509.256 413.388 506.799C421.251 499.612 431.557 491.63 441.937 491.663C460.557 491.716 479.574 518.836 494.009 530.379C494.295 528.598 493.29 527.504 492.553 526.184C483.962 510.801 468.789 499.408 462.88 480.259C453.8 450.865 476.965 435.289 490.313 416.108C491.069 415.024 495.567 407.751 494.94 407.021C492.166 407.29 489.824 410.09 487.667 411.956C467.166 429.625 451.957 455.897 423.685 437.917C410.752 429.689 401.617 415.357 388.942 407.021V407Z" fill="#91040C"/>
<path d="M460.441 491.607C455.778 480.128 452.551 469.792 456.696 457.137C457.79 453.79 460.033 451.609 460.441 448.188C455.296 448.707 450.957 452.435 445.839 453.197C436.104 454.659 429.132 450.137 421.52 443.941C421.52 449.777 425.414 454.33 426.814 459.594C430.077 471.867 426.35 482.447 421.529 493.196C434.843 484.703 446.664 482.913 460.441 491.597V491.607Z" fill="#EFDBBF"/>
<path d="M1043.87 560.921L522.882 560.999L522 229.472C526.52 4.04427 1019.36 1.45012 1042 221.755C1045.76 328.943 1039.02 427.273 1043.87 534.267C1044.11 539.676 1044.97 555.396 1043.85 560.934L1043.87 560.921Z" fill="#91040C"/>
<path d="M771.218 47.3419C767.999 46 764.033 42.1388 763.499 41.5C752.662 28.5085 758.975 5.97737 775.466 1.24852C807.741 -8.00314 821.236 36.8231 791.424 48.1764C785.708 50.3503 776.462 51.1436 771.218 47.3419Z" fill="#91040C"/>
<path d="M533.057 385.258C535.523 337.36 529.82 287.83 532.982 240.108C533.584 231.039 535.222 218.258 537.047 209.283C576.345 16.3304 1013.19 25.0624 1030.02 227.962C1033.59 271.162 1035.89 328.21 1031.9 371.127C1031.67 373.611 1032.02 384.731 1030.5 385.5L533.057 385.244V385.258Z" fill="#23140D"/>
<path d="M533.311 384.881L1031.17 385.523V546.127H533.311V384.881Z" fill="#23140D"/>
<path d="M607.014 516.076V550.039H773.215C773.809 545.211 774.64 529.927 773.215 507.419C771.433 479.282 716.195 424.175 713.765 420.346C711.821 417.283 695.784 402.865 688.009 396.039L680.881 403.864C620.621 456.474 606.528 500.593 607.014 516.076Z" fill="#91040C"/>
<path d="M680.094 408.976C679.909 408.544 680.287 407.968 679.681 407.392C678.057 405.845 657.731 404.73 654.002 402.314L679.159 393.188C682.846 386.259 684.344 378.872 687.627 371.885C687.963 371.17 687.694 370.226 689.335 370.039L698.223 392.948L723.002 402.047L710.183 405.381L698.551 407.093C697.432 407.568 697.996 408.458 697.752 408.976C694.251 416.523 693.451 424.753 689.445 432.247C689.074 432.946 689.201 433.874 687.66 434.039C683.629 426.092 683.452 416.827 680.077 408.97L680.094 408.976Z" fill="#EFDBBF"/>
<path d="M657.645 129.325L666.601 167.691L709.289 158.039L685.705 192.08L725.658 212.001C725.15 214.886 682.307 218.301 681.153 220.647C679.56 223.901 691.611 254.523 692.698 260.283C687.24 258.233 682.179 254.981 677.316 251.928C673.1 249.293 659.541 238.497 655.596 239.087C652.361 239.57 636.292 273.757 633.816 273.346C631.632 268.712 625.196 233.898 623.16 232.874C620.326 231.444 587.808 241.239 582.137 241.872C582.305 240.587 582.378 239.267 582.984 238.071C586.849 230.48 597.006 220.165 602.146 212.456C602.756 211.547 605.068 208.262 604.74 207.681L565.051 185.945L609.15 180.608L598.634 140.084C600.39 138.862 630.565 162.67 636.152 162.809C639.614 154.042 645.385 145.235 650.611 137.18C651.964 135.097 653.701 131.764 655.276 130.106C656.052 129.289 655.483 128.522 657.656 129.318L657.645 129.325ZM644.752 176.471C613.143 175.514 610.686 221.218 644.84 223.281C676.566 225.191 680.121 177.548 644.752 176.471Z" fill="#91040C"/>
<path d="M644.977 175.76C680.982 176.531 676.828 228.303 644.543 226.586C609.777 224.728 612.8 175.076 644.977 175.76Z" fill="#EFDBBF"/>
<path d="M983.394 326.71L983.337 326.676C983.457 326.417 984.95 325.869 985.484 324.555C987.731 319.001 990.662 298.053 990.493 291.804C990.11 277.758 983.228 262.677 970.311 256.113C957.395 249.549 952.824 254.129 943.22 262.844C934.909 270.388 929.871 284.343 917.781 272.007C910.649 264.728 917.74 266.44 923.393 267.058C924.653 265.696 922.683 261.994 922.762 261.729C922.841 261.465 924.92 261.701 925.668 261.135C926.123 260.792 925.141 259.477 925.669 259.13C926.968 258.291 927.947 260.408 927.68 256.094C930.706 259.048 929.742 254.613 931.015 253.626C931.565 253.2 933.689 253.077 933.821 252.62C933.916 252.281 932.513 250.813 932.595 250.452C933.051 248.41 935.005 250.987 935.224 250.901C938.122 249.787 937.059 246.104 935.601 243.982C933.615 244.685 932.494 247.037 930.65 247.755C928.598 248.563 926.477 246.061 927.73 250.333C927.512 250.79 923.191 249.81 924.336 248.446L926.93 245.529C926.857 244.759 925.056 244.223 924.839 244.346L909.667 252.929C909.465 253.043 908.213 254.791 906.706 256.073C906.165 256.532 903.952 260.408 903.02 257.176C902.59 255.692 905.764 255.013 904.88 253.738L900.263 253.956C900.646 251.784 904.16 247.02 903.714 245.135C902.677 240.808 890.013 235.819 900.268 229.588C909.691 223.857 915.815 225.258 921.594 213.593C927.374 201.928 926.038 202.989 934.259 192.738C945.151 179.154 946.779 164.534 947.391 147.645C954.559 159.741 953.459 174.216 954.274 187.626C967.847 179.556 970.741 164.897 976.969 151.9C979.105 164.897 978.371 177.389 973.434 189.599C972.425 192.097 967.669 199.166 968.505 201.049C969.606 203.517 986.693 216.003 990.293 219.232C1005.62 232.982 1016.54 246.415 1024.99 265.439C1026.37 268.559 1036.7 287.615 1036.7 289.436C1036.7 290.538 1035.6 291.089 1037.81 294.945C1038.05 296.982 1035.99 297.286 1036.7 297.149L1032.67 475.089C1031.44 474.64 1030.33 474.197 1029.4 473.777C1010.05 440.747 992.483 406.313 972.045 374.115C974.583 373.07 972.751 372.933 972.193 371.694C968.109 362.69 962.452 354.375 957.857 345.613C941.799 341.856 926.044 335.906 911.301 328.305C908.878 329.18 909.51 333.011 909.439 335.111C909.007 348.407 912.909 365.604 917.362 378.129L924.5 396.242C906.946 376.542 900.544 349.53 901.443 323.741C898.013 322.4 880.946 308.987 879.423 309.296C875.266 310.14 867.88 323.821 865.885 327.897C856.158 347.69 851.84 372.543 850.354 394.257C850.166 396.977 850.279 400.262 849.003 402.71C846.97 395.981 846.876 386.542 847.025 379.321C847.442 358.784 852.306 334.053 861.919 315.83C863.241 313.328 870.413 303.451 870.447 302.668C870.498 301.561 867.162 296.962 866.132 296.389C864.346 295.406 842.294 302.196 839.042 303.511C812.948 314.028 801.22 328.714 783.06 348.165C781.291 350.063 778.905 353.111 776.427 353.635C791.313 321.469 820.806 296.951 855.417 288.456C857.339 287.741 855.899 286.695 854.924 285.816C847.229 278.855 808.906 274.853 797.663 274.822C767.323 274.748 741.843 282.895 713.977 292.134C712.2 292.719 710.227 293.091 708.415 292.418C714.755 288.975 721.401 283.46 728.591 280.07C762.734 263.94 813.324 259.551 849.616 269.739C852.475 270.545 861.685 272.985 863.594 274.319C867.681 277.178 873.612 285.099 877.822 288.918C899.709 308.809 925.141 323.605 954.184 329.899C962.154 331.629 977.348 334.701 983.739 328.433C984.394 327.786 983.361 326.787 983.394 326.71ZM939.792 237.651C938.656 237.245 938.791 233.152 934.292 234.352C932.51 234.826 934.05 237.093 934.172 238.102C931.331 237.783 919.917 240.652 925.327 243.135C926.77 243.797 928.492 242.88 929.415 246.517C930.638 245.797 931.322 241.88 931.834 241.571C932.09 241.417 936.621 241.42 937.885 241.259C939.255 241.084 940.584 239.827 941.632 239.825C942.48 239.823 943.562 242.073 945.08 240.508C943.643 235.187 940.765 237.988 939.792 237.651ZM939.137 206.874C932.601 212.785 942.457 225.049 950.503 217.997C957.834 211.57 947.762 199.075 939.137 206.874Z" fill="#91040C"/>
<path d="M713.707 292.147C741.628 282.884 767.15 274.702 797.536 274.744C808.795 274.764 847.17 278.726 854.87 285.68C855.849 286.566 857.286 287.603 855.36 288.321C820.69 296.854 791.127 321.408 776.185 353.597C778.679 353.073 781.068 350.014 782.834 348.119C801.041 328.644 812.802 313.942 838.946 303.396C842.208 302.084 864.295 295.263 866.083 296.245C867.113 296.816 870.45 301.413 870.398 302.52C870.363 303.303 863.169 313.189 861.843 315.694C852.204 333.926 847.3 358.672 846.861 379.214C846.704 386.437 846.796 395.873 848.818 402.606C850.102 400.163 849.992 396.878 850.179 394.15C851.69 372.429 856.033 347.571 865.802 327.759C867.816 323.683 875.223 309.985 879.38 309.14C880.905 308.83 897.98 322.22 901.417 323.565C900.483 349.365 906.873 376.371 924.433 396.058L917.303 377.948C912.863 365.421 908.974 348.224 909.413 334.929C909.483 332.84 908.857 328.998 911.285 328.12C926.049 335.703 941.814 341.642 957.892 345.382C962.488 354.149 968.145 362.46 972.221 371.455C972.778 372.694 974.621 372.824 972.071 373.876C948.325 359.234 930.522 378.747 931.075 403.086L931.965 412.767C919.955 398.954 900.886 378.271 880.465 384.169C870.45 387.059 862.027 394.857 855.74 403.001C854.356 404.795 847.715 416.333 846.868 416.087C838.32 389.472 826.103 350.8 790.985 355.027C789.413 355.221 782.119 356.4 781.33 356.846L770.833 362.785C769.634 356.663 770.045 350.042 769.105 343.717C766.232 324.314 759.887 306.628 741.086 297.686C732.324 293.517 723.107 293.238 713.662 292.135L713.707 292.147Z" fill="#EFDBBF"/>
<path d="M983.323 326.905C983.282 326.985 984.327 327.988 983.668 328.628C977.274 334.908 962.081 331.822 954.111 330.089C925.064 323.789 899.627 308.986 877.735 289.085C873.531 285.26 867.591 277.34 863.503 274.48C861.594 273.146 852.383 270.703 849.523 269.897C813.227 259.7 762.626 264.086 728.489 280.211C721.296 283.612 714.653 289.116 708.314 292.559C707.153 293.188 703.529 293.997 702.004 294.335C700.629 294.636 700.298 296.073 699.46 293.751C739.812 265.196 796.15 254.53 844.256 264.783C847.703 265.515 863.659 269.563 865.71 270.913C869.665 273.504 878.589 285.014 883.713 289.502C909.101 311.757 948.813 332.542 983.326 326.894L983.323 326.905Z" fill="#23140D"/>
<path d="M871.559 258.957C872.022 259.104 875.779 264.119 878.683 265.546C883.074 267.705 890.511 265.587 891.618 266.253C894.107 267.75 892.625 270.9 890.886 272.272C882.55 278.854 872.672 269.529 870.711 260.846C870.511 259.939 869.663 258.34 871.555 258.95L871.559 258.957Z" fill="#91040C"/>
<path d="M899.133 262.863C899.35 262.834 899.866 263.644 900.164 263.621C903.061 263.386 904.003 261.034 904.805 265.541C903.015 265.742 900.978 265.386 899.244 265.962C897.226 266.635 896.736 268.962 894.421 267.754C892.616 265.541 897.33 263.093 899.136 262.851L899.133 262.863Z" fill="#91040C"/>
</svg>
