<svg width="2880" height="73" viewBox="0 0 2880 73" fill="none" xmlns="http://www.w3.org/2000/svg">
<g clip-path="url(#clip0_2947_73856)">
<rect width="2880" height="73" transform="matrix(-1 0 0 -1 2880 73)" fill="#23140D"/>
<path d="M408.904 75.1839C408.37 75.3408 407.418 75.4041 407.805 76.0098H397.341C397.389 75.8705 397.405 75.7023 397.377 75.4945C377.558 70.2142 361.036 58.033 345.439 45.2756V28.3337C347.945 28.5765 349.401 25.6229 350.711 24.5725C363.739 14.125 377.801 4.58665 393.539 -1.19621C394.131 -2.07155 397.789 -2.31439 397.377 -3.5681C397.191 -4.13848 387.674 -6.89438 386.093 -7.53252C378.275 -10.6894 370.829 -14.4053 363.892 -19.2056C357.547 -23.5935 352.015 -29.207 345.439 -33.2166V-50.1585C346.777 -49.8818 347.161 -50.6894 347.985 -51.2767C361.713 -61.0861 373.618 -71.8556 390.609 -76.4017C417.653 -83.6359 442.067 -67.7104 462.101 -51.3671C479.673 -65.5418 501.575 -82.1902 525.634 -78.237C544.025 -75.2157 560.321 -63.1643 574.902 -52.3949C585.797 -60.0752 596.398 -68.0719 608.771 -73.3126C624.938 -80.1572 635.223 -81.0777 651.836 -74.6058C666.072 -69.0601 679.304 -59.3467 690.904 -49.5938C690.943 -44.483 690.949 -39.3609 690.904 -34.346C685.485 -30.3308 680.574 -25.5814 675.059 -21.6791C662.973 -13.1121 649.55 -5.75362 635.014 -2.43864C639.073 -0.772674 643.425 -0.0836994 647.58 1.37331C663.492 6.97546 678.513 17.6828 690.904 28.904C690.955 33.981 690.926 39.6114 690.904 44.7166C682.611 51.4425 674.714 58.2137 665.316 63.4487C655.155 69.113 646.484 71.4849 635.691 75.0653C635.25 75.21 634.657 75.0812 634.45 75.367L630.533 75.463C630.525 75.3856 630.515 75.3004 630.504 75.2065C609.454 72.2812 591.837 60.1338 575.371 47.6249C561.117 57.6715 547.378 67.5657 530.703 73.3429C528.603 74.0714 526.057 74.4046 524.031 75.1444C523.519 75.3295 522.642 75.4306 522.984 76.0098H514.129C513.913 75.5281 513.32 75.3507 512.837 75.1613C509.015 73.6591 503.946 72.8911 499.803 71.259C491.646 68.04 482.287 62.6186 475.079 57.5925C473.086 56.2032 462.795 47.6023 461.971 47.512C461.198 47.4273 460.441 47.7605 459.803 48.1727C447.526 59.1172 433.312 68.1247 417.546 73.0944C414.69 73.9923 411.636 74.3763 408.904 75.1839ZM633.998 -10.808C654.828 -12.3779 673.918 -29.3256 689.741 -41.473C689.989 -42.6532 680.02 -50.3336 678.429 -51.5309C667.771 -59.5105 649.764 -70.4212 636.414 -71.6184C612.113 -73.7926 593.874 -56.8055 575.371 -44.0707C574.021 -43.9408 566.226 -50.791 564.403 -52.0956C540.655 -69.1223 519.571 -79.7844 491.251 -64.3842C480.65 -58.6182 471.867 -50.1811 461.982 -43.3874C447.921 -54.5126 432.516 -67.4959 414.312 -70.8052C388.074 -75.5715 364.513 -57.6356 346.009 -41.377C345.851 -40.6654 348.425 -38.9034 349.119 -38.333C362.746 -27.1796 384.219 -12.3949 402.164 -11.2089C424.405 -9.74062 445.483 -27.1852 462.457 -39.3439C474.379 -30.9915 486.188 -20.7699 499.718 -15.0548C503.088 -13.6316 508.157 -11.6551 511.731 -11.2598C536.449 -8.51516 557.189 -25.4458 575.455 -39.4569C590.775 -27.5241 613.445 -9.26059 633.998 -10.808ZM523.246 -2.73794C523.912 -2.04897 532.312 -0.207934 533.96 0.385035C542.788 3.59272 552.153 8.68096 559.887 13.9782C562.201 15.5651 573.44 24.8719 574.891 24.917C576.217 24.9622 585.661 17.2141 587.755 15.7796C596.46 9.82172 605.441 4.54711 615.534 1.21519C617.018 0.723868 627.128 -1.28657 627.117 -1.89084C627.1 -2.98642 626.462 -2.96384 625.689 -3.28574C622.178 -4.72581 617.899 -5.52772 614.151 -6.99038C599.655 -12.649 587.705 -21.9671 574.896 -30.3872C561.1 -20.5948 547.937 -10.5369 531.454 -5.53901C529.088 -4.8218 525.685 -4.72578 523.946 -4.01422C523.297 -3.7488 522.597 -3.42125 523.252 -2.74357L523.246 -2.73794ZM456.309 21.8788C457.856 23.0365 460.526 25.9618 462.44 25.4309C474.096 15.6724 487.142 6.56885 501.502 1.21519C505.369 -0.224883 509.58 -0.902549 513.3 -2.22967C513.909 -2.44992 514.677 -2.36523 514.773 -3.28574C495.581 -7.41394 478.601 -18.0365 463.608 -30.3251L461.57 -30.8673C446.307 -18.3528 429.468 -7.76406 409.784 -3.85046C410.445 -2.91865 412.443 -2.16756 413.527 -1.67624C430.563 5.98154 441.091 10.4994 456.304 21.8844L456.309 21.8788Z" fill="#91040C"/>
<path d="M462.355 34.511C462.344 33.9721 462.581 33.5125 462.965 33.1494C473.678 23.142 497.875 7.25712 512.381 5.63459C536.195 2.9682 557.164 20.0331 574.972 33.3934C596.387 16.9128 619.761 -0.985991 648.372 8.9534C663.866 14.3372 677.497 26.1941 690.406 35.9293C690.406 36.6441 687.46 38.9644 686.715 39.5998C674.636 49.9023 652.374 65.9687 636.485 67.404C612.666 69.5541 592.905 52.0978 574.961 39.0382C561.138 49.5619 545.745 62.4286 528.519 66.6779C503.04 72.958 480.49 53.0339 461.519 39.0268C441.205 55.0138 418.492 73.8884 390.818 65.8609C373.867 60.948 359.818 48.1323 346.091 37.6086C345.86 36.6668 356.398 28.1457 357.99 26.8919C368.974 18.2744 383.367 8.58463 397.337 6.30402C422.319 2.22501 443.886 20.3111 462.355 34.5053V34.511ZM405.465 63.8469C419.993 63.2399 436.515 53.1871 447.866 44.6206C449.356 43.4973 458.099 36.9902 457.845 35.952C457.478 34.4486 435.555 19.7778 432.614 18.1723C425.44 14.2635 416.082 10.6951 407.886 10.1221C387.036 8.66406 367.28 23.5958 352.87 37.0639C366.688 49.1137 386.076 64.6582 405.459 63.8469H405.465ZM636.333 63.2796C654.75 61.3678 669.917 46.9409 684.18 36.4966C671.921 27.2153 657.008 14.6946 641.864 10.9617C623.559 6.45152 604.239 16.788 589.755 27.238C588.338 28.2592 578.816 35.2485 578.647 35.935C578.461 36.6781 579.121 36.9221 579.505 37.3362C582 40.031 589.766 45.1425 593.147 47.4515C605.875 56.1541 620.252 64.9419 636.338 63.274L636.333 63.2796ZM465.188 36.7689C471.324 40.8649 476.94 46.0559 483.177 50.186C510.22 68.1018 527.192 67.7558 554.105 49.8456C555.657 48.8131 572.511 36.5987 571.868 35.657C558.079 26.3814 543.488 13.7586 526.741 10.3717C503.469 5.66863 482.172 23.2384 465.188 36.7689Z" fill="#EFDBBF"/>
<path d="M465.378 36.6884C482.315 23.2285 503.552 5.74459 526.759 10.4288C543.46 13.798 558.01 26.355 571.761 35.5823C572.403 36.5191 555.596 48.6698 554.048 49.6969C527.21 67.5138 510.284 67.8637 483.316 50.0356C477.102 45.927 471.496 40.7631 465.378 36.6884Z" fill="#91040C"/>
<path d="M405.666 63.8679C386.259 64.6801 366.852 49.1187 353.027 37.0557C367.451 23.573 387.225 8.62496 408.096 10.0846C416.305 10.6582 425.667 14.2305 432.848 18.1435C435.791 19.7451 457.735 34.4319 458.102 35.9426C458.356 36.9819 449.605 43.4961 448.113 44.6206C436.746 53.1964 420.215 63.2602 405.672 63.8679H405.666Z" fill="#91040C"/>
<path d="M636.357 63.0305C620.294 64.6874 605.934 55.9575 593.23 47.3121C589.854 45.0183 582.099 39.9404 579.607 37.2634C579.224 36.852 578.565 36.6096 578.751 35.8713C578.92 35.1894 588.428 28.2517 589.843 27.2316C604.305 16.8447 623.603 6.58186 641.875 11.0624C656.997 14.7707 671.887 27.209 684.129 36.4293C669.886 46.7992 654.742 61.1368 636.352 63.0361L636.357 63.0305Z" fill="#91040C"/>
<path d="M634.05 52.0977C615.244 55.0064 611.942 28.7526 627.96 25.5963C648.355 21.5806 651.643 49.3747 634.05 52.0977Z" fill="#23140D"/>
<path d="M521.37 49.7833C502.565 52.692 499.263 26.4381 515.28 23.2819C535.676 19.2661 538.963 47.0602 521.37 49.7833Z" fill="#23140D"/>
<path d="M407.37 49.7833C388.565 52.692 385.263 26.4381 401.28 23.2819C421.676 19.2661 424.963 47.0602 407.37 49.7833Z" fill="#23140D"/>
<path d="M282.032 75.1839C282.566 75.3408 283.518 75.4041 283.13 76.0098H293.595C293.546 75.8705 293.53 75.7023 293.558 75.4945C313.378 70.2142 329.9 58.033 345.497 45.2756V28.3337C342.99 28.5765 341.534 25.6229 340.224 24.5725C327.196 14.125 313.135 4.58665 297.397 -1.19621C296.804 -2.07155 293.146 -2.31439 293.558 -3.5681C293.745 -4.13848 303.262 -6.89438 304.842 -7.53252C312.661 -10.6894 320.106 -14.4053 327.044 -19.2056C333.389 -23.5935 338.92 -29.207 345.497 -33.2166V-50.1585C344.159 -49.8818 343.775 -50.6894 342.951 -51.2767C329.223 -61.0861 317.318 -71.8556 300.327 -76.4017C273.282 -83.6359 248.868 -67.7104 228.835 -51.3671C211.262 -65.5418 189.36 -82.1902 165.302 -78.237C146.911 -75.2157 130.614 -63.1643 116.034 -52.3949C105.139 -60.0752 94.5379 -68.0719 82.1644 -73.3126C65.9975 -80.1572 55.7126 -81.0777 39.0998 -74.6058C24.8635 -69.0601 11.632 -59.3467 0.0317875 -49.5938C-0.00772647 -44.483 -0.0133713 -39.3609 0.0317875 -34.346C5.45085 -30.3308 10.3619 -25.5814 15.8769 -21.6791C27.9625 -13.1121 41.386 -5.75362 55.9215 -2.43864C51.8628 -0.772674 47.5106 -0.0836994 43.356 1.37331C27.4432 6.97546 12.4222 17.6828 0.0317875 28.904C-0.0190162 33.981 0.00920809 39.6114 0.0317875 44.7166C8.32407 51.4425 16.2212 58.2137 25.6199 63.4487C35.7806 69.113 44.4511 71.4849 55.2441 75.0653C55.6858 75.21 56.279 75.0812 56.486 75.367L60.4023 75.463C60.4105 75.3856 60.4204 75.3004 60.4317 75.2065C81.4814 72.2812 99.0989 60.1338 115.565 47.6249C129.818 57.6715 143.558 67.5657 160.233 73.3429C162.333 74.0714 164.878 74.4046 166.905 75.1444C167.416 75.3295 168.293 75.4306 167.951 76.0098H176.806C177.022 75.5281 177.616 75.3507 178.099 75.1613C181.92 73.6591 186.989 72.8911 191.133 71.259C199.289 68.04 208.649 62.6186 215.857 57.5925C217.85 56.2032 228.14 47.6023 228.964 47.512C229.738 47.4273 230.494 47.7605 231.132 48.1727C243.41 59.1172 257.623 68.1247 273.389 73.0944C276.246 73.9923 279.3 74.3763 282.032 75.1839ZM56.9375 -10.808C36.108 -12.3779 17.0171 -29.3256 1.19463 -41.473C0.946252 -42.6532 10.9151 -50.3336 12.5069 -51.5309C23.1644 -59.5105 41.1715 -70.4212 54.5216 -71.6184C78.8226 -73.7926 97.0611 -56.8055 115.565 -44.0707C116.914 -43.9408 124.71 -50.791 126.533 -52.0956C150.281 -69.1223 171.364 -79.7844 199.685 -64.3842C210.286 -58.6182 219.069 -50.1811 228.953 -43.3874C243.014 -54.5126 258.419 -67.4959 276.624 -70.8052C302.861 -75.5715 326.423 -57.6356 344.927 -41.377C345.085 -40.6654 342.511 -38.9034 341.816 -38.333C328.19 -27.1796 306.717 -12.3949 288.772 -11.2089C266.531 -9.74062 245.453 -27.1852 228.479 -39.3439C216.557 -30.9915 204.748 -20.7699 191.217 -15.0548C187.847 -13.6316 182.778 -11.6551 179.205 -11.2598C154.486 -8.51516 133.747 -25.4458 115.48 -39.4569C100.16 -27.5241 77.4904 -9.26059 56.9375 -10.808ZM167.69 -2.73794C167.023 -2.04897 158.624 -0.207934 156.976 0.385035C148.147 3.59272 138.782 8.68096 131.049 13.9782C128.734 15.5651 117.496 24.8719 116.045 24.917C114.718 24.9622 105.274 17.2141 103.18 15.7796C94.4758 9.82172 85.4949 4.54711 75.4019 1.21519C73.9173 0.723868 63.8073 -1.28657 63.8186 -1.89084C63.8355 -2.98642 64.4734 -2.96384 65.2468 -3.28574C68.7579 -4.72581 73.0367 -5.52772 76.7849 -6.99038C91.2808 -12.649 103.231 -21.9671 116.039 -30.3872C129.835 -20.5948 142.999 -10.5369 159.482 -5.53901C161.847 -4.8218 165.251 -4.72578 166.99 -4.01422C167.639 -3.7488 168.339 -3.42125 167.684 -2.74357L167.69 -2.73794ZM234.626 21.8788C233.079 23.0365 230.409 25.9618 228.496 25.4309C216.839 15.6724 203.794 6.56885 189.434 1.21519C185.567 -0.224883 181.356 -0.902549 177.636 -2.22967C177.026 -2.44992 176.258 -2.36523 176.162 -3.28574C195.355 -7.41394 212.335 -18.0365 227.327 -30.3251L229.365 -30.8673C244.629 -18.3528 261.467 -7.76406 281.151 -3.85046C280.491 -2.91865 278.492 -2.16756 277.409 -1.67624C260.372 5.98154 249.845 10.4994 234.632 21.8844L234.626 21.8788Z" fill="#91040C"/>
<path d="M228.579 34.511C228.59 33.9721 228.353 33.5125 227.969 33.1494C217.256 23.142 193.058 7.25712 178.552 5.63459C154.738 2.9682 133.769 20.0331 115.961 33.3934C94.5464 16.9128 71.1729 -0.985991 42.5613 8.9534C27.0674 14.3372 13.4361 26.1941 0.527344 35.9293C0.527344 36.6441 3.47375 38.9644 4.21881 39.5998C16.2979 49.9023 38.5594 65.9687 54.4485 67.404C78.2679 69.5541 98.029 52.0978 115.973 39.0382C129.796 49.5619 145.188 62.4286 162.415 66.6779C187.894 72.958 210.443 53.0339 229.414 39.0268C249.728 55.0138 272.441 73.8884 300.116 65.8609C317.066 60.948 331.115 48.1323 344.842 37.6086C345.074 36.6668 334.536 28.1457 332.944 26.8919C321.96 18.2744 307.567 8.58463 293.597 6.30402C268.615 2.22501 247.047 20.3111 228.579 34.5053V34.511ZM285.469 63.8469C270.94 63.2399 254.419 53.1871 243.068 44.6206C241.578 43.4973 232.835 36.9902 233.089 35.952C233.456 34.4486 255.378 19.7778 258.319 18.1723C265.493 14.2635 274.852 10.6951 283.047 10.1221C303.898 8.66406 323.653 23.5958 338.063 37.0639C324.246 49.1137 304.857 64.6582 285.474 63.8469H285.469ZM54.6008 63.2796C36.1831 61.3678 21.0166 46.9409 6.75315 36.4966C19.0128 27.2153 33.9254 14.6946 49.0693 10.9617C67.3742 6.45152 86.695 16.788 101.179 27.238C102.595 28.2592 112.117 35.2485 112.287 35.935C112.473 36.6781 111.813 36.9221 111.429 37.3362C108.934 40.031 101.167 45.1425 97.7863 47.4515C85.0581 56.1541 70.6818 64.9419 54.5952 63.274L54.6008 63.2796ZM225.745 36.7689C219.61 40.8649 213.994 46.0559 207.756 50.186C180.714 68.1018 163.741 67.7558 136.829 49.8456C135.276 48.8131 118.422 36.5987 119.066 35.657C132.855 26.3814 147.446 13.7586 164.193 10.3717C187.465 5.66863 208.761 23.2384 225.745 36.7689Z" fill="#EFDBBF"/>
<path d="M225.558 36.6884C208.621 23.2285 187.384 5.74459 164.176 10.4288C147.476 13.798 132.925 26.355 119.174 35.5823C118.532 36.5191 135.34 48.6698 136.888 49.6969C163.726 67.5138 180.652 67.8637 207.619 50.0356C213.833 45.927 219.44 40.7631 225.558 36.6884Z" fill="#91040C"/>
<path d="M285.267 63.8679C304.674 64.6801 324.081 49.1187 337.906 37.0557C323.482 23.573 303.708 8.62496 282.838 10.0846C274.629 10.6582 265.267 14.2305 258.086 18.1435C255.143 19.7451 233.199 34.4319 232.832 35.9426C232.577 36.9819 241.329 43.4961 242.82 44.6206C254.188 53.1964 270.719 63.2602 285.262 63.8679H285.267Z" fill="#91040C"/>
<path d="M54.5782 63.0305C70.6411 64.6874 85.0019 55.9575 97.7056 47.3121C101.082 45.0183 108.837 39.9404 111.328 37.2634C111.711 36.852 112.371 36.6096 112.185 35.8713C112.016 35.1894 102.508 28.2517 101.093 27.2316C86.6307 16.8447 67.3327 6.58186 49.0605 11.0624C33.9388 14.7707 19.0482 27.209 6.80664 36.4293C21.0491 46.7992 36.1932 61.1368 54.5838 63.0361L54.5782 63.0305Z" fill="#91040C"/>
<path d="M56.8838 52.0977C75.6894 55.0064 78.9913 28.7526 62.974 25.5963C42.5781 21.5806 39.2905 49.3747 56.8838 52.0977Z" fill="#23140D"/>
<path d="M169.563 49.7833C188.369 52.692 191.671 26.4381 175.654 23.2819C155.258 19.2661 151.97 47.0602 169.563 49.7833Z" fill="#23140D"/>
<path d="M283.563 49.7833C302.369 52.692 305.671 26.4381 289.654 23.2819C269.258 19.2661 265.97 47.0602 283.563 49.7833Z" fill="#23140D"/>
<path d="M973.025 75.0218C973.56 75.1787 974.511 75.242 974.124 75.8477H984.589C984.54 75.7084 984.524 75.5402 984.552 75.3324C1004.37 70.0521 1020.89 57.8708 1036.49 45.1135V28.1716C1033.98 28.4144 1032.53 25.4608 1031.22 24.4104C1018.19 13.9629 1004.13 4.42454 988.391 -1.35832C987.798 -2.23366 984.14 -2.4765 984.552 -3.73021C984.738 -4.30059 994.256 -7.05648 995.836 -7.69463C1003.65 -10.8515 1011.1 -14.5674 1018.04 -19.3677C1024.38 -23.7556 1029.91 -29.3691 1036.49 -33.3787V-50.3207C1035.15 -50.0439 1034.77 -50.8515 1033.94 -51.4388C1020.22 -61.2482 1008.31 -72.0177 991.32 -76.5638C964.276 -83.798 939.862 -67.8725 919.828 -51.5292C902.256 -65.704 880.354 -82.3523 856.295 -78.3992C837.904 -75.3778 821.608 -63.3264 807.027 -52.557C796.133 -60.2374 785.532 -68.234 773.158 -73.4747C756.991 -80.3193 746.706 -81.2398 730.094 -74.7679C715.857 -69.2223 702.626 -59.5089 691.025 -49.7559C690.986 -44.6451 690.98 -39.523 691.025 -34.5082C696.445 -30.4929 701.356 -25.7435 706.871 -21.8412C718.956 -13.2742 732.38 -5.91573 746.915 -2.60074C742.857 -0.934783 738.504 -0.245809 734.35 1.2112C718.437 6.81335 702.884 18.2863 690.494 29.5076C690.443 34.5845 690.47 39.9247 690.492 45.0299C698.785 51.7559 707.215 58.0516 716.614 63.2866C726.774 68.9509 735.445 71.3228 746.238 74.9032C746.679 75.0479 747.273 74.9191 747.48 75.2049L751.396 75.3009C751.404 75.2235 751.414 75.1383 751.425 75.0444C772.475 72.1191 790.093 59.9717 806.559 47.4628C820.812 57.5094 834.551 67.4035 851.226 73.1808C853.326 73.9093 855.872 74.2424 857.899 74.9822C858.41 75.1674 859.287 75.2685 858.945 75.8477H867.8C868.016 75.366 868.61 75.1886 869.092 74.9992C872.914 73.497 877.983 72.729 882.126 71.0969C890.283 67.8779 899.642 62.4565 906.851 57.4304C908.843 56.0411 919.134 47.4402 919.958 47.3499C920.731 47.2652 921.488 47.5984 922.126 48.0106C934.403 58.9551 948.617 67.9626 964.383 72.9323C967.239 73.8302 970.293 74.2142 973.025 75.0218ZM747.931 -10.9701C727.102 -12.54 708.011 -29.4877 692.188 -41.6351C691.94 -42.8154 701.909 -50.4957 703.501 -51.693C714.158 -59.6726 732.165 -70.5833 745.515 -71.7805C769.816 -73.9547 788.055 -56.9676 806.559 -44.2328C807.908 -44.103 815.703 -50.9531 817.527 -52.2577C841.274 -69.2844 862.358 -79.9465 890.678 -64.5463C901.279 -58.7804 910.063 -50.3432 919.947 -43.5495C934.008 -54.6747 949.413 -67.658 967.618 -70.9673C993.855 -75.7336 1017.42 -57.7977 1035.92 -41.5391C1036.08 -40.8275 1033.5 -39.0655 1032.81 -38.4951C1019.18 -27.3417 997.71 -12.557 979.765 -11.371C957.525 -9.90273 936.447 -27.3473 919.473 -39.506C907.551 -31.1536 895.742 -20.932 882.211 -15.2169C878.841 -13.7937 873.772 -11.8172 870.199 -11.4219C845.48 -8.67727 824.741 -25.608 806.474 -39.619C791.154 -27.6862 768.484 -9.4227 747.931 -10.9701ZM858.683 -2.90005C858.017 -2.21108 849.618 -0.370043 847.969 0.222926C839.141 3.43061 829.776 8.51885 822.042 13.816C819.728 15.4029 808.489 24.7098 807.038 24.7549C805.712 24.8001 796.268 17.052 794.174 15.6175C785.469 9.65961 776.489 4.385 766.396 1.05308C764.911 0.561759 754.801 -1.44868 754.812 -2.05294C754.829 -3.14853 755.467 -3.12595 756.24 -3.44785C759.752 -4.88792 764.03 -5.68983 767.779 -7.15249C782.274 -12.8111 794.225 -22.1292 807.033 -30.5494C820.829 -20.7569 833.993 -10.699 850.476 -5.70112C852.841 -4.98391 856.245 -4.88789 857.983 -4.17633C858.632 -3.9109 859.332 -3.58336 858.678 -2.90568L858.683 -2.90005ZM925.62 21.7166C924.073 22.8743 921.403 25.7997 919.49 25.2688C907.833 15.5102 894.788 6.40674 880.427 1.05308C876.56 -0.386992 872.349 -1.06466 868.629 -2.39178C868.02 -2.61203 867.252 -2.52733 867.156 -3.44785C886.349 -7.57605 903.328 -18.1986 918.321 -30.4872L920.359 -31.0294C935.623 -18.5149 952.461 -7.92617 972.145 -4.01257C971.484 -3.08076 969.486 -2.32967 968.402 -1.83835C951.366 5.81943 940.838 10.3373 925.625 21.7223L925.62 21.7166Z" fill="#91040C"/>
<path d="M919.573 34.3489C919.584 33.8099 919.347 33.3504 918.963 32.9873C908.25 22.9799 884.053 7.09501 869.546 5.47248C845.733 2.80609 824.764 19.871 806.955 33.2313C785.541 16.7507 762.167 -1.1481 733.555 8.79129C718.062 14.1751 704.43 26.032 691.521 35.7672C691.521 36.482 694.468 38.8023 695.213 39.4377C707.292 49.7402 729.554 65.8066 745.443 67.2419C769.262 69.392 789.023 51.9357 806.967 38.8761C820.79 49.3998 836.182 62.2665 853.409 66.5157C878.888 72.7959 901.437 52.8718 920.408 38.8647C940.722 54.8517 963.436 73.7263 991.11 65.6988C1008.06 60.7858 1022.11 47.9702 1035.84 37.4464C1036.07 36.5047 1025.53 27.9836 1023.94 26.7298C1012.95 18.1123 998.561 8.42252 984.591 6.14191C959.609 2.0629 938.041 20.149 919.573 34.3432V34.3489ZM976.463 63.6848C961.934 63.0778 945.413 53.025 934.062 44.4585C932.572 43.3352 923.829 36.8281 924.083 35.7899C924.45 34.2865 946.373 19.6157 949.313 18.0102C956.487 14.1014 965.846 10.5329 974.041 9.95996C994.892 8.50195 1014.65 23.4337 1029.06 36.9018C1015.24 48.9516 995.851 64.4961 976.469 63.6848H976.463ZM745.595 63.1175C727.177 61.2057 712.011 46.7788 697.747 36.3345C710.007 27.0532 724.919 14.5325 740.063 10.7996C758.368 6.28941 777.689 16.6259 792.173 27.0759C793.589 28.0971 803.112 35.0864 803.281 35.7729C803.467 36.516 802.807 36.76 802.423 37.1741C799.928 39.8689 792.161 44.9804 788.78 47.2894C776.052 55.992 761.676 64.7798 745.589 63.1118L745.595 63.1175ZM916.739 36.6068C910.604 40.7028 904.988 45.8938 898.751 50.0239C871.708 67.9397 854.735 67.5936 827.823 49.6835C826.271 48.6509 809.416 36.4366 810.06 35.4949C823.849 26.2192 838.44 13.5965 855.187 10.2096C878.459 5.50652 899.755 23.0763 916.739 36.6068Z" fill="#EFDBBF"/>
<path d="M916.55 36.5263C899.613 23.0663 878.376 5.58248 855.168 10.2667C838.468 13.6359 823.917 26.1929 810.166 35.4202C809.525 36.357 826.332 48.5077 827.88 49.5348C854.718 67.3517 871.644 67.7016 898.611 49.8735C904.825 45.7649 910.432 40.601 916.55 36.5263Z" fill="#91040C"/>
<path d="M976.261 63.7058C995.668 64.518 1015.08 48.9566 1028.9 36.8936C1014.48 23.4109 994.702 8.46285 973.832 9.92244C965.623 10.4961 956.261 14.0684 949.08 17.9814C946.137 19.583 924.193 34.2698 923.826 35.7805C923.572 36.8198 932.323 43.334 933.815 44.4585C945.182 53.0343 961.713 63.0981 976.256 63.7058H976.261Z" fill="#91040C"/>
<path d="M745.572 62.8684C761.635 64.5253 775.996 55.7954 788.7 47.15C792.076 44.8562 799.831 39.7783 802.322 37.1013C802.705 36.6899 803.365 36.4475 803.179 35.7092C803.01 35.0273 793.502 28.0896 792.087 27.0695C777.625 16.6826 758.327 6.41975 740.055 10.9002C724.933 14.6086 710.042 27.0469 697.801 36.2672C712.043 46.6371 727.187 60.9747 745.578 62.874L745.572 62.8684Z" fill="#91040C"/>
<path d="M747.878 51.9356C766.684 54.8443 769.985 28.5905 753.968 25.4342C733.572 21.4184 730.285 49.2126 747.878 51.9356Z" fill="#23140D"/>
<path d="M860.558 49.6192C879.363 52.5279 882.665 26.2741 866.648 23.1178C846.252 19.102 842.964 46.8962 860.558 49.6192Z" fill="#23140D"/>
<path d="M974.558 49.6192C993.363 52.5279 996.665 26.2741 980.648 23.1178C960.252 19.102 956.964 46.8962 974.558 49.6192Z" fill="#23140D"/>
<path d="M1099.96 75.0218C1099.42 75.1787 1098.47 75.242 1098.86 75.8477H1088.39C1088.44 75.7084 1088.46 75.5402 1088.43 75.3324C1068.61 70.0521 1052.09 57.8708 1036.49 45.1135V28.1716C1039 28.4144 1040.45 25.4608 1041.76 24.4104C1054.79 13.9629 1068.85 4.42454 1084.59 -1.35832C1085.18 -2.23366 1088.84 -2.4765 1088.43 -3.73021C1088.24 -4.30059 1078.72 -7.05648 1077.14 -7.69463C1069.33 -10.8515 1061.88 -14.5674 1054.94 -19.3677C1048.6 -23.7556 1043.07 -29.3691 1036.49 -33.3787V-50.3207C1037.83 -50.0439 1038.21 -50.8515 1039.04 -51.4388C1052.76 -61.2482 1064.67 -72.0177 1081.66 -76.5638C1108.7 -83.798 1133.12 -67.8725 1153.15 -51.5292C1170.72 -65.704 1192.63 -82.3523 1216.69 -78.3992C1235.08 -75.3778 1251.37 -63.3264 1265.95 -52.557C1276.85 -60.2374 1287.45 -68.234 1299.82 -73.4747C1315.99 -80.3193 1326.27 -81.2398 1342.89 -74.7679C1357.12 -69.2223 1370.35 -59.5089 1381.96 -49.7559C1381.99 -44.6451 1382 -39.523 1381.96 -34.5082C1376.54 -30.4929 1371.62 -25.7435 1366.11 -21.8412C1354.02 -13.2742 1340.6 -5.91573 1326.07 -2.60074C1330.12 -0.934783 1334.48 -0.245809 1338.63 1.2112C1354.54 6.81335 1370.1 18.2863 1382.49 29.5076C1382.54 34.5845 1382.51 39.9247 1382.49 45.0299C1374.2 51.7559 1365.77 58.0516 1356.37 63.2866C1346.21 68.9509 1337.54 71.3228 1326.74 74.9032C1326.3 75.0479 1325.71 74.9191 1325.5 75.2049L1321.58 75.3009C1321.58 75.2235 1321.57 75.1383 1321.56 75.0444C1300.51 72.1191 1282.89 59.9717 1266.42 47.4628C1252.17 57.5094 1238.43 67.4035 1221.75 73.1808C1219.65 73.9093 1217.11 74.2424 1215.08 74.9822C1214.57 75.1674 1213.69 75.2685 1214.04 75.8477H1205.18C1204.96 75.366 1204.37 75.1886 1203.89 74.9992C1200.07 73.497 1195 72.729 1190.85 71.0969C1182.7 67.8779 1173.34 62.4565 1166.13 57.4304C1164.14 56.0411 1153.85 47.4402 1153.02 47.3499C1152.25 47.2652 1151.49 47.5984 1150.85 48.0106C1138.58 58.9551 1124.36 67.9626 1108.6 72.9323C1105.74 73.8302 1102.69 74.2142 1099.96 75.0218ZM1325.05 -10.9701C1345.88 -12.54 1364.97 -29.4877 1380.79 -41.6351C1381.04 -42.8154 1371.07 -50.4957 1369.48 -51.693C1358.82 -59.6726 1340.82 -70.5833 1327.47 -71.7805C1303.16 -73.9547 1284.93 -56.9676 1266.42 -44.2328C1265.07 -44.103 1257.28 -50.9531 1255.45 -52.2577C1231.71 -69.2844 1210.62 -79.9465 1182.3 -64.5463C1171.7 -58.7804 1162.92 -50.3432 1153.03 -43.5495C1138.97 -54.6747 1123.57 -67.658 1105.36 -70.9673C1079.13 -75.7336 1055.56 -57.7977 1037.06 -41.5391C1036.9 -40.8275 1039.48 -39.0655 1040.17 -38.4951C1053.8 -27.3417 1075.27 -12.557 1093.22 -11.371C1115.46 -9.90273 1136.53 -27.3473 1153.51 -39.506C1165.43 -31.1536 1177.24 -20.932 1190.77 -15.2169C1194.14 -13.7937 1199.21 -11.8172 1202.78 -11.4219C1227.5 -8.67727 1248.24 -25.608 1266.51 -39.619C1281.83 -27.6862 1304.5 -9.4227 1325.05 -10.9701ZM1214.3 -2.90005C1214.96 -2.21108 1223.36 -0.370043 1225.01 0.222926C1233.84 3.43061 1243.2 8.51885 1250.94 13.816C1253.25 15.4029 1264.49 24.7098 1265.94 24.7549C1267.27 24.8001 1276.71 17.052 1278.81 15.6175C1287.51 9.65961 1296.49 4.385 1306.58 1.05308C1308.07 0.561759 1318.18 -1.44868 1318.17 -2.05294C1318.15 -3.14853 1317.51 -3.12595 1316.74 -3.44785C1313.23 -4.88792 1308.95 -5.68983 1305.2 -7.15249C1290.71 -12.8111 1278.76 -22.1292 1265.95 -30.5494C1252.15 -20.7569 1238.99 -10.699 1222.5 -5.70112C1220.14 -4.98391 1216.74 -4.88789 1215 -4.17633C1214.35 -3.9109 1213.65 -3.58336 1214.3 -2.90568L1214.3 -2.90005ZM1147.36 21.7166C1148.91 22.8743 1151.58 25.7997 1153.49 25.2688C1165.15 15.5102 1178.19 6.40674 1192.55 1.05308C1196.42 -0.386992 1200.63 -1.06466 1204.35 -2.39178C1204.96 -2.61203 1205.73 -2.52733 1205.82 -3.44785C1186.63 -7.57605 1169.65 -18.1986 1154.66 -30.4872L1152.62 -31.0294C1137.36 -18.5149 1120.52 -7.92617 1100.84 -4.01257C1101.5 -3.08076 1103.49 -2.32967 1104.58 -1.83835C1121.61 5.81943 1132.14 10.3373 1147.35 21.7223L1147.36 21.7166Z" fill="#91040C"/>
<path d="M1153.41 34.3489C1153.4 33.8099 1153.63 33.3504 1154.02 32.9873C1164.73 22.9799 1188.93 7.09501 1203.43 5.47248C1227.25 2.80609 1248.22 19.871 1266.03 33.2313C1287.44 16.7507 1310.81 -1.1481 1339.42 8.79129C1354.92 14.1751 1368.55 26.032 1381.46 35.7672C1381.46 36.482 1378.51 38.8023 1377.77 39.4377C1365.69 49.7402 1343.43 65.8066 1327.54 67.2419C1303.72 69.392 1283.96 51.9357 1266.01 38.8761C1252.19 49.3998 1236.8 62.2665 1219.57 66.5157C1194.09 72.7959 1171.54 52.8718 1152.57 38.8647C1132.26 54.8517 1109.54 73.7263 1081.87 65.6988C1064.92 60.7858 1050.87 47.9702 1037.14 37.4464C1036.91 36.5047 1047.45 27.9836 1049.04 26.7298C1060.03 18.1123 1074.42 8.42252 1088.39 6.14191C1113.37 2.0629 1134.94 20.149 1153.41 34.3432V34.3489ZM1096.52 63.6848C1111.05 63.0778 1127.57 53.025 1138.92 44.4585C1140.41 43.3352 1149.15 36.8281 1148.9 35.7899C1148.53 34.2865 1126.61 19.6157 1123.67 18.0102C1116.49 14.1014 1107.13 10.5329 1098.94 9.95996C1078.09 8.50195 1058.33 23.4337 1043.92 36.9018C1057.74 48.9516 1077.13 64.4961 1096.51 63.6848H1096.52ZM1327.39 63.1175C1345.8 61.2057 1360.97 46.7788 1375.23 36.3345C1362.97 27.0532 1348.06 14.5325 1332.92 10.7996C1314.61 6.28941 1295.29 16.6259 1280.81 27.0759C1279.39 28.0971 1269.87 35.0864 1269.7 35.7729C1269.51 36.516 1270.17 36.76 1270.56 37.1741C1273.05 39.8689 1280.82 44.9804 1284.2 47.2894C1296.93 55.992 1311.3 64.7798 1327.39 63.1118L1327.39 63.1175ZM1156.24 36.6068C1162.38 40.7028 1167.99 45.8938 1174.23 50.0239C1201.27 67.9397 1218.25 67.5936 1245.16 49.6835C1246.71 48.6509 1263.56 36.4366 1262.92 35.4949C1249.13 26.2192 1234.54 13.5965 1217.79 10.2096C1194.52 5.50652 1173.23 23.0763 1156.24 36.6068Z" fill="#EFDBBF"/>
<path d="M1156.43 36.5263C1173.37 23.0663 1194.6 5.58248 1217.81 10.2667C1234.51 13.6359 1249.06 26.1929 1262.81 35.4202C1263.46 36.357 1246.65 48.5077 1245.1 49.5348C1218.26 67.3517 1201.34 67.7016 1174.37 49.8735C1168.15 45.7649 1162.55 40.601 1156.43 36.5263Z" fill="#91040C"/>
<path d="M1096.72 63.7058C1077.31 64.518 1057.91 48.9566 1044.08 36.8936C1058.5 23.4109 1078.28 8.46285 1099.15 9.92244C1107.36 10.4961 1116.72 14.0684 1123.9 17.9814C1126.84 19.583 1148.79 34.2698 1149.15 35.7805C1149.41 36.8198 1140.66 43.334 1139.17 44.4585C1127.8 53.0343 1111.27 63.0981 1096.72 63.7058H1096.72Z" fill="#91040C"/>
<path d="M1327.41 62.8684C1311.35 64.5253 1296.98 55.7954 1284.28 47.15C1280.9 44.8562 1273.15 39.7783 1270.66 37.1013C1270.28 36.6899 1269.62 36.4475 1269.8 35.7092C1269.97 35.0273 1279.48 28.0896 1280.89 27.0695C1295.36 16.6826 1314.65 6.41975 1332.93 10.9002C1348.05 14.6086 1362.94 27.0469 1375.18 36.2672C1360.94 46.6371 1345.79 60.9747 1327.4 62.874L1327.41 62.8684Z" fill="#91040C"/>
<path d="M1325.1 51.9356C1306.3 54.8443 1303 28.5905 1319.01 25.4342C1339.41 21.4184 1342.7 49.2126 1325.1 51.9356Z" fill="#23140D"/>
<path d="M1212.42 49.6192C1193.62 52.5279 1190.32 26.2741 1206.33 23.1178C1226.73 19.102 1230.02 46.8962 1212.42 49.6192Z" fill="#23140D"/>
<path d="M1098.42 49.6192C1079.62 52.5279 1076.32 26.2741 1092.33 23.1178C1112.73 19.102 1116.02 46.8962 1098.42 49.6192Z" fill="#23140D"/>
<path d="M1664.55 75.0218C1665.08 75.1787 1666.03 75.242 1665.65 75.8477H1676.11C1676.06 75.7084 1676.05 75.5402 1676.07 75.3324C1695.89 70.0521 1712.42 57.8708 1728.01 45.1135V28.1716C1725.51 28.4144 1724.05 25.4608 1722.74 24.4104C1709.71 13.9629 1695.65 4.42454 1679.91 -1.35832C1679.32 -2.23366 1675.66 -2.4765 1676.07 -3.73021C1676.26 -4.30059 1685.78 -7.05648 1687.36 -7.69463C1695.18 -10.8515 1702.62 -14.5674 1709.56 -19.3677C1715.9 -23.7556 1721.44 -29.3691 1728.01 -33.3787V-50.3207C1726.67 -50.0439 1726.29 -50.8515 1725.47 -51.4388C1711.74 -61.2482 1699.83 -72.0177 1682.84 -76.5638C1655.8 -83.798 1631.38 -67.8725 1611.35 -51.5292C1593.78 -65.704 1571.88 -82.3523 1547.82 -78.3992C1529.43 -75.3778 1513.13 -63.3264 1498.55 -52.557C1487.65 -60.2374 1477.05 -68.234 1464.68 -73.4747C1448.51 -80.3193 1438.23 -81.2398 1421.61 -74.7679C1407.38 -69.2223 1394.15 -59.5089 1382.55 -49.7559C1382.51 -44.6451 1382.5 -39.523 1382.55 -34.5082C1387.97 -30.4929 1392.88 -25.7435 1398.39 -21.8412C1410.48 -13.2742 1423.9 -5.91573 1438.44 -2.60074C1434.38 -0.934783 1430.03 -0.245809 1425.87 1.2112C1409.96 6.81335 1394.41 18.2863 1382.02 29.5076C1381.96 34.5845 1381.99 39.9247 1382.01 45.0299C1390.31 51.7559 1398.74 58.0516 1408.14 63.2866C1418.3 68.9509 1426.97 71.3228 1437.76 74.9032C1438.2 75.0479 1438.79 74.9191 1439 75.2049L1442.92 75.3009C1442.93 75.2235 1442.94 75.1383 1442.95 75.0444C1464 72.1191 1481.61 59.9717 1498.08 47.4628C1512.33 57.5094 1526.07 67.4035 1542.75 73.1808C1544.85 73.9093 1547.39 74.2424 1549.42 74.9822C1549.93 75.1674 1550.81 75.2685 1550.47 75.8477H1559.32C1559.54 75.366 1560.13 75.1886 1560.61 74.9992C1564.44 73.497 1569.5 72.729 1573.65 71.0969C1581.8 67.8779 1591.16 62.4565 1598.37 57.4304C1600.36 56.0411 1610.66 47.4402 1611.48 47.3499C1612.25 47.2652 1613.01 47.5984 1613.65 48.0106C1625.92 58.9551 1640.14 67.9626 1655.9 72.9323C1658.76 73.8302 1661.81 74.2142 1664.55 75.0218ZM1439.45 -10.9701C1418.62 -12.54 1399.53 -29.4877 1383.71 -41.6351C1383.46 -42.8154 1393.43 -50.4957 1395.02 -51.693C1405.68 -59.6726 1423.69 -70.5833 1437.04 -71.7805C1461.34 -73.9547 1479.58 -56.9676 1498.08 -44.2328C1499.43 -44.103 1507.22 -50.9531 1509.05 -52.2577C1532.8 -69.2844 1553.88 -79.9465 1582.2 -64.5463C1592.8 -58.7804 1601.58 -50.3432 1611.47 -43.5495C1625.53 -54.6747 1640.93 -67.658 1659.14 -70.9673C1685.38 -75.7336 1708.94 -57.7977 1727.44 -41.5391C1727.6 -40.8275 1725.03 -39.0655 1724.33 -38.4951C1710.7 -27.3417 1689.23 -12.557 1671.29 -11.371C1649.05 -9.90273 1627.97 -27.3473 1610.99 -39.506C1599.07 -31.1536 1587.26 -20.932 1573.73 -15.2169C1570.36 -13.7937 1565.29 -11.8172 1561.72 -11.4219C1537 -8.67727 1516.26 -25.608 1498 -39.619C1482.68 -27.6862 1460.01 -9.4227 1439.45 -10.9701ZM1550.2 -2.90005C1549.54 -2.21108 1541.14 -0.370043 1539.49 0.222926C1530.66 3.43061 1521.3 8.51885 1513.56 13.816C1511.25 15.4029 1500.01 24.7098 1498.56 24.7549C1497.23 24.8001 1487.79 17.052 1485.7 15.6175C1476.99 9.65961 1468.01 4.385 1457.92 1.05308C1456.43 0.561759 1446.32 -1.44868 1446.33 -2.05294C1446.35 -3.14853 1446.99 -3.12595 1447.76 -3.44785C1451.27 -4.88792 1455.55 -5.68983 1459.3 -7.15249C1473.8 -12.8111 1485.75 -22.1292 1498.55 -30.5494C1512.35 -20.7569 1525.51 -10.699 1542 -5.70112C1544.36 -4.98391 1547.77 -4.88789 1549.5 -4.17633C1550.15 -3.9109 1550.85 -3.58336 1550.2 -2.90568L1550.2 -2.90005ZM1617.14 21.7166C1615.59 22.8743 1612.92 25.7997 1611.01 25.2688C1599.35 15.5102 1586.31 6.40674 1571.95 1.05308C1568.08 -0.386992 1563.87 -1.06466 1560.15 -2.39178C1559.54 -2.61203 1558.77 -2.52733 1558.68 -3.44785C1577.87 -7.57605 1594.85 -18.1986 1609.84 -30.4872L1611.88 -31.0294C1627.14 -18.5149 1643.98 -7.92617 1663.67 -4.01257C1663.01 -3.08076 1661.01 -2.32967 1659.92 -1.83835C1642.89 5.81943 1632.36 10.3373 1617.15 21.7223L1617.14 21.7166Z" fill="#91040C"/>
<path d="M1611.09 34.3489C1611.11 33.8099 1610.87 33.3504 1610.48 32.9873C1599.77 22.9799 1575.57 7.09501 1561.07 5.47248C1537.25 2.80609 1516.29 19.871 1498.48 33.2313C1477.06 16.7507 1453.69 -1.1481 1425.08 8.79129C1409.58 14.1751 1395.95 26.032 1383.04 35.7672C1383.04 36.482 1385.99 38.8023 1386.73 39.4377C1398.81 49.7402 1421.08 65.8066 1436.96 67.2419C1460.78 69.392 1480.54 51.9357 1498.49 38.8761C1512.31 49.3998 1527.7 62.2665 1544.93 66.5157C1570.41 72.7959 1592.96 52.8718 1611.93 38.8647C1632.24 54.8517 1654.96 73.7263 1682.63 65.6988C1699.58 60.7858 1713.63 47.9702 1727.36 37.4464C1727.59 36.5047 1717.05 27.9836 1715.46 26.7298C1704.48 18.1123 1690.08 8.42252 1676.11 6.14191C1651.13 2.0629 1629.56 20.149 1611.09 34.3432V34.3489ZM1667.98 63.6848C1653.46 63.0778 1636.93 53.025 1625.58 44.4585C1624.09 43.3352 1615.35 36.8281 1615.6 35.7899C1615.97 34.2865 1637.89 19.6157 1640.83 18.0102C1648.01 14.1014 1657.37 10.5329 1665.56 9.95996C1686.41 8.50195 1706.17 23.4337 1720.58 36.9018C1706.76 48.9516 1687.37 64.4961 1667.99 63.6848H1667.98ZM1437.12 63.1175C1418.7 61.2057 1403.53 46.7788 1389.27 36.3345C1401.53 27.0532 1416.44 14.5325 1431.58 10.7996C1449.89 6.28941 1469.21 16.6259 1483.69 27.0759C1485.11 28.0971 1494.63 35.0864 1494.8 35.7729C1494.99 36.516 1494.33 36.76 1493.94 37.1741C1491.45 39.8689 1483.68 44.9804 1480.3 47.2894C1467.57 55.992 1453.2 64.7798 1437.11 63.1118L1437.12 63.1175ZM1608.26 36.6068C1602.13 40.7028 1596.51 45.8938 1590.27 50.0239C1563.23 67.9397 1546.26 67.5936 1519.34 49.6835C1517.79 48.6509 1500.94 36.4366 1501.58 35.4949C1515.37 26.2192 1529.96 13.5965 1546.71 10.2096C1569.98 5.50652 1591.28 23.0763 1608.26 36.6068Z" fill="#EFDBBF"/>
<path d="M1608.07 36.5263C1591.14 23.0663 1569.9 5.58248 1546.69 10.2667C1529.99 13.6359 1515.44 26.1929 1501.69 35.4202C1501.05 36.357 1517.86 48.5077 1519.4 49.5348C1546.24 67.3517 1563.17 67.7016 1590.13 49.8735C1596.35 45.7649 1601.96 40.601 1608.07 36.5263Z" fill="#91040C"/>
<path d="M1667.78 63.7058C1687.19 64.518 1706.6 48.9566 1720.42 36.8936C1706 23.4109 1686.22 8.46285 1665.35 9.92244C1657.14 10.4961 1647.78 14.0684 1640.6 17.9814C1637.66 19.583 1615.71 34.2698 1615.35 35.7805C1615.09 36.8198 1623.84 43.334 1625.34 44.4585C1636.7 53.0343 1653.23 63.0981 1667.78 63.7058H1667.78Z" fill="#91040C"/>
<path d="M1437.09 62.8684C1453.16 64.5253 1467.52 55.7954 1480.22 47.15C1483.6 44.8562 1491.35 39.7783 1493.84 37.1013C1494.23 36.6899 1494.89 36.4475 1494.7 35.7092C1494.53 35.0273 1485.02 28.0896 1483.61 27.0695C1469.15 16.6826 1449.85 6.41975 1431.58 10.9002C1416.45 14.6086 1401.56 27.0469 1389.32 36.2672C1403.56 46.6371 1418.71 60.9747 1437.1 62.874L1437.09 62.8684Z" fill="#91040C"/>
<path d="M1439.4 51.9356C1458.2 54.8443 1461.51 28.5905 1445.49 25.4342C1425.09 21.4184 1421.81 49.2126 1439.4 51.9356Z" fill="#23140D"/>
<path d="M1552.08 49.6192C1570.88 52.5279 1574.19 26.2741 1558.17 23.1178C1537.77 19.102 1534.49 46.8962 1552.08 49.6192Z" fill="#23140D"/>
<path d="M1666.08 49.6192C1684.88 52.5279 1688.19 26.2741 1672.17 23.1178C1651.77 19.102 1648.49 46.8962 1666.08 49.6192Z" fill="#23140D"/>
<path d="M1790.95 75.0218C1790.41 75.1787 1789.46 75.242 1789.85 75.8477H1779.39C1779.43 75.7084 1779.45 75.5402 1779.42 75.3324C1759.6 70.0521 1743.08 57.8708 1727.48 45.1135V28.1716C1729.99 28.4144 1731.45 25.4608 1732.76 24.4104C1745.78 13.9629 1759.85 4.42454 1775.58 -1.35832C1776.18 -2.23366 1779.83 -2.4765 1779.42 -3.73021C1779.24 -4.30059 1769.72 -7.05648 1768.14 -7.69463C1760.32 -10.8515 1752.87 -14.5674 1745.94 -19.3677C1739.59 -23.7556 1734.06 -29.3691 1727.48 -33.3787V-50.3207C1728.82 -50.0439 1729.21 -50.8515 1730.03 -51.4388C1743.76 -61.2482 1755.66 -72.0177 1772.65 -76.5638C1799.7 -83.798 1824.11 -67.8725 1844.15 -51.5292C1861.72 -65.704 1883.62 -82.3523 1907.68 -78.3992C1926.07 -75.3778 1942.37 -63.3264 1956.95 -52.557C1967.84 -60.2374 1978.44 -68.234 1990.82 -73.4747C2006.98 -80.3193 2017.27 -81.2398 2033.88 -74.7679C2048.12 -69.2223 2061.35 -59.5089 2072.95 -49.7559C2072.99 -44.6451 2072.99 -39.523 2072.95 -34.5082C2067.53 -30.4929 2062.62 -25.7435 2057.1 -21.8412C2045.02 -13.2742 2031.59 -5.91573 2017.06 -2.60074C2021.12 -0.934783 2025.47 -0.245809 2029.62 1.2112C2045.54 6.81335 2061.09 18.2863 2073.48 29.5076C2073.53 34.5845 2073.5 39.9247 2073.48 45.0299C2065.19 51.7559 2056.76 58.0516 2047.36 63.2866C2037.2 68.9509 2028.53 71.3228 2017.74 74.9032C2017.3 75.0479 2016.7 74.9191 2016.49 75.2049L2012.58 75.3009C2012.57 75.2235 2012.56 75.1383 2012.55 75.0444C1991.5 72.1191 1973.88 59.9717 1957.42 47.4628C1943.16 57.5094 1929.42 67.4035 1912.75 73.1808C1910.65 73.9093 1908.1 74.2424 1906.08 74.9822C1905.56 75.1674 1904.69 75.2685 1905.03 75.8477H1896.17C1895.96 75.366 1895.36 75.1886 1894.88 74.9992C1891.06 73.497 1885.99 72.729 1881.85 71.0969C1873.69 67.8779 1864.33 62.4565 1857.12 57.4304C1855.13 56.0411 1844.84 47.4402 1844.02 47.3499C1843.24 47.2652 1842.49 47.5984 1841.85 48.0106C1829.57 58.9551 1815.36 67.9626 1799.59 72.9323C1796.74 73.8302 1793.68 74.2142 1790.95 75.0218ZM2016.04 -10.9701C2036.87 -12.54 2055.96 -29.4877 2071.79 -41.6351C2072.03 -42.8154 2062.07 -50.4957 2060.47 -51.693C2049.82 -59.6726 2031.81 -70.5833 2018.46 -71.7805C1994.16 -73.9547 1975.92 -56.9676 1957.42 -44.2328C1956.07 -44.103 1948.27 -50.9531 1946.45 -52.2577C1922.7 -69.2844 1901.62 -79.9465 1873.3 -64.5463C1862.7 -58.7804 1853.91 -50.3432 1844.03 -43.5495C1829.97 -54.6747 1814.56 -67.658 1796.36 -70.9673C1770.12 -75.7336 1746.56 -57.7977 1728.05 -41.5391C1727.9 -40.8275 1730.47 -39.0655 1731.16 -38.4951C1744.79 -27.3417 1766.26 -12.557 1784.21 -11.371C1806.45 -9.90273 1827.53 -27.3473 1844.5 -39.506C1856.42 -31.1536 1868.23 -20.932 1881.76 -15.2169C1885.13 -13.7937 1890.2 -11.8172 1893.78 -11.4219C1918.49 -8.67727 1939.23 -25.608 1957.5 -39.619C1972.82 -27.6862 1995.49 -9.4227 2016.04 -10.9701ZM1905.29 -2.90005C1905.96 -2.21108 1914.36 -0.370043 1916.01 0.222926C1924.83 3.43061 1934.2 8.51885 1941.93 13.816C1944.25 15.4029 1955.49 24.7098 1956.94 24.7549C1958.26 24.8001 1967.71 17.052 1969.8 15.6175C1978.51 9.65961 1987.49 4.385 1997.58 1.05308C1999.06 0.561759 2009.17 -1.44868 2009.16 -2.05294C2009.15 -3.14853 2008.51 -3.12595 2007.73 -3.44785C2004.22 -4.88792 1999.94 -5.68983 1996.2 -7.15249C1981.7 -12.8111 1969.75 -22.1292 1956.94 -30.5494C1943.15 -20.7569 1929.98 -10.699 1913.5 -5.70112C1911.13 -4.98391 1907.73 -4.88789 1905.99 -4.17633C1905.34 -3.9109 1904.64 -3.58336 1905.3 -2.90568L1905.29 -2.90005ZM1838.35 21.7166C1839.9 22.8743 1842.57 25.7997 1844.49 25.2688C1856.14 15.5102 1869.19 6.40674 1883.55 1.05308C1887.41 -0.386992 1891.63 -1.06466 1895.35 -2.39178C1895.95 -2.61203 1896.72 -2.52733 1896.82 -3.44785C1877.63 -7.57605 1860.65 -18.1986 1845.65 -30.4872L1843.62 -31.0294C1828.35 -18.5149 1811.51 -7.92617 1791.83 -4.01257C1792.49 -3.08076 1794.49 -2.32967 1795.57 -1.83835C1812.61 5.81943 1823.14 10.3373 1838.35 21.7223L1838.35 21.7166Z" fill="#91040C"/>
<path d="M1844.4 34.3489C1844.39 33.8099 1844.63 33.3504 1845.01 32.9873C1855.72 22.9799 1879.92 7.09501 1894.43 5.47248C1918.24 2.80609 1939.21 19.871 1957.02 33.2313C1978.43 16.7507 2001.81 -1.1481 2030.42 8.79129C2045.91 14.1751 2059.54 26.032 2072.45 35.7672C2072.45 36.482 2069.51 38.8023 2068.76 39.4377C2056.68 49.7402 2034.42 65.8066 2018.53 67.2419C1994.71 69.392 1974.95 51.9357 1957.01 38.8761C1943.18 49.3998 1927.79 62.2665 1910.57 66.5157C1885.09 72.7959 1862.54 52.8718 1843.57 38.8647C1823.25 54.8517 1800.54 73.7263 1772.86 65.6988C1755.91 60.7858 1741.87 47.9702 1728.14 37.4464C1727.91 36.5047 1738.44 27.9836 1740.04 26.7298C1751.02 18.1123 1765.41 8.42252 1779.38 6.14191C1804.37 2.0629 1825.93 20.149 1844.4 34.3432V34.3489ZM1787.51 63.6848C1802.04 63.0778 1818.56 53.025 1829.91 44.4585C1831.4 43.3352 1840.15 36.8281 1839.89 35.7899C1839.52 34.2865 1817.6 19.6157 1814.66 18.0102C1807.49 14.1014 1798.13 10.5329 1789.93 9.95996C1769.08 8.50195 1749.33 23.4337 1734.92 36.9018C1748.73 48.9516 1768.12 64.4961 1787.51 63.6848H1787.51ZM2018.38 63.1175C2036.8 61.2057 2051.96 46.7788 2066.23 36.3345C2053.97 27.0532 2039.06 14.5325 2023.91 10.7996C2005.61 6.28941 1986.29 16.6259 1971.8 27.0759C1970.39 28.0971 1960.86 35.0864 1960.69 35.7729C1960.51 36.516 1961.17 36.76 1961.55 37.1741C1964.05 39.8689 1971.81 44.9804 1975.19 47.2894C1987.92 55.992 2002.3 64.7798 2018.39 63.1118L2018.38 63.1175ZM1847.24 36.6068C1853.37 40.7028 1858.99 45.8938 1865.22 50.0239C1892.27 67.9397 1909.24 67.5936 1936.15 49.6835C1937.7 48.6509 1954.56 36.4366 1953.91 35.4949C1940.13 26.2192 1925.53 13.5965 1908.79 10.2096C1885.52 5.50652 1864.22 23.0763 1847.24 36.6068Z" fill="#EFDBBF"/>
<path d="M1847.42 36.5263C1864.36 23.0663 1885.6 5.58248 1908.8 10.2667C1925.5 13.6359 1940.06 26.1929 1953.81 35.4202C1954.45 36.357 1937.64 48.5077 1936.09 49.5348C1909.25 67.3517 1892.33 67.7016 1865.36 49.8735C1859.15 45.7649 1853.54 40.601 1847.42 36.5263Z" fill="#91040C"/>
<path d="M1787.71 63.7058C1768.31 64.518 1748.9 48.9566 1735.07 36.8936C1749.5 23.4109 1769.27 8.46285 1790.14 9.92244C1798.35 10.4961 1807.71 14.0684 1814.89 17.9814C1817.84 19.583 1839.78 34.2698 1840.15 35.7805C1840.4 36.8198 1831.65 43.334 1830.16 44.4585C1818.79 53.0343 1802.26 63.0981 1787.72 63.7058H1787.71Z" fill="#91040C"/>
<path d="M2018.4 62.8684C2002.34 64.5253 1987.98 55.7954 1975.27 47.15C1971.9 44.8562 1964.14 39.7783 1961.65 37.1013C1961.27 36.6899 1960.61 36.4475 1960.8 35.7092C1960.96 35.0273 1970.47 28.0896 1971.89 27.0695C1986.35 16.6826 2005.65 6.41975 2023.92 10.9002C2039.04 14.6086 2053.93 27.0469 2066.17 36.2672C2051.93 46.6371 2036.79 60.9747 2018.4 62.874L2018.4 62.8684Z" fill="#91040C"/>
<path d="M2016.1 51.9356C1997.29 54.8443 1993.99 28.5905 2010.01 25.4342C2030.4 21.4184 2033.69 49.2126 2016.1 51.9356Z" fill="#23140D"/>
<path d="M1903.42 49.6192C1884.61 52.5279 1881.31 26.2741 1897.33 23.1178C1917.72 19.102 1921.01 46.8962 1903.42 49.6192Z" fill="#23140D"/>
<path d="M1789.42 49.6192C1770.61 52.5279 1767.31 26.2741 1783.33 23.1178C1803.72 19.102 1807.01 46.8962 1789.42 49.6192Z" fill="#23140D"/>
<path d="M2355.54 75.0218C2356.08 75.1787 2357.03 75.242 2356.64 75.8477H2367.1C2367.06 75.7084 2367.04 75.5402 2367.07 75.3324C2386.89 70.0521 2403.41 57.8708 2419.01 45.1135V28.1716C2416.5 28.4144 2415.04 25.4608 2413.73 24.4104C2400.71 13.9629 2386.64 4.42454 2370.91 -1.35832C2370.31 -2.23366 2366.66 -2.4765 2367.07 -3.73021C2367.25 -4.30059 2376.77 -7.05648 2378.35 -7.69463C2386.17 -10.8515 2393.62 -14.5674 2400.55 -19.3677C2406.9 -23.7556 2412.43 -29.3691 2419.01 -33.3787V-50.3207C2417.67 -50.0439 2417.28 -50.8515 2416.46 -51.4388C2402.73 -61.2482 2390.83 -72.0177 2373.84 -76.5638C2346.79 -83.798 2322.38 -67.8725 2302.34 -51.5292C2284.77 -65.704 2262.87 -82.3523 2238.81 -78.3992C2220.42 -75.3778 2204.12 -63.3264 2189.54 -52.557C2178.65 -60.2374 2168.05 -68.234 2155.67 -73.4747C2139.51 -80.3193 2129.22 -81.2398 2112.61 -74.7679C2098.37 -69.2223 2085.14 -59.5089 2073.54 -49.7559C2073.5 -44.6451 2073.5 -39.523 2073.54 -34.5082C2078.96 -30.4929 2083.87 -25.7435 2089.39 -21.8412C2101.47 -13.2742 2114.9 -5.91573 2129.43 -2.60074C2125.37 -0.934783 2121.02 -0.245809 2116.87 1.2112C2100.95 6.81335 2085.4 18.2863 2073.01 29.5076C2072.96 34.5845 2072.99 39.9247 2073.01 45.0299C2081.3 51.7559 2089.73 58.0516 2099.13 63.2866C2109.29 68.9509 2117.96 71.3228 2128.75 74.9032C2129.2 75.0479 2129.79 74.9191 2130 75.2049L2133.91 75.3009C2133.92 75.2235 2133.93 75.1383 2133.94 75.0444C2154.99 72.1191 2172.61 59.9717 2189.07 47.4628C2203.33 57.5094 2217.07 67.4035 2233.74 73.1808C2235.84 73.9093 2238.39 74.2424 2240.41 74.9822C2240.93 75.1674 2241.8 75.2685 2241.46 75.8477H2250.32C2250.53 75.366 2251.13 75.1886 2251.61 74.9992C2255.43 73.497 2260.5 72.729 2264.64 71.0969C2272.8 67.8779 2282.16 62.4565 2289.37 57.4304C2291.36 56.0411 2301.65 47.4402 2302.47 47.3499C2303.25 47.2652 2304 47.5984 2304.64 48.0106C2316.92 58.9551 2331.13 67.9626 2346.9 72.9323C2349.75 73.8302 2352.81 74.2142 2355.54 75.0218ZM2130.45 -10.9701C2109.62 -12.54 2090.53 -29.4877 2074.7 -41.6351C2074.46 -42.8154 2084.42 -50.4957 2086.02 -51.693C2096.67 -59.6726 2114.68 -70.5833 2128.03 -71.7805C2152.33 -73.9547 2170.57 -56.9676 2189.07 -44.2328C2190.42 -44.103 2198.22 -50.9531 2200.04 -52.2577C2223.79 -69.2844 2244.87 -79.9465 2273.19 -64.5463C2283.79 -58.7804 2292.58 -50.3432 2302.46 -43.5495C2316.52 -54.6747 2331.93 -67.658 2350.13 -70.9673C2376.37 -75.7336 2399.93 -57.7977 2418.44 -41.5391C2418.59 -40.8275 2416.02 -39.0655 2415.33 -38.4951C2401.7 -27.3417 2380.23 -12.557 2362.28 -11.371C2340.04 -9.90273 2318.96 -27.3473 2301.99 -39.506C2290.07 -31.1536 2278.26 -20.932 2264.73 -15.2169C2261.36 -13.7937 2256.29 -11.8172 2252.71 -11.4219C2228 -8.67727 2207.26 -25.608 2188.99 -39.619C2173.67 -27.6862 2151 -9.4227 2130.45 -10.9701ZM2241.2 -2.90005C2240.53 -2.21108 2232.13 -0.370043 2230.48 0.222926C2221.66 3.43061 2212.29 8.51885 2204.56 13.816C2202.24 15.4029 2191 24.7098 2189.55 24.7549C2188.23 24.8001 2178.78 17.052 2176.69 15.6175C2167.99 9.65961 2159 4.385 2148.91 1.05308C2147.43 0.561759 2137.32 -1.44868 2137.33 -2.05294C2137.34 -3.14853 2137.98 -3.12595 2138.76 -3.44785C2142.27 -4.88792 2146.55 -5.68983 2150.29 -7.15249C2164.79 -12.8111 2176.74 -22.1292 2189.55 -30.5494C2203.34 -20.7569 2216.51 -10.699 2232.99 -5.70112C2235.36 -4.98391 2238.76 -4.88789 2240.5 -4.17633C2241.15 -3.9109 2241.85 -3.58336 2241.19 -2.90568L2241.2 -2.90005ZM2308.14 21.7166C2306.59 22.8743 2303.92 25.7997 2302.01 25.2688C2290.35 15.5102 2277.3 6.40674 2262.94 1.05308C2259.08 -0.386992 2254.87 -1.06466 2251.15 -2.39178C2250.54 -2.61203 2249.77 -2.52733 2249.67 -3.44785C2268.86 -7.57605 2285.84 -18.1986 2300.84 -30.4872L2302.87 -31.0294C2318.14 -18.5149 2334.98 -7.92617 2354.66 -4.01257C2354 -3.08076 2352 -2.32967 2350.92 -1.83835C2333.88 5.81943 2323.35 10.3373 2308.14 21.7223L2308.14 21.7166Z" fill="#91040C"/>
<path d="M2302.09 34.3489C2302.1 33.8099 2301.86 33.3504 2301.48 32.9873C2290.77 22.9799 2266.57 7.09501 2252.06 5.47248C2228.25 2.80609 2207.28 19.871 2189.47 33.2313C2168.06 16.7507 2144.68 -1.1481 2116.07 8.79129C2100.58 14.1751 2086.95 26.032 2074.04 35.7672C2074.04 36.482 2076.98 38.8023 2077.73 39.4377C2089.81 49.7402 2112.07 65.8066 2127.96 67.2419C2151.78 69.392 2171.54 51.9357 2189.48 38.8761C2203.31 49.3998 2218.7 62.2665 2235.92 66.5157C2261.4 72.7959 2283.95 52.8718 2302.92 38.8647C2323.24 54.8517 2345.95 73.7263 2373.63 65.6988C2390.58 60.7858 2404.62 47.9702 2418.35 37.4464C2418.58 36.5047 2408.05 27.9836 2406.45 26.7298C2395.47 18.1123 2381.08 8.42252 2367.11 6.14191C2342.12 2.0629 2320.56 20.149 2302.09 34.3432V34.3489ZM2358.98 63.6848C2344.45 63.0778 2327.93 53.025 2316.58 44.4585C2315.09 43.3352 2306.34 36.8281 2306.6 35.7899C2306.97 34.2865 2328.89 19.6157 2331.83 18.0102C2339 14.1014 2348.36 10.5329 2356.56 9.95996C2377.41 8.50195 2397.16 23.4337 2411.57 36.9018C2397.76 48.9516 2378.37 64.4961 2358.98 63.6848H2358.98ZM2128.11 63.1175C2109.69 61.2057 2094.53 46.7788 2080.26 36.3345C2092.52 27.0532 2107.44 14.5325 2122.58 10.7996C2140.88 6.28941 2160.2 16.6259 2174.69 27.0759C2176.11 28.0971 2185.63 35.0864 2185.8 35.7729C2185.98 36.516 2185.32 36.76 2184.94 37.1741C2182.44 39.8689 2174.68 44.9804 2171.3 47.2894C2158.57 55.992 2144.19 64.7798 2128.11 63.1118L2128.11 63.1175ZM2299.25 36.6068C2293.12 40.7028 2287.5 45.8938 2281.27 50.0239C2254.22 67.9397 2237.25 67.5936 2210.34 49.6835C2208.79 48.6509 2191.93 36.4366 2192.58 35.4949C2206.36 26.2192 2220.96 13.5965 2237.7 10.2096C2260.97 5.50652 2282.27 23.0763 2299.25 36.6068Z" fill="#EFDBBF"/>
<path d="M2299.07 36.5263C2282.13 23.0663 2260.89 5.58248 2237.68 10.2667C2220.98 13.6359 2206.43 26.1929 2192.68 35.4202C2192.04 36.357 2208.85 48.5077 2210.4 49.5348C2237.23 67.3517 2254.16 67.7016 2281.13 49.8735C2287.34 45.7649 2292.95 40.601 2299.07 36.5263Z" fill="#91040C"/>
<path d="M2358.78 63.7058C2378.18 64.518 2397.59 48.9566 2411.42 36.8936C2396.99 23.4109 2377.22 8.46285 2356.35 9.92244C2348.14 10.4961 2338.78 14.0684 2331.6 17.9814C2328.65 19.583 2306.71 34.2698 2306.34 35.7805C2306.09 36.8198 2314.84 43.334 2316.33 44.4585C2327.7 53.0343 2344.23 63.0981 2358.77 63.7058H2358.78Z" fill="#91040C"/>
<path d="M2128.09 62.8684C2144.15 64.5253 2158.51 55.7954 2171.22 47.15C2174.59 44.8562 2182.35 39.7783 2184.84 37.1013C2185.22 36.6899 2185.88 36.4475 2185.69 35.7092C2185.53 35.0273 2176.02 28.0896 2174.6 27.0695C2160.14 16.6826 2140.84 6.41975 2122.57 10.9002C2107.45 14.6086 2092.56 27.0469 2080.32 36.2672C2094.56 46.6371 2109.7 60.9747 2128.09 62.874L2128.09 62.8684Z" fill="#91040C"/>
<path d="M2130.39 51.9356C2149.2 54.8443 2152.5 28.5905 2136.48 25.4342C2116.09 21.4184 2112.8 49.2126 2130.39 51.9356Z" fill="#23140D"/>
<path d="M2243.07 49.6192C2261.88 52.5279 2265.18 26.2741 2249.16 23.1178C2228.77 19.102 2225.48 46.8962 2243.07 49.6192Z" fill="#23140D"/>
<path d="M2357.07 49.6192C2375.88 52.5279 2379.18 26.2741 2363.16 23.1178C2342.77 19.102 2339.48 46.8962 2357.07 49.6192Z" fill="#23140D"/>
<path d="M2481.94 75.0218C2481.41 75.1787 2480.46 75.242 2480.84 75.8477H2470.38C2470.43 75.7084 2470.44 75.5402 2470.41 75.3324C2450.6 70.0521 2434.07 57.8708 2418.48 45.1135V28.1716C2420.98 28.4144 2422.44 25.4608 2423.75 24.4104C2436.78 13.9629 2450.84 4.42454 2466.58 -1.35832C2467.17 -2.23366 2470.83 -2.4765 2470.41 -3.73021C2470.23 -4.30059 2460.71 -7.05648 2459.13 -7.69463C2451.31 -10.8515 2443.87 -14.5674 2436.93 -19.3677C2430.58 -23.7556 2425.05 -29.3691 2418.48 -33.3787V-50.3207C2419.81 -50.0439 2420.2 -50.8515 2421.02 -51.4388C2434.75 -61.2482 2446.66 -72.0177 2463.65 -76.5638C2490.69 -83.798 2515.1 -67.8725 2535.14 -51.5292C2552.71 -65.704 2574.61 -82.3523 2598.67 -78.3992C2617.06 -75.3778 2633.36 -63.3264 2647.94 -52.557C2658.83 -60.2374 2669.44 -68.234 2681.81 -73.4747C2697.98 -80.3193 2708.26 -81.2398 2724.87 -74.7679C2739.11 -69.2223 2752.34 -59.5089 2763.94 -49.7559C2763.98 -44.6451 2763.99 -39.523 2763.94 -34.5082C2758.52 -30.4929 2753.61 -25.7435 2748.1 -21.8412C2736.01 -13.2742 2722.59 -5.91573 2708.05 -2.60074C2712.11 -0.934783 2716.46 -0.245809 2720.62 1.2112C2736.53 6.81335 2752.08 18.2863 2764.47 29.5076C2764.52 34.5845 2764.5 39.9247 2764.47 45.0299C2756.18 51.7559 2747.75 58.0516 2738.35 63.2866C2728.19 68.9509 2719.52 71.3228 2708.73 74.9032C2708.29 75.0479 2707.69 74.9191 2707.49 75.2049L2703.57 75.3009C2703.56 75.2235 2703.55 75.1383 2703.54 75.0444C2682.49 72.1191 2664.87 59.9717 2648.41 47.4628C2634.15 57.5094 2620.42 67.4035 2603.74 73.1808C2601.64 73.9093 2599.09 74.2424 2597.07 74.9822C2596.56 75.1674 2595.68 75.2685 2596.02 75.8477H2587.17C2586.95 75.366 2586.36 75.1886 2585.87 74.9992C2582.05 73.497 2576.98 72.729 2572.84 71.0969C2564.68 67.8779 2555.32 62.4565 2548.12 57.4304C2546.12 56.0411 2535.83 47.4402 2535.01 47.3499C2534.24 47.2652 2533.48 47.5984 2532.84 48.0106C2520.56 58.9551 2506.35 67.9626 2490.58 72.9323C2487.73 73.8302 2484.67 74.2142 2481.94 75.0218ZM2707.04 -10.9701C2727.87 -12.54 2746.96 -29.4877 2762.78 -41.6351C2763.03 -42.8154 2753.06 -50.4957 2751.47 -51.693C2740.81 -59.6726 2722.8 -70.5833 2709.45 -71.7805C2685.15 -73.9547 2666.91 -56.9676 2648.41 -44.2328C2647.06 -44.103 2639.26 -50.9531 2637.44 -52.2577C2613.69 -69.2844 2592.61 -79.9465 2564.29 -64.5463C2553.69 -58.7804 2544.9 -50.3432 2535.02 -43.5495C2520.96 -54.6747 2505.55 -67.658 2487.35 -70.9673C2461.11 -75.7336 2437.55 -57.7977 2419.05 -41.5391C2418.89 -40.8275 2421.46 -39.0655 2422.16 -38.4951C2435.78 -27.3417 2457.26 -12.557 2475.2 -11.371C2497.44 -9.90273 2518.52 -27.3473 2535.49 -39.506C2547.42 -31.1536 2559.23 -20.932 2572.76 -15.2169C2576.13 -13.7937 2581.19 -11.8172 2584.77 -11.4219C2609.49 -8.67727 2630.23 -25.608 2648.49 -39.619C2663.81 -27.6862 2686.48 -9.4227 2707.04 -10.9701ZM2596.28 -2.90005C2596.95 -2.21108 2605.35 -0.370043 2607 0.222926C2615.83 3.43061 2625.19 8.51885 2632.92 13.816C2635.24 15.4029 2646.48 24.7098 2647.93 24.7549C2649.25 24.8001 2658.7 17.052 2660.79 15.6175C2669.5 9.65961 2678.48 4.385 2688.57 1.05308C2690.06 0.561759 2700.17 -1.44868 2700.15 -2.05294C2700.14 -3.14853 2699.5 -3.12595 2698.73 -3.44785C2695.22 -4.88792 2690.94 -5.68983 2687.19 -7.15249C2672.69 -12.8111 2660.74 -22.1292 2647.93 -30.5494C2634.14 -20.7569 2620.97 -10.699 2604.49 -5.70112C2602.13 -4.98391 2598.72 -4.88789 2596.98 -4.17633C2596.33 -3.9109 2595.63 -3.58336 2596.29 -2.90568L2596.28 -2.90005ZM2529.35 21.7166C2530.89 22.8743 2533.56 25.7997 2535.48 25.2688C2547.13 15.5102 2560.18 6.40674 2574.54 1.05308C2578.41 -0.386992 2582.62 -1.06466 2586.34 -2.39178C2586.95 -2.61203 2587.71 -2.52733 2587.81 -3.44785C2568.62 -7.57605 2551.64 -18.1986 2536.65 -30.4872L2534.61 -31.0294C2519.34 -18.5149 2502.51 -7.92617 2482.82 -4.01257C2483.48 -3.08076 2485.48 -2.32967 2486.56 -1.83835C2503.6 5.81943 2514.13 10.3373 2529.34 21.7223L2529.35 21.7166Z" fill="#91040C"/>
<path d="M2535.4 34.3489C2535.38 33.8099 2535.62 33.3504 2536.01 32.9873C2546.72 22.9799 2570.92 7.09501 2585.42 5.47248C2609.24 2.80609 2630.21 19.871 2648.01 33.2313C2669.43 16.7507 2692.8 -1.1481 2721.41 8.79129C2736.91 14.1751 2750.54 26.032 2763.45 35.7672C2763.45 36.482 2760.5 38.8023 2759.76 39.4377C2747.68 49.7402 2725.42 65.8066 2709.53 67.2419C2685.71 69.392 2665.95 51.9357 2648 38.8761C2634.18 49.3998 2618.79 62.2665 2601.56 66.5157C2576.08 72.7959 2553.53 52.8718 2534.56 38.8647C2514.25 54.8517 2491.53 73.7263 2463.86 65.6988C2446.91 60.7858 2432.86 47.9702 2419.13 37.4464C2418.9 36.5047 2429.44 27.9836 2431.03 26.7298C2442.01 18.1123 2456.41 8.42252 2470.38 6.14191C2495.36 2.0629 2516.93 20.149 2535.4 34.3432V34.3489ZM2478.51 63.6848C2493.03 63.0778 2509.56 53.025 2520.91 44.4585C2522.4 43.3352 2531.14 36.8281 2530.89 35.7899C2530.52 34.2865 2508.6 19.6157 2505.66 18.0102C2498.48 14.1014 2489.12 10.5329 2480.93 9.95996C2460.08 8.50195 2440.32 23.4337 2425.91 36.9018C2439.73 48.9516 2459.12 64.4961 2478.5 63.6848H2478.51ZM2709.37 63.1175C2727.79 61.2057 2742.96 46.7788 2757.22 36.3345C2744.96 27.0532 2730.05 14.5325 2714.91 10.7996C2696.6 6.28941 2677.28 16.6259 2662.8 27.0759C2661.38 28.0971 2651.86 35.0864 2651.69 35.7729C2651.5 36.516 2652.16 36.76 2652.55 37.1741C2655.04 39.8689 2662.81 44.9804 2666.19 47.2894C2678.92 55.992 2693.29 64.7798 2709.38 63.1118L2709.37 63.1175ZM2538.23 36.6068C2544.36 40.7028 2549.98 45.8938 2556.22 50.0239C2583.26 67.9397 2600.23 67.5936 2627.15 49.6835C2628.7 48.6509 2645.55 36.4366 2644.91 35.4949C2631.12 26.2192 2616.53 13.5965 2599.78 10.2096C2576.51 5.50652 2555.21 23.0763 2538.23 36.6068Z" fill="#EFDBBF"/>
<path d="M2538.42 36.5263C2555.35 23.0663 2576.59 5.58248 2599.8 10.2667C2616.5 13.6359 2631.05 26.1929 2644.8 35.4202C2645.44 36.357 2628.63 48.5077 2627.09 49.5348C2600.25 67.3517 2583.32 67.7016 2556.36 49.8735C2550.14 45.7649 2544.54 40.601 2538.42 36.5263Z" fill="#91040C"/>
<path d="M2478.71 63.7058C2459.3 64.518 2439.89 48.9566 2426.07 36.8936C2440.49 23.4109 2460.27 8.46285 2481.14 9.92244C2489.35 10.4961 2498.71 14.0684 2505.89 17.9814C2508.83 19.583 2530.78 34.2698 2531.14 35.7805C2531.4 36.8198 2522.65 43.334 2521.15 44.4585C2509.79 53.0343 2493.26 63.0981 2478.71 63.7058H2478.71Z" fill="#91040C"/>
<path d="M2709.4 62.8684C2693.33 64.5253 2678.97 55.7954 2666.27 47.15C2662.89 44.8562 2655.14 39.7783 2652.65 37.1013C2652.26 36.6899 2651.6 36.4475 2651.79 35.7092C2651.96 35.0273 2661.47 28.0896 2662.88 27.0695C2677.34 16.6826 2696.64 6.41975 2714.91 10.9002C2730.04 14.6086 2744.93 27.0469 2757.17 36.2672C2742.93 46.6371 2727.78 60.9747 2709.39 62.874L2709.4 62.8684Z" fill="#91040C"/>
<path d="M2707.09 51.9356C2688.28 54.8443 2684.98 28.5905 2701 25.4342C2721.39 21.4184 2724.68 49.2126 2707.09 51.9356Z" fill="#23140D"/>
<path d="M2594.41 49.6192C2575.61 52.5279 2572.3 26.2741 2588.32 23.1178C2608.72 19.102 2612 46.8962 2594.41 49.6192Z" fill="#23140D"/>
<path d="M2480.41 49.6192C2461.61 52.5279 2458.3 26.2741 2474.32 23.1178C2494.72 19.102 2498 46.8962 2480.41 49.6192Z" fill="#23140D"/>
<path d="M3046.54 75.0218C3047.07 75.1787 3048.02 75.242 3047.63 75.8477H3058.1C3058.05 75.7084 3058.03 75.5402 3058.06 75.3324C3077.88 70.0521 3094.4 57.8708 3110 45.1135V28.1716C3107.49 28.4144 3106.04 25.4608 3104.73 24.4104C3091.7 13.9629 3077.64 4.42454 3061.9 -1.35832C3061.31 -2.23366 3057.65 -2.4765 3058.06 -3.73021C3058.25 -4.30059 3067.77 -7.05648 3069.35 -7.69463C3077.16 -10.8515 3084.61 -14.5674 3091.55 -19.3677C3097.89 -23.7556 3103.42 -29.3691 3110 -33.3787V-50.3207C3108.66 -50.0439 3108.28 -50.8515 3107.45 -51.4388C3093.73 -61.2482 3081.82 -72.0177 3064.83 -76.5638C3037.79 -83.798 3013.37 -67.8725 2993.34 -51.5292C2975.77 -65.704 2953.86 -82.3523 2929.81 -78.3992C2911.41 -75.3778 2895.12 -63.3264 2880.54 -52.557C2869.64 -60.2374 2859.04 -68.234 2846.67 -73.4747C2830.5 -80.3193 2820.22 -81.2398 2803.6 -74.7679C2789.37 -69.2223 2776.14 -59.5089 2764.54 -49.7559C2764.5 -44.6451 2764.49 -39.523 2764.54 -34.5082C2769.95 -30.4929 2774.87 -25.7435 2780.38 -21.8412C2792.47 -13.2742 2805.89 -5.91573 2820.42 -2.60074C2816.37 -0.934783 2812.01 -0.245809 2807.86 1.2112C2791.95 6.81335 2776.39 18.2863 2764 29.5076C2763.95 34.5845 2763.98 39.9247 2764 45.0299C2772.29 51.7559 2780.72 58.0516 2790.12 63.2866C2800.28 68.9509 2808.95 71.3228 2819.75 74.9032C2820.19 75.0479 2820.78 74.9191 2820.99 75.2049L2824.91 75.3009C2824.91 75.2235 2824.92 75.1383 2824.94 75.0444C2845.98 72.1191 2863.6 59.9717 2880.07 47.4628C2894.32 57.5094 2908.06 67.4035 2924.74 73.1808C2926.84 73.9093 2929.38 74.2424 2931.41 74.9822C2931.92 75.1674 2932.8 75.2685 2932.45 75.8477H2941.31C2941.53 75.366 2942.12 75.1886 2942.6 74.9992C2946.42 73.497 2951.49 72.729 2955.64 71.0969C2963.79 67.8779 2973.15 62.4565 2980.36 57.4304C2982.35 56.0411 2992.64 47.4402 2993.47 47.3499C2994.24 47.2652 2995 47.5984 2995.64 48.0106C3007.91 58.9551 3022.13 67.9626 3037.89 72.9323C3040.75 73.8302 3043.8 74.2142 3046.54 75.0218ZM2821.44 -10.9701C2800.61 -12.54 2781.52 -29.4877 2765.7 -41.6351C2765.45 -42.8154 2775.42 -50.4957 2777.01 -51.693C2787.67 -59.6726 2805.67 -70.5833 2819.03 -71.7805C2843.33 -73.9547 2861.56 -56.9676 2880.07 -44.2328C2881.42 -44.103 2889.21 -50.9531 2891.04 -52.2577C2914.78 -69.2844 2935.87 -79.9465 2964.19 -64.5463C2974.79 -58.7804 2983.57 -50.3432 2993.46 -43.5495C3007.52 -54.6747 3022.92 -67.658 3041.13 -70.9673C3067.36 -75.7336 3090.93 -57.7977 3109.43 -41.5391C3109.59 -40.8275 3107.01 -39.0655 3106.32 -38.4951C3092.69 -27.3417 3071.22 -12.557 3053.28 -11.371C3031.03 -9.90273 3009.96 -27.3473 2992.98 -39.506C2981.06 -31.1536 2969.25 -20.932 2955.72 -15.2169C2952.35 -13.7937 2947.28 -11.8172 2943.71 -11.4219C2918.99 -8.67727 2898.25 -25.608 2879.98 -39.619C2864.66 -27.6862 2841.99 -9.4227 2821.44 -10.9701ZM2932.19 -2.90005C2931.53 -2.21108 2923.13 -0.370043 2921.48 0.222926C2912.65 3.43061 2903.29 8.51885 2895.55 13.816C2893.24 15.4029 2882 24.7098 2880.55 24.7549C2879.22 24.8001 2869.78 17.052 2867.68 15.6175C2858.98 9.65961 2850 4.385 2839.91 1.05308C2838.42 0.561759 2828.31 -1.44868 2828.32 -2.05294C2828.34 -3.14853 2828.98 -3.12595 2829.75 -3.44785C2833.26 -4.88792 2837.54 -5.68983 2841.29 -7.15249C2855.78 -12.8111 2867.73 -22.1292 2880.54 -30.5494C2894.34 -20.7569 2907.5 -10.699 2923.99 -5.70112C2926.35 -4.98391 2929.75 -4.88789 2931.49 -4.17633C2932.14 -3.9109 2932.84 -3.58336 2932.19 -2.90568L2932.19 -2.90005ZM2999.13 21.7166C2997.58 22.8743 2994.91 25.7997 2993 25.2688C2981.34 15.5102 2968.3 6.40674 2953.94 1.05308C2950.07 -0.386992 2945.86 -1.06466 2942.14 -2.39178C2941.53 -2.61203 2940.76 -2.52733 2940.67 -3.44785C2959.86 -7.57605 2976.84 -18.1986 2991.83 -30.4872L2993.87 -31.0294C3009.13 -18.5149 3025.97 -7.92617 3045.65 -4.01257C3044.99 -3.08076 3043 -2.32967 3041.91 -1.83835C3024.88 5.81943 3014.35 10.3373 2999.14 21.7223L2999.13 21.7166Z" fill="#91040C"/>
<path d="M2993.08 34.3489C2993.09 33.8099 2992.86 33.3504 2992.47 32.9873C2981.76 22.9799 2957.56 7.09501 2943.06 5.47248C2919.24 2.80609 2898.27 19.871 2880.47 33.2313C2859.05 16.7507 2835.68 -1.1481 2807.07 8.79129C2791.57 14.1751 2777.94 26.032 2765.03 35.7672C2765.03 36.482 2767.98 38.8023 2768.72 39.4377C2780.8 49.7402 2803.06 65.8066 2818.95 67.2419C2842.77 69.392 2862.53 51.9357 2880.48 38.8761C2894.3 49.3998 2909.69 62.2665 2926.92 66.5157C2952.4 72.7959 2974.95 52.8718 2993.92 38.8647C3014.23 54.8517 3036.95 73.7263 3064.62 65.6988C3081.57 60.7858 3095.62 47.9702 3109.35 37.4464C3109.58 36.5047 3099.04 27.9836 3097.45 26.7298C3086.46 18.1123 3072.07 8.42252 3058.1 6.14191C3033.12 2.0629 3011.55 20.149 2993.08 34.3432V34.3489ZM3049.97 63.6848C3035.44 63.0778 3018.92 53.025 3007.57 44.4585C3006.08 43.3352 2997.34 36.8281 2997.59 35.7899C2997.96 34.2865 3019.88 19.6157 3022.82 18.0102C3030 14.1014 3039.36 10.5329 3047.55 9.95996C3068.4 8.50195 3088.16 23.4337 3102.57 36.9018C3088.75 48.9516 3069.36 64.4961 3049.98 63.6848H3049.97ZM2819.1 63.1175C2800.69 61.2057 2785.52 46.7788 2771.26 36.3345C2783.52 27.0532 2798.43 14.5325 2813.57 10.7996C2831.88 6.28941 2851.2 16.6259 2865.68 27.0759C2867.1 28.0971 2876.62 35.0864 2876.79 35.7729C2876.98 36.516 2876.32 36.76 2875.93 37.1741C2873.44 39.8689 2865.67 44.9804 2862.29 47.2894C2849.56 55.992 2835.19 64.7798 2819.1 63.1118L2819.1 63.1175ZM2990.25 36.6068C2984.11 40.7028 2978.5 45.8938 2972.26 50.0239C2945.22 67.9397 2928.25 67.5936 2901.33 49.6835C2899.78 48.6509 2882.93 36.4366 2883.57 35.4949C2897.36 26.2192 2911.95 13.5965 2928.7 10.2096C2951.97 5.50652 2973.27 23.0763 2990.25 36.6068Z" fill="#EFDBBF"/>
<path d="M2819.08 62.8684C2835.14 64.5253 2849.5 55.7954 2862.21 47.15C2865.58 44.8562 2873.34 39.7783 2875.83 37.1013C2876.21 36.6899 2876.87 36.4475 2876.69 35.7092C2876.52 35.0273 2867.01 28.0896 2865.59 27.0695C2851.13 16.6826 2831.83 6.41975 2813.56 10.9002C2798.44 14.6086 2783.55 27.0469 2771.31 36.2672C2785.55 46.6371 2800.7 60.9747 2819.09 62.874L2819.08 62.8684Z" fill="#91040C"/>
<path d="M2821.39 51.9356C2840.19 54.8443 2843.5 28.5905 2827.48 25.4342C2807.08 21.4184 2803.79 49.2126 2821.39 51.9356Z" fill="#23140D"/>
</g>
<defs>
<clipPath id="clip0_2947_73856">
<rect width="2880" height="73" fill="white" transform="matrix(-1 0 0 -1 2880 73)"/>
</clipPath>
</defs>
</svg>
