<svg width="1104" height="589" viewBox="0 0 1104 589" fill="none" xmlns="http://www.w3.org/2000/svg">
<path d="M104.507 282.387C98.0762 284.671 92.9312 289.36 86.6607 292.034C50.7933 307.35 16.6676 291.926 0 258.217C41.8164 252.816 58.8859 180.909 104.588 188.944C115.842 190.919 121.992 199.047 131.277 203.803C127.271 186.861 124.605 144.003 124.605 144.003L427.395 145.346C427.395 145.346 423.804 193.498 423.389 211.179L430.758 201.788C486.495 163.362 503.337 250.679 552 252.829V262.234C536.82 291.604 505.213 305.053 473.271 296.172C464.723 293.794 453.133 286.619 446.153 281.043C436.787 273.56 422.036 247.818 422.036 236.035V213.866H133.97C134.051 233.2 128.691 250.975 117.678 266.708C114.047 271.894 107.482 277.496 104.507 282.387Z" fill="#91040C"/>
<path d="M104.786 281.243C107.754 276.389 114.306 270.828 117.929 265.68C128.919 250.065 134.266 232.422 134.186 213.219H421.634V235.236C421.634 246.931 436.354 272.481 445.7 279.909C461.917 309.46 475.18 340.092 461.556 373.737C446.422 411.116 409.642 415.024 374.841 422.598H174.295C148.224 415.89 123.918 413.597 104.238 393.127C76.1217 363.856 85.427 312.914 104.773 281.243H104.786Z" fill="#EFDBBF"/>
<path d="M141.708 349.246C111.311 316.852 155.506 272.583 187.651 299.296C222.745 328.47 174.294 383.952 141.708 349.246Z" fill="#91040C"/>
<path d="M268.376 293.464C316.876 285.421 323.693 354.893 278.622 358.438C235.648 361.825 228.911 300.003 268.376 293.464Z" fill="#91040C"/>
<path d="M376.208 293.261C405.711 288.902 427.623 317.406 411.651 342.999C392.689 373.403 344.17 355.995 350.031 319.147C351.922 307.227 364.246 295.028 376.208 293.261Z" fill="#91040C"/>
<path d="M257.116 101.002C257.116 101.002 263.922 78.7864 239.767 56.7042C232.178 49.766 251.493 6.00195 251.493 6.00195" stroke="#91040C" stroke-width="12" stroke-linecap="round"/>
<path d="M144.558 97.002C144.558 97.002 147.961 86.4788 135.884 76.0188C132.089 72.7323 141.746 52.002 141.746 52.002" stroke="#91040C" stroke-width="12" stroke-linecap="round"/>
<path d="M415.442 99.002C415.442 99.002 412.039 88.245 424.116 77.5525C427.911 74.193 418.254 53.002 418.254 53.002" stroke="#91040C" stroke-width="12" stroke-linecap="round"/>
<path d="M183.575 97.002C183.575 97.002 179.151 81.568 194.851 66.2267C199.785 61.4064 187.23 31.002 187.23 31.002" stroke="#91040C" stroke-width="12" stroke-linecap="round"/>
<path d="M302.619 97.002C302.619 97.002 297.854 81.568 314.763 66.2267C320.076 61.4064 306.555 31.002 306.555 31.002" stroke="#91040C" stroke-width="12" stroke-linecap="round"/>
<path d="M380.585 97.002C383.017 90.2034 384.051 73.1099 368.725 59.1243C353.399 45.1386 367.813 24.5487 376.936 16.002" stroke="#91040C" stroke-width="12" stroke-linecap="round"/>
<path d="M441.604 587.712C445.394 577.006 452.764 565.243 454.319 554.229C456.227 540.694 440.101 555.308 433.645 558.273C417.545 565.647 400.792 561.594 391.67 549.888C389.841 547.539 387.475 540.376 384.548 539.674C378.876 538.316 375.06 545.036 371.754 547.327C359.365 555.904 344.454 558.407 330.602 549.637C327.387 547.597 317.481 536.391 314.371 536.766C309.928 537.315 301.133 554.306 284.197 554.056C279.61 553.989 271.677 551.592 267.887 549.628C261.249 546.201 258.125 540.039 251.487 536.632C247.449 536.593 240.614 548.771 236.484 551.64C222.148 561.604 202.664 551.216 193.947 541.512L181.624 555.51C173.26 559.486 164.661 562.008 155.056 558.619C149.985 556.829 137.074 544.044 135.754 552.525C133.911 564.328 139.335 576.13 141.047 587.712C128.279 593.131 125.469 580.154 123.365 573.3C113.904 542.475 129.847 516.28 100.496 488.103C91.7399 479.689 78.737 474.394 73 464.998C74.8034 461.157 79.5995 461.061 84.0166 462.707C97.111 467.588 125.338 496.767 132.408 506.962C137.884 514.856 147.254 541.252 161.276 541.406C168.477 541.493 172.397 536.564 174.737 532.145C184.838 513.017 171.274 490.692 155.984 475.145C153.958 473.085 128.436 454.813 147.947 457.932C151.553 458.51 172.031 473.865 175.691 476.993C187.452 487.034 194.966 498.163 202.703 510.042C206.27 515.51 214.425 539.308 226.735 529.055C242.143 516.223 233.844 487.496 223.155 473.807C220.632 470.572 202.023 456.825 215.105 456.036C224.644 455.458 246.534 482.75 250.637 489.171C256.544 498.413 266.045 525.002 277.571 529.007C289.646 533.204 296.298 524.049 299.094 516.897C303.433 505.835 302.819 485.831 297.199 475.087C295.827 472.459 277.649 452.002 293.893 456.334C304.505 459.165 319.964 484.281 323.349 492.406C327.4 502.158 329.687 522.365 339.044 528.978C345.199 533.33 351.616 535.236 358.66 530.923C373.649 521.739 374.655 486.851 370.696 473.894C369.519 470.043 357.941 453.562 372.76 456.931C377.831 458.086 387.345 476.377 388.978 480.642C395.146 496.738 393.957 515.655 401.406 531.173C412.632 554.566 433.672 540.097 442.741 524.511C451.719 509.089 456.816 487.439 453.248 470.832C452.307 466.423 447.21 461.34 450.125 456.787C453.13 452.098 459.756 457.817 461.938 460.58C486.167 491.26 481.397 536.169 467.362 568.65C465.545 572.848 461.468 583.283 458.893 586.479C456.319 589.675 449.51 588.847 444.767 588.703C443.081 588.655 441.774 587.712 441.604 587.702V587.712Z" fill="#91040C"/>
<path d="M448.501 581.454C344.163 578.601 237.519 583.588 132.948 581.454C131.151 569.108 125.471 556.527 127.391 543.945C128.777 534.904 142.318 548.532 147.655 550.441C157.739 554.053 163.219 550.24 172 546.002L188.485 532.205C203 536.502 218.092 553.622 233.143 543.001C237.478 539.943 244.654 526.961 248.893 527.002C255.863 530.635 259.142 537.203 266.111 540.856C270.104 542.95 278.418 545.505 283.233 545.577C301.014 545.844 310.248 527.731 314.912 527.146C318.164 526.735 328.563 538.691 331.952 540.866C346.495 550.215 362.149 547.557 375.155 538.403C378.626 535.961 382.646 528.798 388.587 530.245C391.66 530.994 394.143 538.629 396.064 541.133C405.641 553.612 423.229 557.933 440.132 550.072C446.909 546.921 463.84 531.343 461.836 545.762C460.204 557.512 452.466 570.042 448.487 581.454H448.501Z" fill="#EFDBBF"/>
<path d="M656.507 282.387C650.076 284.671 644.931 289.36 638.661 292.034C602.793 307.35 568.668 291.926 552 258.217C593.816 252.816 610.886 180.909 656.588 188.944C667.842 190.919 673.992 199.047 683.277 203.803C679.271 186.861 676.605 144.003 676.605 144.003L979.395 145.346C979.395 145.346 975.804 193.498 975.389 211.179L982.758 201.788C1038.5 163.362 1055.34 250.679 1104 252.829V262.234C1088.82 291.604 1057.21 305.053 1025.27 296.172C1016.72 293.794 1005.13 286.619 998.153 281.043C988.787 273.56 974.036 247.818 974.036 236.035V213.866H685.97C686.051 233.2 680.691 250.975 669.678 266.708C666.047 271.894 659.482 277.496 656.507 282.387Z" fill="#91040C"/>
<path d="M656.786 281.243C659.754 276.389 666.306 270.828 669.929 265.68C680.919 250.065 686.266 232.422 686.186 213.219H973.634V235.236C973.634 246.931 988.354 272.481 997.7 279.909C1013.92 309.46 1027.18 340.092 1013.56 373.737C998.422 411.116 961.642 415.024 926.841 422.598H726.295C700.224 415.89 675.918 413.597 656.238 393.127C628.122 363.856 637.427 312.914 656.773 281.243H656.786Z" fill="#EFDBBF"/>
<path d="M693.708 349.246C663.311 316.852 707.506 272.583 739.651 299.296C774.745 328.47 726.294 383.952 693.708 349.246Z" fill="#91040C"/>
<path d="M820.376 293.464C868.876 285.421 875.693 354.893 830.622 358.438C787.648 361.825 780.911 300.003 820.376 293.464Z" fill="#91040C"/>
<path d="M928.208 293.261C957.711 288.902 979.623 317.406 963.651 342.999C944.689 373.403 896.17 355.995 902.031 319.147C903.922 307.227 916.246 295.028 928.208 293.261Z" fill="#91040C"/>
<path d="M790.884 101.002C790.884 101.002 784.078 78.7864 808.233 56.7042C815.822 49.766 796.507 6.00195 796.507 6.00195" stroke="#91040C" stroke-width="12" stroke-linecap="round"/>
<path d="M687.442 97.002C687.442 97.002 684.039 86.4788 696.116 76.0188C699.911 72.7323 690.254 52.002 690.254 52.002" stroke="#91040C" stroke-width="12" stroke-linecap="round"/>
<path d="M976.558 99.002C976.558 99.002 979.961 88.245 967.884 77.5525C964.089 74.193 973.746 53.002 973.746 53.002" stroke="#91040C" stroke-width="12" stroke-linecap="round"/>
<path d="M747.425 97.002C747.425 97.002 751.849 81.568 736.149 66.2267C731.215 61.4064 743.77 31.002 743.77 31.002" stroke="#91040C" stroke-width="12" stroke-linecap="round"/>
<path d="M867.381 97.002C867.381 97.002 872.146 81.568 855.237 66.2267C849.924 61.4064 863.445 31.002 863.445 31.002" stroke="#91040C" stroke-width="12" stroke-linecap="round"/>
<path d="M915.415 97.002C912.983 90.2034 911.949 73.1099 927.275 59.1243C942.601 45.1386 928.187 24.5487 919.064 16.002" stroke="#91040C" stroke-width="12" stroke-linecap="round"/>
<path d="M662.396 587.712C658.606 577.006 651.236 565.243 649.681 554.229C647.773 540.694 663.899 555.308 670.355 558.273C686.455 565.647 703.208 561.594 712.33 549.888C714.159 547.539 716.525 540.376 719.452 539.674C725.124 538.316 728.94 545.036 732.246 547.327C744.635 555.904 759.546 558.407 773.398 549.637C776.613 547.597 786.519 536.391 789.629 536.766C794.072 537.315 802.867 554.306 819.803 554.056C824.39 553.989 832.323 551.592 836.113 549.628C842.751 546.201 845.875 540.039 852.513 536.632C856.551 536.593 863.386 548.771 867.516 551.64C881.852 561.604 901.336 551.216 910.053 541.512L922.376 555.51C930.74 559.486 939.339 562.008 948.944 558.619C954.015 556.829 966.926 544.044 968.246 552.525C970.089 564.328 964.665 576.13 962.953 587.712C975.721 593.131 978.531 580.154 980.635 573.3C990.096 542.475 974.153 516.28 1003.5 488.103C1012.26 479.689 1025.26 474.394 1031 464.998C1029.2 461.157 1024.4 461.061 1019.98 462.707C1006.89 467.588 978.662 496.767 971.592 506.962C966.116 514.856 956.746 541.252 942.724 541.406C935.523 541.493 931.603 536.564 929.263 532.145C919.162 513.017 932.726 490.692 948.016 475.145C950.042 473.085 975.564 454.813 956.053 457.932C952.447 458.51 931.969 473.865 928.309 476.993C916.548 487.034 909.034 498.163 901.297 510.042C897.73 515.51 889.575 539.308 877.265 529.055C861.857 516.223 870.156 487.496 880.845 473.807C883.368 470.572 901.977 456.825 888.895 456.036C879.356 455.458 857.466 482.75 853.363 489.171C847.456 498.413 837.955 525.002 826.429 529.007C814.354 533.204 807.702 524.049 804.906 516.897C800.567 505.835 801.181 485.831 806.801 475.087C808.173 472.459 826.351 452.002 810.107 456.334C799.495 459.165 784.036 484.281 780.651 492.406C776.6 502.158 774.313 522.365 764.956 528.978C758.801 533.33 752.384 535.236 745.34 530.923C730.351 521.739 729.345 486.851 733.304 473.894C734.481 470.043 746.059 453.562 731.24 456.931C726.169 458.086 716.655 476.377 715.022 480.642C708.854 496.738 710.043 515.655 702.594 531.173C691.368 554.566 670.328 540.097 661.259 524.511C652.281 509.089 647.184 487.439 650.752 470.832C651.693 466.423 656.79 461.34 653.875 456.787C650.87 452.098 644.244 457.817 642.062 460.58C617.833 491.26 622.603 536.169 636.638 568.65C638.455 572.848 642.532 583.283 645.107 586.479C647.681 589.675 654.49 588.847 659.233 588.703C660.919 588.655 662.226 587.712 662.396 587.702V587.712Z" fill="#91040C"/>
<path d="M655.499 581.454C759.837 578.601 866.481 583.588 971.052 581.454C972.849 569.108 978.529 556.527 976.609 543.945C975.223 534.904 961.682 548.532 956.345 550.441C946.261 554.053 940.781 550.24 932 546.002L915.515 532.205C901 536.502 885.908 553.622 870.857 543.001C866.522 539.943 859.346 526.961 855.107 527.002C848.137 530.635 844.858 537.203 837.889 540.856C833.896 542.95 825.582 545.505 820.767 545.577C802.986 545.844 793.752 527.731 789.088 527.146C785.836 526.735 775.437 538.691 772.048 540.866C757.505 550.215 741.851 547.557 728.845 538.403C725.374 535.961 721.354 528.798 715.413 530.245C712.34 530.994 709.857 538.629 707.936 541.133C698.359 553.612 680.771 557.933 663.868 550.072C657.091 546.921 640.16 531.343 642.164 545.762C643.796 557.512 651.534 570.042 655.513 581.454H655.499Z" fill="#EFDBBF"/>
</svg>
