<svg width="266" height="267" viewBox="0 0 266 267" fill="none" xmlns="http://www.w3.org/2000/svg">
<path d="M146.93 0L149.045 20.8022L151.159 41.6045L173.092 4.99253L168.036 45.7566C175.203 39.6241 189.226 22.4747 195.878 14.9693L184.076 54.9012L216.579 29.1148C217.668 29.6307 198.791 65.7683 198.428 66.5505C196.9 67.1496 198.328 66.7408 198.428 66.5505C198.428 66.5505 223.915 51.6311 234.704 47.8201L210.247 81.5281L248.229 69.0551L218.689 97.3378L259.204 91.5215L225.443 113.98C233.43 114.138 265.958 117.3 265.958 117.3C254.096 121.76 224.963 130.854 224.963 130.854C224.963 130.854 256.95 140.315 265.949 143.103C261.205 142.737 225.141 148.196 225.141 148.196C233.127 153.089 253.185 164.113 261.72 168.074C248.052 166.068 220.361 164.754 220.361 164.754C229.31 172.867 252.433 190.54 252.433 190.54L211.919 178.899L239.356 211.334C239.105 211.334 202.624 193.885 202.624 193.885L225.409 231.321L189.96 205.534L205.148 244.634L175.347 215.112L183.349 254.351L159.559 221.336L158.724 262.116L144.225 223.52C142.447 230.878 135.499 258.89 134.267 266.262C133.733 264.861 127.083 228.181 126.264 223.871L108.906 263.772L109.775 222.119L86.0861 257.107L93.0085 215.462L63.3004 244.634L77.6438 205.534L44.7273 229.657L64.9804 193.885L27.0154 212.615C35.5927 203.188 47.1249 189.899 54.8581 179.74L14.3435 191.372C24.0943 182.868 38.5391 173.416 48.1127 164.754L5.06538 168.906C15.3819 163.464 32.7646 153.92 43.0473 148.12L0 143.128C11.7432 139.808 43.0473 131.905 43.0473 131.905C41.8485 130.341 7.04932 118.955 2.52425 117.325L43.0388 114.396L7.58963 94.8415L48.9485 98.1782C43.7058 92.1372 26.0107 76.261 19.4088 70.7276L58.235 82.3685L33.7607 49.9253L69.21 68.223C71.5569 65.7517 51.8864 34.9561 49.8011 30.7873L82.7092 56.5821C82.7092 56.5821 74.8579 30.754 70.9153 17.8816C77.3061 24.1472 98.7496 46.597 98.7496 46.597L94.1063 5.00086L114.975 42.2906C114.975 42.2906 120.286 6.36548 120.7 1.66418L132.941 40.7724L146.93 0ZM185.275 192.562C228.871 156.574 223.265 89.6992 173.118 62.8061C114.993 31.6443 46.5762 79.3564 55.888 143.402C64.592 203.288 137.837 231.72 185.275 192.562Z" fill="#23140D"/>
<ellipse cx="133.241" cy="131.574" rx="82.1572" ry="80.7092" fill="#EFDBBF"/>
<ellipse cx="132.979" cy="131.315" rx="39.762" ry="39.4463" fill="#23140D"/>
</svg>
