<svg width="334" height="113" viewBox="0 0 334 113" fill="none" xmlns="http://www.w3.org/2000/svg">
<path d="M309.175 70.0441C314.291 60.075 316.272 48.433 302.552 41.1863C292.049 35.6404 281.268 37.5433 269.88 40.2938C277.387 22.4324 257.715 5.6936 231.151 16.269C229.857 16.7854 221.205 21.5848 220.762 21.2087C219.125 3.29111 189.949 -8.7662 171.653 8.03432C169.074 10.3975 167.715 13.3613 165.325 15.4551C164.801 15.9097 165.341 16.4879 163.467 16.1623C150.508 -7.22254 112.327 -2.95085 109.421 21.7756C105.459 20.928 102.978 18.5985 99.327 17.1952C80.8423 10.0944 61.9074 18.0765 60.3193 32.1714C59.9345 35.6179 61.1379 38.6154 61.1215 41.9834C51.1997 40.1198 40.2956 37.9138 30.8895 42.3034C16.408 49.0617 19.134 60.8047 24.275 70.5999C17.4476 71.6608 14.9894 68.8398 4.60334 75.4722C-5.78274 82.1045 4.65245 150.881 4.65245 150.881C5.81491 150.802 6.07686 148.383 6.18328 147.726C14.0258 100.002 40.6394 59.435 109.437 40.5857C215.564 11.5145 314.348 64.2512 328.715 137.196C329.329 140.317 329.092 144.111 329.632 147.243C329.812 148.282 329.395 148.142 331.278 148.074C331.278 148.074 335.526 80.9144 331.278 73.6984C327.029 66.4823 323.444 67.0367 319.004 66.4823C314.564 65.928 309.175 70.0497 309.175 70.0497V70.0441Z" fill="#EFDBBF"/>
<path d="M155.143 129.721C191.604 135.081 198.006 86.7015 166.951 80.8853C127.407 73.4852 121.033 124.703 155.143 129.721Z" fill="#EFDBBF"/>
<path d="M252.587 120.277C252.749 120.125 252.964 118.153 254.11 117.024C257.041 114.138 265.437 107.678 264.266 103.767C263.91 102.584 249.429 87.3614 247.342 85.4103C189.87 31.8563 118.961 39.2771 68.0709 96.5471C66.8078 97.9662 59.7916 105.927 59.6248 106.55C58.5394 110.546 60.6201 112.591 62.7834 115.268C64.0546 116.845 68.9775 121.136 69.5442 121.695C124.546 175.807 197.472 171.612 252.587 120.266L252.587 120.277ZM157.007 125.605C129.912 121.749 134.372 78.4349 165.803 84.2443C190.485 88.819 185.981 129.726 157.007 125.605Z" fill="#23140D"/>
</svg>
