<svg width="65" height="151" viewBox="0 0 65 151" fill="none" xmlns="http://www.w3.org/2000/svg">
<path d="M37.4538 66.4707C38.1781 67.0193 38.4385 73.7324 38.2921 75.1183C41.6533 74.9667 45.0959 75.3276 48.4571 75.1039C54.1786 74.7213 61.5928 71.1121 64.1646 77.7963L63.9367 146.602C62.895 149.33 62.3009 149.879 59.0617 150.189C42.3125 151.799 21.9823 149.251 4.88315 149.865C2.72643 148.782 0.097663 147.187 0 144.812L0.390649 77.2333C1.18823 74.8151 2.3195 73.2632 5.29008 72.9167C9.18033 72.4619 28.4362 75.9196 29.3477 75.1183C29.0059 73.1477 30.0314 69.4591 28.9652 67.8566C28.7862 67.5823 23.6833 67.474 21.844 66.9688C7.55261 63.042 4.15068 47.9267 8.15487 36.464C13.0624 22.4315 31.9765 15.9277 32.6113 0.0400748C33.5228 -0.0609824 34.2146 0.0184197 35.0448 0.400993C36.1923 0.927934 43.0938 6.72428 44.4123 7.97305C59.1268 21.9117 72.3276 55.5855 46.9841 65.8572C45.6412 66.3986 38.3734 68.5641 39.5128 65.7489C40.3755 63.605 42.6137 62.082 43.1101 58.8193C43.8182 54.1851 42.3613 49.6086 40.5464 45.3353C40.0337 44.1226 35.1913 34.5511 33.4089 35.7565C26.5237 42.3686 16.4969 59.2452 28.1025 65.7489C31.6917 67.7628 37.0794 66.182 37.4619 66.4707H37.4538Z" fill="#1C130B"/>
</svg>
