<svg width="812" height="134" viewBox="0 0 812 134" fill="none" xmlns="http://www.w3.org/2000/svg">
<path d="M368.604 132.71C372.394 122.005 379.764 110.241 381.319 99.2275C383.227 85.6922 367.101 100.306 360.645 103.271C344.545 110.645 327.792 106.592 318.67 94.8858C316.841 92.5368 314.475 85.3745 311.548 84.6717C305.876 83.3143 302.06 90.0339 298.754 92.325C286.365 100.903 271.454 103.406 257.602 94.6355C254.387 92.5946 244.481 81.389 241.371 81.7644C236.928 82.3131 228.133 99.3045 211.197 99.0542C206.61 98.9868 198.677 96.5897 194.887 94.6259C188.249 91.1987 185.125 85.0375 178.487 81.6296C174.449 81.5911 167.614 93.7691 163.484 96.6379C149.148 106.602 129.664 96.2143 120.947 86.5104L108.624 100.508C100.26 104.484 91.661 107.006 82.0558 103.617C76.9853 101.827 64.0738 89.0423 62.7539 97.5235C60.9113 109.326 66.3346 121.128 68.0466 132.71C55.2788 138.129 52.4692 125.152 50.3652 118.298C40.9037 87.4731 56.847 61.2785 27.4957 33.1008C18.7399 24.687 5.73698 19.3922 0 9.99646C1.80342 6.15535 6.59948 6.05909 11.0166 7.70527C24.111 12.5861 52.3385 41.765 59.4084 51.9598C64.884 59.8538 74.254 86.2505 88.2763 86.4045C95.4769 86.4912 99.3974 81.5623 101.737 77.1435C111.838 58.015 98.2735 35.6904 82.9836 20.1431C80.958 18.083 55.4357 -0.188723 74.9466 2.93037C78.5535 3.50798 99.0315 18.8628 102.691 21.9915C114.452 32.0322 121.966 43.1609 129.703 55.0404C133.27 60.5084 141.425 84.3059 153.735 74.0533C169.143 61.2208 160.844 32.4943 150.155 18.805C147.632 15.5704 129.023 1.82329 142.105 1.03389C151.644 0.456277 173.534 27.7483 177.637 34.1694C183.544 43.4112 193.045 70.0004 204.571 74.0052C216.646 78.2025 223.298 69.0474 226.094 61.8947C230.433 50.8334 229.819 30.8289 224.199 20.0854C222.827 17.4572 204.649 -2.99975 220.893 1.33232C231.505 4.1626 246.964 29.279 250.349 37.404C254.4 47.156 256.687 67.3627 266.044 73.9763C272.199 78.3276 278.616 80.2337 285.66 75.9209C300.649 66.7369 301.655 31.8493 297.696 18.8916C296.519 15.0409 284.941 -1.44021 299.76 1.92918C304.831 3.0844 314.345 21.3754 315.978 25.64C322.146 41.7361 320.957 60.6528 328.406 76.1712C339.632 99.5644 360.672 85.0953 369.741 69.5095C378.719 54.0873 383.816 32.4366 380.248 15.8303C379.307 11.4212 374.21 6.33826 377.125 1.78478C380.13 -2.90349 386.756 2.81485 388.938 5.57775C413.167 36.2584 408.397 81.1675 394.362 113.648C392.545 117.846 388.468 128.281 385.893 131.477C383.319 134.673 376.51 133.846 371.767 133.701C370.081 133.653 368.774 132.71 368.604 132.7V132.71Z" fill="#91040C"/>
<path d="M375.501 126.452C271.163 123.599 164.519 128.586 59.9478 126.452C58.1505 114.106 52.4706 101.525 54.3913 88.9431C55.777 79.9021 69.3184 93.5304 74.6553 95.4392C84.7393 99.0515 90.2194 95.2383 99 91L115.485 77.2031C130 81.5 145.092 98.6205 160.143 87.999C164.478 84.9408 171.654 71.959 175.893 72.0001C182.863 75.6329 186.142 82.2008 193.111 85.8542C197.104 87.9477 205.418 90.503 210.233 90.5748C228.014 90.8417 237.248 72.7287 241.912 72.1438C245.164 71.7333 255.563 83.6888 258.952 85.8644C273.495 95.2134 289.149 92.5555 302.155 83.4015C305.626 80.9591 309.646 73.796 315.587 75.243C318.66 75.9921 321.143 83.6273 323.064 86.1313C332.641 98.6102 350.229 102.931 367.132 95.0697C373.909 91.9192 390.84 76.341 388.836 90.7596C387.204 102.51 379.466 115.04 375.487 126.452H375.501Z" fill="#EFDBBF"/>
<path d="M443.396 132.71C439.606 122.005 432.236 110.241 430.681 99.2275C428.773 85.6922 444.899 100.306 451.355 103.271C467.455 110.645 484.208 106.592 493.33 94.8858C495.159 92.5368 497.525 85.3745 500.452 84.6717C506.124 83.3143 509.94 90.0339 513.246 92.325C525.635 100.903 540.546 103.406 554.398 94.6355C557.613 92.5946 567.519 81.389 570.629 81.7644C575.072 82.3131 583.867 99.3045 600.803 99.0542C605.39 98.9868 613.323 96.5897 617.113 94.6259C623.751 91.1987 626.875 85.0375 633.513 81.6296C637.551 81.5911 644.386 93.7691 648.516 96.6379C662.852 106.602 682.336 96.2143 691.053 86.5104L703.376 100.508C711.74 104.484 720.339 107.006 729.944 103.617C735.015 101.827 747.926 89.0423 749.246 97.5235C751.089 109.326 745.665 121.128 743.953 132.71C756.721 138.129 759.531 125.152 761.635 118.298C771.096 87.4731 755.153 61.2785 784.504 33.1008C793.26 24.687 806.263 19.3922 812 9.99646C810.197 6.15535 805.401 6.05909 800.983 7.70527C787.889 12.5861 759.662 41.765 752.592 51.9598C747.116 59.8538 737.746 86.2505 723.724 86.4045C716.523 86.4912 712.603 81.5623 710.263 77.1435C700.162 58.015 713.726 35.6904 729.016 20.1431C731.042 18.083 756.564 -0.188723 737.053 2.93037C733.447 3.50798 712.969 18.8628 709.309 21.9915C697.548 32.0322 690.034 43.1609 682.297 55.0404C678.73 60.5084 670.575 84.3059 658.265 74.0533C642.857 61.2208 651.156 32.4943 661.845 18.805C664.368 15.5704 682.977 1.82329 669.895 1.03389C660.356 0.456277 638.466 27.7483 634.363 34.1694C628.456 43.4112 618.955 70.0004 607.429 74.0052C595.354 78.2025 588.702 69.0474 585.906 61.8947C581.567 50.8334 582.181 30.8289 587.801 20.0854C589.173 17.4572 607.351 -2.99975 591.107 1.33232C580.495 4.1626 565.036 29.279 561.651 37.404C557.6 47.156 555.313 67.3627 545.956 73.9763C539.801 78.3276 533.384 80.2337 526.34 75.9209C511.351 66.7369 510.345 31.8493 514.304 18.8916C515.481 15.0409 527.059 -1.44021 512.24 1.92918C507.169 3.0844 497.655 21.3754 496.022 25.64C489.854 41.7361 491.043 60.6528 483.594 76.1712C472.368 99.5644 451.328 85.0953 442.259 69.5095C433.281 54.0873 428.184 32.4366 431.752 15.8303C432.693 11.4212 437.79 6.33826 434.875 1.78478C431.87 -2.90349 425.244 2.81485 423.062 5.57775C398.833 36.2584 403.603 81.1675 417.638 113.648C419.455 117.846 423.532 128.281 426.107 131.477C428.681 134.673 435.49 133.846 440.233 133.701C441.919 133.653 443.226 132.71 443.396 132.7V132.71Z" fill="#91040C"/>
<path d="M436.499 126.452C540.837 123.599 647.481 128.586 752.052 126.452C753.849 114.106 759.529 101.525 757.609 88.9431C756.223 79.9021 742.682 93.5304 737.345 95.4392C727.261 99.0515 721.781 95.2383 713 91L696.515 77.2031C682 81.5 666.908 98.6205 651.857 87.999C647.522 84.9408 640.346 71.959 636.107 72.0001C629.137 75.6329 625.858 82.2008 618.889 85.8542C614.896 87.9477 606.582 90.503 601.767 90.5748C583.986 90.8417 574.752 72.7287 570.088 72.1438C566.836 71.7333 556.437 83.6888 553.048 85.8644C538.505 95.2134 522.851 92.5555 509.845 83.4015C506.374 80.9591 502.354 73.796 496.413 75.243C493.34 75.9921 490.857 83.6273 488.936 86.1313C479.359 98.6102 461.771 102.931 444.868 95.0697C438.091 91.9192 421.16 76.341 423.164 90.7596C424.796 102.51 432.534 115.04 436.513 126.452H436.499Z" fill="#EFDBBF"/>
</svg>
