<svg width="100" height="83" viewBox="0 0 100 83" fill="none" xmlns="http://www.w3.org/2000/svg">
<path fill-rule="evenodd" clip-rule="evenodd" d="M23.0891 0.172611C16.8955 0.987109 11.5781 3.53297 7.39267 7.6878C3.93158 11.1236 1.6579 15.2922 0.543768 20.2448C-0.0205092 22.7531 -0.285535 26.2014 0.44787 29.8998C1.98585 37.6554 9.63699 42.7233 12.5106 46.1442C33.8515 66.9077 49.8899 82.308 49.8899 82.308C49.8899 82.308 65.5271 68.1816 88.1515 46.1442C90.4567 43.2033 97.6883 37.715 99.2375 30.3289C100.046 26.475 99.846 22.9405 99.2375 20.2448C97.0237 10.4384 89.8409 3.17691 80.0067 0.803328C73.699 -0.719034 67.1667 -0.0666198 61.3487 2.66655C58.5497 3.98158 56.7976 5.261 53.2521 8.57926L49.8899 11.7262L46.5276 8.56331C42.1923 4.48489 39.6824 2.87889 35.3169 1.38917C32.0353 0.269416 26.5231 -0.278961 23.0891 0.172611Z" fill="#91040C"/>
</svg>
