<svg width="441" height="170" viewBox="0 0 441 170" fill="none" xmlns="http://www.w3.org/2000/svg">
<path d="M123.411 72.101V72.1095L125.578 122.193C125.578 122.193 103.614 123.331 98.1345 124.909L53.7681 124.901C50.2558 123.882 42.3338 123.68 37.9757 123.443C35.7492 123.324 23.667 123.101 23.667 123.101L24.1762 71.2523L0 69.0982L67.003 2.75008C71.6114 -1.34081 70.6217 -0.466616 75.5148 2.75008L146.883 69.0982L123.411 72.101Z" fill="#91040C"/>
<path d="M46.2695 63.0182V78.7892L73.469 105.146L100.453 78.7892V63.2342L96.1352 57.6172H78.0022L73.469 63.2342L68.9357 57.6172H50.8028L46.2695 63.0182Z" fill="#91040C"/>
<path d="M47.2965 135.088C50.0452 131.069 48.3929 122.9 50.2189 118.129L67.2127 123.916C66.7533 126.56 64.8578 128.815 63.8425 131.173C61.3525 136.964 61.6729 139.083 56.3995 143.805C54.7279 145.299 49.0453 148.426 49.026 150.352C49.0067 152.279 53.7744 157.672 54.9209 159.942C55.5927 161.273 57.2951 166.014 57.1639 167.311C56.8782 170.16 53.62 170.346 51.6125 169.041C50.8173 168.523 50.659 167.446 50.0838 166.898C47.8833 164.798 44.4205 162.841 41.4441 162.219C38.4676 161.598 35.773 162.601 32.7001 160.926C29.4033 159.127 29.743 154.904 28.195 153.464C26.3381 151.742 18.1809 149.294 16.988 147.688C15.3937 145.542 19.0958 143.925 21.0724 143.959C22.3309 143.982 28.9724 145.341 29.3391 145.152C29.4737 145.152 30.4008 145.225 30.8833 145.048C35.7514 143.268 44.2931 139.473 47.2965 135.088Z" fill="#91040C"/>
<path d="M78.2747 123.689L95.5001 120.061C97.2604 127.646 100.943 134.688 99.1945 142.66C98.8509 144.219 95.9981 149.968 96.0637 150.377C96.9169 155.835 108.027 155.083 111.699 158.295C112.911 159.352 116.053 163.518 114.416 164.823C111.44 167.197 107.286 164.483 105.143 164.803C103.534 165.046 101.491 166.726 99.9589 167.355C94.6662 169.529 90.6784 169.691 86.123 165.849C83.4863 167.44 79.622 168.737 76.5954 169.471C75.75 169.675 73.3989 170.416 72.9048 169.683C70.9514 166.788 78.2901 161.931 79.5834 159.719C81.1971 156.959 86.123 144.551 86.2504 141.656C86.5322 135.244 80.4211 129.499 78.2747 123.689Z" fill="#91040C"/>
<path d="M270.411 72.101V72.1095L272.578 122.193C272.578 122.193 250.614 123.331 245.134 124.909L200.768 124.901C197.256 123.882 189.334 123.68 184.976 123.443C182.749 123.324 170.667 123.101 170.667 123.101L171.176 71.2523L147 69.0982L214.003 2.75008C218.611 -1.34081 217.622 -0.466616 222.515 2.75008L293.883 69.0982L270.411 72.101Z" fill="#91040C"/>
<path d="M193.27 63.0182V78.7892L220.469 105.146L247.453 78.7892V63.2342L243.135 57.6172H225.002L220.469 63.2342L215.936 57.6172H197.803L193.27 63.0182Z" fill="#91040C"/>
<path d="M197.057 129.291L203.032 108L219.43 114.032C217.063 119.433 215.681 125.279 213.427 130.725C212.138 133.84 212.138 134.624 209.298 136.696C207.298 138.155 193.505 145.928 193.429 146.982C196.608 152.097 200.624 157.381 202.696 163.073C203.395 164.988 205.157 169.574 201.585 169.8C198.269 170.01 193.186 163.595 190.31 161.724C187.805 160.096 185.122 159.704 182.674 158.452C179.22 156.69 177.919 151.256 175.556 148.198C173.362 145.354 169.758 143.047 167.27 140.324C166.546 139.532 163.638 136.333 164.038 135.452C164.805 134.555 166.453 133.957 167.617 133.993C171.758 134.123 178.739 138.595 182.739 139.035C184.036 139.177 184.597 138.66 185.623 138.058C187.559 136.922 196.196 130.778 197.057 129.291Z" fill="#91040C"/>
<path d="M225.917 129.186L219 113.668L235.196 110L239.616 121.942L236.796 139.278C236.816 139.605 236.909 139.92 237.192 140.122C238.121 140.769 248.617 138.191 250.803 137.929C254.003 137.545 262.963 135.989 260.422 141.492L243.838 151.972C241.022 153.184 237.673 152.812 234.805 153.846C231.443 155.058 227.209 159.187 224.183 160.193C215.077 163.215 224.717 149.228 225.072 146.946C225.921 141.528 225.266 134.761 225.917 129.186Z" fill="#91040C"/>
<path d="M417.411 72.101V72.1095L419.578 122.193C419.578 122.193 397.614 123.331 392.134 124.909L347.768 124.901C344.256 123.882 336.334 123.68 331.976 123.443C329.749 123.324 317.667 123.101 317.667 123.101L318.176 71.2523L294 69.0982L361.003 2.75008C365.611 -1.34081 364.622 -0.466616 369.515 2.75008L440.883 69.0982L417.411 72.101Z" fill="#91040C"/>
<path d="M340.27 63.0182V78.7892L367.469 105.146L394.453 78.7892V63.2342L390.135 57.6172H372.002L367.469 63.2342L362.936 57.6172H344.803L340.27 63.0182Z" fill="#91040C"/>
<path d="M344.718 124.674C345.716 121.753 347.219 119.006 347.958 116L368.825 117.244C366.425 120.921 364.837 124.989 362.51 128.726C358.632 134.952 353.477 140.309 349.675 146.591C348.188 152.388 354.782 160.986 352.895 165.975C352.002 168.338 349.538 170.35 346.993 168.872C346.233 168.431 346.055 167.579 345.502 167.134C339.01 161.907 337.482 158.279 328.324 156.84C325.5 156.396 323.294 157.301 320.514 155.358C317.202 153.035 318.329 149.807 317.573 146.583C317.117 144.636 310.58 141.246 308.645 139.755C308.027 139.279 305.482 137.335 305.235 136.915C304.354 135.396 306.132 133.873 307.53 133.546C311.598 132.584 320.337 138.159 324.708 139.448C328.51 140.567 334.658 139.723 338.266 138.018C342.181 136.168 343.401 128.524 344.718 124.674Z" fill="#91040C"/>
<path d="M393.106 124.674C392.108 121.753 390.605 119.006 389.866 116L368.999 117.244C371.399 120.921 372.987 124.989 375.314 128.726C379.192 134.952 384.347 140.309 388.149 146.591C389.636 152.388 383.042 160.986 384.929 165.975C385.822 168.338 388.286 170.35 390.832 168.872C391.591 168.431 391.769 167.579 392.322 167.134C398.815 161.907 400.342 158.279 409.5 156.84C412.324 156.396 414.53 157.301 417.31 155.358C420.623 153.035 419.495 149.807 420.251 146.583C420.707 144.636 427.244 141.246 429.179 139.755C429.797 139.279 432.343 137.335 432.589 136.915C433.47 135.396 431.692 133.873 430.294 133.546C426.226 132.584 417.488 138.159 413.116 139.448C409.315 140.567 403.166 139.723 399.558 138.018C395.643 136.168 394.423 128.524 393.106 124.674Z" fill="#91040C"/>
</svg>
