<svg width="1059" height="329" viewBox="0 0 1059 329" fill="none" xmlns="http://www.w3.org/2000/svg">
<path d="M41.0099 299.76L41.0099 299.763H40.961C40.9773 299.762 40.9936 299.761 41.0099 299.76L40.6676 146.627C38.565 140.169 31.7178 141.49 19.3965 144.242C6.5539 148.829 -5.24536 130.023 4.7285 119.688C4.7285 119.688 169.016 4.00605 173.153 1.42282C177.291 -1.16041 180.928 0.563244 180.928 0.563244C239.384 37.1283 292.78 81.8216 349.206 121.579C357.397 125.803 345.682 145.618 338.38 147.912C336.486 148.507 334.896 148.371 328.797 145.619C324.869 143.846 320.127 141.49 317.228 145.055L314.783 299.763H253.662V183.118C253.662 172.043 238.651 152.987 227.478 150.482C194.839 154.903 137.728 134.594 113.133 159.838C109.27 163.792 102 181.604 102 186L99.6371 299.763C80.2904 300.695 60.2846 298.49 41.0099 299.76Z" fill="#EFDBBF"/>
<path d="M315.724 299.427H318.176C322.344 299.402 326.561 299.328 330.656 300.481C340.242 303.204 346.739 328.864 339.016 328.864H22.7335C19.9139 328.864 7.04191 301.683 41.122 299.427C60.4667 298.151 80.547 300.359 99.9653 299.427V185.358C100.908 171.584 109.625 163.599 113.499 159.649C138.164 134.432 213.636 144.568 228.17 150.303C242.704 156.038 254.429 171.841 254.429 182.905V299.427H315.724Z" fill="#23140D"/>
<path fill-rule="evenodd" clip-rule="evenodd" d="M154.472 53.0581C149.188 53.7564 144.651 55.939 141.081 59.5009C138.128 62.4465 136.188 66.0202 135.237 70.2661C134.756 72.4164 134.53 75.3727 135.156 78.5433C136.468 85.1923 142.995 89.5371 145.447 92.4697C163.654 110.27 177.338 123.473 177.338 123.473C177.338 123.473 190.679 111.362 209.981 92.4697C211.948 89.9485 218.118 85.2434 219.44 78.9112C220.129 75.6073 219.959 72.5772 219.44 70.2661C217.551 61.859 211.423 55.6337 203.032 53.5989C197.651 52.2937 192.078 52.853 187.114 55.1962C184.726 56.3236 183.231 57.4204 180.206 60.2652L177.338 62.963L174.469 60.2515C170.77 56.7551 168.629 55.3782 164.905 54.1011C162.105 53.1411 157.402 52.671 154.472 53.0581Z" fill="#91040C"/>
<path fill-rule="evenodd" clip-rule="evenodd" d="M232.598 99.7214C229.927 100.075 227.635 101.181 225.83 102.985C224.338 104.477 223.357 106.287 222.877 108.437C222.634 109.526 222.519 111.024 222.836 112.63C223.499 115.997 226.798 118.198 228.037 119.683C237.238 128.699 244.154 135.386 244.154 135.386C244.154 135.386 250.896 129.252 260.651 119.683C261.645 118.406 264.763 116.023 265.431 112.816C265.779 111.142 265.693 109.608 265.431 108.437C264.476 104.179 261.379 101.026 257.139 99.9953C254.419 99.3343 251.603 99.6176 249.094 100.804C247.887 101.375 247.132 101.931 245.603 103.372L244.154 104.738L242.704 103.365C240.835 101.594 239.752 100.897 237.87 100.25C236.455 99.7635 234.079 99.5254 232.598 99.7214Z" fill="#91040C"/>
<path fill-rule="evenodd" clip-rule="evenodd" d="M101.711 99.7214C99.0407 100.075 96.748 101.181 94.9434 102.985C93.451 104.477 92.4707 106.287 91.9903 108.437C91.747 109.526 91.6327 111.024 91.949 112.63C92.6121 115.997 95.911 118.198 97.1501 119.683C106.352 128.699 113.267 135.386 113.267 135.386C113.267 135.386 120.009 129.252 129.764 119.683C130.758 118.406 133.876 116.023 134.544 112.816C134.893 111.142 134.806 109.608 134.544 108.437C133.59 104.179 130.493 101.026 126.252 99.9953C123.533 99.3343 120.716 99.6176 118.208 100.804C117.001 101.375 116.245 101.931 114.717 103.372L113.267 104.738L111.817 103.365C109.948 101.594 108.866 100.897 106.983 100.25C105.569 99.7635 103.192 99.5254 101.711 99.7214Z" fill="#91040C"/>
<path d="M315.723 242.605L315.212 272.847H40.9492C40.9492 262.855 40.8789 253.549 40.8789 242.605H315.723Z" fill="#23140D"/>
<path d="M316.383 198.617L316 228.858H40.8476C40.8476 218.866 40.7812 209.614 40.7812 198.617H316.383Z" fill="#23140D"/>
<g clip-path="url(#clip0_2962_88186)">
<path d="M372.932 242C369.059 241.94 364.276 242.146 360.433 242.146C359.148 241.984 358.834 242.614 359.074 240.879C377.323 221.733 397.449 204.135 415.929 185.193C418.805 182.251 438.57 162.553 438.57 160.955V127.798C438.57 127.704 437.285 126.523 437.183 126.523H397.893C397.69 124.941 398.854 123.862 399.76 122.714C402.682 118.99 410.577 112.036 414.515 108.227C451.928 71.984 491.662 37.7221 528.521 0.969208L530.703 0L660.443 124.822H623.927C623.825 124.822 622.54 126.004 622.54 126.097V160.529C622.54 160.623 623.602 161.875 624 162C637.534 179.207 658.169 195.488 673.867 211.523C683.352 221.215 692.717 231.051 702.035 240.879C702.276 242.614 701.962 241.984 700.676 242.146C697.062 242.588 689.864 242.103 686 242.146C680.897 233.755 663.934 227.099 657 220C644.159 206.865 636.786 195.618 623.927 182.5C622.096 180.63 610.809 185.378 614.5 175.5L601 171L630 235.5L633 233.5C639.462 232.463 640.872 235.313 647.5 235.5C648.693 235.534 651.208 229.371 651.208 238L649.903 265.084H408.82C408.959 257.168 409.898 247.924 410 240C419.485 239.753 426.515 238.4 436 238L469 165.5L450 171L379 238L372.932 242ZM504.5 167.722L482.02 164.78L448.739 241.296L489 235L504.5 167.722ZM536.5 171H522L518.999 231.5L541 237L536.5 171ZM597.5 231.5L575.5 185V180.066C569.398 180.942 571.306 175.024 565.5 175.5C562.782 175.721 559.648 172.312 559.676 175.5C559.805 188.678 562.297 192.805 563 206V235L597.5 231.5Z" fill="#EFDBBF"/>
<path d="M649.903 285.516C649.903 292.836 649.903 300.198 649.903 307.519H408.649C408.639 300.198 408.649 292.836 408.649 285.516H649.903Z" fill="#EFDBBF"/>
<path d="M649.903 307.521C649.903 314.67 649.875 321.852 649.903 329.001H408.651C408.633 321.852 408.66 314.67 408.651 307.521H649.903Z" fill="#23140D"/>
<path d="M649.903 265.088V285.519H408.698C408.698 278.768 408.578 271.975 408.698 265.088H649.903Z" fill="#23140D"/>
<path d="M649.88 241.849C649.87 241.866 651.064 241.9 649.87 241.866C643.235 241.679 630 242 626.301 241.043C622.602 240.087 587.879 165.547 587.879 165.547H613.327C614.41 165.547 626.31 178.087 628.142 179.953C641.024 193.036 653.202 206.729 666.055 219.829C672.996 226.901 681.787 233.489 686.886 241.866C674.615 242.002 662.141 242.163 649.87 241.866L649.88 241.849Z" fill="#23140D"/>
<path d="M410.005 241.849C410.014 241.866 408.821 241.9 410.014 241.866C416.649 241.679 429.885 242 433.584 241.043C437.283 240.087 472.006 165.547 472.006 165.547H446.558C445.475 165.547 433.575 178.087 431.742 179.953C418.861 193.036 406.683 206.729 393.829 219.829C386.889 226.901 378.098 233.489 372.999 241.866C385.27 242.002 397.744 242.163 410.014 241.866L410.005 241.849Z" fill="#23140D"/>
<path d="M417.172 118.925L529.335 13.1016L639.653 118.925H417.172Z" fill="#23140D"/>
<path d="M509.921 164.502L494.039 241.512H447.33L480.961 164.502H509.921Z" fill="#23140D"/>
<path d="M548.999 164.502L564.881 241.512H611.59L577.959 164.502H548.999Z" fill="#23140D"/>
<path d="M543.658 164.502L549.189 241.512H503.1L517.848 164.502H543.658Z" fill="#23140D"/>
<path fill-rule="evenodd" clip-rule="evenodd" d="M520.331 53.0629C518.096 53.3598 516.178 54.2877 514.667 55.8021C513.419 57.0544 512.598 58.5738 512.196 60.3789C511.993 61.2931 511.897 62.55 512.162 63.898C512.717 66.7248 515.477 68.572 516.514 69.8188C524.214 77.3868 530.001 83 530.001 83C530.001 83 535.644 77.8511 543.807 69.8188C544.639 68.7469 547.248 66.7465 547.807 64.0544C548.099 62.6497 548.027 61.3615 547.807 60.3789C547.009 56.8046 544.417 54.1579 540.868 53.2928C538.592 52.7379 536.235 52.9757 534.136 53.9719C533.126 54.4512 532.494 54.9176 531.215 56.127L530.001 57.274L528.788 56.1212C527.224 54.6347 526.318 54.0493 524.743 53.5063C523.559 53.0982 521.57 52.8983 520.331 53.0629Z" fill="#91040C"/>
<path fill-rule="evenodd" clip-rule="evenodd" d="M524.091 92.0377C522.726 92.2159 521.553 92.7726 520.63 93.6813C519.867 94.4326 519.366 95.3443 519.12 96.4274C518.995 96.9759 518.937 97.73 519.099 98.5388C519.438 100.235 521.125 101.343 521.759 102.091C526.464 106.632 530.001 110 530.001 110C530.001 110 533.449 106.911 538.438 102.091C538.946 101.448 540.541 100.248 540.882 98.6326C541.061 97.7898 541.016 97.0169 540.882 96.4274C540.394 94.2828 538.81 92.6948 536.642 92.1757C535.251 91.8428 533.811 91.9854 532.528 92.5831C531.91 92.8707 531.524 93.1505 530.742 93.8762L530.001 94.5644L529.26 93.8727C528.304 92.9808 527.75 92.6296 526.788 92.3038C526.064 92.0589 524.848 91.939 524.091 92.0377Z" fill="#91040C"/>
<path fill-rule="evenodd" clip-rule="evenodd" d="M554.091 92.0377C552.726 92.2159 551.553 92.7726 550.63 93.6813C549.867 94.4326 549.366 95.3443 549.12 96.4274C548.995 96.9759 548.937 97.73 549.099 98.5388C549.438 100.235 551.125 101.343 551.759 102.091C556.464 106.632 560.001 110 560.001 110C560.001 110 563.449 106.911 568.438 102.091C568.946 101.448 570.541 100.248 570.882 98.6326C571.061 97.7898 571.016 97.0169 570.882 96.4274C570.394 94.2828 568.81 92.6948 566.642 92.1757C565.251 91.8428 563.811 91.9854 562.528 92.5831C561.91 92.8707 561.524 93.1505 560.742 93.8762L560.001 94.5644L559.26 93.8727C558.304 92.9808 557.75 92.6296 556.788 92.3038C556.064 92.0589 554.848 91.939 554.091 92.0377Z" fill="#91040C"/>
<path fill-rule="evenodd" clip-rule="evenodd" d="M495.091 92.0377C493.726 92.2159 492.553 92.7726 491.63 93.6813C490.867 94.4326 490.366 95.3443 490.12 96.4274C489.995 96.9759 489.937 97.73 490.099 98.5388C490.438 100.235 492.125 101.343 492.759 102.091C497.464 106.632 501.001 110 501.001 110C501.001 110 504.449 106.911 509.438 102.091C509.946 101.448 511.541 100.248 511.882 98.6326C512.061 97.7898 512.016 97.0169 511.882 96.4274C511.394 94.2828 509.81 92.6948 507.642 92.1757C506.251 91.8428 504.811 91.9854 503.528 92.5831C502.91 92.8707 502.524 93.1505 501.742 93.8762L501.001 94.5644L500.26 93.8727C499.304 92.9808 498.75 92.6296 497.788 92.3038C497.064 92.0589 495.848 91.939 495.091 92.0377Z" fill="#91040C"/>
</g>
<g clip-path="url(#clip1_2962_88186)">
<path d="M752.344 174.832L884.299 51.5215C928.355 90.6766 969.463 133.752 1013.88 172.456V293.627C930.542 290.681 835.654 290.61 752.344 293.627V174.832Z" fill="#EFDBBF"/>
<path d="M752.345 174.832C749.04 177.469 734.679 188.802 732.706 189.658C720 193 703.344 176.655 711 160L866.42 9.65811C882.421 -3.1956 883.705 -3.24312 899.754 9.65811C910.262 18.0926 949.255 60.4552 955.626 63.1162C959.169 63.1162 958.979 59.8137 959.169 57.224C959.169 48.1161 957.172 31.469 961.404 28.5229C964.78 26.1707 1002.61 22.9124 1005.6 29.806C1009.03 69.1956 1005.6 95.774 1007.84 110.587C1018.19 120.519 1055.95 152.153 1056 168C1056 176.244 1047.7 185.5 1039 185.5C1029.54 185.5 1021.2 178.823 1013.85 172.432C969.44 133.728 928.332 90.677 884.276 51.4981L752.321 174.808L752.345 174.832Z" fill="#221308"/>
<path d="M752.407 293.28C835.717 290.262 930.542 290.679 1013.88 293.625C1018.46 293.791 1023.82 294.723 1027.81 296.029C1035.61 301.07 1033.77 319.858 1033.02 327.767C1031.94 329.482 1029.39 329.264 1028.17 329.264H742.857C741.24 328.836 737.743 329.264 736.271 328.836C731.73 325.557 731.889 296.325 737.287 295.114C741.409 293.625 747.865 293.28 752.407 293.28Z" fill="#221308"/>
<path fill-rule="evenodd" clip-rule="evenodd" d="M852.665 162.424C845.439 163.386 839.236 166.391 834.353 171.295C830.315 175.35 827.663 180.27 826.363 186.116C825.705 189.076 825.395 193.146 826.251 197.512C828.045 206.666 836.971 212.647 840.324 216.685C865.22 241.192 883.931 259.369 883.931 259.369C883.931 259.369 902.174 242.696 928.568 216.685C931.257 213.214 939.694 206.736 941.501 198.018C942.444 193.469 942.211 189.298 941.501 186.116C938.918 174.541 930.539 165.97 919.066 163.169C911.707 161.372 904.086 162.142 897.299 165.368C894.034 166.92 891.99 168.43 887.853 172.347L883.931 176.061L880.008 172.328C874.951 167.514 872.023 165.619 866.93 163.86C863.102 162.539 856.671 161.891 852.665 162.424Z" fill="#91040C"/>
<path fill-rule="evenodd" clip-rule="evenodd" d="M941.935 244.767C939.773 245.057 937.917 245.964 936.456 247.444C935.247 248.669 934.454 250.154 934.065 251.919C933.868 252.812 933.775 254.041 934.031 255.359C934.568 258.122 937.239 259.928 938.242 261.147C945.691 268.546 951.29 274.033 951.29 274.033C951.29 274.033 956.748 268.999 964.646 261.147C965.45 260.099 967.975 258.144 968.516 255.512C968.798 254.139 968.728 252.879 968.516 251.919C967.743 248.424 965.235 245.837 961.803 244.991C959.601 244.449 957.321 244.681 955.29 245.655C954.313 246.124 953.701 246.58 952.464 247.762L951.29 248.883L950.116 247.756C948.603 246.303 947.727 245.731 946.203 245.2C945.057 244.801 943.133 244.606 941.935 244.767Z" fill="#91040C"/>
<path fill-rule="evenodd" clip-rule="evenodd" d="M826.833 244.767C828.995 245.057 830.851 245.964 832.312 247.444C833.52 248.669 834.314 250.154 834.703 251.919C834.9 252.812 834.992 254.041 834.736 255.359C834.199 258.122 831.529 259.928 830.526 261.147C823.076 268.546 817.478 274.033 817.478 274.033C817.478 274.033 812.019 268.999 804.122 261.147C803.317 260.099 800.793 258.144 800.252 255.512C799.97 254.139 800.04 252.879 800.252 251.919C801.025 248.424 803.532 245.837 806.965 244.991C809.167 244.449 811.447 244.681 813.478 245.655C814.455 246.124 815.066 246.58 816.304 247.762L817.478 248.883L818.651 247.756C820.165 246.303 821.041 245.731 822.565 245.2C823.71 244.801 825.634 244.606 826.833 244.767Z" fill="#91040C"/>
<path fill-rule="evenodd" clip-rule="evenodd" d="M974.004 196.171C972.581 196.362 971.36 196.957 970.399 197.929C969.604 198.732 969.082 199.707 968.826 200.865C968.696 201.451 968.636 202.258 968.804 203.122C969.157 204.936 970.914 206.121 971.574 206.921C976.475 211.776 980.158 215.377 980.158 215.377C980.158 215.377 983.749 212.074 988.945 206.921C989.475 206.233 991.135 204.95 991.491 203.223C991.677 202.322 991.631 201.495 991.491 200.865C990.983 198.572 989.333 196.874 987.075 196.319C985.626 195.963 984.126 196.115 982.79 196.754C982.147 197.062 981.745 197.361 980.93 198.137L980.158 198.873L979.386 198.133C978.391 197.18 977.814 196.804 976.812 196.456C976.058 196.194 974.792 196.066 974.004 196.171Z" fill="#91040C"/>
<path fill-rule="evenodd" clip-rule="evenodd" d="M794.764 196.171C796.186 196.362 797.408 196.957 798.369 197.929C799.164 198.732 799.686 199.707 799.942 200.865C800.071 201.451 800.132 202.258 799.964 203.122C799.61 204.936 797.853 206.121 797.193 206.921C792.292 211.776 788.609 215.377 788.609 215.377C788.609 215.377 785.018 212.074 779.822 206.921C779.293 206.233 777.632 204.95 777.277 203.223C777.091 202.322 777.137 201.495 777.277 200.865C777.785 198.572 779.435 196.874 781.693 196.319C783.141 195.963 784.642 196.115 785.978 196.754C786.621 197.062 787.023 197.361 787.837 198.137L788.609 198.873L789.381 198.133C790.377 197.18 790.953 196.804 791.956 196.456C792.71 196.194 793.975 196.066 794.764 196.171Z" fill="#91040C"/>
<path fill-rule="evenodd" clip-rule="evenodd" d="M878.62 106.361C876.97 106.578 875.553 107.259 874.438 108.369C873.516 109.287 872.91 110.401 872.614 111.725C872.463 112.395 872.393 113.316 872.588 114.305C872.998 116.377 875.036 117.732 875.801 118.646C881.487 124.195 885.759 128.31 885.759 128.31C885.759 128.31 889.925 124.535 895.952 118.646C896.566 117.86 898.492 116.393 898.905 114.42C899.12 113.39 899.067 112.445 898.905 111.725C898.315 109.104 896.402 107.163 893.782 106.529C892.102 106.122 890.361 106.297 888.812 107.027C888.066 107.378 887.599 107.72 886.655 108.607L885.759 109.448L884.863 108.603C883.708 107.513 883.04 107.084 881.877 106.686C881.003 106.386 879.534 106.24 878.62 106.361Z" fill="#91040C"/>
<path fill-rule="evenodd" clip-rule="evenodd" d="M940.026 134.771C938.376 134.988 936.959 135.669 935.844 136.779C934.922 137.697 934.317 138.811 934.02 140.135C933.87 140.805 933.799 141.727 933.994 142.715C934.404 144.788 936.442 146.142 937.208 147.056C942.893 152.605 947.165 156.721 947.165 156.721C947.165 156.721 951.331 152.945 957.358 147.056C957.972 146.27 959.899 144.804 960.311 142.83C960.527 141.8 960.473 140.855 960.311 140.135C959.721 137.514 957.808 135.574 955.188 134.939C953.508 134.532 951.768 134.707 950.218 135.437C949.472 135.789 949.006 136.131 948.061 137.017L947.165 137.858L946.27 137.013C945.115 135.923 944.446 135.494 943.283 135.096C942.409 134.797 940.941 134.65 940.026 134.771Z" fill="#91040C"/>
<path fill-rule="evenodd" clip-rule="evenodd" d="M828.742 134.771C830.392 134.988 831.808 135.669 832.923 136.779C833.845 137.697 834.451 138.811 834.748 140.135C834.898 140.805 834.969 141.727 834.773 142.715C834.364 144.788 832.325 146.142 831.56 147.056C825.875 152.605 821.602 156.721 821.602 156.721C821.602 156.721 817.437 152.945 811.41 147.056C810.796 146.27 808.869 144.804 808.456 142.83C808.241 141.8 808.294 140.855 808.456 140.135C809.046 137.514 810.96 135.574 813.579 134.939C815.26 134.532 817 134.707 818.55 135.437C819.295 135.789 819.762 136.131 820.707 137.017L821.602 137.858L822.498 137.013C823.653 135.923 824.321 135.494 825.484 135.096C826.359 134.797 827.827 134.65 828.742 134.771Z" fill="#91040C"/>
</g>
<defs>
<clipPath id="clip0_2962_88186">
<rect width="353" height="329" fill="white" transform="translate(353)"/>
</clipPath>
<clipPath id="clip1_2962_88186">
<rect width="353" height="329" fill="white" transform="translate(706)"/>
</clipPath>
</defs>
</svg>
