<svg width="194" height="173" viewBox="0 0 194 173" fill="none" xmlns="http://www.w3.org/2000/svg">
<path d="M174.262 74.2785C162.946 93.6603 148.589 114.898 125.239 124.108C81.3365 141.423 50.6949 122.687 11.5463 107.641C7.82379 106.212 2.97452 106.397 0.365416 103.473C0.182327 101.981 17.5646 86.8135 20.2353 84.1648C36.6 67.9295 48.2116 52.5139 72.0643 43.9681C101.729 33.3486 128.998 36.9792 155.54 52.8265C160.346 55.6957 169.583 64.5308 173.047 65.8707C178.045 67.8095 193.488 62.7938 191.919 71.6794C190.966 77.0665 178.701 73.9611 174.266 74.2722L174.262 74.2785ZM159.189 70.8061C157.689 68.8489 156.52 68.9395 154.188 68.8735C144.27 68.6095 131.388 71.6311 121.351 72.5944C112.859 69.5442 104.343 65.0799 95.6809 62.4468C90.9055 60.9949 87.679 64.5321 90.7733 66.5843C95.649 69.8192 106.017 71.3168 111.496 74.4485C102.258 76.6185 92.7095 77.7013 83.457 79.7869C75.9929 81.4751 67.0909 83.6747 59.8099 85.8095C56.2312 86.8609 42.8649 90.8174 41.3006 93.0285C40.1281 94.6775 39.7951 96.1312 42.1919 96.8883C53.367 94.9084 64.1424 90.227 75.1992 87.4622C86.0161 84.7488 97.2809 83.51 108.185 81.1778C110.214 80.7448 115.35 78.6181 116.661 78.6676C117.774 78.7087 117.802 79.2123 117.157 79.9448C113.371 84.2829 103.272 92.941 101.348 97.335C100.276 99.7688 101.554 101.145 104.465 100.692C108.404 100.086 123.176 80.8551 127.461 77.6002C132.06 75.9489 155.517 75.3658 157.712 73.3985C158.288 72.8855 159.282 71.4471 159.207 70.806L159.189 70.8061Z" fill="#1C130B"/>
</svg>
