<svg width="164" height="610" viewBox="0 0 164 610" fill="none" xmlns="http://www.w3.org/2000/svg">
<rect width="164" height="610" fill="#EFDBBF"/>
<path d="M86.0779 94.3911C87.3951 97.1541 86.223 100.462 83.4601 101.779C80.6971 103.096 77.3896 101.924 76.0724 99.161C74.7553 96.398 75.9273 93.0904 78.6903 91.7733C81.4532 90.4561 84.7608 91.6282 86.0779 94.3911Z" fill="#23140D"/>
<path d="M84.3574 95.2117L84.2724 95.0448C83.3873 93.4071 81.4001 92.7028 79.6813 93.418L79.5108 93.4938C77.6983 94.3578 76.9291 96.5285 77.7932 98.341L77.8779 98.5073C78.7924 100.2 80.8841 100.895 82.6401 100.058L83.4604 101.779L83.1997 101.895C80.4926 103.021 77.3486 101.838 76.0726 99.1613C74.7554 96.3983 75.9276 93.0903 78.6906 91.7731C81.4535 90.4562 84.7609 91.6286 86.0781 94.3915L86.1942 94.6515C87.3204 97.3587 86.1369 100.503 83.4604 101.779L82.6401 100.058C84.396 99.2208 85.1722 97.1582 84.4332 95.3822L84.3574 95.2117Z" fill="#23140D"/>
<path d="M81.2496 38.915C83.5468 37.8046 86.3435 38.7511 87.4961 41.029L131.586 128.165C132.739 130.443 131.811 133.19 129.514 134.3C127.216 135.411 124.42 134.464 123.267 132.186L79.1769 45.0501C78.0244 42.7723 78.9524 40.0254 81.2496 38.915Z" fill="#23140D"/>
<path d="M32.3584 60.8865C34.6588 59.8081 37.422 60.7873 38.5301 63.0735L81.1351 150.971C82.2432 153.257 81.2765 155.985 78.9764 157.063C76.676 158.142 73.9128 157.162 72.8047 154.876L30.1997 66.9786C29.0915 64.6925 30.0581 61.9649 32.3584 60.8865Z" fill="#23140D"/>
<path d="M42.6983 144.207C41.5924 141.925 42.557 139.203 44.8526 138.127L136.404 95.2097C138.7 94.1339 141.457 95.1109 142.563 97.3922C143.669 99.6735 142.704 102.395 140.409 103.472L48.8572 146.389C46.5616 147.465 43.8041 146.488 42.6983 144.207Z" fill="#23140D"/>
<path d="M101.379 84.8245C100.255 82.5456 101.214 79.837 103.523 78.7748L114.334 73.7995C116.643 72.7373 119.426 73.7234 120.551 76.0022C121.675 78.281 120.715 80.9897 118.407 82.0519L107.595 87.0271C105.287 88.0894 102.504 87.1031 101.379 84.8245ZM86.0751 123.712C84.9505 121.434 85.9103 118.725 88.2188 117.663C90.5272 116.601 93.3104 117.587 94.4349 119.865L99.9487 131.04C101.073 133.319 100.113 136.027 97.8049 137.09C95.4965 138.152 92.7134 137.166 91.5889 134.887L86.0751 123.712ZM19.4454 97.3637C18.321 95.0849 19.2808 92.3763 21.5892 91.314L63.441 72.0547L59.9634 65.0064C58.8388 62.7276 59.7986 60.019 62.1071 58.9567C64.4154 57.8947 67.1979 58.8807 68.3225 61.1591L71.6848 67.9739L111.137 47.0993C113.38 45.9127 116.212 46.7481 117.462 48.9647C118.712 51.1813 117.908 53.9404 115.665 55.127L71.8088 78.3304L25.6615 99.5663C23.3531 100.629 20.57 99.6425 19.4454 97.3637ZM39.2388 113.42C38.1144 111.141 39.0741 108.432 41.3826 107.37L52.1947 102.395C54.5032 101.333 57.2863 102.319 58.4108 104.598C59.5352 106.876 58.5748 109.585 56.2664 110.647L45.4549 115.622C43.1464 116.685 40.3633 115.698 39.2388 113.42Z" fill="#23140D"/>
<path d="M86.0857 388.391C87.4029 391.154 86.2308 394.462 83.4679 395.779C80.7049 397.096 77.3974 395.924 76.0802 393.161C74.7631 390.398 75.9351 387.09 78.6981 385.773C81.461 384.456 84.7686 385.628 86.0857 388.391Z" fill="#23140D"/>
<path d="M84.3653 389.212L84.2802 389.045C83.3952 387.407 81.4079 386.703 79.6891 387.418L79.5186 387.494C77.7061 388.358 76.9369 390.528 77.801 392.341L77.8857 392.507C78.8002 394.2 80.8919 394.895 82.6479 394.058L83.4682 395.779L83.2075 395.895C80.5004 397.021 77.3565 395.838 76.0804 393.161C74.7632 390.398 75.9354 387.09 78.6984 385.773C81.4613 384.456 84.7688 385.629 86.0859 388.391L86.202 388.652C87.3283 391.359 86.1447 394.503 83.4682 395.779L82.6479 394.058C84.4038 393.221 85.18 391.158 84.4411 389.382L84.3653 389.212Z" fill="#23140D"/>
<path d="M81.2555 332.913C83.5527 331.803 86.3494 332.749 87.5019 335.027L131.592 422.163C132.745 424.441 131.817 427.188 129.52 428.298C127.222 429.409 124.426 428.462 123.273 426.184L79.1827 339.048C78.0302 336.77 78.9583 334.023 81.2555 332.913Z" fill="#23140D"/>
<path d="M32.3643 354.885C34.6646 353.806 37.4279 354.785 38.536 357.072L81.141 444.969C82.2491 447.255 81.2824 449.983 78.9822 451.061C76.6819 452.14 73.9187 451.161 72.8105 448.874L30.2055 360.977C29.0974 358.691 30.0639 355.963 32.3643 354.885Z" fill="#23140D"/>
<path d="M42.7061 438.205C41.6002 435.923 42.5648 433.201 44.8604 432.125L136.412 389.208C138.708 388.132 141.465 389.109 142.571 391.39C143.677 393.672 142.712 396.393 140.417 397.47L48.865 440.387C46.5694 441.463 43.8119 440.486 42.7061 438.205Z" fill="#23140D"/>
<path d="M101.385 378.822C100.261 376.544 101.22 373.835 103.529 372.773L114.34 367.798C116.649 366.735 119.432 367.721 120.556 370C121.681 372.279 120.721 374.988 118.413 376.05L107.601 381.025C105.293 382.087 102.51 381.101 101.385 378.822ZM86.0809 417.71C84.9564 415.432 85.9162 412.723 88.2247 411.661C90.5331 410.599 93.3162 411.585 94.4407 413.863L99.9545 425.038C101.079 427.317 100.119 430.025 97.8108 431.088C95.5024 432.15 92.7192 431.164 91.5947 428.885L86.0809 417.71ZM19.4513 391.362C18.3269 389.083 19.2866 386.374 21.595 385.312L63.4468 366.053L59.9692 359.004C58.8447 356.726 59.8045 354.017 62.113 352.955C64.4212 351.893 67.2038 352.879 68.3284 355.157L71.6907 361.972L111.143 341.097C113.386 339.911 116.217 340.746 117.468 342.963C118.718 345.179 117.914 347.938 115.671 349.125L71.8147 372.328L25.6674 393.564C23.3589 394.627 20.5758 393.641 19.4513 391.362ZM39.2447 407.418C38.1203 405.139 39.08 402.43 41.3884 401.368L52.2006 396.393C54.509 395.331 57.2922 396.317 58.4167 398.596C59.5411 400.874 58.5807 403.583 56.2723 404.645L45.4608 409.62C43.1523 410.683 40.3692 409.696 39.2447 407.418Z" fill="#23140D"/>
<path fill-rule="evenodd" clip-rule="evenodd" d="M95.3598 190.802C102.509 189.94 109.175 191.264 115.039 194.711C119.889 197.562 123.622 201.572 126.286 206.79C127.635 209.433 128.919 213.212 129.16 217.557C129.666 226.669 122.576 234.525 120.348 239.172C102.473 268.496 88.9798 290.305 88.9798 290.305C88.9798 290.305 67.4712 278.987 35.8937 260.825C32.4768 258.197 22.8294 254.131 18.9825 246.316C16.9753 242.239 16.1852 238.23 16.0919 235.042C15.7528 223.444 21.6911 213.269 31.9908 207.801C38.5971 204.293 46.0776 203.152 53.357 204.543C56.859 205.212 59.182 206.141 64.0918 208.836L68.7479 211.392L71.5953 206.893C75.2667 201.092 77.6088 198.578 82.0559 195.663C85.3989 193.472 91.3962 191.281 95.3598 190.802Z" fill="#91040C"/>
<path fill-rule="evenodd" clip-rule="evenodd" d="M95.3598 484.802C102.509 483.94 109.175 485.264 115.039 488.711C119.889 491.562 123.622 495.572 126.286 500.79C127.635 503.433 128.919 507.212 129.16 511.557C129.666 520.669 122.576 528.525 120.348 533.172C102.473 562.496 88.9798 584.305 88.9798 584.305C88.9798 584.305 67.4712 572.987 35.8937 554.825C32.4768 552.197 22.8294 548.131 18.9825 540.316C16.9753 536.239 16.1852 532.23 16.0919 529.042C15.7528 517.444 21.6911 507.269 31.9908 501.801C38.5971 498.293 46.0776 497.152 53.357 498.543C56.859 499.212 59.182 500.141 64.0918 502.836L68.7479 505.392L71.5953 500.893C75.2667 495.092 77.6088 492.578 82.0559 489.663C85.3989 487.472 91.3962 485.281 95.3598 484.802Z" fill="#91040C"/>
</svg>
