<svg width="162" height="117" viewBox="0 0 162 117" fill="none" xmlns="http://www.w3.org/2000/svg">
<path d="M104.981 59.5377C104.834 58.531 98.3548 60.0442 97.1022 60.0436C91.3945 60.0599 68.2282 57.8494 62.8537 56.6263C58.6564 55.6723 53.2266 53.3903 53.9369 48.8404C67.8665 50.7204 82.8979 52.0972 95.9467 46.4759C95.6968 45.6831 90.9626 45.8618 89.8101 45.4926C82.2769 43.0905 79.22 36.6503 72.7146 33.2873C68.3171 31.0116 62.1606 30.2919 58.0459 27.6345C56.5822 26.6884 46.9073 17.3382 51.3118 16.6634C54.4299 18.7924 58.3327 20.3583 62.262 20.7919C64.9279 21.0807 76.4201 19.5786 79.3908 18.9707C80.3233 18.7794 81.0452 18.8752 81.4716 17.8984C74.2823 12.8854 62.5853 12.6419 58.0484 4.77894C57.1865 3.28258 56.4944 1.4057 57.9922 -0.000692199C66.5934 9.05811 79.1845 2.04485 89.918 3.40256C101.554 4.88004 106.623 11.424 116.246 15.423C130.931 21.5296 144.606 9.93001 158.003 24.68C165.259 32.6721 157.671 39.7984 156.902 48.1479C156.473 48.7097 154.77 47.421 153.934 47.7007C152.108 48.3139 147.105 54.2409 144.839 54.4135C141.619 54.6577 139.927 50.3217 139.595 50.4287C135.814 53.8961 138.979 58.7475 139.326 62.5688C140.438 74.6329 136.321 83.2345 143.371 95.2063C146.432 100.409 154.544 107.72 153.27 114.06C152.954 115.616 152.037 117.983 150.335 115.945C148.738 114.031 147.704 111.436 146.011 109.365C138.691 100.439 128.481 93.7688 126.143 82.1791C118.132 87.191 110.931 93.1328 102.797 98.0103C80.355 111.482 58.6845 117.348 36.6471 98.8283C33.7517 96.3964 29.1881 89.1681 28.6192 88.8041C27.7697 88.2644 25.8107 88.4758 24.272 87.7297C11.2105 81.4097 6.71649 67.5174 0.000936419 56.7029C8.0175 54.6258 20.5652 53.9706 24.1588 62.3782C26.6776 52.4516 35.4756 46.625 41.3079 38.2097C43.2935 35.3503 44.2393 39.3388 44.5733 41.3226C45.2586 45.3693 46.5597 61.6652 46.0056 65.2753C44.7577 73.3686 32.3818 86.9332 43.4469 93.1514C53.9545 99.0584 64.1832 83.8472 71.4335 79.4584C76.7531 76.2395 93.2368 74.912 95.5552 71.877L104.981 59.5377Z" fill="#1C130B"/>
</svg>
