<svg width="265" height="272" viewBox="0 0 265 272" fill="none" xmlns="http://www.w3.org/2000/svg">
<path d="M3.44849 4.42361C1.54433 6.29271 1.51003 9.35716 3.37187 11.2682L107.168 117.81C109.794 115.197 112.461 112.578 115.123 110.002L11.3262 3.46033C9.46441 1.54925 6.41145 1.51521 4.50729 3.38431L3.44849 4.42361Z" fill="#23140D"/>
<path d="M115.183 110.046C112.538 112.618 109.881 115.227 107.26 117.823C103.057 121.992 94.1611 131.384 89.5785 136.243C87.972 137.946 87.9884 140.61 89.6074 142.301L93.0919 145.94C94.7849 147.708 97.5916 147.746 99.3311 146.023L115.024 130.483C115.433 130.078 116.113 130.17 116.4 130.67L190.037 259.124C194.323 266.6 204.485 268.008 210.63 261.976L254.715 218.703C260.83 212.7 259.7 202.528 252.418 198.026L126.844 120.402C126.358 120.102 126.283 119.424 126.691 119.024L142.864 103.148C144.595 101.449 144.626 98.6628 142.934 96.9255L138.956 92.8428C137.268 91.1098 134.501 91.0738 132.773 92.7677C126.906 98.5194 121.066 104.322 115.183 110.046Z" fill="#91040C"/>
</svg>
