<svg width="265" height="272" viewBox="0 0 265 272" fill="none" xmlns="http://www.w3.org/2000/svg">
<path d="M260.675 4.42361C262.579 6.29271 262.613 9.35716 260.752 11.2682L156.955 117.81C154.33 115.197 151.662 112.578 149.001 110.002L252.797 3.46033C254.659 1.54925 257.712 1.51521 259.616 3.38431L260.675 4.42361Z" fill="#23140D"/>
<path d="M148.941 110.046C151.585 112.618 154.242 115.227 156.863 117.823C161.067 121.992 169.962 131.384 174.545 136.243C176.151 137.946 176.135 140.61 174.516 142.301L171.032 145.94C169.339 147.708 166.532 147.746 164.792 146.023L149.1 130.483C148.691 130.078 148.01 130.17 147.724 130.67L74.0862 259.124C69.8002 266.6 59.6381 268.008 53.4933 261.976L9.40892 218.703C3.29319 212.7 4.42324 202.528 11.7059 198.026L137.28 120.402C137.765 120.102 137.841 119.424 137.433 119.024L121.259 103.148C119.528 101.449 119.497 98.6628 121.19 96.9255L125.167 92.8428C126.855 91.1098 129.623 91.0738 131.35 92.7677C137.217 98.5194 143.058 104.322 148.941 110.046Z" fill="#91040C"/>
</svg>
