<svg width="148" height="133" viewBox="0 0 148 133" fill="none" xmlns="http://www.w3.org/2000/svg">
<path d="M102.349 72.7945L101.59 65.5333C106.065 66.2983 127.375 61.7147 115.402 57.5927C100.369 52.4156 52.5587 52.6991 36.632 56.3528C36.0289 56.4913 33.593 57.0999 33.0122 57.245C31.8879 57.5286 27.2725 58.0478 27.8905 60.5737C28.4117 62.6973 41.3378 66.45 44.264 65.5399C43.8173 69.9982 44.8969 71.2512 39.5135 70.7302C23.8176 69.2001 -5.95102 60.4484 1.04811 42.1008C13.4306 9.61989 62.2011 -7.58671 97.8594 3.22927C115.052 8.446 146.928 30.1373 147.784 47.4363C148.543 62.7699 115.26 70.0048 102.357 72.8011L102.349 72.7945Z" fill="#1C130B"/>
<path d="M103.563 123.345C91.225 135.018 54.0627 135.882 42.462 122.857C29.9678 108.835 43.966 89.1225 48.5154 74.2506C49.9748 69.4691 50.9354 64.6019 51.8438 59.7281C52.2384 59.3258 61.6202 58.3366 63.2136 58.2574C70.6967 57.8881 85.2534 57.466 92.3195 58.2574C93.146 58.3498 93.9725 58.1981 94.5459 58.9235C95.0373 59.5435 96.6605 68.8162 97.3307 70.9662C101.813 85.3568 117.032 110.603 103.555 123.351L103.563 123.345Z" fill="#1C130B"/>
</svg>
