<svg width="966" height="418" viewBox="0 0 966 418" fill="none" xmlns="http://www.w3.org/2000/svg">
<path d="M397.618 419.475H303.242L351.926 392.89L397.618 419.475ZM722.023 419.475H627.647L676.331 392.89L722.023 419.475ZM28.4814 393.636L73.4414 418.929H27.001V417.999H20.666L2.5 382.897L28.4814 332.694V393.636ZM505.008 418.877H410.631L459.315 392.291L505.008 418.877ZM180.602 418.876H86.2256L134.909 392.291L180.602 418.876ZM288.51 418.876H194.133L242.817 392.29L288.51 418.876ZM612.915 418.876H518.539L567.223 392.291L612.915 418.876ZM828.069 418.876H733.693L782.377 392.291L828.069 418.876ZM934.411 418.876H840.035L888.719 392.291L934.411 418.876ZM14.3115 417.999H-0.910156V390.245L14.3115 417.999ZM963.502 382.897L945.336 417.999H937.521V413.404L893.214 390.573H937.521V332.694L963.502 382.897ZM966.912 417.999H951.69L966.912 390.245V417.999ZM511.433 415.593L462.881 390.573H559.984L511.433 415.593ZM620.271 415.593L571.718 390.573H668.822L620.271 415.593ZM835.426 415.593L786.874 390.573H883.978L835.426 415.593ZM78.1895 415.592L29.6377 390.572H126.742L78.1895 415.592ZM187.027 415.592L138.475 390.572H235.579L187.027 415.592ZM295.864 415.592L247.312 390.572H344.416L295.864 415.592ZM404.701 415.592L356.149 390.572H453.253L404.701 415.592ZM729.106 415.592L680.555 390.572H777.659L729.106 415.592ZM26.6973 329.008L-0.910156 376.254V278.669L26.6973 329.008ZM966.912 376.254L939.305 329.008L966.912 278.669V376.254ZM28.4824 322.74L2.50098 272.538L28.4824 222.335V322.74ZM963.501 272.538L937.52 322.74V222.335L963.501 272.538ZM26.0762 217.969L-1.53125 265.214V167.63L26.0762 217.969ZM967.533 265.214L939.926 217.969L967.533 167.63V265.214ZM28.4824 210.204L2.5 160.001L28.4824 109.799V210.204ZM963.502 160.001L937.52 210.204V109.799L963.502 160.001ZM26.6982 105.151L-0.90918 152.396V54.8125L26.6982 105.151ZM966.911 152.396L939.304 105.151L966.911 54.8125V152.396ZM28.4824 1.63672L73.4414 26.9287H28.4824V97.667L2.5 47.4648L28.4824 -2.73828V1.63672ZM938.198 -1.42676H941.767V5.46777L963.502 47.4648L937.52 97.667V21.4033L893.214 -1.42676H937.52V-2.73828L938.198 -1.42676ZM-0.910156 40.8213V-0.000976562H22.9443L-0.910156 40.8213ZM966.912 40.8213L943.058 -0.000976562H966.912V40.8213ZM397.618 27.4746H303.242L351.926 0.889648L397.618 27.4746ZM722.023 27.4746H627.647L676.331 0.889648L722.023 27.4746ZM505.008 26.877H410.631L459.315 0.291016L505.008 26.877ZM180.602 26.876H86.2256L134.909 0.291016L180.602 26.876ZM288.51 26.876H194.133L242.817 0.290039L288.51 26.876ZM612.915 26.876H518.539L567.223 0.291016L612.915 26.876ZM828.069 26.876H733.693L782.377 0.291016L828.069 26.876ZM934.411 26.876H840.035L888.719 0.291016L934.411 26.876ZM511.433 23.5928L462.881 -1.42676H559.984L511.433 23.5928ZM620.271 23.5928L571.718 -1.42676H668.822L620.271 23.5928ZM835.426 23.5928L786.874 -1.42676H883.978L835.426 23.5928ZM78.1895 23.5918L29.6377 -1.42773H126.742L78.1895 23.5918ZM187.027 23.5918L138.475 -1.42773H235.579L187.027 23.5918ZM295.864 23.5918L247.312 -1.42773H344.416L295.864 23.5918ZM404.701 23.5918L356.149 -1.42773H453.253L404.701 23.5918ZM729.106 23.5918L680.555 -1.42773H777.659L729.106 23.5918Z" fill="#23140D"/>
</svg>
