<svg width="152" height="150" viewBox="0 0 152 150" fill="none" xmlns="http://www.w3.org/2000/svg">
<path d="M78.5458 71.6937C79.9328 73.0807 79.9328 75.3295 78.5458 76.7164C77.1588 78.1034 74.9101 78.1034 73.5231 76.7164C72.1361 75.3295 72.1361 73.0807 73.5231 71.6937C74.9101 70.3067 77.1588 70.3067 78.5458 71.6937Z" fill="#23140D"/>
<path d="M77.6822 72.5576L77.5951 72.475C76.71 71.6752 75.3589 71.6752 74.4737 72.475L74.387 72.5573C73.4771 73.4672 73.4771 74.943 74.387 75.8529L74.4737 75.9351C75.3884 76.7616 76.8007 76.734 77.6822 75.8525L78.546 76.7163L78.4134 76.8424C77.0193 78.1021 74.8669 78.0601 73.5232 76.7166C72.1362 75.3296 72.1362 73.0806 73.5232 71.6936C74.9103 70.3067 77.159 70.3069 78.546 71.6939L78.6718 71.8261C79.9315 73.2203 79.8895 75.3726 78.546 76.7163L77.6822 75.8525C78.5636 74.971 78.591 73.559 77.7645 72.6444L77.6822 72.5576Z" fill="#23140D"/>
<path d="M63.753 39.2198C64.903 38.0574 66.7948 38.0305 67.9786 39.1597L113.261 82.3556C114.445 83.4849 114.472 85.3427 113.323 86.5051C112.173 87.6676 110.281 87.6944 109.097 86.5652L63.8142 43.3693C62.6305 42.2401 62.6031 40.3822 63.753 39.2198Z" fill="#23140D"/>
<path d="M38.9256 62.9555C40.0843 61.8117 41.963 61.8117 43.1217 62.9555L87.6703 106.929C88.8289 108.073 88.8288 109.928 87.6703 111.071C86.5116 112.215 84.633 112.215 83.4743 111.071L38.9256 67.0974C37.767 65.9536 37.767 64.0992 38.9256 62.9555Z" fill="#23140D"/>
<path d="M63.0039 111.07C61.8476 109.928 61.8476 108.078 63.0039 106.936L109.118 61.417C110.274 60.2758 112.149 60.2757 113.305 61.417C114.462 62.5583 114.462 64.409 113.305 65.5504L67.1913 111.07C66.035 112.211 64.1602 112.211 63.0039 111.07Z" fill="#23140D"/>
<path d="M85.7387 62.6414C84.5717 61.5056 84.5717 59.6641 85.7387 58.5283L91.2043 53.209C92.3714 52.0732 94.2635 52.0732 95.4305 53.209C96.5975 54.3448 96.5975 56.1863 95.4305 57.3221L89.9649 62.6414C88.7979 63.7771 86.9057 63.777 85.7387 62.6414ZM84.8181 89.4067C83.6511 88.271 83.6511 86.4294 84.8181 85.2937C85.9852 84.158 87.8773 84.1579 89.0443 85.2937L94.7666 90.8633C95.9337 91.9991 95.9337 93.8406 94.7666 94.9763C93.5996 96.112 91.7074 96.1121 90.5405 94.9763L84.8181 89.4067ZM38.9319 87.7527C37.7649 86.617 37.7649 84.7754 38.9319 83.6397L60.0895 63.0484L56.4802 59.5353C55.3132 58.3995 55.3132 56.558 56.4802 55.4223C57.6472 54.2867 59.539 54.2867 60.706 55.4223L64.1956 58.8189L83.558 37.7655C84.6587 36.5687 86.548 36.4673 87.7777 37.5385C89.0075 38.6098 89.1122 40.4485 88.0115 41.6453L66.4872 65.0481L43.1581 87.7527C41.991 88.8885 40.0989 88.8885 38.9319 87.7527ZM54.3244 93.2144C53.1574 92.0786 53.1574 90.2371 54.3244 89.1014L59.7904 83.7821C60.9575 82.6464 62.8496 82.6463 64.0166 83.7821C65.1835 84.9178 65.1832 86.7594 64.0162 87.8951L58.5506 93.2144C57.3835 94.3502 55.4914 94.3502 54.3244 93.2144Z" fill="#23140D"/>
</svg>
