<svg width="1440" height="64" viewBox="0 0 1440 64" fill="none" xmlns="http://www.w3.org/2000/svg">
<g clip-path="url(#clip0_2915_46301)">
<rect width="1440" height="64" fill="#EFDBBF"/>
<path d="M615 64.4908L615 5.14844L559.544 33.879L615 64.4908Z" fill="#23140D"/>
<path d="M-2.59394e-06 63.7056L0 4.36328L55.4559 33.0939L-2.59394e-06 63.7056Z" fill="#23140D"/>
<path d="M492.25 64.4888L492.25 5.14648L547.706 33.8771L492.25 64.4888Z" fill="#23140D"/>
<path d="M492.25 64.4888L492.25 5.14648L436.794 33.8771L492.25 64.4888Z" fill="#23140D"/>
<path d="M367.631 63.8033L367.631 4.46094L312.175 33.1915L367.631 63.8033Z" fill="#23140D"/>
<path d="M367.631 63.8033L367.631 4.46094L423.087 33.1915L367.631 63.8033Z" fill="#23140D"/>
<path d="M244.879 63.8033L244.879 4.46094L189.423 33.1915L244.879 63.8033Z" fill="#23140D"/>
<path d="M244.879 63.8033L244.879 4.46094L300.335 33.1915L244.879 63.8033Z" fill="#23140D"/>
<path d="M120.26 63.8033L120.26 4.46094L64.8039 33.1915L120.26 63.8033Z" fill="#23140D"/>
<path d="M120.26 63.8033L120.26 4.46094L175.716 33.1915L120.26 63.8033Z" fill="#23140D"/>
<path d="M609.392 0.689455L501.596 0.689453L553.785 31.2182L609.392 0.689455Z" fill="#23140D"/>
<path d="M250.487 0.0019437L358.283 0.00195312L306.094 30.5307L250.487 0.0019437Z" fill="#23140D"/>
<path d="M127.737 0.0019437L235.533 0.00195312L183.344 30.5307L127.737 0.0019437Z" fill="#23140D"/>
<path d="M4.36198 0.0019437L112.158 0.00195312L59.9687 30.5307L4.36198 0.0019437Z" fill="#23140D"/>
<path d="M484.771 0.00195313L376.975 0.00195312L429.164 30.5307L484.771 0.00195313Z" fill="#23140D"/>
<path d="M609.392 67.9199L500.973 67.9199L553.464 37.3912L609.392 67.9199Z" fill="#23140D"/>
<path d="M250.487 67.2324L358.906 67.2324L306.415 36.7037L250.487 67.2324Z" fill="#23140D"/>
<path d="M127.735 67.2324L236.154 67.2324L183.663 36.7037L127.735 67.2324Z" fill="#23140D"/>
<path d="M112.781 67.2324L4.36194 67.2324L60.2901 36.7037L112.781 67.2324Z" fill="#23140D"/>
<path d="M484.771 67.2324L376.352 67.2324L428.843 36.7037L484.771 67.2324Z" fill="#23140D"/>
<path d="M614.979 62.7037L614.979 3.36133L670.434 32.0919L614.979 62.7037Z" fill="#23140D"/>
<path d="M1107.23 63.4869L1107.23 4.14453L1162.69 32.8751L1107.23 63.4869Z" fill="#23140D"/>
<path d="M1107.23 63.4869L1107.23 4.14453L1051.77 32.8751L1107.23 63.4869Z" fill="#23140D"/>
<path d="M1358.21 63.4888L1358.21 4.14648L1302.75 32.8771L1358.21 63.4888Z" fill="#23140D"/>
<path d="M1358.21 63.4888L1358.21 4.14648L1413.66 32.8771L1358.21 63.4888Z" fill="#23140D"/>
<path d="M1479.46 63.4869L1479.46 4.14453L1424 32.8751L1479.46 63.4869Z" fill="#23140D"/>
<path d="M1231.42 63.4888L1231.42 4.14648L1286.88 32.8771L1231.42 63.4888Z" fill="#23140D"/>
<path d="M1231.42 63.4888L1231.42 4.14648L1175.97 32.8771L1231.42 63.4888Z" fill="#23140D"/>
<path d="M982.609 62.7994L982.609 3.45703L927.154 32.1876L982.609 62.7994Z" fill="#23140D"/>
<path d="M982.609 62.7994L982.609 3.45703L1038.07 32.1876L982.609 62.7994Z" fill="#23140D"/>
<path d="M859.857 62.7994L859.857 3.45703L804.402 32.1876L859.857 62.7994Z" fill="#23140D"/>
<path d="M859.857 62.7994L859.857 3.45703L915.313 32.1876L859.857 62.7994Z" fill="#23140D"/>
<path d="M735.238 62.7994L735.238 3.45703L679.782 32.1876L735.238 62.7994Z" fill="#23140D"/>
<path d="M735.238 62.7994L735.238 3.45703L790.694 32.1876L735.238 62.7994Z" fill="#23140D"/>
<path d="M1224.37 -0.314451L1116.57 -0.314453L1168.76 30.2143L1224.37 -0.314451Z" fill="#23140D"/>
<path d="M1474.43 -0.312498L1366.63 -0.3125L1418.82 30.2162L1474.43 -0.312498Z" fill="#23140D"/>
<path d="M1241.06 -0.314451L1348.86 -0.314453L1296.67 30.2143L1241.06 -0.314451Z" fill="#23140D"/>
<path d="M865.464 -1.00001L973.26 -1L921.07 29.5287L865.464 -1.00001Z" fill="#23140D"/>
<path d="M742.715 -1.00001L850.512 -1L798.322 29.5287L742.715 -1.00001Z" fill="#23140D"/>
<path d="M619.34 -1.00001L727.137 -1L674.947 29.5287L619.34 -1.00001Z" fill="#23140D"/>
<path d="M1099.75 -1L991.951 -1L1044.14 29.5287L1099.75 -1Z" fill="#23140D"/>
<path d="M1224.37 66.918L1115.95 66.918L1168.44 36.3892L1224.37 66.918Z" fill="#23140D"/>
<path d="M1474.43 66.9199L1366.01 66.9199L1418.5 36.3912L1474.43 66.9199Z" fill="#23140D"/>
<path d="M1241.07 66.918L1349.48 66.918L1296.99 36.3892L1241.07 66.918Z" fill="#23140D"/>
<path d="M865.465 66.2305L973.885 66.2305L921.394 35.7017L865.465 66.2305Z" fill="#23140D"/>
<path d="M742.714 66.2305L851.133 66.2305L798.642 35.7017L742.714 66.2305Z" fill="#23140D"/>
<path d="M727.76 66.2305L619.34 66.2305L675.269 35.7017L727.76 66.2305Z" fill="#23140D"/>
<path d="M1099.75 66.2305L991.328 66.2305L1043.82 35.7017L1099.75 66.2305Z" fill="#23140D"/>
</g>
<defs>
<clipPath id="clip0_2915_46301">
<rect width="1440" height="64" fill="white"/>
</clipPath>
</defs>
</svg>
