<svg width="108" height="806" viewBox="0 0 108 806" fill="none" xmlns="http://www.w3.org/2000/svg">
<path d="M101.544 0H5.3418L51.9181 81.155L101.544 0Z" fill="#91040C"/>
<path d="M101.544 179.635H5.3418L51.9181 98.4797L101.544 179.635Z" fill="#91040C"/>
<path d="M101.544 179.635H5.3418L51.9181 260.79L101.544 179.635Z" fill="#91040C"/>
<path d="M100.433 362.008H4.23047L50.8068 443.163L100.433 362.008Z" fill="#91040C"/>
<path d="M100.433 362.008H4.23047L50.8068 280.853L100.433 362.008Z" fill="#91040C"/>
<path d="M100.433 541.643H4.23047L50.8068 622.798L100.433 541.643Z" fill="#91040C"/>
<path d="M100.433 541.643H4.23047L50.8068 460.488L100.433 541.643Z" fill="#91040C"/>
<path d="M100.433 724.014H4.23047L50.8068 805.169L100.433 724.014Z" fill="#91040C"/>
<path d="M100.433 724.014H4.23047L50.8068 642.859L100.433 724.014Z" fill="#91040C"/>
<path d="M-1.88672 8.20627L-1.88672 165.957L47.6046 89.582L-1.88672 8.20627Z" fill="#91040C"/>
<path d="M-3.00001 533.434L-3 375.684L46.4913 452.059L-3.00001 533.434Z" fill="#91040C"/>
<path d="M-3.00001 713.069L-3 555.318L46.4913 631.693L-3.00001 713.069Z" fill="#91040C"/>
<path d="M41.7984 805L-3 735.867L-3 805L41.7984 805Z" fill="#91040C"/>
<path d="M-3.00001 190.577L-3 348.328L46.4913 271.953L-3.00001 190.577Z" fill="#91040C"/>
<path d="M107.104 8.20653L107.104 166.869L57.6122 90.0527L107.104 8.20653Z" fill="#91040C"/>
<path d="M105.992 533.434L105.992 374.771L56.5008 451.588L105.992 533.434Z" fill="#91040C"/>
<path d="M105.992 713.071L105.992 554.408L56.5008 631.225L105.992 713.071Z" fill="#91040C"/>
<path d="M60.8636 805L105.992 734.955L105.992 805L60.8636 805Z" fill="#91040C"/>
<path d="M105.992 190.578L105.992 349.24L56.5008 272.424L105.992 190.578Z" fill="#91040C"/>
</svg>
