<svg width="1440" height="73" viewBox="0 0 1440 73" fill="none" xmlns="http://www.w3.org/2000/svg">
<g clip-path="url(#clip0_2915_46365)">
<rect width="1440" height="73" fill="#91040C"/>
<path d="M99.3958 33.5447C98.2825 34.658 98.2825 36.4631 99.3958 37.5764C100.509 38.6897 102.314 38.6897 103.428 37.5764C104.541 36.4631 104.541 34.658 103.428 33.5447C102.314 32.4314 100.509 32.4314 99.3958 33.5447Z" fill="#EFDBBF"/>
<path d="M100.089 34.2381L100.159 34.1718C100.869 33.5298 101.954 33.5298 102.664 34.1718L102.734 34.2379C103.464 34.9683 103.464 36.1528 102.734 36.8832L102.664 36.9493C101.93 37.6127 100.797 37.5905 100.089 36.883L99.3957 37.5763L99.5021 37.6775C100.621 38.6886 102.349 38.655 103.427 37.5765C104.541 36.4632 104.541 34.6579 103.427 33.5446C102.314 32.4313 100.509 32.4315 99.3957 33.5448L99.2947 33.651C98.2835 34.77 98.3172 36.4977 99.3957 37.5763L100.089 36.883C99.3815 36.1754 99.3595 35.0419 100.023 34.3078L100.089 34.2381Z" fill="#EFDBBF"/>
<path d="M110.863 7.48565C109.954 6.55259 108.459 6.53101 107.523 7.43742L71.7255 42.1105C70.7897 43.0169 70.768 44.5082 71.6771 45.4413C72.5861 46.3744 74.0817 46.396 75.0175 45.4895L110.815 10.8164C111.751 9.91 111.772 8.41873 110.863 7.48565Z" fill="#EFDBBF"/>
<path d="M130.789 26.5362C129.859 25.6181 128.351 25.6181 127.421 26.5362L91.6618 61.8338C90.7317 62.7518 90.7318 64.2404 91.6618 65.1585C92.5918 66.0765 94.0998 66.0765 95.0299 65.1585L130.789 29.8609C131.719 28.9428 131.719 27.4543 130.789 26.5362Z" fill="#EFDBBF"/>
<path d="M112.087 65.1605C113.015 64.2444 113.015 62.7589 112.087 61.8427L75.0715 25.3046C74.1434 24.3886 72.6384 24.3885 71.7104 25.3046C70.7823 26.2207 70.7824 27.7062 71.7104 28.6224L108.726 65.1605C109.654 66.0767 111.159 66.0767 112.087 65.1605Z" fill="#EFDBBF"/>
<path d="M93.7225 26.285C94.6468 25.3733 94.6468 23.8952 93.7225 22.9835L89.3938 18.7137C88.4696 17.8021 86.971 17.802 86.0467 18.7137C85.1225 19.6254 85.1225 21.1036 86.0467 22.0153L90.3754 26.285C91.2997 27.1967 92.7983 27.1966 93.7225 26.285ZM94.4516 47.7694C95.3759 46.8577 95.3759 45.3796 94.4516 44.4679C93.5274 43.5563 92.0288 43.5562 91.1045 44.4679L86.5725 48.9386C85.6483 49.8503 85.6483 51.3284 86.5725 52.2401C87.4968 53.1517 88.9954 53.1518 89.9196 52.2401L94.4516 47.7694ZM130.793 46.4418C131.717 45.5301 131.717 44.0519 130.793 43.1402L114.037 26.6117L116.895 23.7918C117.819 22.8801 117.819 21.402 116.895 20.4903C115.971 19.5788 114.472 19.5788 113.548 20.4903L110.785 23.2168L95.4497 6.31735C94.5779 5.35669 93.0816 5.27524 92.1077 6.13513C91.1337 6.99504 91.0508 8.47096 91.9226 9.43163L108.97 28.2169L127.446 46.4418C128.37 47.3534 129.869 47.3534 130.793 46.4418ZM118.602 50.8258C119.527 49.9141 119.527 48.436 118.602 47.5243L114.273 43.2545C113.349 42.3429 111.85 42.3429 110.926 43.2545C110.002 44.1662 110.002 45.6444 110.927 46.5561L115.255 50.8258C116.18 51.7375 117.678 51.7375 118.602 50.8258Z" fill="#EFDBBF"/>
<path d="M37.7097 33.5427C38.823 34.6561 38.823 36.4611 37.7097 37.5744C36.5963 38.6878 34.7913 38.6878 33.678 37.5744C32.5646 36.4611 32.5646 34.6561 33.678 33.5427C34.7913 32.4294 36.5963 32.4294 37.7097 33.5427Z" fill="#EFDBBF"/>
<path d="M37.0165 34.2362L36.9466 34.1699C36.2361 33.5279 35.1516 33.5278 34.4411 34.1699L34.3714 34.2359C33.641 34.9663 33.641 36.1509 34.3714 36.8813L34.4411 36.9473C35.1752 37.6107 36.3089 37.5886 37.0165 36.881L37.7098 37.5743L37.6034 37.6756C36.4843 38.6867 34.7567 38.653 33.6781 37.5746C32.5648 36.4612 32.5648 34.656 33.6781 33.5426C34.7914 32.4294 36.5965 32.4296 37.7098 33.5429L37.8108 33.649C38.822 34.7681 38.7883 36.4957 37.7098 37.5743L37.0165 36.881C37.724 36.1734 37.7459 35.04 37.0825 34.3058L37.0165 34.2362Z" fill="#EFDBBF"/>
<path d="M26.1679 7.48565C27.0769 6.55259 28.5725 6.53101 29.5083 7.43742L65.3058 42.1105C66.2416 43.0169 66.2632 44.5082 65.3542 45.4413C64.4451 46.3744 62.9495 46.396 62.0137 45.4895L26.2162 10.8164C25.2805 9.91 25.2588 8.41873 26.1679 7.48565Z" fill="#EFDBBF"/>
<path d="M6.24833 26.5362C7.17839 25.6181 8.68637 25.6181 9.61643 26.5362L45.3753 61.8338C46.3054 62.7518 46.3053 64.2404 45.3753 65.1585C44.4453 66.0765 42.9373 66.0765 42.0072 65.1585L6.24833 29.8609C5.31826 28.9428 5.31827 27.4543 6.24833 26.5362Z" fill="#EFDBBF"/>
<path d="M24.9481 65.1605C24.0199 64.2444 24.0199 62.7589 24.9481 61.8427L61.9636 25.3046C62.8918 24.3886 64.3967 24.3885 65.3248 25.3046C66.2529 26.2207 66.2528 27.7062 65.3248 28.6224L28.3092 65.1605C27.3811 66.0767 25.8762 66.0767 24.9481 65.1605Z" fill="#EFDBBF"/>
<path d="M43.3146 26.285C42.3903 25.3733 42.3903 23.8952 43.3146 22.9835L47.6433 18.7137C48.5676 17.8021 50.0661 17.802 50.9904 18.7137C51.9146 19.6254 51.9146 21.1036 50.9904 22.0153L46.6617 26.285C45.7374 27.1967 44.2388 27.1966 43.3146 26.285ZM42.5855 47.7694C41.6612 46.8577 41.6612 45.3796 42.5855 44.4679C43.5097 43.5563 45.0083 43.5562 45.9326 44.4679L50.4646 48.9386C51.3889 49.8503 51.3889 51.3284 50.4646 52.2401C49.5403 53.1517 48.0417 53.1518 47.1175 52.2401L42.5855 47.7694ZM6.24396 46.4418C5.31974 45.5301 5.31971 44.0519 6.24396 43.1402L23.0006 26.6117L20.1421 23.7918C19.2178 22.8801 19.2178 21.402 20.1421 20.4903C21.0663 19.5788 22.5646 19.5788 23.4888 20.4903L26.2526 23.2168L41.5875 6.31735C42.4592 5.35669 43.9555 5.27524 44.9295 6.13513C45.9034 6.99504 45.9863 8.47096 45.1146 9.43163L28.0675 28.2169L9.59106 46.4418C8.66679 47.3534 7.16822 47.3534 6.24396 46.4418ZM18.4347 50.8258C17.5105 49.9141 17.5104 48.436 18.4347 47.5243L22.7637 43.2545C23.688 42.3429 25.1866 42.3429 26.1109 43.2545C27.035 44.1662 27.0347 45.6444 26.1105 46.5561L21.7818 50.8258C20.8575 51.7375 19.3589 51.7375 18.4347 50.8258Z" fill="#EFDBBF"/>
<path d="M164.913 33.5408C163.8 34.6541 163.8 36.4592 164.913 37.5725C166.027 38.6858 167.832 38.6858 168.945 37.5725C170.058 36.4592 170.058 34.6541 168.945 33.5408C167.832 32.4275 166.027 32.4275 164.913 33.5408Z" fill="#EFDBBF"/>
<path d="M165.607 34.2342L165.676 34.1679C166.387 33.5259 167.471 33.5259 168.182 34.1679L168.252 34.234C168.982 34.9644 168.982 36.1489 168.252 36.8793L168.182 36.9453C167.448 37.6088 166.314 37.5866 165.607 36.879L164.913 37.5724L165.02 37.6736C166.139 38.6847 167.866 38.6511 168.945 37.5726C170.058 36.4593 170.058 34.654 168.945 33.5407C167.832 32.4274 166.027 32.4276 164.913 33.5409L164.812 33.647C163.801 34.7661 163.835 36.4938 164.913 37.5724L165.607 36.879C164.899 36.1715 164.877 35.038 165.541 34.3039L165.607 34.2342Z" fill="#EFDBBF"/>
<path d="M176.322 7.48369C175.413 6.55063 173.918 6.52906 172.982 7.43546L137.184 42.1086C136.249 43.015 136.227 44.5063 137.136 45.4394C138.045 46.3724 139.541 46.394 140.477 45.4876L176.274 10.8145C177.21 9.90805 177.231 8.41678 176.322 7.48369Z" fill="#EFDBBF"/>
<path d="M196.251 26.5343C195.335 25.6162 193.85 25.6162 192.934 26.5343L157.726 61.8318C156.81 62.7499 156.81 64.2384 157.726 65.1565C158.641 66.0746 160.126 66.0746 161.042 65.1565L196.251 29.8589C197.166 28.9409 197.166 27.4523 196.251 26.5343Z" fill="#EFDBBF"/>
<path d="M177.542 65.1566C178.47 64.2404 178.47 62.755 177.542 61.8388L140.527 25.3007C139.598 24.3847 138.094 24.3846 137.165 25.3007C136.237 26.2168 136.237 27.7023 137.165 28.6185L174.181 65.1566C175.109 66.0728 176.614 66.0728 177.542 65.1566Z" fill="#EFDBBF"/>
<path d="M159.174 26.2831C160.098 25.3714 160.098 23.8932 159.174 22.9816L154.845 18.7118C153.921 17.8001 152.422 17.8001 151.498 18.7118C150.574 19.6235 150.574 21.1016 151.498 22.0133L155.827 26.2831C156.751 27.1947 158.249 27.1947 159.174 26.2831ZM159.903 47.7675C160.827 46.8558 160.827 45.3776 159.903 44.4659C158.979 43.5544 157.48 43.5543 156.556 44.4659L152.024 48.9366C151.099 49.8483 151.099 51.3265 152.024 52.2382C152.948 53.1498 154.447 53.1498 155.371 52.2382L159.903 47.7675ZM196.244 46.4398C197.169 45.5281 197.169 44.0499 196.244 43.1383L179.488 26.6098L182.346 23.7899C183.27 22.8782 183.27 21.4 182.346 20.4883C181.422 19.5768 179.924 19.5768 178.999 20.4883L176.236 23.2148L160.901 6.3154C160.029 5.35474 158.533 5.27328 157.559 6.13318C156.585 6.99308 156.502 8.46901 157.374 9.42968L174.421 28.2149L192.897 46.4398C193.821 47.3515 195.32 47.3515 196.244 46.4398ZM184.054 50.8239C184.978 49.9122 184.978 48.434 184.054 47.5223L179.725 43.2526C178.8 42.341 177.302 42.3409 176.377 43.2526C175.453 44.1643 175.454 45.6425 176.378 46.5541L180.707 50.8239C181.631 51.7355 183.129 51.7356 184.054 50.8239Z" fill="#EFDBBF"/>
<path d="M230.431 33.5603C229.318 34.6736 229.318 36.4787 230.431 37.592C231.544 38.7054 233.349 38.7054 234.463 37.592C235.576 36.4787 235.576 34.6736 234.463 33.5603C233.349 32.447 231.544 32.447 230.431 33.5603Z" fill="#EFDBBF"/>
<path d="M231.124 34.2538L231.194 34.1875C231.905 33.5455 232.989 33.5454 233.7 34.1875L233.769 34.2535C234.5 34.9839 234.5 36.1685 233.769 36.8988L233.7 36.9649C232.965 37.6283 231.832 37.6062 231.124 36.8986L230.431 37.5919L230.537 37.6931C231.656 38.7043 233.384 38.6706 234.463 37.5922C235.576 36.4788 235.576 34.6735 234.463 33.5602C233.349 32.447 231.544 32.4471 230.431 33.5604L230.33 33.6666C229.319 34.7857 229.352 36.5133 230.431 37.5919L231.124 36.8986C230.417 36.191 230.395 35.0575 231.058 34.3234L231.124 34.2538Z" fill="#EFDBBF"/>
<path d="M241.783 7.48565C240.874 6.55259 239.379 6.53101 238.443 7.43742L202.645 42.1105C201.71 43.0169 201.688 44.5082 202.597 45.4413C203.506 46.3744 205.002 46.396 205.937 45.4895L241.735 10.8164C242.671 9.91 242.692 8.41873 241.783 7.48565Z" fill="#EFDBBF"/>
<path d="M261.712 26.5362C260.796 25.6181 259.311 25.6181 258.395 26.5362L223.187 61.8338C222.271 62.7518 222.271 64.2404 223.187 65.1585C224.102 66.0765 225.587 66.0765 226.503 65.1585L261.712 29.8609C262.627 28.9428 262.627 27.4543 261.712 26.5362Z" fill="#EFDBBF"/>
<path d="M243.003 65.1586C243.931 64.2424 243.931 62.7569 243.003 61.8408L205.988 25.3026C205.059 24.3866 203.554 24.3865 202.626 25.3026C201.698 26.2188 201.698 27.7042 202.626 28.6204L239.642 65.1586C240.57 66.0747 242.075 66.0747 243.003 65.1586Z" fill="#EFDBBF"/>
<path d="M224.749 26.285C225.686 25.3733 225.686 23.8952 224.749 22.9835L220.362 18.7137C219.425 17.8021 217.907 17.802 216.97 18.7137C216.033 19.6254 216.033 21.1036 216.97 22.0153L221.357 26.285C222.294 27.1967 223.813 27.1966 224.749 26.285ZM225.488 47.7694C226.425 46.8577 226.425 45.3796 225.488 44.4679C224.552 43.5563 223.033 43.5562 222.096 44.4679L217.503 48.9386C216.566 49.8503 216.566 51.3284 217.503 52.2401C218.439 53.1517 219.958 53.1518 220.895 52.2401L225.488 47.7694ZM262.321 46.4418C263.258 45.5301 263.258 44.0519 262.321 43.1402L245.338 26.6117L248.235 23.7918C249.172 22.8801 249.172 21.402 248.235 20.4903C247.298 19.5788 245.78 19.5788 244.843 20.4903L242.042 23.2168L226.5 6.31735C225.616 5.35669 224.1 5.27524 223.113 6.13513C222.126 6.99504 222.041 8.47096 222.925 9.43163L240.202 28.2169L258.929 46.4418C259.865 47.3534 261.384 47.3534 262.321 46.4418ZM249.965 50.8258C250.902 49.9141 250.902 48.436 249.965 47.5243L245.578 43.2545C244.641 42.3429 243.122 42.3429 242.186 43.2545C241.249 44.1662 241.249 45.6444 242.186 46.5561L246.573 50.8258C247.51 51.7375 249.029 51.7375 249.965 50.8258Z" fill="#EFDBBF"/>
<path d="M295.949 33.5506C294.835 34.6639 294.835 36.4689 295.949 37.5823C297.062 38.6956 298.867 38.6956 299.98 37.5823C301.094 36.4689 301.094 34.6639 299.98 33.5506C298.867 32.4372 297.062 32.4372 295.949 33.5506Z" fill="#EFDBBF"/>
<path d="M296.642 34.244L296.712 34.1777C297.422 33.5357 298.507 33.5357 299.217 34.1777L299.287 34.2437C300.017 34.9741 300.017 36.1587 299.287 36.8891L299.217 36.9551C298.483 37.6185 297.349 37.5964 296.642 36.8888L295.948 37.5821L296.055 37.6834C297.174 38.6945 298.902 38.6608 299.98 37.5824C301.093 36.469 301.093 34.6638 299.98 33.5504C298.867 32.4372 297.062 32.4374 295.948 33.5507L295.847 33.6568C294.836 34.7759 294.87 36.5036 295.948 37.5821L296.642 36.8888C295.934 36.1812 295.912 35.0478 296.576 34.3136L296.642 34.244Z" fill="#EFDBBF"/>
<path d="M307.851 7.48565C306.928 6.55259 305.41 6.53101 304.459 7.43742L268.111 42.1105C267.161 43.0169 267.139 44.5082 268.062 45.4413C268.985 46.3744 270.504 46.396 271.454 45.4895L307.802 10.8164C308.752 9.91 308.774 8.41873 307.851 7.48565Z" fill="#EFDBBF"/>
<path d="M327.783 26.5362C326.853 25.6181 325.345 25.6181 324.415 26.5362L288.656 61.8338C287.726 62.7518 287.726 64.2404 288.656 65.1585C289.586 66.0765 291.094 66.0765 292.024 65.1585L327.783 29.8609C328.713 28.9428 328.713 27.4543 327.783 26.5362Z" fill="#EFDBBF"/>
<path d="M308.456 65.1605C309.384 64.2444 309.384 62.7589 308.456 61.8427L271.441 25.3046C270.512 24.3886 269.008 24.3885 268.079 25.3046C267.151 26.2207 267.152 27.7062 268.079 28.6224L305.095 65.1605C306.023 66.0767 307.528 66.0767 308.456 65.1605Z" fill="#EFDBBF"/>
<path d="M290.206 26.285C291.143 25.3733 291.143 23.8952 290.206 22.9835L285.819 18.7137C284.882 17.8021 283.364 17.802 282.427 18.7137C281.49 19.6254 281.49 21.1036 282.427 22.0153L286.814 26.285C287.751 27.1967 289.27 27.1966 290.206 26.285ZM290.945 47.7694C291.882 46.8577 291.882 45.3796 290.945 44.4679C290.009 43.5563 288.49 43.5562 287.553 44.4679L282.96 48.9386C282.023 49.8503 282.023 51.3284 282.96 52.2401C283.896 53.1517 285.415 53.1518 286.352 52.2401L290.945 47.7694ZM327.778 46.4418C328.715 45.5301 328.715 44.0519 327.778 43.1402L310.795 26.6117L313.692 23.7918C314.629 22.8801 314.629 21.402 313.692 20.4903C312.755 19.5788 311.237 19.5788 310.3 20.4903L307.499 23.2168L291.957 6.31735C291.073 5.35669 289.557 5.27524 288.57 6.13513C287.583 6.99504 287.499 8.47096 288.382 9.43163L305.659 28.2169L324.386 46.4418C325.322 47.3534 326.841 47.3534 327.778 46.4418ZM315.422 50.8258C316.359 49.9141 316.359 48.436 315.422 47.5243L311.035 43.2545C310.098 42.3429 308.579 42.3429 307.643 43.2545C306.706 44.1662 306.706 45.6444 307.643 46.5561L312.03 50.8258C312.967 51.7375 314.486 51.7375 315.422 50.8258Z" fill="#EFDBBF"/>
<path d="M361.458 33.5506C360.345 34.6639 360.345 36.4689 361.458 37.5823C362.572 38.6956 364.377 38.6956 365.49 37.5823C366.603 36.4689 366.603 34.6639 365.49 33.5506C364.377 32.4372 362.572 32.4372 361.458 33.5506Z" fill="#EFDBBF"/>
<path d="M362.151 34.244L362.221 34.1777C362.932 33.5357 364.016 33.5357 364.727 34.1777L364.797 34.2437C365.527 34.9741 365.527 36.1587 364.797 36.8891L364.727 36.9551C363.993 37.6185 362.859 37.5964 362.151 36.8888L361.458 37.5821L361.565 37.6834C362.684 38.6945 364.411 38.6608 365.49 37.5824C366.603 36.469 366.603 34.6638 365.49 33.5504C364.377 32.4372 362.571 32.4374 361.458 33.5507L361.357 33.6568C360.346 34.7759 360.38 36.5036 361.458 37.5821L362.151 36.8888C361.444 36.1812 361.422 35.0478 362.085 34.3136L362.151 34.244Z" fill="#EFDBBF"/>
<path d="M429.559 33.5506C430.673 34.6639 430.673 36.4689 429.559 37.5823C428.446 38.6956 426.641 38.6956 425.528 37.5823C424.414 36.4689 424.414 34.6639 425.528 33.5506C426.641 32.4372 428.446 32.4372 429.559 33.5506Z" fill="#EFDBBF"/>
<path d="M428.866 34.244L428.796 34.1777C428.086 33.5357 427.001 33.5357 426.291 34.1777L426.221 34.2437C425.491 34.9741 425.491 36.1587 426.221 36.8891L426.291 36.9551C427.025 37.6185 428.159 37.5964 428.866 36.8888L429.559 37.5821L429.453 37.6834C428.334 38.6945 426.606 38.6608 425.528 37.5824C424.414 36.469 424.414 34.6638 425.528 33.5504C426.641 32.4372 428.446 32.4374 429.559 33.5507L429.66 33.6568C430.672 34.7759 430.638 36.5036 429.559 37.5821L428.866 36.8888C429.574 36.1812 429.596 35.0478 428.932 34.3136L428.866 34.244Z" fill="#EFDBBF"/>
<path d="M373.312 7.48174C372.389 6.54868 370.87 6.52711 369.92 7.43351L333.572 42.1066C332.622 43.013 332.6 44.5043 333.523 45.4374C334.446 46.3705 335.965 46.392 336.915 45.4856L373.263 10.8125C374.213 9.9061 374.235 8.41483 373.312 7.48174Z" fill="#EFDBBF"/>
<path d="M393.242 26.5343C392.312 25.6162 390.804 25.6162 389.874 26.5343L354.115 61.8318C353.185 62.7499 353.185 64.2384 354.115 65.1565C355.045 66.0746 356.553 66.0746 357.483 65.1565L393.242 29.8589C394.172 28.9409 394.172 27.4523 393.242 26.5343Z" fill="#EFDBBF"/>
<path d="M373.917 65.1566C374.845 64.2404 374.845 62.755 373.917 61.8388L336.902 25.3007C335.973 24.3847 334.469 24.3846 333.54 25.3007C332.612 26.2168 332.612 27.7023 333.54 28.6185L370.556 65.1566C371.484 66.0728 372.989 66.0728 373.917 65.1566Z" fill="#EFDBBF"/>
<path d="M355.665 26.2831C356.602 25.3714 356.602 23.8932 355.665 22.9816L351.278 18.7118C350.341 17.8001 348.823 17.8001 347.886 18.7118C346.949 19.6235 346.949 21.1016 347.886 22.0133L352.273 26.2831C353.21 27.1947 354.729 27.1947 355.665 26.2831ZM356.404 47.7675C357.341 46.8558 357.341 45.3776 356.404 44.4659C355.468 43.5544 353.949 43.5543 353.012 44.4659L348.419 48.9366C347.482 49.8483 347.482 51.3265 348.419 52.2382C349.355 53.1498 350.874 53.1498 351.811 52.2382L356.404 47.7675ZM393.237 46.4398C394.174 45.5281 394.174 44.0499 393.237 43.1383L376.254 26.6098L379.151 23.7899C380.088 22.8782 380.088 21.4 379.151 20.4883C378.214 19.5768 376.696 19.5768 375.759 20.4883L372.958 23.2148L357.416 6.3154C356.532 5.35474 355.016 5.27328 354.029 6.13318C353.042 6.99308 352.957 8.46901 353.841 9.42968L371.118 28.2149L389.845 46.4398C390.781 47.3515 392.3 47.3515 393.237 46.4398ZM380.881 50.8239C381.818 49.9122 381.818 48.434 380.881 47.5223L376.494 43.2526C375.557 42.341 374.038 42.3409 373.102 43.2526C372.165 44.1643 372.165 45.6425 373.102 46.5541L377.489 50.8239C378.426 51.7355 379.945 51.7356 380.881 50.8239Z" fill="#EFDBBF"/>
<path d="M417.682 7.48174C418.605 6.54868 420.124 6.52711 421.074 7.43351L457.422 42.1066C458.372 43.013 458.394 44.5043 457.471 45.4374C456.548 46.3705 455.03 46.392 454.079 45.4856L417.731 10.8125C416.781 9.9061 416.759 8.41483 417.682 7.48174Z" fill="#EFDBBF"/>
<path d="M397.754 26.5343C398.684 25.6162 400.192 25.6162 401.122 26.5343L436.881 61.8318C437.811 62.7499 437.811 64.2384 436.881 65.1565C435.951 66.0746 434.443 66.0746 433.513 65.1565L397.754 29.8589C396.824 28.9409 396.824 27.4523 397.754 26.5343Z" fill="#EFDBBF"/>
<path d="M417.081 65.1566C416.153 64.2404 416.153 62.755 417.081 61.8388L454.096 25.3007C455.025 24.3847 456.53 24.3846 457.458 25.3007C458.386 26.2168 458.386 27.7023 457.458 28.6185L420.442 65.1566C419.514 66.0728 418.009 66.0728 417.081 65.1566Z" fill="#EFDBBF"/>
<path d="M435.331 26.2831C434.394 25.3714 434.394 23.8932 435.331 22.9816L439.718 18.7118C440.655 17.8001 442.174 17.8001 443.11 18.7118C444.047 19.6235 444.047 21.1016 443.11 22.0133L438.723 26.2831C437.786 27.1947 436.268 27.1947 435.331 26.2831ZM434.592 47.7675C433.655 46.8558 433.655 45.3776 434.592 44.4659C435.529 43.5544 437.047 43.5543 437.984 44.4659L442.577 48.9366C443.514 49.8483 443.514 51.3265 442.577 52.2382C441.641 53.1498 440.122 53.1498 439.185 52.2382L434.592 47.7675ZM397.759 46.4398C396.822 45.5281 396.822 44.0499 397.759 43.1383L414.742 26.6098L411.845 23.7899C410.908 22.8782 410.908 21.4 411.845 20.4883C412.782 19.5768 414.3 19.5768 415.237 20.4883L418.038 23.2148L433.58 6.3154C434.464 5.35474 435.98 5.27328 436.967 6.13318C437.955 6.99308 438.039 8.46901 437.155 9.42968L419.878 28.2149L401.152 46.4398C400.215 47.3515 398.696 47.3515 397.759 46.4398ZM410.115 50.8239C409.178 49.9122 409.178 48.434 410.115 47.5223L414.502 43.2526C415.439 42.341 416.958 42.3409 417.895 43.2526C418.831 44.1643 418.831 45.6425 417.894 46.5541L413.507 50.8239C412.57 51.7355 411.051 51.7356 410.115 50.8239Z" fill="#EFDBBF"/>
<path d="M490.749 33.5486C489.636 34.6619 489.636 36.467 490.749 37.5803C491.863 38.6936 493.668 38.6936 494.781 37.5803C495.894 36.467 495.894 34.6619 494.781 33.5486C493.668 32.4353 491.863 32.4353 490.749 33.5486Z" fill="#EFDBBF"/>
<path d="M491.443 34.242L491.512 34.1757C492.223 33.5337 493.307 33.5337 494.018 34.1757L494.088 34.2418C494.818 34.9722 494.818 36.1567 494.088 36.8871L494.018 36.9532C493.284 37.6166 492.15 37.5944 491.443 36.8869L490.749 37.5802L490.856 37.6814C491.975 38.6926 493.702 38.6589 494.781 37.5804C495.894 36.4671 495.894 34.6618 494.781 33.5485C493.668 32.4352 491.862 32.4354 490.749 33.5487L490.648 33.6549C489.637 34.7739 489.671 36.5016 490.749 37.5802L491.443 36.8869C490.735 36.1793 490.713 35.0458 491.376 34.3117L491.443 34.242Z" fill="#EFDBBF"/>
<path d="M502.373 7.48174C501.464 6.54868 499.969 6.52711 499.033 7.43351L463.235 42.1066C462.299 43.013 462.278 44.5043 463.187 45.4374C464.096 46.3705 465.591 46.392 466.527 45.4856L502.325 10.8125C503.261 9.9061 503.282 8.41483 502.373 7.48174Z" fill="#EFDBBF"/>
<path d="M522.293 26.5323C521.363 25.6142 519.855 25.6142 518.925 26.5323L483.166 61.8299C482.236 62.7479 482.236 64.2365 483.166 65.1546C484.096 66.0726 485.604 66.0726 486.534 65.1546L522.293 29.857C523.223 28.9389 523.223 27.4504 522.293 26.5323Z" fill="#EFDBBF"/>
<path d="M503.591 65.1566C504.519 64.2404 504.519 62.755 503.591 61.8388L466.575 25.3007C465.647 24.3847 464.142 24.3846 463.214 25.3007C462.286 26.2168 462.286 27.7023 463.214 28.6185L500.23 65.1566C501.158 66.0728 502.663 66.0728 503.591 65.1566Z" fill="#EFDBBF"/>
<path d="M485.226 26.2811C486.151 25.3694 486.151 23.8913 485.226 22.9796L480.898 18.7098C479.973 17.7981 478.475 17.7981 477.551 18.7098C476.626 19.6215 476.626 21.0997 477.551 22.0113L481.879 26.2811C482.804 27.1928 484.302 27.1927 485.226 26.2811ZM485.956 47.7655C486.88 46.8538 486.88 45.3757 485.956 44.464C485.031 43.5524 483.533 43.5523 482.608 44.464L478.076 48.9347C477.152 49.8463 477.152 51.3245 478.076 52.2362C479.001 53.1478 480.499 53.1479 481.424 52.2362L485.956 47.7655ZM522.297 46.4379C523.221 45.5262 523.221 44.048 522.297 43.1363L505.54 26.6078L508.399 23.7879C509.323 22.8762 509.323 21.3981 508.399 20.4864C507.475 19.5749 505.976 19.5749 505.052 20.4864L502.288 23.2129L486.954 6.31345C486.082 5.35278 484.585 5.27133 483.612 6.13123C482.638 6.99113 482.555 8.46706 483.426 9.42773L500.473 28.213L518.95 46.4379C519.874 47.3495 521.373 47.3495 522.297 46.4379ZM510.106 50.8219C511.031 49.9102 511.031 48.4321 510.106 47.5204L505.777 43.2506C504.853 42.339 503.354 42.339 502.43 43.2506C501.506 44.1623 501.506 45.6405 502.431 46.5521L506.759 50.8219C507.684 51.7336 509.182 51.7336 510.106 50.8219Z" fill="#EFDBBF"/>
<path d="M559.842 33.5408C560.956 34.6541 560.956 36.4592 559.842 37.5725C558.729 38.6858 556.924 38.6858 555.811 37.5725C554.697 36.4592 554.697 34.6541 555.811 33.5408C556.924 32.4275 558.729 32.4275 559.842 33.5408Z" fill="#EFDBBF"/>
<path d="M559.149 34.2342L559.079 34.1679C558.369 33.5259 557.284 33.5259 556.574 34.1679L556.504 34.234C555.774 34.9644 555.774 36.1489 556.504 36.8793L556.574 36.9453C557.308 37.6088 558.442 37.5866 559.149 36.879L559.843 37.5724L559.736 37.6736C558.617 38.6847 556.889 38.6511 555.811 37.5726C554.698 36.4593 554.698 34.654 555.811 33.5407C556.924 32.4274 558.729 32.4276 559.843 33.5409L559.944 33.647C560.955 34.7661 560.921 36.4938 559.843 37.5724L559.149 36.879C559.857 36.1715 559.879 35.038 559.215 34.3039L559.149 34.2342Z" fill="#EFDBBF"/>
<path d="M547.975 7.48565C548.898 6.55259 550.417 6.53101 551.367 7.43742L587.715 42.1105C588.665 43.0169 588.687 44.5082 587.764 45.4413C586.841 46.3744 585.323 46.3959 584.372 45.4895L548.024 10.8164C547.074 9.91 547.052 8.41873 547.975 7.48565Z" fill="#EFDBBF"/>
<path d="M528.049 26.5362C528.979 25.6181 530.487 25.6181 531.417 26.5362L567.176 61.8338C568.106 62.7518 568.106 64.2404 567.176 65.1585C566.246 66.0765 564.738 66.0765 563.808 65.1585L528.049 29.8609C527.119 28.9428 527.119 27.4543 528.049 26.5362Z" fill="#EFDBBF"/>
<path d="M547.372 65.1605C546.444 64.2444 546.444 62.7589 547.372 61.8427L584.387 25.3046C585.316 24.3886 586.821 24.3885 587.749 25.3046C588.677 26.2207 588.677 27.7062 587.749 28.6224L550.733 65.1605C549.805 66.0767 548.3 66.0767 547.372 65.1605Z" fill="#EFDBBF"/>
<path d="M565.626 26.285C564.689 25.3733 564.689 23.8952 565.626 22.9835L570.013 18.7137C570.95 17.8021 572.468 17.802 573.405 18.7137C574.342 19.6254 574.342 21.1036 573.405 22.0153L569.018 26.285C568.081 27.1967 566.562 27.1966 565.626 26.285ZM564.887 47.7694C563.95 46.8577 563.95 45.3796 564.887 44.4679C565.823 43.5563 567.342 43.5562 568.279 44.4679L572.872 48.9386C573.809 49.8503 573.809 51.3284 572.872 52.2401C571.936 53.1517 570.417 53.1518 569.48 52.2401L564.887 47.7694ZM528.054 46.4418C527.117 45.5301 527.117 44.0519 528.054 43.1402L545.037 26.6117L542.14 23.7918C541.203 22.8801 541.203 21.402 542.14 20.4903C543.077 19.5788 544.595 19.5788 545.532 20.4903L548.333 23.2168L563.875 6.31736C564.759 5.35669 566.275 5.27524 567.262 6.13514C568.249 6.99504 568.334 8.47096 567.45 9.43163L550.173 28.2169L531.446 46.4418C530.51 47.3534 528.991 47.3534 528.054 46.4418ZM540.41 50.8258C539.473 49.9141 539.473 48.436 540.41 47.5243L544.797 43.2545C545.734 42.3429 547.253 42.3429 548.189 43.2545C549.126 44.1662 549.126 45.6444 548.189 46.5561L543.802 50.8258C542.865 51.7375 541.346 51.7375 540.41 50.8258Z" fill="#EFDBBF"/>
<path d="M1080.61 33.5447C1081.72 34.658 1081.72 36.4631 1080.61 37.5764C1079.5 38.6897 1077.69 38.6897 1076.58 37.5764C1075.47 36.4631 1075.47 34.658 1076.58 33.5447C1077.69 32.4314 1079.5 32.4314 1080.61 33.5447Z" fill="#EFDBBF"/>
<path d="M1079.92 34.2381L1079.85 34.1718C1079.14 33.5298 1078.05 33.5298 1077.34 34.1718L1077.27 34.2379C1076.54 34.9683 1076.54 36.1528 1077.27 36.8832L1077.34 36.9493C1078.08 37.6127 1079.21 37.5905 1079.92 36.883L1080.61 37.5763L1080.5 37.6775C1079.38 38.6886 1077.66 38.655 1076.58 37.5765C1075.47 36.4632 1075.47 34.6579 1076.58 33.5446C1077.69 32.4313 1079.5 32.4315 1080.61 33.5448L1080.71 33.651C1081.72 34.77 1081.69 36.4977 1080.61 37.5763L1079.92 36.883C1080.62 36.1754 1080.65 35.0419 1079.98 34.3078L1079.92 34.2381Z" fill="#EFDBBF"/>
<path d="M1069.14 7.48565C1070.05 6.55259 1071.55 6.53101 1072.48 7.43742L1108.28 42.1105C1109.22 43.0169 1109.24 44.5082 1108.33 45.4413C1107.42 46.3744 1105.93 46.396 1104.99 45.4895L1069.19 10.8164C1068.26 9.91 1068.24 8.41873 1069.14 7.48565Z" fill="#EFDBBF"/>
<path d="M1049.22 26.5362C1050.15 25.6181 1051.66 25.6181 1052.59 26.5362L1088.35 61.8338C1089.28 62.7518 1089.28 64.2404 1088.35 65.1585C1087.42 66.0765 1085.91 66.0765 1084.98 65.1585L1049.22 29.8609C1048.29 28.9428 1048.29 27.4543 1049.22 26.5362Z" fill="#EFDBBF"/>
<path d="M1067.92 65.1586C1066.99 64.2424 1066.99 62.7569 1067.92 61.8408L1104.94 25.3026C1105.87 24.3866 1107.37 24.3865 1108.3 25.3026C1109.23 26.2188 1109.23 27.7042 1108.3 28.6204L1071.28 65.1586C1070.36 66.0747 1068.85 66.0747 1067.92 65.1586Z" fill="#EFDBBF"/>
<path d="M1086.29 26.285C1085.36 25.3733 1085.36 23.8952 1086.29 22.9835L1090.62 18.7137C1091.54 17.8021 1093.04 17.802 1093.96 18.7137C1094.89 19.6254 1094.89 21.1036 1093.96 22.0153L1089.64 26.285C1088.71 27.1967 1087.21 27.1966 1086.29 26.285ZM1085.56 47.7694C1084.64 46.8577 1084.64 45.3796 1085.56 44.4679C1086.48 43.5563 1087.98 43.5562 1088.91 44.4679L1093.44 48.9386C1094.36 49.8503 1094.36 51.3284 1093.44 52.2401C1092.51 53.1517 1091.02 53.1518 1090.09 52.2401L1085.56 47.7694ZM1049.22 46.4418C1048.29 45.5301 1048.29 44.0519 1049.22 43.1402L1065.98 26.6117L1063.12 23.7918C1062.19 22.8801 1062.19 21.402 1063.12 20.4903C1064.04 19.5788 1065.54 19.5788 1066.46 20.4903L1069.23 23.2168L1084.56 6.31735C1085.43 5.35669 1086.93 5.27524 1087.9 6.13513C1088.88 6.99504 1088.96 8.47096 1088.09 9.43163L1071.04 28.2169L1052.57 46.4418C1051.64 47.3534 1050.14 47.3534 1049.22 46.4418ZM1061.41 50.8258C1060.49 49.9141 1060.49 48.436 1061.41 47.5243L1065.74 43.2545C1066.66 42.3429 1068.16 42.3429 1069.09 43.2545C1070.01 44.1662 1070.01 45.6444 1069.09 46.5561L1064.76 50.8258C1063.83 51.7375 1062.33 51.7375 1061.41 50.8258Z" fill="#EFDBBF"/>
<path d="M1142.3 33.5427C1141.18 34.6561 1141.18 36.4611 1142.3 37.5744C1143.41 38.6878 1145.21 38.6878 1146.33 37.5744C1147.44 36.4611 1147.44 34.6561 1146.33 33.5427C1145.21 32.4294 1143.41 32.4294 1142.3 33.5427Z" fill="#EFDBBF"/>
<path d="M1142.99 34.2362L1143.06 34.1699C1143.77 33.5279 1144.85 33.5278 1145.56 34.1699L1145.63 34.2359C1146.36 34.9663 1146.36 36.1509 1145.63 36.8813L1145.56 36.9473C1144.83 37.6107 1143.7 37.5886 1142.99 36.881L1142.3 37.5743L1142.4 37.6756C1143.52 38.6867 1145.25 38.653 1146.33 37.5746C1147.44 36.4612 1147.44 34.656 1146.33 33.5426C1145.21 32.4294 1143.41 32.4296 1142.3 33.5429L1142.2 33.649C1141.18 34.7681 1141.22 36.4957 1142.3 37.5743L1142.99 36.881C1142.28 36.1734 1142.26 35.04 1142.92 34.3058L1142.99 34.2362Z" fill="#EFDBBF"/>
<path d="M1153.84 7.48565C1152.93 6.55259 1151.43 6.53101 1150.5 7.43742L1114.7 42.1105C1113.76 43.0169 1113.74 44.5082 1114.65 45.4413C1115.56 46.3744 1117.05 46.396 1117.99 45.4895L1153.79 10.8164C1154.72 9.91 1154.75 8.41873 1153.84 7.48565Z" fill="#EFDBBF"/>
<path d="M1173.76 26.5362C1172.83 25.6181 1171.32 25.6181 1170.39 26.5362L1134.63 61.8338C1133.7 62.7518 1133.7 64.2404 1134.63 65.1585C1135.56 66.0765 1137.07 66.0765 1138 65.1585L1173.76 29.8609C1174.69 28.9428 1174.69 27.4543 1173.76 26.5362Z" fill="#EFDBBF"/>
<path d="M1155.06 65.1586C1155.99 64.2424 1155.99 62.7569 1155.06 61.8408L1118.04 25.3026C1117.11 24.3866 1115.61 24.3865 1114.68 25.3026C1113.75 26.2188 1113.75 27.7042 1114.68 28.6204L1151.7 65.1586C1152.62 66.0747 1154.13 66.0747 1155.06 65.1586Z" fill="#EFDBBF"/>
<path d="M1136.69 26.285C1137.62 25.3733 1137.62 23.8952 1136.69 22.9835L1132.36 18.7137C1131.44 17.8021 1129.94 17.802 1129.02 18.7137C1128.09 19.6254 1128.09 21.1036 1129.02 22.0153L1133.34 26.285C1134.27 27.1967 1135.77 27.1966 1136.69 26.285ZM1137.42 47.7694C1138.34 46.8577 1138.34 45.3796 1137.42 44.4679C1136.5 43.5563 1135 43.5562 1134.07 44.4679L1129.54 48.9386C1128.62 49.8503 1128.62 51.3284 1129.54 52.2401C1130.47 53.1517 1131.96 53.1518 1132.89 52.2401L1137.42 47.7694ZM1173.76 46.4418C1174.69 45.5301 1174.69 44.0519 1173.76 43.1402L1157.01 26.6117L1159.86 23.7918C1160.79 22.8801 1160.79 21.402 1159.86 20.4903C1158.94 19.5788 1157.44 19.5788 1156.52 20.4903L1153.75 23.2168L1138.42 6.31735C1137.55 5.35669 1136.05 5.27524 1135.08 6.13513C1134.1 6.99504 1134.02 8.47096 1134.89 9.43163L1151.94 28.2169L1170.41 46.4418C1171.34 47.3534 1172.84 47.3534 1173.76 46.4418ZM1161.57 50.8258C1162.5 49.9141 1162.5 48.436 1161.57 47.5243L1157.24 43.2545C1156.32 42.3429 1154.82 42.3429 1153.9 43.2545C1152.97 44.1662 1152.97 45.6444 1153.9 46.5561L1158.22 50.8258C1159.15 51.7375 1160.65 51.7375 1161.57 50.8258Z" fill="#EFDBBF"/>
<path d="M1015.09 33.5408C1016.21 34.6541 1016.21 36.4592 1015.09 37.5725C1013.98 38.6858 1012.17 38.6858 1011.06 37.5725C1009.95 36.4592 1009.95 34.6541 1011.06 33.5408C1012.17 32.4275 1013.98 32.4275 1015.09 33.5408Z" fill="#EFDBBF"/>
<path d="M1014.4 34.2342L1014.33 34.1679C1013.62 33.5259 1012.53 33.5259 1011.82 34.1679L1011.75 34.234C1011.02 34.9644 1011.02 36.1489 1011.75 36.8793L1011.82 36.9453C1012.56 37.6088 1013.69 37.5866 1014.4 36.879L1015.09 37.5724L1014.99 37.6736C1013.87 38.6847 1012.14 38.6511 1011.06 37.5726C1009.95 36.4593 1009.95 34.654 1011.06 33.5407C1012.17 32.4274 1013.98 32.4276 1015.09 33.5409L1015.19 33.647C1016.2 34.7661 1016.17 36.4938 1015.09 37.5724L1014.4 36.879C1015.11 36.1715 1015.13 35.038 1014.47 34.3039L1014.4 34.2342Z" fill="#EFDBBF"/>
<path d="M1003.69 7.48565C1004.6 6.55259 1006.09 6.53101 1007.03 7.43742L1042.83 42.1105C1043.76 43.0169 1043.78 44.5082 1042.87 45.4413C1041.96 46.3744 1040.47 46.396 1039.53 45.4895L1003.74 10.8164C1002.8 9.91 1002.78 8.41873 1003.69 7.48565Z" fill="#EFDBBF"/>
<path d="M983.757 26.5362C984.673 25.6181 986.158 25.6181 987.073 26.5362L1022.28 61.8338C1023.2 62.7518 1023.2 64.2404 1022.28 65.1585C1021.37 66.0765 1019.88 66.0765 1018.97 65.1585L983.757 29.8609C982.841 28.9428 982.841 27.4543 983.757 26.5362Z" fill="#EFDBBF"/>
<path d="M1002.47 65.1586C1001.54 64.2424 1001.54 62.7569 1002.47 61.8408L1039.48 25.3026C1040.41 24.3866 1041.92 24.3865 1042.84 25.3026C1043.77 26.2188 1043.77 27.7042 1042.84 28.6204L1005.83 65.1586C1004.9 66.0747 1003.4 66.0747 1002.47 65.1586Z" fill="#EFDBBF"/>
<path d="M1020.83 26.285C1019.91 25.3733 1019.91 23.8952 1020.83 22.9835L1025.16 18.7137C1026.09 17.8021 1027.59 17.802 1028.51 18.7137C1029.43 19.6254 1029.43 21.1036 1028.51 22.0153L1024.18 26.285C1023.26 27.1967 1021.76 27.1966 1020.83 26.285ZM1020.1 47.7694C1019.18 46.8577 1019.18 45.3796 1020.1 44.4679C1021.03 43.5563 1022.53 43.5562 1023.45 44.4679L1027.98 48.9386C1028.91 49.8503 1028.91 51.3284 1027.98 52.2401C1027.06 53.1517 1025.56 53.1518 1024.64 52.2401L1020.1 47.7694ZM983.763 46.4418C982.839 45.5301 982.839 44.0519 983.763 43.1402L1000.52 26.6117L997.662 23.7918C996.737 22.8801 996.737 21.402 997.662 20.4903C998.586 19.5788 1000.08 19.5788 1001.01 20.4903L1003.77 23.2168L1019.11 6.31735C1019.98 5.35669 1021.48 5.27524 1022.45 6.13513C1023.42 6.99504 1023.51 8.47096 1022.63 9.43163L1005.59 28.2169L987.111 46.4418C986.186 47.3534 984.688 47.3534 983.763 46.4418ZM995.954 50.8258C995.03 49.9141 995.03 48.436 995.954 47.5243L1000.28 43.2545C1001.21 42.3429 1002.71 42.3429 1003.63 43.2545C1004.55 44.1662 1004.55 45.6444 1003.63 46.5561L999.301 50.8258C998.377 51.7375 996.878 51.7375 995.954 50.8258Z" fill="#EFDBBF"/>
<path d="M949.575 33.5623C950.688 34.6756 950.688 36.4807 949.575 37.594C948.462 38.7073 946.657 38.7073 945.543 37.594C944.43 36.4807 944.43 34.6756 945.543 33.5623C946.657 32.4489 948.462 32.4489 949.575 33.5623Z" fill="#EFDBBF"/>
<path d="M948.882 34.2557L948.812 34.1894C948.101 33.5474 947.017 33.5474 946.306 34.1894L946.237 34.2555C945.506 34.9858 945.506 36.1704 946.237 36.9008L946.306 36.9668C947.04 37.6303 948.174 37.6081 948.882 36.9005L949.575 37.5939L949.469 37.6951C948.35 38.7062 946.622 38.6726 945.543 37.5941C944.43 36.4808 944.43 34.6755 945.543 33.5621C946.657 32.4489 948.462 32.4491 949.575 33.5624L949.676 33.6685C950.687 34.7876 950.654 36.5153 949.575 37.5939L948.882 36.9005C949.589 36.1929 949.611 35.0595 948.948 34.3254L948.882 34.2557Z" fill="#EFDBBF"/>
<path d="M938.225 7.4876C939.134 6.55454 940.629 6.53297 941.565 7.43937L977.362 42.1125C978.298 43.0189 978.32 44.5102 977.411 45.4433C976.502 46.3764 975.006 46.3979 974.07 45.4915L938.273 10.8184C937.337 9.91196 937.315 8.42069 938.225 7.4876Z" fill="#EFDBBF"/>
<path d="M918.292 26.5382C919.208 25.6201 920.693 25.6201 921.609 26.5382L956.817 61.8357C957.733 62.7538 957.733 64.2423 956.817 65.1604C955.902 66.0785 954.417 66.0785 953.501 65.1604L918.292 29.8629C917.377 28.9448 917.377 27.4562 918.292 26.5382Z" fill="#EFDBBF"/>
<path d="M937.005 65.1625C936.077 64.2463 936.077 62.7608 937.005 61.8447L974.02 25.3065C974.948 24.3905 976.453 24.3904 977.381 25.3065C978.31 26.2227 978.309 27.7082 977.381 28.6243L940.366 65.1625C939.438 66.0787 937.933 66.0787 937.005 65.1625Z" fill="#EFDBBF"/>
<path d="M955.257 26.287C954.32 25.3753 954.32 23.8971 955.257 22.9855L959.644 18.7157C960.581 17.804 962.099 17.804 963.036 18.7157C963.973 19.6274 963.973 21.1055 963.036 22.0172L958.649 26.287C957.712 27.1986 956.193 27.1986 955.257 26.287ZM954.518 47.7714C953.581 46.8597 953.581 45.3815 954.518 44.4698C955.454 43.5583 956.973 43.5582 957.91 44.4698L962.503 48.9405C963.44 49.8522 963.44 51.3304 962.503 52.2421C961.566 53.1537 960.048 53.1537 959.111 52.2421L954.518 47.7714ZM917.685 46.4437C916.748 45.532 916.748 44.0538 917.685 43.1422L934.668 26.6137L931.771 23.7938C930.834 22.8821 930.834 21.4039 931.771 20.4922C932.708 19.5807 934.226 19.5807 935.163 20.4922L937.964 23.2187L953.506 6.31931C954.39 5.35864 955.906 5.27719 956.893 6.13709C957.88 6.99699 957.964 8.47292 957.081 9.43359L939.803 28.2188L921.077 46.4437C920.141 47.3554 918.622 47.3554 917.685 46.4437ZM930.04 50.8278C929.104 49.9161 929.104 48.4379 930.04 47.5263L934.428 43.2565C935.365 42.3449 936.884 42.3448 937.82 43.2565C938.757 44.1682 938.757 45.6464 937.82 46.558L933.433 50.8278C932.496 51.7395 930.977 51.7395 930.04 50.8278Z" fill="#EFDBBF"/>
<path d="M884.059 33.5564C885.173 34.6697 885.173 36.4748 884.059 37.5881C882.946 38.7014 881.141 38.7014 880.028 37.5881C878.914 36.4748 878.914 34.6697 880.028 33.5564C881.141 32.4431 882.946 32.4431 884.059 33.5564Z" fill="#EFDBBF"/>
<path d="M883.366 34.2499L883.296 34.1836C882.586 33.5415 881.501 33.5415 880.791 34.1836L880.721 34.2496C879.991 34.98 879.991 36.1646 880.721 36.8949L880.791 36.961C881.525 37.6244 882.659 37.6023 883.366 36.8947L884.059 37.588L883.953 37.6892C882.834 38.7004 881.106 38.6667 880.028 37.5882C878.914 36.4749 878.914 34.6696 880.028 33.5563C881.141 32.443 882.946 32.4432 884.059 33.5565L884.16 33.6627C885.172 34.7818 885.138 36.5094 884.059 37.588L883.366 36.8947C884.074 36.1871 884.096 35.0536 883.432 34.3195L883.366 34.2499Z" fill="#EFDBBF"/>
<path d="M872.157 7.4876C873.08 6.55454 874.598 6.53297 875.548 7.43937L911.897 42.1125C912.847 43.0189 912.869 44.5102 911.946 45.4433C911.023 46.3764 909.504 46.3979 908.554 45.4915L872.206 10.8184C871.256 9.91196 871.234 8.42069 872.157 7.4876Z" fill="#EFDBBF"/>
<path d="M852.223 26.5401C853.153 25.622 854.661 25.622 855.591 26.5401L891.35 61.8377C892.28 62.7557 892.28 64.2443 891.35 65.1624C890.42 66.0805 888.912 66.0805 887.982 65.1624L852.223 29.8648C851.293 28.9467 851.293 27.4582 852.223 26.5401Z" fill="#EFDBBF"/>
<path d="M871.55 65.1625C870.621 64.2463 870.621 62.7608 871.55 61.8447L908.565 25.3065C909.493 24.3905 910.998 24.3904 911.926 25.3065C912.854 26.2227 912.854 27.7082 911.926 28.6243L874.911 65.1625C873.983 66.0787 872.478 66.0787 871.55 65.1625Z" fill="#EFDBBF"/>
<path d="M889.799 26.2889C888.863 25.3773 888.863 23.8991 889.799 22.9874L894.187 18.7176C895.123 17.806 896.642 17.8059 897.579 18.7176C898.516 19.6293 898.516 21.1075 897.579 22.0192L893.192 26.2889C892.255 27.2006 890.736 27.2005 889.799 26.2889ZM889.061 47.7733C888.124 46.8616 888.124 45.3835 889.061 44.4718C889.997 43.5602 891.516 43.5602 892.453 44.4718L897.046 48.9425C897.983 49.8542 897.983 51.3323 897.046 52.244C896.109 53.1556 894.591 53.1557 893.654 52.244L889.061 47.7733ZM852.228 46.4457C851.291 45.534 851.291 44.0558 852.228 43.1441L869.211 26.6156L866.314 23.7957C865.377 22.884 865.377 21.4059 866.314 20.4942C867.251 19.5827 868.769 19.5827 869.706 20.4942L872.507 23.2207L888.049 6.32126C888.933 5.36059 890.449 5.27914 891.436 6.13904C892.423 6.99894 892.507 8.47487 891.624 9.43554L874.346 28.2208L855.62 46.4457C854.684 47.3573 853.165 47.3573 852.228 46.4457ZM864.583 50.8297C863.647 49.918 863.647 48.4399 864.583 47.5282L868.971 43.2584C869.908 42.3468 871.427 42.3468 872.363 43.2584C873.3 44.1701 873.3 45.6483 872.363 46.56L867.976 50.8297C867.039 51.7414 865.52 51.7414 864.583 50.8297Z" fill="#EFDBBF"/>
<path d="M818.548 33.5545C819.661 34.6678 819.661 36.4728 818.548 37.5862C817.434 38.6995 815.629 38.6995 814.516 37.5862C813.403 36.4728 813.403 34.6678 814.516 33.5545C815.629 32.4411 817.434 32.4411 818.548 33.5545Z" fill="#EFDBBF"/>
<path d="M817.854 34.2479L817.784 34.1816C817.074 33.5396 815.989 33.5396 815.279 34.1816L815.209 34.2477C814.479 34.978 814.479 36.1626 815.209 36.893L815.279 36.959C816.013 37.6224 817.147 37.6003 817.854 36.8927L818.548 37.586L818.441 37.6873C817.322 38.6984 815.595 38.6648 814.516 37.5863C813.403 36.473 813.403 34.6677 814.516 33.5543C815.629 32.4411 817.434 32.4413 818.548 33.5546L818.649 33.6607C819.66 34.7798 819.626 36.5075 818.548 37.586L817.854 36.8927C818.562 36.1851 818.584 35.0517 817.92 34.3176L817.854 34.2479Z" fill="#EFDBBF"/>
<path d="M750.447 33.5545C749.333 34.6678 749.333 36.4728 750.447 37.5862C751.56 38.6995 753.365 38.6995 754.478 37.5862C755.592 36.4728 755.592 34.6678 754.478 33.5545C753.365 32.4411 751.56 32.4411 750.447 33.5545Z" fill="#EFDBBF"/>
<path d="M751.14 34.2479L751.21 34.1816C751.92 33.5396 753.005 33.5396 753.715 34.1816L753.785 34.2477C754.515 34.978 754.515 36.1626 753.785 36.893L753.715 36.959C752.981 37.6224 751.847 37.6003 751.14 36.8927L750.446 37.586L750.553 37.6873C751.672 38.6984 753.4 38.6648 754.478 37.5863C755.591 36.473 755.591 34.6677 754.478 33.5543C753.365 32.4411 751.56 32.4413 750.446 33.5546L750.345 33.6607C749.334 34.7798 749.368 36.5075 750.446 37.586L751.14 36.8927C750.432 36.1851 750.41 35.0517 751.074 34.3176L751.14 34.2479Z" fill="#EFDBBF"/>
<path d="M806.694 7.4876C807.617 6.55454 809.135 6.53297 810.086 7.43937L846.434 42.1125C847.384 43.0189 847.406 44.5102 846.483 45.4433C845.56 46.3764 844.041 46.3979 843.091 45.4915L806.743 10.8184C805.793 9.91196 805.771 8.42069 806.694 7.4876Z" fill="#EFDBBF"/>
<path d="M786.766 26.5362C787.696 25.6181 789.204 25.6181 790.134 26.5362L825.893 61.8338C826.823 62.7518 826.823 64.2404 825.893 65.1585C824.963 66.0765 823.455 66.0765 822.525 65.1585L786.766 29.8609C785.836 28.9428 785.836 27.4543 786.766 26.5362Z" fill="#EFDBBF"/>
<path d="M806.089 65.1605C805.161 64.2444 805.161 62.7589 806.089 61.8427L843.104 25.3046C844.032 24.3886 845.537 24.3885 846.465 25.3046C847.394 26.2207 847.393 27.7062 846.465 28.6224L809.45 65.1605C808.522 66.0767 807.017 66.0767 806.089 65.1605Z" fill="#EFDBBF"/>
<path d="M824.341 26.287C823.404 25.3753 823.404 23.8971 824.341 22.9855L828.728 18.7157C829.664 17.804 831.183 17.804 832.12 18.7157C833.057 19.6274 833.057 21.1055 832.12 22.0172L827.733 26.287C826.796 27.1986 825.277 27.1986 824.341 26.287ZM823.602 47.7714C822.665 46.8597 822.665 45.3815 823.602 44.4698C824.538 43.5583 826.057 43.5582 826.994 44.4698L831.587 48.9405C832.524 49.8522 832.524 51.3304 831.587 52.2421C830.65 53.1537 829.132 53.1537 828.195 52.2421L823.602 47.7714ZM786.769 46.4437C785.832 45.532 785.832 44.0538 786.769 43.1422L803.752 26.6137L800.855 23.7938C799.918 22.8821 799.918 21.4039 800.855 20.4922C801.792 19.5807 803.31 19.5807 804.247 20.4922L807.048 23.2187L822.59 6.31931C823.474 5.35864 824.99 5.27719 825.977 6.13709C826.964 6.99699 827.048 8.47292 826.165 9.43359L808.887 28.2188L790.161 46.4437C789.225 47.3554 787.706 47.3554 786.769 46.4437ZM799.124 50.8278C798.188 49.9161 798.188 48.4379 799.124 47.5263L803.512 43.2565C804.449 42.3449 805.968 42.3448 806.904 43.2565C807.841 44.1682 807.841 45.6464 806.904 46.558L802.517 50.8278C801.58 51.7395 800.061 51.7395 799.124 50.8278Z" fill="#EFDBBF"/>
<path d="M762.322 7.48565C761.399 6.55259 759.88 6.53101 758.93 7.43742L722.582 42.1105C721.632 43.0169 721.61 44.5082 722.533 45.4413C723.456 46.3744 724.974 46.3959 725.925 45.4895L762.273 10.8164C763.223 9.91 763.245 8.41873 762.322 7.48565Z" fill="#EFDBBF"/>
<path d="M782.254 26.5362C781.324 25.6181 779.816 25.6181 778.886 26.5362L743.127 61.8338C742.197 62.7518 742.197 64.2404 743.127 65.1585C744.057 66.0765 745.565 66.0765 746.495 65.1585L782.254 29.8609C783.184 28.9428 783.184 27.4543 782.254 26.5362Z" fill="#EFDBBF"/>
<path d="M762.929 65.1605C763.857 64.2444 763.857 62.7589 762.929 61.8427L725.913 25.3046C724.985 24.3886 723.48 24.3885 722.552 25.3046C721.624 26.2207 721.624 27.7062 722.552 28.6224L759.568 65.1605C760.496 66.0767 762.001 66.0767 762.929 65.1605Z" fill="#EFDBBF"/>
<path d="M744.677 26.285C745.614 25.3733 745.614 23.8952 744.677 22.9835L740.29 18.7137C739.353 17.8021 737.834 17.802 736.898 18.7137C735.961 19.6254 735.961 21.1036 736.898 22.0153L741.285 26.285C742.221 27.1967 743.74 27.1966 744.677 26.285ZM745.416 47.7694C746.353 46.8577 746.353 45.3796 745.416 44.4679C744.479 43.5563 742.96 43.5562 742.024 44.4679L737.43 48.9386C736.494 49.8503 736.494 51.3284 737.43 52.2401C738.367 53.1517 739.886 53.1518 740.823 52.2401L745.416 47.7694ZM782.249 46.4418C783.185 45.5301 783.185 44.0519 782.249 43.1402L765.266 26.6117L768.163 23.7918C769.099 22.8801 769.099 21.402 768.163 20.4903C767.226 19.5788 765.707 19.5788 764.771 20.4903L761.97 23.2168L746.428 6.31736C745.544 5.35669 744.027 5.27524 743.04 6.13514C742.053 6.99504 741.969 8.47096 742.853 9.43163L760.13 28.2169L778.856 46.4418C779.793 47.3534 781.312 47.3534 782.249 46.4418ZM769.893 50.8258C770.83 49.9141 770.83 48.436 769.893 47.5243L765.506 43.2545C764.569 42.3429 763.05 42.3429 762.113 43.2545C761.177 44.1662 761.177 45.6444 762.114 46.5561L766.501 50.8258C767.438 51.7375 768.956 51.7375 769.893 50.8258Z" fill="#EFDBBF"/>
<path d="M689.259 33.5545C690.372 34.6678 690.372 36.4728 689.259 37.5862C688.145 38.6995 686.34 38.6995 685.227 37.5862C684.113 36.4728 684.113 34.6678 685.227 33.5545C686.34 32.4411 688.145 32.4411 689.259 33.5545Z" fill="#EFDBBF"/>
<path d="M688.565 34.2479L688.495 34.1816C687.785 33.5396 686.7 33.5396 685.99 34.1816L685.92 34.2477C685.19 34.978 685.19 36.1626 685.92 36.893L685.99 36.959C686.724 37.6224 687.858 37.6003 688.565 36.8927L689.259 37.586L689.152 37.6873C688.033 38.6984 686.305 38.6648 685.227 37.5863C684.114 36.473 684.114 34.6677 685.227 33.5543C686.34 32.4411 688.145 32.4413 689.259 33.5546L689.36 33.6607C690.371 34.7798 690.337 36.5075 689.259 37.586L688.565 36.8927C689.273 36.1851 689.295 35.0517 688.631 34.3176L688.565 34.2479Z" fill="#EFDBBF"/>
<path d="M677.637 7.4876C678.546 6.55454 680.041 6.53297 680.977 7.43937L716.775 42.1125C717.71 43.0189 717.732 44.5102 716.823 45.4433C715.914 46.3764 714.418 46.3979 713.482 45.4915L677.685 10.8184C676.749 9.91196 676.728 8.42069 677.637 7.4876Z" fill="#EFDBBF"/>
<path d="M657.717 26.5382C658.647 25.6201 660.155 25.6201 661.085 26.5382L696.844 61.8357C697.774 62.7538 697.774 64.2423 696.844 65.1604C695.914 66.0785 694.406 66.0785 693.476 65.1604L657.717 29.8629C656.787 28.9448 656.787 27.4562 657.717 26.5382Z" fill="#EFDBBF"/>
<path d="M676.421 65.1605C675.493 64.2444 675.493 62.7589 676.421 61.8427L713.436 25.3046C714.364 24.3886 715.869 24.3885 716.797 25.3046C717.726 26.2207 717.725 27.7062 716.797 28.6224L679.782 65.1605C678.854 66.0767 677.349 66.0767 676.421 65.1605Z" fill="#EFDBBF"/>
<path d="M694.783 26.287C693.859 25.3753 693.859 23.8971 694.783 22.9855L699.112 18.7157C700.036 17.804 701.535 17.804 702.459 18.7157C703.383 19.6274 703.383 21.1055 702.459 22.0172L698.13 26.287C697.206 27.1986 695.708 27.1986 694.783 26.287ZM694.054 47.7714C693.13 46.8597 693.13 45.3815 694.054 44.4698C694.978 43.5583 696.477 43.5582 697.401 44.4698L701.933 48.9405C702.858 49.8522 702.858 51.3304 701.933 52.2421C701.009 53.1537 699.51 53.1537 698.586 52.2421L694.054 47.7714ZM657.713 46.4437C656.788 45.532 656.788 44.0538 657.713 43.1422L674.469 26.6137L671.611 23.7938C670.687 22.8821 670.687 21.4039 671.611 20.4922C672.535 19.5807 674.033 19.5807 674.958 20.4922L677.721 23.2187L693.056 6.31931C693.928 5.35864 695.424 5.27719 696.398 6.13709C697.372 6.99699 697.455 8.47292 696.583 9.43359L679.536 28.2188L661.06 46.4437C660.136 47.3554 658.637 47.3554 657.713 46.4437ZM669.903 50.8278C668.979 49.9161 668.979 48.4379 669.903 47.5263L674.233 43.2565C675.157 42.3449 676.655 42.3448 677.58 43.2565C678.504 44.1682 678.503 45.6464 677.579 46.558L673.251 50.8278C672.326 51.7395 670.828 51.7395 669.903 50.8278Z" fill="#EFDBBF"/>
<path d="M620.159 33.5447C619.046 34.658 619.046 36.4631 620.159 37.5764C621.273 38.6897 623.078 38.6897 624.191 37.5764C625.305 36.4631 625.305 34.658 624.191 33.5447C623.078 32.4314 621.273 32.4314 620.159 33.5447Z" fill="#EFDBBF"/>
<path d="M620.853 34.2381L620.923 34.1718C621.633 33.5298 622.718 33.5298 623.428 34.1718L623.498 34.2379C624.228 34.9683 624.228 36.1528 623.498 36.8832L623.428 36.9492C622.694 37.6127 621.56 37.5905 620.853 36.8829L620.159 37.5763L620.266 37.6775C621.385 38.6886 623.112 38.655 624.191 37.5765C625.304 36.4632 625.304 34.6579 624.191 33.5446C623.078 32.4313 621.273 32.4315 620.159 33.5448L620.058 33.651C619.047 34.77 619.081 36.4977 620.159 37.5763L620.853 36.8829C620.145 36.1754 620.123 35.0419 620.787 34.3078L620.853 34.2381Z" fill="#EFDBBF"/>
<path d="M632.023 7.48565C631.1 6.55259 629.581 6.53101 628.631 7.43742L592.283 42.1105C591.333 43.0169 591.311 44.5082 592.234 45.4413C593.157 46.3744 594.676 46.3959 595.626 45.4895L631.974 10.8164C632.924 9.91 632.946 8.41873 632.023 7.48565Z" fill="#EFDBBF"/>
<path d="M651.953 26.5382C651.023 25.6201 649.515 25.6201 648.585 26.5382L612.826 61.8357C611.896 62.7538 611.896 64.2423 612.826 65.1604C613.756 66.0785 615.264 66.0785 616.194 65.1604L651.953 29.8629C652.883 28.9448 652.883 27.4562 651.953 26.5382Z" fill="#EFDBBF"/>
<path d="M632.628 65.1605C633.556 64.2444 633.556 62.7589 632.628 61.8427L595.613 25.3046C594.684 24.3886 593.179 24.3885 592.251 25.3046C591.323 26.2207 591.323 27.7062 592.251 28.6224L629.267 65.1605C630.195 66.0767 631.7 66.0767 632.628 65.1605Z" fill="#EFDBBF"/>
<path d="M614.376 26.287C615.313 25.3753 615.313 23.8971 614.376 22.9855L609.989 18.7157C609.052 17.804 607.533 17.804 606.597 18.7157C605.66 19.6274 605.66 21.1055 606.597 22.0172L610.984 26.287C611.921 27.1986 613.44 27.1986 614.376 26.287ZM615.115 47.7714C616.052 46.8597 616.052 45.3815 615.115 44.4698C614.178 43.5583 612.66 43.5582 611.723 44.4698L607.13 48.9405C606.193 49.8522 606.193 51.3304 607.13 52.2421C608.066 53.1537 609.585 53.1537 610.522 52.2421L615.115 47.7714ZM651.948 46.4437C652.885 45.532 652.885 44.0538 651.948 43.1422L634.965 26.6137L637.862 23.7938C638.799 22.8821 638.799 21.4039 637.862 20.4922C636.925 19.5807 635.407 19.5807 634.47 20.4922L631.669 23.2187L616.127 6.31931C615.243 5.35864 613.727 5.27719 612.74 6.13709C611.752 6.99699 611.668 8.47292 612.552 9.43359L629.829 28.2188L648.556 46.4437C649.492 47.3554 651.011 47.3554 651.948 46.4437ZM639.592 50.8278C640.529 49.9161 640.529 48.4379 639.592 47.5263L635.205 43.2565C634.268 42.3449 632.749 42.3448 631.812 43.2565C630.876 44.1682 630.876 45.6464 631.813 46.558L636.2 50.8278C637.137 51.7395 638.656 51.7395 639.592 50.8278Z" fill="#EFDBBF"/>
<path d="M1270.39 34.5447C1269.28 35.658 1269.28 37.4631 1270.39 38.5764C1271.51 39.6897 1273.31 39.6897 1274.43 38.5764C1275.54 37.4631 1275.54 35.658 1274.43 34.5447C1273.31 33.4314 1271.51 33.4314 1270.39 34.5447Z" fill="#EFDBBF"/>
<path d="M1271.09 35.2381L1271.16 35.1718C1271.87 34.5298 1272.95 34.5298 1273.66 35.1718L1273.73 35.2379C1274.46 35.9683 1274.46 37.1528 1273.73 37.8832L1273.66 37.9493C1272.93 38.6127 1271.79 38.5905 1271.09 37.883L1270.39 38.5763L1270.5 38.6775C1271.62 39.6886 1273.35 39.655 1274.43 38.5765C1275.54 37.4632 1275.54 35.6579 1274.43 34.5446C1273.31 33.4313 1271.51 33.4315 1270.39 34.5448L1270.29 34.651C1269.28 35.77 1269.32 37.4977 1270.39 38.5763L1271.09 37.883C1270.38 37.1754 1270.36 36.0419 1271.02 35.3078L1271.09 35.2381Z" fill="#EFDBBF"/>
<path d="M1281.86 8.48565C1280.95 7.55259 1279.45 7.53101 1278.52 8.43742L1242.72 43.1105C1241.79 44.0169 1241.76 45.5082 1242.67 46.4413C1243.58 47.3744 1245.08 47.396 1246.01 46.4895L1281.81 11.8164C1282.75 10.91 1282.77 9.41873 1281.86 8.48565Z" fill="#EFDBBF"/>
<path d="M1301.78 27.5362C1300.85 26.6181 1299.34 26.6181 1298.41 27.5362L1262.65 62.8338C1261.72 63.7518 1261.72 65.2404 1262.65 66.1585C1263.58 67.0765 1265.09 67.0765 1266.02 66.1585L1301.78 30.8609C1302.71 29.9428 1302.71 28.4543 1301.78 27.5362Z" fill="#EFDBBF"/>
<path d="M1283.08 66.1586C1284.01 65.2424 1284.01 63.7569 1283.08 62.8408L1246.06 26.3026C1245.14 25.3866 1243.63 25.3865 1242.7 26.3026C1241.77 27.2188 1241.77 28.7042 1242.7 29.6204L1279.72 66.1586C1280.65 67.0747 1282.15 67.0747 1283.08 66.1586Z" fill="#EFDBBF"/>
<path d="M1264.71 27.285C1265.64 26.3733 1265.64 24.8952 1264.71 23.9835L1260.39 19.7137C1259.46 18.8021 1257.96 18.802 1257.04 19.7137C1256.11 20.6254 1256.11 22.1036 1257.04 23.0153L1261.37 27.285C1262.29 28.1967 1263.79 28.1966 1264.71 27.285ZM1265.44 48.7694C1266.37 47.8577 1266.37 46.3796 1265.44 45.4679C1264.52 44.5563 1263.02 44.5562 1262.1 45.4679L1257.56 49.9386C1256.64 50.8503 1256.64 52.3284 1257.56 53.2401C1258.49 54.1517 1259.99 54.1518 1260.91 53.2401L1265.44 48.7694ZM1301.79 47.4418C1302.71 46.5301 1302.71 45.0519 1301.79 44.1402L1285.03 27.6117L1287.89 24.7918C1288.81 23.8801 1288.81 22.402 1287.89 21.4903C1286.96 20.5788 1285.46 20.5788 1284.54 21.4903L1281.78 24.2168L1266.44 7.31735C1265.57 6.35669 1264.07 6.27524 1263.1 7.13513C1262.13 7.99504 1262.04 9.47096 1262.91 10.4316L1279.96 29.2169L1298.44 47.4418C1299.36 48.3534 1300.86 48.3534 1301.79 47.4418ZM1289.59 51.8258C1290.52 50.9141 1290.52 49.436 1289.59 48.5243L1285.27 44.2545C1284.34 43.3429 1282.84 43.3429 1281.92 44.2545C1280.99 45.1662 1280.99 46.6444 1281.92 47.5561L1286.25 51.8258C1287.17 52.7375 1288.67 52.7375 1289.59 51.8258Z" fill="#EFDBBF"/>
<path d="M1208.71 34.5408C1209.82 35.6541 1209.82 37.4592 1208.71 38.5725C1207.59 39.6858 1205.79 39.6858 1204.68 38.5725C1203.56 37.4592 1203.56 35.6541 1204.68 34.5408C1205.79 33.4275 1207.59 33.4275 1208.71 34.5408Z" fill="#EFDBBF"/>
<path d="M1208.01 35.2342L1207.94 35.1679C1207.23 34.5259 1206.15 34.5259 1205.44 35.1679L1205.37 35.234C1204.64 35.9644 1204.64 37.1489 1205.37 37.8793L1205.44 37.9453C1206.17 38.6088 1207.31 38.5866 1208.01 37.879L1208.71 38.5724L1208.6 38.6736C1207.48 39.6847 1205.75 39.6511 1204.68 38.5726C1203.56 37.4593 1203.56 35.654 1204.68 34.5407C1205.79 33.4274 1207.59 33.4276 1208.71 34.5409L1208.81 34.647C1209.82 35.7661 1209.79 37.4938 1208.71 38.5724L1208.01 37.879C1208.72 37.1715 1208.74 36.038 1208.08 35.3039L1208.01 35.2342Z" fill="#EFDBBF"/>
<path d="M1197.17 8.48565C1198.08 7.55259 1199.57 7.53101 1200.51 8.43742L1236.31 43.1105C1237.24 44.0169 1237.26 45.5082 1236.35 46.4413C1235.45 47.3744 1233.95 47.396 1233.01 46.4895L1197.22 11.8164C1196.28 10.91 1196.26 9.41873 1197.17 8.48565Z" fill="#EFDBBF"/>
<path d="M1177.25 27.5362C1178.18 26.6181 1179.68 26.6181 1180.61 27.5362L1216.37 62.8338C1217.3 63.7518 1217.3 65.2404 1216.37 66.1585C1215.44 67.0765 1213.94 67.0765 1213.01 66.1585L1177.25 30.8609C1176.32 29.9428 1176.32 28.4543 1177.25 27.5362Z" fill="#EFDBBF"/>
<path d="M1195.95 66.1586C1195.02 65.2424 1195.02 63.7569 1195.95 62.8408L1232.96 26.3026C1233.89 25.3866 1235.39 25.3865 1236.32 26.3026C1237.25 27.2188 1237.25 28.7042 1236.32 29.6204L1199.31 66.1586C1198.38 67.0747 1196.87 67.0747 1195.95 66.1586Z" fill="#EFDBBF"/>
<path d="M1214.31 27.285C1213.39 26.3733 1213.39 24.8952 1214.31 23.9835L1218.64 19.7137C1219.57 18.8021 1221.06 18.802 1221.99 19.7137C1222.91 20.6254 1222.91 22.1036 1221.99 23.0153L1217.66 27.285C1216.74 28.1967 1215.24 28.1966 1214.31 27.285ZM1213.58 48.7694C1212.66 47.8577 1212.66 46.3796 1213.58 45.4679C1214.51 44.5563 1216.01 44.5562 1216.93 45.4679L1221.46 49.9386C1222.39 50.8503 1222.39 52.3284 1221.46 53.2401C1220.54 54.1517 1219.04 54.1518 1218.12 53.2401L1213.58 48.7694ZM1177.24 47.4418C1176.32 46.5301 1176.32 45.0519 1177.24 44.1402L1194 27.6117L1191.14 24.7918C1190.22 23.8801 1190.22 22.402 1191.14 21.4903C1192.06 20.5788 1193.56 20.5788 1194.49 21.4903L1197.25 24.2168L1212.59 7.31735C1213.46 6.35669 1214.95 6.27524 1215.93 7.13513C1216.9 7.99504 1216.98 9.47096 1216.11 10.4316L1199.07 29.2169L1180.59 47.4418C1179.66 48.3534 1178.17 48.3534 1177.24 47.4418ZM1189.43 51.8258C1188.51 50.9141 1188.51 49.436 1189.43 48.5243L1193.76 44.2545C1194.69 43.3429 1196.18 43.3429 1197.11 44.2545C1198.03 45.1662 1198.03 46.6444 1197.11 47.5561L1192.78 51.8258C1191.86 52.7375 1190.36 52.7375 1189.43 51.8258Z" fill="#EFDBBF"/>
<path d="M1335.91 34.5408C1334.8 35.6541 1334.8 37.4592 1335.91 38.5725C1337.02 39.6858 1338.83 39.6858 1339.94 38.5725C1341.06 37.4592 1341.06 35.6541 1339.94 34.5408C1338.83 33.4275 1337.02 33.4275 1335.91 34.5408Z" fill="#EFDBBF"/>
<path d="M1336.6 35.2342L1336.67 35.1679C1337.39 34.5259 1338.47 34.5259 1339.18 35.1679L1339.25 35.234C1339.98 35.9644 1339.98 37.1489 1339.25 37.8793L1339.18 37.9453C1338.45 38.6088 1337.31 38.5866 1336.6 37.879L1335.91 38.5724L1336.02 38.6736C1337.14 39.6847 1338.86 39.6511 1339.94 38.5726C1341.06 37.4593 1341.06 35.654 1339.94 34.5407C1338.83 33.4274 1337.02 33.4276 1335.91 34.5409L1335.81 34.647C1334.8 35.7661 1334.83 37.4938 1335.91 38.5724L1336.6 37.879C1335.9 37.1715 1335.88 36.038 1336.54 35.3039L1336.6 35.2342Z" fill="#EFDBBF"/>
<path d="M1347.32 8.48565C1346.41 7.55259 1344.91 7.53101 1343.98 8.43742L1308.18 43.1105C1307.24 44.0169 1307.22 45.5082 1308.13 46.4413C1309.04 47.3744 1310.54 47.396 1311.47 46.4895L1347.27 11.8164C1348.21 10.91 1348.23 9.41873 1347.32 8.48565Z" fill="#EFDBBF"/>
<path d="M1367.25 27.5362C1366.33 26.6181 1364.85 26.6181 1363.93 27.5362L1328.72 62.8338C1327.81 63.7518 1327.81 65.2404 1328.72 66.1585C1329.64 67.0765 1331.12 67.0765 1332.04 66.1585L1367.25 30.8609C1368.16 29.9428 1368.16 28.4543 1367.25 27.5362Z" fill="#EFDBBF"/>
<path d="M1348.54 66.1586C1349.46 65.2424 1349.46 63.7569 1348.54 62.8408L1311.52 26.3026C1310.59 25.3866 1309.09 25.3865 1308.16 26.3026C1307.23 27.2188 1307.23 28.7042 1308.16 29.6204L1345.18 66.1586C1346.1 67.0747 1347.61 67.0747 1348.54 66.1586Z" fill="#EFDBBF"/>
<path d="M1330.17 27.285C1331.1 26.3733 1331.1 24.8952 1330.17 23.9835L1325.84 19.7137C1324.92 18.8021 1323.42 18.802 1322.5 19.7137C1321.57 20.6254 1321.57 22.1036 1322.5 23.0153L1326.82 27.285C1327.75 28.1967 1329.25 28.1966 1330.17 27.285ZM1330.9 48.7694C1331.83 47.8577 1331.83 46.3796 1330.9 45.4679C1329.98 44.5563 1328.48 44.5562 1327.55 45.4679L1323.02 49.9386C1322.1 50.8503 1322.1 52.3284 1323.02 53.2401C1323.95 54.1517 1325.44 54.1518 1326.37 53.2401L1330.9 48.7694ZM1367.24 47.4418C1368.17 46.5301 1368.17 45.0519 1367.24 44.1402L1350.49 27.6117L1353.34 24.7918C1354.27 23.8801 1354.27 22.402 1353.34 21.4903C1352.42 20.5788 1350.92 20.5788 1350 21.4903L1347.23 24.2168L1331.9 7.31735C1331.03 6.35669 1329.53 6.27524 1328.56 7.13513C1327.58 7.99504 1327.5 9.47096 1328.37 10.4316L1345.42 29.2169L1363.9 47.4418C1364.82 48.3534 1366.32 48.3534 1367.24 47.4418ZM1355.05 51.8258C1355.98 50.9141 1355.98 49.436 1355.05 48.5243L1350.72 44.2545C1349.8 43.3429 1348.3 43.3429 1347.38 44.2545C1346.45 45.1662 1346.45 46.6444 1347.38 47.5561L1351.7 51.8258C1352.63 52.7375 1354.13 52.7375 1355.05 51.8258Z" fill="#EFDBBF"/>
<path d="M1401.43 34.5584C1400.32 35.6717 1400.32 37.4767 1401.43 38.5901C1402.54 39.7034 1404.35 39.7034 1405.46 38.5901C1406.57 37.4767 1406.57 35.6717 1405.46 34.5584C1404.35 33.445 1402.54 33.445 1401.43 34.5584Z" fill="#EFDBBF"/>
<path d="M1402.12 35.2518L1402.19 35.1855C1402.9 34.5435 1403.99 34.5435 1404.7 35.1855L1404.77 35.2516C1405.5 35.9819 1405.5 37.1665 1404.77 37.8969L1404.7 37.9629C1403.96 38.6264 1402.83 38.6042 1402.12 37.8966L1401.43 38.5899L1401.54 38.6912C1402.65 39.7023 1404.38 39.6687 1405.46 38.5902C1406.57 37.4769 1406.57 35.6716 1405.46 34.5582C1404.35 33.445 1402.54 33.4452 1401.43 34.5585L1401.33 34.6646C1400.32 35.7837 1400.35 37.5114 1401.43 38.5899L1402.12 37.8966C1401.41 37.189 1401.39 36.0556 1402.06 35.3215L1402.12 35.2518Z" fill="#EFDBBF"/>
<path d="M1412.78 8.48369C1411.87 7.55063 1410.37 7.52906 1409.44 8.43546L1373.64 43.1086C1372.71 44.015 1372.68 45.5063 1373.59 46.4394C1374.5 47.3724 1376 47.394 1376.93 46.4876L1412.73 11.8145C1413.67 10.9081 1413.69 9.41678 1412.78 8.48369Z" fill="#EFDBBF"/>
<path d="M1432.71 27.5362C1431.8 26.6181 1430.31 26.6181 1429.4 27.5362L1394.19 62.8338C1393.27 63.7518 1393.27 65.2404 1394.19 66.1585C1395.1 67.0765 1396.59 67.0765 1397.5 66.1585L1432.71 30.8609C1433.63 29.9428 1433.63 28.4543 1432.71 27.5362Z" fill="#EFDBBF"/>
<path d="M1414 66.1586C1414.93 65.2424 1414.93 63.7569 1414 62.8408L1376.98 26.3026C1376.06 25.3866 1374.55 25.3865 1373.62 26.3026C1372.69 27.2188 1372.69 28.7042 1373.62 29.6204L1410.64 66.1586C1411.57 67.0747 1413.07 67.0747 1414 66.1586Z" fill="#EFDBBF"/>
<path d="M1395.75 27.285C1396.68 26.3733 1396.68 24.8952 1395.75 23.9835L1391.36 19.7137C1390.42 18.8021 1388.9 18.802 1387.97 19.7137C1387.03 20.6254 1387.03 22.1036 1387.97 23.0153L1392.36 27.285C1393.29 28.1967 1394.81 28.1966 1395.75 27.285ZM1396.49 48.7694C1397.42 47.8577 1397.42 46.3796 1396.49 45.4679C1395.55 44.5563 1394.03 44.5562 1393.09 45.4679L1388.5 49.9386C1387.56 50.8503 1387.56 52.3284 1388.5 53.2401C1389.44 54.1517 1390.96 54.1518 1391.89 53.2401L1396.49 48.7694ZM1433.32 47.4418C1434.26 46.5301 1434.26 45.0519 1433.32 44.1402L1416.34 27.6117L1419.23 24.7918C1420.17 23.8801 1420.17 22.402 1419.23 21.4903C1418.3 20.5788 1416.78 20.5788 1415.84 21.4903L1413.04 24.2168L1397.5 7.31735C1396.61 6.35669 1395.1 6.27524 1394.11 7.13513C1393.12 7.99504 1393.04 9.47096 1393.92 10.4316L1411.2 29.2169L1429.93 47.4418C1430.86 48.3534 1432.38 48.3534 1433.32 47.4418ZM1420.96 51.8258C1421.9 50.9141 1421.9 49.436 1420.96 48.5243L1416.58 44.2545C1415.64 43.3429 1414.12 43.3429 1413.18 44.2545C1412.25 45.1662 1412.25 46.6444 1413.18 47.5561L1417.57 51.8258C1418.51 52.7375 1420.03 52.7375 1420.96 51.8258Z" fill="#EFDBBF"/>
</g>
<defs>
<clipPath id="clip0_2915_46365">
<rect width="1440" height="73" fill="white"/>
</clipPath>
</defs>
</svg>
