<svg width="73" height="1442" viewBox="0 0 73 1442" fill="none" xmlns="http://www.w3.org/2000/svg">
<g clip-path="url(#clip0_2947_74164)">
<rect width="1442" height="73" transform="matrix(0 1 -1 0 73 0)" fill="#23140D"/>
<path d="M39.4573 99.3958C38.3439 98.2825 36.5389 98.2825 35.4256 99.3958C34.3122 100.509 34.3122 102.314 35.4256 103.428C36.5389 104.541 38.3439 104.541 39.4573 103.428C40.5706 102.314 40.5706 100.509 39.4573 99.3958Z" fill="#91040C"/>
<path d="M38.7638 100.089L38.8301 100.159C39.4721 100.869 39.4722 101.954 38.8301 102.664L38.7641 102.734C38.0337 103.464 36.8491 103.464 36.1187 102.734L36.0527 102.664C35.3893 101.93 35.4114 100.797 36.119 100.089L35.4257 99.3957L35.3244 99.5021C34.3133 100.621 34.347 102.349 35.4254 103.427C36.5388 104.541 38.344 104.541 39.4574 103.427C40.5706 102.314 40.5704 100.509 39.4571 99.3957L39.351 99.2947C38.2319 98.2835 36.5043 98.3172 35.4257 99.3957L36.119 100.089C36.8266 99.3815 37.96 99.3595 38.6942 100.023L38.7638 100.089Z" fill="#91040C"/>
<path d="M65.5144 110.861C66.4474 109.952 66.469 108.457 65.5626 107.521L30.8895 71.7235C29.9831 70.7877 28.4918 70.7661 27.5587 71.6751C26.6256 72.5842 26.604 74.0798 27.5105 75.0156L62.1836 110.813C63.09 111.749 64.5813 111.77 65.5144 110.861Z" fill="#91040C"/>
<path d="M46.4638 130.787C47.3819 129.857 47.3819 128.349 46.4638 127.419L11.1662 91.6598C10.2482 90.7298 8.75961 90.7299 7.84153 91.6598C6.92345 92.5899 6.92345 94.0979 7.84153 95.0279L43.1391 130.787C44.0572 131.717 45.5457 131.717 46.4638 130.787Z" fill="#91040C"/>
<path d="M7.84143 112.085C8.7576 113.013 10.2431 113.013 11.1592 112.085L47.6974 75.0696C48.6134 74.1414 48.6135 72.6365 47.6974 71.7084C46.7812 70.7803 45.2958 70.7804 44.3796 71.7084L7.84143 108.724C6.92525 109.652 6.92525 111.157 7.84143 112.085Z" fill="#91040C"/>
<path d="M46.715 93.7206C47.6267 94.6448 49.1048 94.6449 50.0165 93.7206L54.2863 89.3919C55.1979 88.4676 55.198 86.969 54.2863 86.0448C53.3746 85.1205 51.8964 85.1205 50.9847 86.0448L46.715 90.3735C45.8033 91.2977 45.8034 92.7963 46.715 93.7206ZM25.2306 94.4497C26.1423 95.374 27.6204 95.374 28.5321 94.4497C29.4437 93.5254 29.4438 92.0268 28.5321 91.1026L24.0614 86.5706C23.1497 85.6463 21.6716 85.6463 20.7599 86.5706C19.8483 87.4948 19.8482 88.9934 20.7599 89.9177L25.2306 94.4497ZM26.5582 130.791C27.4699 131.715 28.9481 131.715 29.8598 130.791L46.3883 114.035L49.2082 116.893C50.1199 117.817 51.598 117.817 52.5097 116.893C53.4212 115.969 53.4212 114.471 52.5097 113.546L49.7832 110.783L66.6826 95.4477C67.6433 94.5759 67.7248 93.0796 66.8649 92.1057C66.005 91.1318 64.529 91.0488 63.5684 91.9206L44.7831 108.968L26.5582 127.444C25.6466 128.368 25.6466 129.867 26.5582 130.791ZM22.1742 118.6C23.0859 119.525 24.564 119.525 25.4757 118.6L29.7455 114.271C30.6571 113.347 30.6571 111.849 29.7455 110.924C28.8338 110 27.3556 110 26.4439 110.925L22.1742 115.253C21.2625 116.178 21.2625 117.676 22.1742 118.6Z" fill="#91040C"/>
<path d="M39.4592 37.7097C38.3459 38.823 36.5408 38.823 35.4275 37.7097C34.3142 36.5963 34.3142 34.7913 35.4275 33.678C36.5408 32.5646 38.3459 32.5646 39.4592 33.678C40.5725 34.7913 40.5725 36.5963 39.4592 37.7097Z" fill="#91040C"/>
<path d="M38.7658 37.0165L38.8321 36.9466C39.4741 36.2361 39.4741 35.1516 38.8321 34.4411L38.766 34.3714C38.0356 33.641 36.8511 33.641 36.1207 34.3714L36.0547 34.4411C35.3912 35.1752 35.4134 36.3089 36.121 37.0165L35.4276 37.7098L35.3264 37.6034C34.3153 36.4843 34.3489 34.7567 35.4274 33.6781C36.5407 32.5648 38.346 32.5648 39.4593 33.6781C40.5726 34.7914 40.5724 36.5965 39.4591 37.7098L39.353 37.8108C38.2339 38.822 36.5062 38.7883 35.4276 37.7098L36.121 37.0165C36.8285 37.724 37.962 37.7459 38.6961 37.0825L38.7658 37.0165Z" fill="#91040C"/>
<path d="M65.5144 26.1679C66.4474 27.0769 66.469 28.5725 65.5626 29.5083L30.8895 65.3058C29.9831 66.2416 28.4918 66.2632 27.5587 65.3542C26.6256 64.4451 26.604 62.9495 27.5105 62.0137L62.1836 26.2162C63.09 25.2805 64.5813 25.2588 65.5144 26.1679Z" fill="#91040C"/>
<path d="M46.4638 6.24833C47.3819 7.17839 47.3819 8.68637 46.4638 9.61643L11.1662 45.3753C10.2482 46.3054 8.75961 46.3053 7.84153 45.3753C6.92345 44.4453 6.92345 42.9373 7.84153 42.0072L43.1391 6.24833C44.0572 5.31826 45.5457 5.31827 46.4638 6.24833Z" fill="#91040C"/>
<path d="M7.84143 24.9481C8.7576 24.0199 10.2431 24.0199 11.1592 24.9481L47.6974 61.9636C48.6134 62.8918 48.6135 64.3967 47.6974 65.3248C46.7812 66.2529 45.2958 66.2528 44.3796 65.3248L7.84143 28.3092C6.92525 27.3811 6.92525 25.8762 7.84143 24.9481Z" fill="#91040C"/>
<path d="M46.715 43.3146C47.6267 42.3903 49.1048 42.3903 50.0165 43.3146L54.2863 47.6433C55.1979 48.5676 55.198 50.0661 54.2863 50.9904C53.3746 51.9146 51.8964 51.9146 50.9847 50.9904L46.715 46.6617C45.8033 45.7374 45.8034 44.2388 46.715 43.3146ZM25.2306 42.5855C26.1423 41.6612 27.6204 41.6612 28.5321 42.5855C29.4437 43.5097 29.4438 45.0083 28.5321 45.9326L24.0614 50.4646C23.1497 51.3889 21.6716 51.3889 20.7599 50.4646C19.8483 49.5403 19.8482 48.0417 20.7599 47.1175L25.2306 42.5855ZM26.5582 6.24396C27.4699 5.31974 28.9481 5.31971 29.8598 6.24396L46.3883 23.0006L49.2082 20.1421C50.1199 19.2178 51.598 19.2178 52.5097 20.1421C53.4212 21.0663 53.4212 22.5646 52.5097 23.4888L49.7832 26.2526L66.6826 41.5875C67.6433 42.4592 67.7248 43.9555 66.8649 44.9295C66.005 45.9034 64.529 45.9863 63.5684 45.1146L44.7831 28.0675L26.5582 9.59106C25.6466 8.66679 25.6466 7.16822 26.5582 6.24396ZM22.1742 18.4347C23.0859 17.5105 24.564 17.5104 25.4757 18.4347L29.7455 22.7637C30.6571 23.688 30.6571 25.1866 29.7455 26.1109C28.8338 27.035 27.3556 27.0347 26.4439 26.1105L22.1742 21.7818C21.2625 20.8575 21.2625 19.3589 22.1742 18.4347Z" fill="#91040C"/>
<path d="M39.4592 164.913C38.3459 163.8 36.5408 163.8 35.4275 164.913C34.3142 166.027 34.3142 167.832 35.4275 168.945C36.5408 170.058 38.3459 170.058 39.4592 168.945C40.5725 167.832 40.5725 166.027 39.4592 164.913Z" fill="#91040C"/>
<path d="M38.7658 165.607L38.8321 165.676C39.4741 166.387 39.4741 167.471 38.8321 168.182L38.766 168.252C38.0356 168.982 36.8511 168.982 36.1207 168.252L36.0547 168.182C35.3912 167.448 35.4134 166.314 36.121 165.607L35.4276 164.913L35.3264 165.02C34.3153 166.139 34.3489 167.866 35.4274 168.945C36.5407 170.058 38.346 170.058 39.4593 168.945C40.5726 167.832 40.5724 166.027 39.4591 164.913L39.353 164.812C38.2339 163.801 36.5062 163.835 35.4276 164.913L36.121 165.607C36.8285 164.899 37.962 164.877 38.6961 165.541L38.7658 165.607Z" fill="#91040C"/>
<path d="M65.5144 176.324C66.4474 175.415 66.469 173.92 65.5626 172.984L30.8895 137.186C29.9831 136.251 28.4918 136.229 27.5587 137.138C26.6256 138.047 26.604 139.543 27.5105 140.478L62.1836 176.276C63.09 177.212 64.5813 177.233 65.5144 176.324Z" fill="#91040C"/>
<path d="M46.4638 196.253C47.3819 195.337 47.3819 193.852 46.4638 192.936L11.1662 157.728C10.2482 156.812 8.75961 156.812 7.84153 157.728C6.92345 158.643 6.92345 160.128 7.84153 161.044L43.1391 196.253C44.0572 197.168 45.5457 197.168 46.4638 196.253Z" fill="#91040C"/>
<path d="M7.84143 177.544C8.7576 178.472 10.2431 178.472 11.1592 177.544L47.6974 140.529C48.6134 139.6 48.6135 138.095 47.6974 137.167C46.7812 136.239 45.2958 136.239 44.3796 137.167L7.84143 174.183C6.92525 175.111 6.92525 176.616 7.84143 177.544Z" fill="#91040C"/>
<path d="M46.715 159.176C47.6267 160.1 49.1048 160.1 50.0165 159.176L54.2863 154.847C55.1979 153.923 55.198 152.424 54.2863 151.5C53.3746 150.576 51.8964 150.576 50.9847 151.5L46.715 155.829C45.8033 156.753 45.8034 158.251 46.715 159.176ZM25.2306 159.905C26.1423 160.829 27.6204 160.829 28.5321 159.905C29.4437 158.981 29.4438 157.482 28.5321 156.558L24.0614 152.026C23.1497 151.101 21.6716 151.101 20.7599 152.026C19.8483 152.95 19.8482 154.449 20.7599 155.373L25.2306 159.905ZM26.5582 196.246C27.4699 197.17 28.9481 197.171 29.8598 196.246L46.3883 179.49L49.2082 182.348C50.1199 183.272 51.598 183.272 52.5097 182.348C53.4212 181.424 53.4212 179.926 52.5097 179.001L49.7832 176.238L66.6826 160.903C67.6433 160.031 67.7248 158.535 66.8649 157.561C66.005 156.587 64.529 156.504 63.5684 157.376L44.7831 174.423L26.5582 192.899C25.6466 193.823 25.6466 195.322 26.5582 196.246ZM22.1742 184.056C23.0859 184.98 24.564 184.98 25.4757 184.056L29.7455 179.726C30.6571 178.802 30.6571 177.304 29.7455 176.379C28.8338 175.455 27.3556 175.455 26.4439 176.38L22.1742 180.708C21.2625 181.633 21.2625 183.131 22.1742 184.056Z" fill="#91040C"/>
<path d="M39.4397 230.431C38.3264 229.318 36.5213 229.318 35.408 230.431C34.2946 231.544 34.2946 233.349 35.408 234.463C36.5213 235.576 38.3264 235.576 39.4397 234.463C40.553 233.349 40.553 231.544 39.4397 230.431Z" fill="#91040C"/>
<path d="M38.7462 231.124L38.8125 231.194C39.4545 231.905 39.4546 232.989 38.8125 233.7L38.7465 233.769C38.0161 234.5 36.8315 234.5 36.1012 233.769L36.0351 233.7C35.3717 232.965 35.3938 231.832 36.1014 231.124L35.4081 230.431L35.3069 230.537C34.2957 231.656 34.3294 233.384 35.4078 234.463C36.5212 235.576 38.3265 235.576 39.4398 234.463C40.553 233.349 40.5529 231.544 39.4396 230.431L39.3334 230.33C38.2143 229.319 36.4867 229.352 35.4081 230.431L36.1014 231.124C36.809 230.417 37.9425 230.395 38.6766 231.058L38.7462 231.124Z" fill="#91040C"/>
<path d="M65.5163 241.781C66.4494 240.872 66.4709 239.377 65.5645 238.441L30.8914 202.643C29.985 201.708 28.4937 201.686 27.5606 202.595C26.6276 203.504 26.606 205 27.5124 205.936L62.1855 241.733C63.0919 242.669 64.5832 242.69 65.5163 241.781Z" fill="#91040C"/>
<path d="M46.4638 261.712C47.3819 260.796 47.3819 259.311 46.4638 258.395L11.1662 223.187C10.2482 222.271 8.75961 222.271 7.84153 223.187C6.92345 224.102 6.92345 225.587 7.84153 226.503L43.1391 261.712C44.0572 262.627 45.5457 262.627 46.4638 261.712Z" fill="#91040C"/>
<path d="M7.84143 243.001C8.7576 243.929 10.2431 243.929 11.1592 243.001L47.6974 205.986C48.6134 205.057 48.6135 203.553 47.6974 202.624C46.7812 201.696 45.2958 201.696 44.3796 202.624L7.84143 239.64C6.92525 240.568 6.92525 242.073 7.84143 243.001Z" fill="#91040C"/>
<path d="M46.7169 224.749C47.6286 225.686 49.1068 225.686 50.0184 224.749L54.2882 220.362C55.1999 219.425 55.1999 217.907 54.2882 216.97C53.3765 216.033 51.8984 216.033 50.9867 216.97L46.7169 221.357C45.8053 222.294 45.8053 223.813 46.7169 224.749ZM25.2325 225.488C26.1442 226.425 27.6224 226.425 28.5341 225.488C29.4456 224.552 29.4457 223.033 28.5341 222.096L24.0634 217.503C23.1517 216.566 21.6735 216.566 20.7618 217.503C19.8502 218.439 19.8502 219.958 20.7618 220.895L25.2325 225.488ZM26.5602 262.321C27.4719 263.258 28.9501 263.258 29.8617 262.321L46.3902 245.338L49.2101 248.235C50.1218 249.172 51.6 249.172 52.5117 248.235C53.4232 247.298 53.4232 245.78 52.5117 244.843L49.7852 242.042L66.6846 226.5C67.6453 225.616 67.7267 224.1 66.8668 223.113C66.0069 222.126 64.531 222.041 63.5703 222.925L44.7851 240.202L26.5602 258.929C25.6485 259.865 25.6485 261.384 26.5602 262.321ZM22.1761 249.965C23.0878 250.902 24.566 250.902 25.4777 249.965L29.7474 245.578C30.659 244.641 30.6591 243.122 29.7474 242.186C28.8357 241.249 27.3575 241.249 26.4459 242.186L22.1761 246.573C21.2645 247.51 21.2644 249.029 22.1761 249.965Z" fill="#91040C"/>
<path d="M39.4494 295.949C38.3361 294.835 36.5311 294.835 35.4177 295.949C34.3044 297.062 34.3044 298.867 35.4177 299.98C36.5311 301.094 38.3361 301.094 39.4494 299.98C40.5628 298.867 40.5628 297.062 39.4494 295.949Z" fill="#91040C"/>
<path d="M38.756 296.642L38.8223 296.712C39.4643 297.422 39.4643 298.507 38.8223 299.217L38.7563 299.287C38.0259 300.017 36.8413 300.017 36.1109 299.287L36.0449 299.217C35.3815 298.483 35.4036 297.349 36.1112 296.642L35.4179 295.948L35.3166 296.055C34.3055 297.174 34.3392 298.902 35.4176 299.98C36.531 301.093 38.3362 301.093 39.4496 299.98C40.5628 298.867 40.5626 297.062 39.4493 295.948L39.3432 295.847C38.2241 294.836 36.4964 294.87 35.4179 295.948L36.1112 296.642C36.8188 295.934 37.9522 295.912 38.6864 296.576L38.756 296.642Z" fill="#91040C"/>
<path d="M65.5144 307.849C66.4474 306.926 66.469 305.408 65.5626 304.457L30.8895 268.109C29.9831 267.159 28.4918 267.137 27.5587 268.06C26.6256 268.983 26.604 270.502 27.5105 271.452L62.1836 307.8C63.09 308.75 64.5813 308.772 65.5144 307.849Z" fill="#91040C"/>
<path d="M46.4638 327.781C47.3819 326.851 47.3819 325.343 46.4638 324.413L11.1662 288.654C10.2482 287.724 8.75961 287.724 7.84153 288.654C6.92345 289.584 6.92345 291.092 7.84153 292.022L43.1391 327.781C44.0572 328.711 45.5457 328.711 46.4638 327.781Z" fill="#91040C"/>
<path d="M7.84143 308.454C8.7576 309.382 10.2431 309.382 11.1592 308.454L47.6974 271.439C48.6134 270.511 48.6135 269.006 47.6974 268.078C46.7812 267.149 45.2958 267.15 44.3796 268.078L7.84143 305.093C6.92525 306.021 6.92525 307.526 7.84143 308.454Z" fill="#91040C"/>
<path d="M46.715 290.204C47.6267 291.141 49.1048 291.141 50.0165 290.204L54.2863 285.817C55.1979 284.88 55.198 283.362 54.2863 282.425C53.3746 281.488 51.8964 281.488 50.9847 282.425L46.715 286.812C45.8033 287.749 45.8034 289.268 46.715 290.204ZM25.2306 290.943C26.1423 291.88 27.6204 291.88 28.5321 290.943C29.4437 290.007 29.4438 288.488 28.5321 287.551L24.0614 282.958C23.1497 282.021 21.6716 282.021 20.7599 282.958C19.8483 283.895 19.8482 285.413 20.7599 286.35L25.2306 290.943ZM26.5582 327.776C27.4699 328.713 28.9481 328.713 29.8598 327.776L46.3883 310.793L49.2082 313.69C50.1199 314.627 51.598 314.627 52.5097 313.69C53.4212 312.753 53.4212 311.235 52.5097 310.298L49.7832 307.497L66.6826 291.955C67.6433 291.071 67.7248 289.555 66.8649 288.568C66.005 287.581 64.529 287.497 63.5684 288.38L44.7831 305.657L26.5582 324.384C25.6466 325.32 25.6466 326.839 26.5582 327.776ZM22.1742 315.421C23.0859 316.357 24.564 316.357 25.4757 315.421L29.7455 311.033C30.6571 310.096 30.6571 308.577 29.7455 307.641C28.8338 306.704 27.3556 306.704 26.4439 307.641L22.1742 312.028C21.2625 312.965 21.2625 314.484 22.1742 315.421Z" fill="#91040C"/>
<path d="M39.4494 361.458C38.3361 360.345 36.5311 360.345 35.4177 361.458C34.3044 362.572 34.3044 364.377 35.4177 365.49C36.5311 366.603 38.3361 366.603 39.4494 365.49C40.5628 364.377 40.5628 362.572 39.4494 361.458Z" fill="#91040C"/>
<path d="M38.756 362.151L38.8223 362.221C39.4643 362.932 39.4643 364.016 38.8223 364.727L38.7563 364.797C38.0259 365.527 36.8413 365.527 36.1109 364.797L36.0449 364.727C35.3815 363.993 35.4036 362.859 36.1112 362.151L35.4179 361.458L35.3166 361.565C34.3055 362.684 34.3392 364.411 35.4176 365.49C36.531 366.603 38.3362 366.603 39.4496 365.49C40.5628 364.377 40.5626 362.571 39.4493 361.458L39.3432 361.357C38.2241 360.346 36.4964 360.38 35.4179 361.458L36.1112 362.151C36.8188 361.444 37.9522 361.422 38.6864 362.085L38.756 362.151Z" fill="#91040C"/>
<path d="M39.4494 429.557C38.3361 430.671 36.5311 430.671 35.4177 429.557C34.3044 428.444 34.3044 426.639 35.4177 425.526C36.5311 424.412 38.3361 424.412 39.4494 425.526C40.5628 426.639 40.5628 428.444 39.4494 429.557Z" fill="#91040C"/>
<path d="M38.756 428.864L38.8223 428.794C39.4643 428.084 39.4643 426.999 38.8223 426.289L38.7563 426.219C38.0259 425.489 36.8413 425.489 36.1109 426.219L36.0449 426.289C35.3815 427.023 35.4036 428.157 36.1112 428.864L35.4179 429.557L35.3166 429.451C34.3055 428.332 34.3392 426.604 35.4176 425.526C36.531 424.412 38.3362 424.412 39.4496 425.526C40.5628 426.639 40.5626 428.444 39.4493 429.557L39.3432 429.658C38.2241 430.67 36.4964 430.636 35.4179 429.557L36.1112 428.864C36.8188 429.572 37.9522 429.594 38.6864 428.93L38.756 428.864Z" fill="#91040C"/>
<path d="M65.5183 373.312C66.4513 372.389 66.4729 370.87 65.5665 369.92L30.8934 333.572C29.987 332.622 28.4957 332.6 27.5626 333.523C26.6295 334.446 26.608 335.965 27.5144 336.915L62.1875 373.263C63.0939 374.213 64.5852 374.235 65.5183 373.312Z" fill="#91040C"/>
<path d="M46.4657 393.242C47.3838 392.312 47.3838 390.804 46.4657 389.874L11.1682 354.115C10.2501 353.185 8.76156 353.185 7.84348 354.115C6.9254 355.045 6.92541 356.553 7.84348 357.483L43.1411 393.242C44.0591 394.172 45.5477 394.172 46.4657 393.242Z" fill="#91040C"/>
<path d="M7.84338 373.917C8.75956 374.845 10.245 374.845 11.1612 373.917L47.6993 336.902C48.6153 335.973 48.6154 334.469 47.6993 333.54C46.7832 332.612 45.2977 332.612 44.3815 333.54L7.84338 370.556C6.92721 371.484 6.92721 372.989 7.84338 373.917Z" fill="#91040C"/>
<path d="M46.7169 355.665C47.6286 356.602 49.1068 356.602 50.0184 355.665L54.2882 351.278C55.1999 350.341 55.1999 348.823 54.2882 347.886C53.3765 346.949 51.8984 346.949 50.9867 347.886L46.7169 352.273C45.8053 353.21 45.8053 354.729 46.7169 355.665ZM25.2325 356.404C26.1442 357.341 27.6224 357.341 28.5341 356.404C29.4456 355.468 29.4457 353.949 28.5341 353.012L24.0634 348.419C23.1517 347.482 21.6735 347.482 20.7618 348.419C19.8502 349.355 19.8502 350.874 20.7618 351.811L25.2325 356.404ZM26.5602 393.237C27.4719 394.174 28.9501 394.174 29.8617 393.237L46.3902 376.254L49.2101 379.151C50.1218 380.088 51.6 380.088 52.5117 379.151C53.4232 378.214 53.4232 376.696 52.5117 375.759L49.7852 372.958L66.6846 357.416C67.6453 356.532 67.7267 355.016 66.8668 354.029C66.0069 353.042 64.531 352.957 63.5703 353.841L44.7851 371.118L26.5602 389.845C25.6485 390.781 25.6485 392.3 26.5602 393.237ZM22.1761 380.881C23.0878 381.818 24.566 381.818 25.4777 380.881L29.7474 376.494C30.659 375.557 30.6591 374.038 29.7474 373.102C28.8357 372.165 27.3575 372.165 26.4459 373.102L22.1761 377.489C21.2645 378.426 21.2644 379.945 22.1761 380.881Z" fill="#91040C"/>
<path d="M65.5163 417.684C66.4494 418.607 66.4709 420.126 65.5645 421.076L30.8914 457.424C29.985 458.374 28.4938 458.396 27.5607 457.473C26.6276 456.55 26.606 455.032 27.5124 454.081L62.1855 417.733C63.0919 416.783 64.5832 416.761 65.5163 417.684Z" fill="#91040C"/>
<path d="M46.4638 397.754C47.3819 398.684 47.3819 400.192 46.4638 401.122L11.1662 436.881C10.2482 437.811 8.75961 437.811 7.84153 436.881C6.92345 435.951 6.92345 434.443 7.84153 433.513L43.1391 397.754C44.0572 396.824 45.5457 396.824 46.4638 397.754Z" fill="#91040C"/>
<path d="M7.84143 417.081C8.7576 416.153 10.2431 416.153 11.1592 417.081L47.6974 454.096C48.6134 455.025 48.6135 456.53 47.6974 457.458C46.7812 458.386 45.2957 458.386 44.3796 457.458L7.84143 420.442C6.92525 419.514 6.92525 418.009 7.84143 417.081Z" fill="#91040C"/>
<path d="M46.715 435.331C47.6267 434.394 49.1048 434.394 50.0165 435.331L54.2863 439.718C55.1979 440.655 55.198 442.174 54.2863 443.11C53.3746 444.047 51.8964 444.047 50.9847 443.11L46.715 438.723C45.8033 437.786 45.8034 436.268 46.715 435.331ZM25.2306 434.592C26.1423 433.655 27.6204 433.655 28.5321 434.592C29.4437 435.529 29.4438 437.047 28.5321 437.984L24.0614 442.577C23.1497 443.514 21.6716 443.514 20.7599 442.577C19.8483 441.641 19.8482 440.122 20.7599 439.185L25.2306 434.592ZM26.5582 397.759C27.4699 396.822 28.9481 396.822 29.8598 397.759L46.3883 414.742L49.2082 411.845C50.1199 410.908 51.598 410.908 52.5097 411.845C53.4212 412.782 53.4212 414.3 52.5097 415.237L49.7832 418.038L66.6826 433.58C67.6433 434.464 67.7248 435.98 66.8649 436.967C66.005 437.955 64.529 438.039 63.5684 437.155L44.7831 419.878L26.5582 401.152C25.6466 400.215 25.6466 398.696 26.5582 397.759ZM22.1742 410.115C23.0859 409.178 24.564 409.178 25.4757 410.115L29.7455 414.502C30.6571 415.439 30.6571 416.958 29.7455 417.895C28.8338 418.831 27.3556 418.831 26.4439 417.894L22.1742 413.507C21.2625 412.57 21.2625 411.051 22.1742 410.115Z" fill="#91040C"/>
<path d="M39.4494 490.749C38.3361 489.636 36.5311 489.636 35.4177 490.749C34.3044 491.863 34.3044 493.668 35.4177 494.781C36.5311 495.894 38.3361 495.894 39.4494 494.781C40.5628 493.668 40.5628 491.863 39.4494 490.749Z" fill="#91040C"/>
<path d="M38.756 491.443L38.8223 491.512C39.4643 492.223 39.4643 493.307 38.8223 494.018L38.7563 494.088C38.0259 494.818 36.8413 494.818 36.1109 494.088L36.0449 494.018C35.3815 493.284 35.4036 492.15 36.1112 491.443L35.4179 490.749L35.3166 490.856C34.3055 491.975 34.3392 493.702 35.4176 494.781C36.531 495.894 38.3362 495.894 39.4496 494.781C40.5628 493.668 40.5626 491.862 39.4493 490.749L39.3432 490.648C38.2241 489.637 36.4964 489.671 35.4179 490.749L36.1112 491.443C36.8188 490.735 37.9522 490.713 38.6864 491.376L38.756 491.443Z" fill="#91040C"/>
<path d="M65.5163 502.371C66.4494 501.462 66.4709 499.967 65.5645 499.031L30.8914 463.233C29.985 462.297 28.4938 462.276 27.5606 463.185C26.6276 464.094 26.606 465.59 27.5124 466.525L62.1855 502.323C63.0919 503.259 64.5832 503.28 65.5163 502.371Z" fill="#91040C"/>
<path d="M46.4657 522.291C47.3838 521.361 47.3838 519.853 46.4657 518.923L11.1682 483.164C10.2501 482.234 8.76156 482.234 7.84348 483.164C6.9254 484.094 6.92541 485.602 7.84348 486.532L43.1411 522.291C44.0591 523.221 45.5477 523.221 46.4657 522.291Z" fill="#91040C"/>
<path d="M7.84143 503.589C8.7576 504.517 10.2431 504.517 11.1592 503.589L47.6974 466.573C48.6134 465.645 48.6135 464.14 47.6974 463.212C46.7812 462.284 45.2957 462.284 44.3796 463.212L7.84143 500.228C6.92525 501.156 6.92525 502.661 7.84143 503.589Z" fill="#91040C"/>
<path d="M46.7169 485.224C47.6286 486.149 49.1068 486.149 50.0184 485.224L54.2882 480.896C55.1999 479.972 55.1999 478.473 54.2882 477.549C53.3765 476.624 51.8984 476.624 50.9867 477.549L46.7169 481.877C45.8053 482.802 45.8053 484.3 46.7169 485.224ZM25.2325 485.954C26.1442 486.878 27.6224 486.878 28.5341 485.954C29.4456 485.029 29.4457 483.531 28.5341 482.606L24.0634 478.074C23.1517 477.15 21.6735 477.15 20.7618 478.074C19.8502 478.999 19.8502 480.497 20.7618 481.422L25.2325 485.954ZM26.5602 522.295C27.4719 523.219 28.9501 523.219 29.8617 522.295L46.3902 505.538L49.2101 508.397C50.1218 509.321 51.6 509.321 52.5117 508.397C53.4232 507.473 53.4232 505.974 52.5117 505.05L49.7852 502.286L66.6846 486.952C67.6453 486.08 67.7267 484.584 66.8668 483.61C66.0069 482.636 64.531 482.553 63.5703 483.425L44.7851 500.472L26.5602 518.948C25.6485 519.872 25.6485 521.371 26.5602 522.295ZM22.1761 510.104C23.0878 511.029 24.566 511.029 25.4777 510.104L29.7474 505.775C30.659 504.851 30.6591 503.352 29.7474 502.428C28.8357 501.504 27.3575 501.504 26.4459 502.429L22.1761 506.757C21.2645 507.682 21.2644 509.18 22.1761 510.104Z" fill="#91040C"/>
<path d="M39.4592 559.842C38.3459 560.956 36.5408 560.956 35.4275 559.842C34.3142 558.729 34.3142 556.924 35.4275 555.811C36.5408 554.697 38.3459 554.697 39.4592 555.811C40.5725 556.924 40.5725 558.729 39.4592 559.842Z" fill="#91040C"/>
<path d="M38.7658 559.149L38.8321 559.079C39.4741 558.369 39.4741 557.284 38.8321 556.574L38.766 556.504C38.0356 555.774 36.8511 555.774 36.1207 556.504L36.0547 556.574C35.3912 557.308 35.4134 558.442 36.121 559.149L35.4276 559.843L35.3264 559.736C34.3153 558.617 34.3489 556.889 35.4274 555.811C36.5407 554.698 38.346 554.698 39.4593 555.811C40.5726 556.924 40.5724 558.729 39.4591 559.843L39.353 559.944C38.2339 560.955 36.5062 560.921 35.4276 559.843L36.121 559.149C36.8285 559.857 37.962 559.879 38.6961 559.215L38.7658 559.149Z" fill="#91040C"/>
<path d="M65.5144 547.975C66.4474 548.898 66.469 550.417 65.5626 551.367L30.8895 587.715C29.9831 588.665 28.4918 588.687 27.5587 587.764C26.6256 586.841 26.6041 585.323 27.5105 584.372L62.1836 548.024C63.09 547.074 64.5813 547.052 65.5144 547.975Z" fill="#91040C"/>
<path d="M46.4638 528.049C47.3819 528.979 47.3819 530.487 46.4638 531.417L11.1662 567.176C10.2482 568.106 8.75961 568.106 7.84153 567.176C6.92345 566.246 6.92345 564.738 7.84153 563.808L43.1391 528.049C44.0572 527.119 45.5457 527.119 46.4638 528.049Z" fill="#91040C"/>
<path d="M7.84143 547.372C8.7576 546.444 10.2431 546.444 11.1592 547.372L47.6974 584.387C48.6134 585.316 48.6135 586.821 47.6974 587.749C46.7812 588.677 45.2957 588.677 44.3796 587.749L7.84143 550.733C6.92525 549.805 6.92525 548.3 7.84143 547.372Z" fill="#91040C"/>
<path d="M46.715 565.626C47.6267 564.689 49.1048 564.689 50.0165 565.626L54.2863 570.013C55.1979 570.95 55.198 572.468 54.2863 573.405C53.3746 574.342 51.8964 574.342 50.9847 573.405L46.715 569.018C45.8033 568.081 45.8034 566.562 46.715 565.626ZM25.2306 564.887C26.1423 563.95 27.6204 563.95 28.5321 564.887C29.4437 565.823 29.4438 567.342 28.5321 568.279L24.0614 572.872C23.1497 573.809 21.6716 573.809 20.7599 572.872C19.8483 571.936 19.8482 570.417 20.7599 569.48L25.2306 564.887ZM26.5582 528.054C27.4699 527.117 28.9481 527.117 29.8598 528.054L46.3883 545.037L49.2082 542.14C50.1199 541.203 51.598 541.203 52.5097 542.14C53.4212 543.077 53.4212 544.595 52.5097 545.532L49.7832 548.333L66.6826 563.875C67.6433 564.759 67.7248 566.275 66.8649 567.262C66.005 568.249 64.529 568.334 63.5684 567.45L44.7831 550.173L26.5582 531.446C25.6466 530.51 25.6466 528.991 26.5582 528.054ZM22.1742 540.41C23.0859 539.473 24.564 539.473 25.4757 540.41L29.7455 544.797C30.6571 545.734 30.6571 547.253 29.7455 548.189C28.8338 549.126 27.3556 549.126 26.4439 548.189L22.1742 543.802C21.2625 542.865 21.2625 541.346 22.1742 540.41Z" fill="#91040C"/>
<path d="M39.4553 1080.61C38.342 1081.72 36.5369 1081.72 35.4236 1080.61C34.3103 1079.49 34.3103 1077.69 35.4236 1076.58C36.5369 1075.46 38.342 1075.46 39.4553 1076.58C40.5686 1077.69 40.5686 1079.49 39.4553 1080.61Z" fill="#91040C"/>
<path d="M38.7619 1079.91L38.8282 1079.85C39.4702 1079.13 39.4702 1078.05 38.8282 1077.34L38.7621 1077.27C38.0317 1076.54 36.8472 1076.54 36.1168 1077.27L36.0507 1077.34C35.3873 1078.07 35.4095 1079.21 36.117 1079.91L35.4237 1080.61L35.3225 1080.5C34.3114 1079.38 34.345 1077.66 35.4235 1076.58C36.5368 1075.46 38.3421 1075.46 39.4554 1076.58C40.5687 1077.69 40.5685 1079.49 39.4552 1080.61L39.349 1080.71C38.23 1081.72 36.5023 1081.69 35.4237 1080.61L36.117 1079.91C36.8246 1080.62 37.9581 1080.64 38.6922 1079.98L38.7619 1079.91Z" fill="#91040C"/>
<path d="M65.5144 1069.14C66.4474 1070.05 66.469 1071.55 65.5626 1072.48L30.8895 1108.28C29.9831 1109.21 28.4918 1109.24 27.5587 1108.33C26.6256 1107.42 26.604 1105.92 27.5105 1104.99L62.1836 1069.19C63.09 1068.25 64.5813 1068.23 65.5144 1069.14Z" fill="#91040C"/>
<path d="M46.4638 1049.22C47.3819 1050.15 47.3819 1051.66 46.4638 1052.59L11.1662 1088.35C10.2482 1089.28 8.75961 1089.28 7.84153 1088.35C6.92345 1087.42 6.92345 1085.91 7.84153 1084.98L43.1391 1049.22C44.0572 1048.29 45.5457 1048.29 46.4638 1049.22Z" fill="#91040C"/>
<path d="M7.84143 1067.92C8.7576 1066.99 10.2431 1066.99 11.1592 1067.92L47.6974 1104.93C48.6134 1105.86 48.6135 1107.37 47.6974 1108.3C46.7812 1109.22 45.2958 1109.22 44.3796 1108.3L7.84143 1071.28C6.92525 1070.35 6.92525 1068.85 7.84143 1067.92Z" fill="#91040C"/>
<path d="M46.715 1086.29C47.6267 1085.36 49.1048 1085.36 50.0165 1086.29L54.2863 1090.61C55.1979 1091.54 55.198 1093.04 54.2863 1093.96C53.3746 1094.89 51.8964 1094.89 50.9847 1093.96L46.715 1089.63C45.8033 1088.71 45.8034 1087.21 46.715 1086.29ZM25.2306 1085.56C26.1423 1084.63 27.6204 1084.63 28.5321 1085.56C29.4437 1086.48 29.4438 1087.98 28.5321 1088.9L24.0614 1093.44C23.1497 1094.36 21.6716 1094.36 20.7599 1093.44C19.8483 1092.51 19.8482 1091.01 20.7599 1090.09L25.2306 1085.56ZM26.5582 1049.21C27.4699 1048.29 28.9481 1048.29 29.8598 1049.21L46.3883 1065.97L49.2082 1063.11C50.1199 1062.19 51.598 1062.19 52.5097 1063.11C53.4212 1064.04 53.4212 1065.54 52.5097 1066.46L49.7832 1069.22L66.6826 1084.56C67.6433 1085.43 67.7248 1086.93 66.8649 1087.9C66.005 1088.87 64.529 1088.96 63.5684 1088.09L44.7831 1071.04L26.5582 1052.56C25.6466 1051.64 25.6466 1050.14 26.5582 1049.21ZM22.1742 1061.41C23.0859 1060.48 24.564 1060.48 25.4757 1061.41L29.7455 1065.73C30.6571 1066.66 30.6571 1068.16 29.7455 1069.08C28.8338 1070.01 27.3556 1070.01 26.4439 1069.08L22.1742 1064.75C21.2625 1063.83 21.2625 1062.33 22.1742 1061.41Z" fill="#91040C"/>
<path d="M39.4592 1142.29C38.3459 1141.18 36.5408 1141.18 35.4275 1142.29C34.3142 1143.41 34.3142 1145.21 35.4275 1146.33C36.5408 1147.44 38.3459 1147.44 39.4592 1146.33C40.5725 1145.21 40.5725 1143.41 39.4592 1142.29Z" fill="#91040C"/>
<path d="M38.7658 1142.99L38.8321 1143.06C39.4741 1143.77 39.4741 1144.85 38.8321 1145.56L38.766 1145.63C38.0356 1146.36 36.8511 1146.36 36.1207 1145.63L36.0547 1145.56C35.3912 1144.83 35.4134 1143.7 36.121 1142.99L35.4276 1142.29L35.3264 1142.4C34.3153 1143.52 34.3489 1145.25 35.4274 1146.33C36.5407 1147.44 38.346 1147.44 39.4593 1146.33C40.5726 1145.21 40.5724 1143.41 39.4591 1142.29L39.353 1142.19C38.2339 1141.18 36.5062 1141.22 35.4276 1142.29L36.121 1142.99C36.8285 1142.28 37.962 1142.26 38.6961 1142.92L38.7658 1142.99Z" fill="#91040C"/>
<path d="M65.5144 1153.84C66.4474 1152.93 66.469 1151.43 65.5626 1150.5L30.8895 1114.7C29.9831 1113.76 28.4918 1113.74 27.5587 1114.65C26.6256 1115.56 26.604 1117.05 27.5105 1117.99L62.1836 1153.79C63.09 1154.72 64.5813 1154.75 65.5144 1153.84Z" fill="#91040C"/>
<path d="M46.4638 1173.76C47.3819 1172.83 47.3819 1171.32 46.4638 1170.39L11.1662 1134.63C10.2482 1133.7 8.75961 1133.7 7.84153 1134.63C6.92345 1135.56 6.92345 1137.07 7.84153 1138L43.1391 1173.76C44.0572 1174.69 45.5457 1174.69 46.4638 1173.76Z" fill="#91040C"/>
<path d="M7.84143 1155.06C8.7576 1155.99 10.2431 1155.99 11.1592 1155.06L47.6974 1118.04C48.6134 1117.11 48.6135 1115.61 47.6974 1114.68C46.7812 1113.75 45.2958 1113.75 44.3796 1114.68L7.84143 1151.7C6.92525 1152.62 6.92525 1154.13 7.84143 1155.06Z" fill="#91040C"/>
<path d="M46.715 1136.69C47.6267 1137.62 49.1048 1137.62 50.0165 1136.69L54.2863 1132.36C55.1979 1131.44 55.198 1129.94 54.2863 1129.02C53.3746 1128.09 51.8964 1128.09 50.9847 1129.02L46.715 1133.34C45.8033 1134.27 45.8034 1135.77 46.715 1136.69ZM25.2306 1137.42C26.1423 1138.34 27.6204 1138.34 28.5321 1137.42C29.4437 1136.5 29.4438 1135 28.5321 1134.07L24.0614 1129.54C23.1497 1128.62 21.6716 1128.62 20.7599 1129.54C19.8483 1130.47 19.8482 1131.96 20.7599 1132.89L25.2306 1137.42ZM26.5582 1173.76C27.4699 1174.69 28.9481 1174.69 29.8598 1173.76L46.3883 1157.01L49.2082 1159.86C50.1199 1160.79 51.598 1160.79 52.5097 1159.86C53.4212 1158.94 53.4212 1157.44 52.5097 1156.52L49.7832 1153.75L66.6826 1138.42C67.6433 1137.55 67.7248 1136.05 66.8649 1135.08C66.005 1134.1 64.529 1134.02 63.5684 1134.89L44.7831 1151.94L26.5582 1170.41C25.6466 1171.34 25.6466 1172.84 26.5582 1173.76ZM22.1742 1161.57C23.0859 1162.5 24.564 1162.5 25.4757 1161.57L29.7455 1157.24C30.6571 1156.32 30.6571 1154.82 29.7455 1153.9C28.8338 1152.97 27.3556 1152.97 26.4439 1153.9L22.1742 1158.22C21.2625 1159.15 21.2625 1160.65 22.1742 1161.57Z" fill="#91040C"/>
<path d="M39.4592 1015.09C38.3459 1016.2 36.5408 1016.2 35.4275 1015.09C34.3142 1013.98 34.3142 1012.17 35.4275 1011.06C36.5408 1009.95 38.3459 1009.95 39.4592 1011.06C40.5725 1012.17 40.5725 1013.98 39.4592 1015.09Z" fill="#91040C"/>
<path d="M38.7658 1014.4L38.8321 1014.33C39.4741 1013.62 39.4741 1012.53 38.8321 1011.82L38.766 1011.75C38.0356 1011.02 36.8511 1011.02 36.1207 1011.75L36.0547 1011.82C35.3912 1012.56 35.4134 1013.69 36.121 1014.4L35.4276 1015.09L35.3264 1014.98C34.3153 1013.87 34.3489 1012.14 35.4274 1011.06C36.5407 1009.95 38.346 1009.95 39.4593 1011.06C40.5726 1012.17 40.5724 1013.98 39.4591 1015.09L39.353 1015.19C38.2339 1016.2 36.5062 1016.17 35.4276 1015.09L36.121 1014.4C36.8285 1015.1 37.962 1015.13 38.6961 1014.46L38.7658 1014.4Z" fill="#91040C"/>
<path d="M65.5144 1003.68C66.4474 1004.59 66.469 1006.09 65.5626 1007.02L30.8895 1042.82C29.9831 1043.76 28.4918 1043.78 27.5587 1042.87C26.6256 1041.96 26.604 1040.47 27.5105 1039.53L62.1836 1003.73C63.09 1002.8 64.5813 1002.77 65.5144 1003.68Z" fill="#91040C"/>
<path d="M46.4638 983.753C47.3819 984.669 47.3819 986.154 46.4638 987.07L11.1662 1022.28C10.2482 1023.19 8.75961 1023.19 7.84153 1022.28C6.92345 1021.36 6.92345 1019.88 7.84153 1018.96L43.1391 983.753C44.0572 982.837 45.5457 982.837 46.4638 983.753Z" fill="#91040C"/>
<path d="M7.84143 1002.46C8.7576 1001.54 10.2431 1001.54 11.1592 1002.46L47.6974 1039.48C48.6134 1040.41 48.6135 1041.91 47.6974 1042.84C46.7812 1043.77 45.2958 1043.77 44.3796 1042.84L7.84143 1005.82C6.92525 1004.9 6.92525 1003.39 7.84143 1002.46Z" fill="#91040C"/>
<path d="M46.715 1020.83C47.6267 1019.91 49.1048 1019.91 50.0165 1020.83L54.2863 1025.16C55.1979 1026.08 55.198 1027.58 54.2863 1028.51C53.3746 1029.43 51.8964 1029.43 50.9847 1028.51L46.715 1024.18C45.8033 1023.25 45.8034 1021.75 46.715 1020.83ZM25.2306 1020.1C26.1423 1019.18 27.6204 1019.18 28.5321 1020.1C29.4437 1021.03 29.4438 1022.52 28.5321 1023.45L24.0614 1027.98C23.1497 1028.9 21.6716 1028.9 20.7599 1027.98C19.8483 1027.06 19.8482 1025.56 20.7599 1024.63L25.2306 1020.1ZM26.5582 983.76C27.4699 982.835 28.9481 982.835 29.8598 983.76L46.3883 1000.52L49.2082 997.658C50.1199 996.733 51.598 996.733 52.5097 997.658C53.4212 998.582 53.4212 1000.08 52.5097 1001L49.7832 1003.77L66.6826 1019.1C67.6433 1019.97 67.7248 1021.47 66.8649 1022.45C66.005 1023.42 64.529 1023.5 63.5684 1022.63L44.7831 1005.58L26.5582 987.107C25.6466 986.182 25.6466 984.684 26.5582 983.76ZM22.1742 995.95C23.0859 995.026 24.564 995.026 25.4757 995.95L29.7455 1000.28C30.6571 1001.2 30.6571 1002.7 29.7455 1003.63C28.8338 1004.55 27.3556 1004.55 26.4439 1003.63L22.1742 999.297C21.2625 998.373 21.2625 996.875 22.1742 995.95Z" fill="#91040C"/>
<path d="M39.4397 949.573C38.3264 950.686 36.5213 950.686 35.408 949.573C34.2946 948.46 34.2946 946.655 35.408 945.541C36.5213 944.428 38.3264 944.428 39.4397 945.541C40.553 946.655 40.553 948.46 39.4397 949.573Z" fill="#91040C"/>
<path d="M38.7462 948.88L38.8125 948.81C39.4545 948.099 39.4546 947.015 38.8125 946.304L38.7465 946.235C38.0161 945.504 36.8315 945.504 36.1012 946.235L36.0351 946.304C35.3717 947.038 35.3938 948.172 36.1014 948.88L35.4081 949.573L35.3069 949.467C34.2957 948.348 34.3294 946.62 35.4078 945.541C36.5212 944.428 38.3265 944.428 39.4398 945.541C40.553 946.655 40.5529 948.46 39.4396 949.573L39.3334 949.674C38.2143 950.685 36.4867 950.652 35.4081 949.573L36.1014 948.88C36.809 949.587 37.9425 949.609 38.6766 948.946L38.7462 948.88Z" fill="#91040C"/>
<path d="M65.5144 938.221C66.4474 939.13 66.469 940.625 65.5626 941.561L30.8895 977.359C29.9831 978.294 28.4918 978.316 27.5587 977.407C26.6256 976.498 26.604 975.002 27.5105 974.066L62.1836 938.269C63.09 937.333 64.5813 937.312 65.5144 938.221Z" fill="#91040C"/>
<path d="M46.4618 918.288C47.3799 919.204 47.3799 920.689 46.4618 921.605L11.1643 956.813C10.2462 957.729 8.75766 957.729 7.83957 956.813C6.9215 955.898 6.9215 954.413 7.83957 953.497L43.1371 918.288C44.0552 917.373 45.5438 917.373 46.4618 918.288Z" fill="#91040C"/>
<path d="M7.83947 937.003C8.75565 936.075 10.2411 936.075 11.1573 937.003L47.6954 974.018C48.6114 974.946 48.6115 976.451 47.6954 977.379C46.7793 978.308 45.2938 978.307 44.3776 977.379L7.83947 940.364C6.9233 939.436 6.9233 937.931 7.83947 937.003Z" fill="#91040C"/>
<path d="M46.713 955.255C47.6247 954.318 49.1029 954.318 50.0145 955.255L54.2843 959.642C55.196 960.579 55.196 962.097 54.2843 963.034C53.3726 963.971 51.8945 963.971 50.9828 963.034L46.713 958.647C45.8014 957.71 45.8014 956.191 46.713 955.255ZM25.2286 954.516C26.1403 953.579 27.6185 953.579 28.5302 954.516C29.4417 955.452 29.4418 956.971 28.5302 957.908L24.0595 962.501C23.1478 963.438 21.6696 963.438 20.7579 962.501C19.8463 961.564 19.8463 960.046 20.7579 959.109L25.2286 954.516ZM26.5563 917.683C27.468 916.746 28.9462 916.746 29.8578 917.683L46.3863 934.666L49.2062 931.769C50.1179 930.832 51.5961 930.832 52.5078 931.769C53.4193 932.706 53.4193 934.224 52.5078 935.161L49.7813 937.962L66.6807 953.504C67.6414 954.388 67.7228 955.904 66.8629 956.891C66.003 957.878 64.5271 957.962 63.5664 957.079L44.7812 939.801L26.5563 921.075C25.6446 920.139 25.6446 918.62 26.5563 917.683ZM22.1722 930.038C23.0839 929.102 24.5621 929.102 25.4737 930.038L29.7435 934.426C30.6551 935.363 30.6552 936.882 29.7435 937.818C28.8318 938.755 27.3536 938.755 26.442 937.818L22.1722 933.431C21.2605 932.494 21.2605 930.975 22.1722 930.038Z" fill="#91040C"/>
<path d="M39.4455 884.057C38.3322 885.171 36.5272 885.171 35.4138 884.057C34.3005 882.944 34.3005 881.139 35.4138 880.026C36.5272 878.912 38.3322 878.912 39.4455 880.026C40.5589 881.139 40.5589 882.944 39.4455 884.057Z" fill="#91040C"/>
<path d="M38.7521 883.364L38.8184 883.294C39.4604 882.584 39.4604 881.499 38.8184 880.789L38.7523 880.719C38.022 879.989 36.8374 879.989 36.107 880.719L36.041 880.789C35.3776 881.523 35.3997 882.657 36.1073 883.364L35.414 884.057L35.3127 883.951C34.3016 882.832 34.3352 881.104 35.4137 880.026C36.527 878.912 38.3323 878.912 39.4457 880.026C40.5589 881.139 40.5587 882.944 39.4454 884.057L39.3393 884.158C38.2202 885.17 36.4925 885.136 35.414 884.057L36.1073 883.364C36.8149 884.072 37.9483 884.094 38.6824 883.43L38.7521 883.364Z" fill="#91040C"/>
<path d="M65.5144 872.153C66.4474 873.076 66.469 874.594 65.5626 875.545L30.8895 911.893C29.9831 912.843 28.4918 912.865 27.5587 911.942C26.6256 911.019 26.604 909.5 27.5105 908.55L62.1836 872.202C63.09 871.252 64.5813 871.23 65.5144 872.153Z" fill="#91040C"/>
<path d="M46.4618 852.221C47.3799 853.151 47.3799 854.659 46.4618 855.589L11.1643 891.348C10.2462 892.278 8.75766 892.278 7.83957 891.348C6.9215 890.418 6.9215 888.91 7.83957 887.98L43.1371 852.221C44.0552 851.291 45.5438 851.291 46.4618 852.221Z" fill="#91040C"/>
<path d="M7.83947 871.548C8.75565 870.62 10.2411 870.62 11.1573 871.548L47.6954 908.563C48.6114 909.491 48.6115 910.996 47.6954 911.924C46.7793 912.853 45.2938 912.852 44.3776 911.924L7.83947 874.909C6.9233 873.981 6.9233 872.476 7.83947 871.548Z" fill="#91040C"/>
<path d="M46.713 889.798C47.6247 888.861 49.1029 888.861 50.0145 889.798L54.2843 894.185C55.196 895.122 55.196 896.64 54.2843 897.577C53.3726 898.514 51.8945 898.514 50.9828 897.577L46.713 893.19C45.8014 892.253 45.8014 890.734 46.713 889.798ZM25.2286 889.059C26.1403 888.122 27.6185 888.122 28.5302 889.059C29.4417 889.995 29.4418 891.514 28.5302 892.451L24.0595 897.044C23.1478 897.981 21.6696 897.981 20.7579 897.044C19.8463 896.107 19.8463 894.589 20.7579 893.652L25.2286 889.059ZM26.5563 852.226C27.468 851.289 28.9462 851.289 29.8578 852.226L46.3863 869.209L49.2062 866.312C50.1179 865.375 51.5961 865.375 52.5078 866.312C53.4193 867.249 53.4193 868.767 52.5078 869.704L49.7813 872.505L66.6807 888.047C67.6414 888.931 67.7228 890.447 66.8629 891.434C66.003 892.421 64.5271 892.505 63.5664 891.622L44.7812 874.344L26.5563 855.618C25.6446 854.682 25.6446 853.163 26.5563 852.226ZM22.1722 864.581C23.0839 863.645 24.5621 863.645 25.4737 864.581L29.7435 868.969C30.6551 869.906 30.6552 871.425 29.7435 872.361C28.8318 873.298 27.3536 873.298 26.442 872.361L22.1722 867.974C21.2605 867.037 21.2605 865.518 22.1722 864.581Z" fill="#91040C"/>
<path d="M39.4475 818.546C38.3342 819.659 36.5291 819.659 35.4158 818.546C34.3025 817.432 34.3025 815.627 35.4158 814.514C36.5291 813.401 38.3342 813.401 39.4475 814.514C40.5608 815.627 40.5608 817.432 39.4475 818.546Z" fill="#91040C"/>
<path d="M38.754 817.852L38.8203 817.783C39.4624 817.072 39.4624 815.987 38.8203 815.277L38.7543 815.207C38.0239 814.477 36.8394 814.477 36.109 815.207L36.0429 815.277C35.3795 816.011 35.4017 817.145 36.1092 817.852L35.4159 818.546L35.3147 818.439C34.3035 817.32 34.3372 815.593 35.4157 814.514C36.529 813.401 38.3343 813.401 39.4476 814.514C40.5609 815.627 40.5607 817.432 39.4474 818.546L39.3412 818.647C38.2222 819.658 36.4945 819.624 35.4159 818.546L36.1092 817.852C36.8168 818.56 37.9503 818.582 38.6844 817.918L38.754 817.852Z" fill="#91040C"/>
<path d="M39.4475 750.445C38.3342 749.331 36.5291 749.331 35.4158 750.445C34.3025 751.558 34.3025 753.363 35.4158 754.476C36.5291 755.59 38.3342 755.59 39.4475 754.476C40.5608 753.363 40.5608 751.558 39.4475 750.445Z" fill="#91040C"/>
<path d="M38.754 751.138L38.8203 751.208C39.4624 751.918 39.4624 753.003 38.8203 753.713L38.7543 753.783C38.0239 754.513 36.8394 754.513 36.109 753.783L36.0429 753.713C35.3795 752.979 35.4017 751.845 36.1092 751.138L35.4159 750.444L35.3147 750.551C34.3035 751.67 34.3372 753.398 35.4157 754.476C36.529 755.59 38.3343 755.59 39.4476 754.476C40.5609 753.363 40.5607 751.558 39.4474 750.444L39.3412 750.344C38.2222 749.332 36.4945 749.366 35.4159 750.444L36.1092 751.138C36.8168 750.43 37.9503 750.408 38.6844 751.072L38.754 751.138Z" fill="#91040C"/>
<path d="M65.5144 806.69C66.4474 807.613 66.469 809.132 65.5626 810.082L30.8895 846.43C29.9831 847.38 28.4918 847.402 27.5587 846.479C26.6256 845.556 26.604 844.037 27.5105 843.087L62.1836 806.739C63.09 805.789 64.5813 805.767 65.5144 806.69Z" fill="#91040C"/>
<path d="M46.4657 786.762C47.3838 787.692 47.3838 789.2 46.4657 790.13L11.1682 825.889C10.2501 826.819 8.76156 826.819 7.84348 825.889C6.9254 824.959 6.92541 823.451 7.84348 822.521L43.1411 786.762C44.0591 785.832 45.5477 785.832 46.4657 786.762Z" fill="#91040C"/>
<path d="M7.84143 806.085C8.7576 805.157 10.2431 805.157 11.1592 806.085L47.6974 843.1C48.6134 844.029 48.6135 845.533 47.6974 846.462C46.7812 847.39 45.2958 847.39 44.3796 846.462L7.84143 809.446C6.92525 808.518 6.92525 807.013 7.84143 806.085Z" fill="#91040C"/>
<path d="M46.715 824.337C47.6267 823.4 49.1048 823.4 50.0165 824.337L54.2863 828.724C55.1979 829.661 55.198 831.179 54.2863 832.116C53.3746 833.053 51.8964 833.053 50.9847 832.116L46.715 827.729C45.8033 826.792 45.8034 825.273 46.715 824.337ZM25.2306 823.598C26.1423 822.661 27.6204 822.661 28.5321 823.598C29.4437 824.534 29.4438 826.053 28.5321 826.99L24.0614 831.583C23.1497 832.52 21.6716 832.52 20.7599 831.583C19.8483 830.646 19.8482 829.128 20.7599 828.191L25.2306 823.598ZM26.5582 786.765C27.4699 785.828 28.9481 785.828 29.8598 786.765L46.3883 803.748L49.2082 800.851C50.1199 799.914 51.598 799.914 52.5097 800.851C53.4212 801.788 53.4212 803.306 52.5097 804.243L49.7832 807.044L66.6826 822.586C67.6433 823.47 67.7248 824.986 66.8649 825.973C66.005 826.96 64.529 827.044 63.5684 826.161L44.7831 808.884L26.5582 790.157C25.6466 789.221 25.6466 787.702 26.5582 786.765ZM22.1742 799.12C23.0859 798.184 24.564 798.184 25.4757 799.12L29.7455 803.508C30.6571 804.445 30.6571 805.964 29.7455 806.9C28.8338 807.837 27.3556 807.837 26.4439 806.9L22.1742 802.513C21.2625 801.576 21.2625 800.057 22.1742 799.12Z" fill="#91040C"/>
<path d="M65.5163 762.322C66.4494 761.399 66.4709 759.88 65.5645 758.93L30.8914 722.582C29.985 721.632 28.4938 721.61 27.5607 722.533C26.6276 723.456 26.606 724.974 27.5124 725.925L62.1855 762.273C63.0919 763.223 64.5832 763.245 65.5163 762.322Z" fill="#91040C"/>
<path d="M46.4657 782.252C47.3838 781.322 47.3838 779.814 46.4657 778.884L11.1682 743.125C10.2501 742.195 8.76156 742.195 7.84348 743.125C6.9254 744.055 6.92541 745.563 7.84348 746.493L43.1411 782.252C44.0591 783.182 45.5477 783.182 46.4657 782.252Z" fill="#91040C"/>
<path d="M7.84143 762.927C8.7576 763.855 10.2431 763.855 11.1592 762.927L47.6974 725.911C48.6134 724.983 48.6135 723.478 47.6974 722.55C46.7812 721.622 45.2957 721.622 44.3796 722.55L7.84143 759.566C6.92525 760.494 6.92525 761.999 7.84143 762.927Z" fill="#91040C"/>
<path d="M46.7169 744.675C47.6286 745.612 49.1068 745.612 50.0184 744.675L54.2882 740.288C55.1999 739.351 55.1999 737.832 54.2882 736.896C53.3765 735.959 51.8984 735.959 50.9867 736.896L46.7169 741.283C45.8053 742.22 45.8053 743.738 46.7169 744.675ZM25.2325 745.414C26.1442 746.351 27.6224 746.351 28.5341 745.414C29.4456 744.477 29.4457 742.958 28.5341 742.022L24.0634 737.428C23.1517 736.492 21.6735 736.492 20.7618 737.428C19.8502 738.365 19.8502 739.884 20.7618 740.821L25.2325 745.414ZM26.5602 782.247C27.4719 783.183 28.9501 783.183 29.8617 782.247L46.3902 765.264L49.2101 768.161C50.1218 769.097 51.6 769.097 52.5117 768.161C53.4232 767.224 53.4232 765.705 52.5117 764.769L49.7852 761.968L66.6846 746.426C67.6453 745.542 67.7267 744.025 66.8668 743.038C66.0069 742.051 64.531 741.967 63.5703 742.851L44.7851 760.128L26.5602 778.854C25.6485 779.791 25.6485 781.31 26.5602 782.247ZM22.1761 769.891C23.0878 770.828 24.566 770.828 25.4777 769.891L29.7474 765.504C30.659 764.567 30.6591 763.048 29.7474 762.111C28.8357 761.175 27.3575 761.175 26.4459 762.112L22.1761 766.499C21.2645 767.436 21.2644 768.954 22.1761 769.891Z" fill="#91040C"/>
<path d="M39.4475 689.257C38.3342 690.37 36.5291 690.37 35.4158 689.257C34.3025 688.143 34.3025 686.338 35.4158 685.225C36.5291 684.112 38.3342 684.112 39.4475 685.225C40.5608 686.338 40.5608 688.143 39.4475 689.257Z" fill="#91040C"/>
<path d="M38.754 688.563L38.8203 688.493C39.4624 687.783 39.4624 686.698 38.8203 685.988L38.7543 685.918C38.0239 685.188 36.8394 685.188 36.109 685.918L36.0429 685.988C35.3795 686.722 35.4017 687.856 36.1092 688.563L35.4159 689.257L35.3147 689.15C34.3035 688.031 34.3372 686.304 35.4157 685.225C36.529 684.112 38.3343 684.112 39.4476 685.225C40.5609 686.338 40.5607 688.143 39.4474 689.257L39.3412 689.358C38.2222 690.369 36.4945 690.335 35.4159 689.257L36.1092 688.563C36.8168 689.271 37.9503 689.293 38.6844 688.629L38.754 688.563Z" fill="#91040C"/>
<path d="M65.5144 677.635C66.4474 678.544 66.469 680.039 65.5626 680.975L30.8895 716.773C29.9831 717.708 28.4918 717.73 27.5587 716.821C26.6256 715.912 26.6041 714.416 27.5105 713.481L62.1836 677.683C63.09 676.747 64.5813 676.726 65.5144 677.635Z" fill="#91040C"/>
<path d="M46.4638 657.715C47.3819 658.645 47.3819 660.153 46.4638 661.083L11.1662 696.842C10.2482 697.772 8.75961 697.772 7.84153 696.842C6.92345 695.912 6.92345 694.404 7.84153 693.474L43.1391 657.715C44.0572 656.785 45.5457 656.785 46.4638 657.715Z" fill="#91040C"/>
<path d="M7.84143 676.419C8.7576 675.491 10.2431 675.491 11.1592 676.419L47.6974 713.434C48.6134 714.363 48.6135 715.867 47.6974 716.796C46.7812 717.724 45.2957 717.724 44.3796 716.796L7.84143 679.78C6.92525 678.852 6.92525 677.347 7.84143 676.419Z" fill="#91040C"/>
<path d="M46.715 694.781C47.6267 693.857 49.1048 693.857 50.0165 694.781L54.2863 699.11C55.1979 700.034 55.198 701.533 54.2863 702.457C53.3746 703.381 51.8964 703.381 50.9847 702.457L46.715 698.128C45.8033 697.204 45.8034 695.706 46.715 694.781ZM25.2306 694.052C26.1423 693.128 27.6204 693.128 28.5321 694.052C29.4437 694.977 29.4438 696.475 28.5321 697.399L24.0614 701.931C23.1497 702.856 21.6716 702.856 20.7599 701.931C19.8483 701.007 19.8482 699.509 20.7599 698.584L25.2306 694.052ZM26.5582 657.711C27.4699 656.787 28.9481 656.787 29.8598 657.711L46.3883 674.467L49.2082 671.609C50.1199 670.685 51.598 670.685 52.5097 671.609C53.4212 672.533 53.4212 674.031 52.5097 674.956L49.7832 677.719L66.6826 693.054C67.6433 693.926 67.7248 695.422 66.8649 696.396C66.005 697.37 64.529 697.453 63.5684 696.581L44.7831 679.534L26.5582 661.058C25.6466 660.134 25.6466 658.635 26.5582 657.711ZM22.1742 669.901C23.0859 668.977 24.564 668.977 25.4757 669.901L29.7455 674.231C30.6571 675.155 30.6571 676.653 29.7455 677.578C28.8338 678.502 27.3556 678.502 26.4439 677.577L22.1742 673.249C21.2625 672.324 21.2625 670.826 22.1742 669.901Z" fill="#91040C"/>
<path d="M39.4573 620.158C38.3439 619.044 36.5389 619.044 35.4256 620.158C34.3122 621.271 34.3122 623.076 35.4256 624.189C36.5389 625.303 38.3439 625.303 39.4573 624.189C40.5706 623.076 40.5706 621.271 39.4573 620.158Z" fill="#91040C"/>
<path d="M38.7638 620.851L38.8301 620.921C39.4721 621.631 39.4722 622.716 38.8301 623.426L38.7641 623.496C38.0337 624.226 36.8491 624.226 36.1187 623.496L36.0527 623.426C35.3893 622.692 35.4114 621.558 36.119 620.851L35.4257 620.157L35.3244 620.264C34.3133 621.383 34.347 623.111 35.4254 624.189C36.5388 625.302 38.344 625.302 39.4574 624.189C40.5706 623.076 40.5704 621.271 39.4571 620.157L39.351 620.056C38.2319 619.045 36.5043 619.079 35.4257 620.157L36.119 620.851C36.8266 620.143 37.96 620.121 38.6942 620.785L38.7638 620.851Z" fill="#91040C"/>
<path d="M65.5163 632.021C66.4494 631.098 66.4709 629.579 65.5645 628.629L30.8914 592.281C29.985 591.331 28.4938 591.309 27.5607 592.232C26.6276 593.155 26.606 594.674 27.5124 595.624L62.1855 631.972C63.0919 632.922 64.5832 632.944 65.5163 632.021Z" fill="#91040C"/>
<path d="M46.4638 651.951C47.3819 651.021 47.3819 649.513 46.4638 648.583L11.1662 612.824C10.2482 611.894 8.75961 611.894 7.84153 612.824C6.92345 613.754 6.92345 615.262 7.84153 616.192L43.1391 651.951C44.0572 652.881 45.5457 652.881 46.4638 651.951Z" fill="#91040C"/>
<path d="M7.84143 632.626C8.7576 633.554 10.2431 633.554 11.1592 632.626L47.6974 595.611C48.6134 594.682 48.6135 593.178 47.6974 592.249C46.7812 591.321 45.2957 591.321 44.3796 592.249L7.84143 629.265C6.92525 630.193 6.92525 631.698 7.84143 632.626Z" fill="#91040C"/>
<path d="M46.715 614.374C47.6267 615.311 49.1048 615.311 50.0165 614.374L54.2863 609.987C55.1979 609.05 55.198 607.532 54.2863 606.595C53.3746 605.658 51.8964 605.658 50.9847 606.595L46.715 610.982C45.8033 611.919 45.8034 613.438 46.715 614.374ZM25.2306 615.113C26.1423 616.05 27.6204 616.05 28.5321 615.113C29.4437 614.177 29.4438 612.658 28.5321 611.721L24.0614 607.128C23.1497 606.191 21.6716 606.191 20.7599 607.128C19.8483 608.064 19.8482 609.583 20.7599 610.52L25.2306 615.113ZM26.5582 651.946C27.4699 652.883 28.9481 652.883 29.8598 651.946L46.3883 634.963L49.2082 637.86C50.1199 638.797 51.598 638.797 52.5097 637.86C53.4212 636.923 53.4212 635.405 52.5097 634.468L49.7832 631.667L66.6826 616.125C67.6433 615.241 67.7248 613.725 66.8649 612.738C66.005 611.751 64.529 611.666 63.5684 612.55L44.7831 629.827L26.5582 648.554C25.6466 649.49 25.6466 651.009 26.5582 651.946ZM22.1742 639.59C23.0859 640.527 24.564 640.527 25.4757 639.59L29.7455 635.203C30.6571 634.266 30.6571 632.747 29.7455 631.811C28.8338 630.874 27.3556 630.874 26.4439 631.811L22.1742 636.198C21.2625 637.135 21.2625 638.654 22.1742 639.59Z" fill="#91040C"/>
<path d="M38.4553 1270.39C37.342 1269.28 35.5369 1269.28 34.4236 1270.39C33.3103 1271.51 33.3103 1273.31 34.4236 1274.43C35.5369 1275.54 37.342 1275.54 38.4553 1274.43C39.5686 1273.31 39.5686 1271.51 38.4553 1270.39Z" fill="#91040C"/>
<path d="M37.7619 1271.09L37.8282 1271.16C38.4702 1271.87 38.4702 1272.95 37.8282 1273.66L37.7621 1273.73C37.0317 1274.46 35.8472 1274.46 35.1168 1273.73L35.0507 1273.66C34.3873 1272.93 34.4095 1271.79 35.117 1271.09L34.4237 1270.39L34.3225 1270.5C33.3114 1271.62 33.345 1273.35 34.4235 1274.43C35.5368 1275.54 37.3421 1275.54 38.4554 1274.43C39.5687 1273.31 39.5685 1271.51 38.4552 1270.39L38.349 1270.29C37.23 1269.28 35.5023 1269.32 34.4237 1270.39L35.117 1271.09C35.8246 1270.38 36.9581 1270.36 37.6922 1271.02L37.7619 1271.09Z" fill="#91040C"/>
<path d="M64.5144 1281.86C65.4474 1280.95 65.469 1279.45 64.5626 1278.52L29.8895 1242.72C28.9831 1241.79 27.4918 1241.76 26.5587 1242.67C25.6256 1243.58 25.604 1245.08 26.5105 1246.01L61.1836 1281.81C62.09 1282.75 63.5813 1282.77 64.5144 1281.86Z" fill="#91040C"/>
<path d="M45.4638 1301.78C46.3819 1300.85 46.3819 1299.34 45.4638 1298.41L10.1662 1262.65C9.24818 1261.72 7.75961 1261.72 6.84153 1262.65C5.92345 1263.58 5.92345 1265.09 6.84153 1266.02L42.1391 1301.78C43.0572 1302.71 44.5457 1302.71 45.4638 1301.78Z" fill="#91040C"/>
<path d="M6.84143 1283.08C7.7576 1284.01 9.24306 1284.01 10.1592 1283.08L46.6974 1246.07C47.6134 1245.14 47.6135 1243.63 46.6974 1242.7C45.7812 1241.78 44.2958 1241.78 43.3796 1242.7L6.84143 1279.72C5.92525 1280.65 5.92525 1282.15 6.84143 1283.08Z" fill="#91040C"/>
<path d="M45.715 1264.71C46.6267 1265.64 48.1048 1265.64 49.0165 1264.71L53.2863 1260.39C54.1979 1259.46 54.198 1257.96 53.2863 1257.04C52.3746 1256.11 50.8964 1256.11 49.9847 1257.04L45.715 1261.37C44.8033 1262.29 44.8034 1263.79 45.715 1264.71ZM24.2306 1265.44C25.1423 1266.37 26.6204 1266.37 27.5321 1265.44C28.4437 1264.52 28.4438 1263.02 27.5321 1262.1L23.0614 1257.56C22.1497 1256.64 20.6716 1256.64 19.7599 1257.56C18.8483 1258.49 18.8482 1259.99 19.7599 1260.91L24.2306 1265.44ZM25.5582 1301.79C26.4699 1302.71 27.9481 1302.71 28.8598 1301.79L45.3883 1285.03L48.2082 1287.89C49.1199 1288.81 50.598 1288.81 51.5097 1287.89C52.4212 1286.96 52.4212 1285.46 51.5097 1284.54L48.7832 1281.78L65.6826 1266.44C66.6433 1265.57 66.7248 1264.07 65.8649 1263.1C65.005 1262.13 63.529 1262.04 62.5684 1262.91L43.7831 1279.96L25.5582 1298.44C24.6466 1299.36 24.6466 1300.86 25.5582 1301.79ZM21.1742 1289.59C22.0859 1290.52 23.564 1290.52 24.4757 1289.59L28.7455 1285.27C29.6571 1284.34 29.6571 1282.84 28.7455 1281.92C27.8338 1280.99 26.3556 1280.99 25.4439 1281.92L21.1742 1286.25C20.2625 1287.17 20.2625 1288.67 21.1742 1289.59Z" fill="#91040C"/>
<path d="M38.4592 1208.71C37.3459 1209.82 35.5408 1209.82 34.4275 1208.71C33.3142 1207.59 33.3142 1205.79 34.4275 1204.68C35.5408 1203.56 37.3459 1203.56 38.4592 1204.68C39.5725 1205.79 39.5725 1207.59 38.4592 1208.71Z" fill="#91040C"/>
<path d="M37.7658 1208.01L37.8321 1207.94C38.4741 1207.23 38.4741 1206.15 37.8321 1205.44L37.766 1205.37C37.0356 1204.64 35.8511 1204.64 35.1207 1205.37L35.0547 1205.44C34.3912 1206.17 34.4134 1207.31 35.121 1208.01L34.4276 1208.71L34.3264 1208.6C33.3153 1207.48 33.3489 1205.75 34.4274 1204.68C35.5407 1203.56 37.346 1203.56 38.4593 1204.68C39.5726 1205.79 39.5724 1207.59 38.4591 1208.71L38.353 1208.81C37.2339 1209.82 35.5062 1209.79 34.4276 1208.71L35.121 1208.01C35.8285 1208.72 36.962 1208.74 37.6961 1208.08L37.7658 1208.01Z" fill="#91040C"/>
<path d="M64.5163 1197.17C65.4494 1198.07 65.4709 1199.57 64.5645 1200.51L29.8914 1236.3C28.985 1237.24 27.4937 1237.26 26.5606 1236.35C25.6276 1235.44 25.606 1233.95 26.5124 1233.01L61.1855 1197.21C62.0919 1196.28 63.5832 1196.26 64.5163 1197.17Z" fill="#91040C"/>
<path d="M45.4657 1177.24C46.3838 1178.17 46.3838 1179.68 45.4657 1180.61L10.1682 1216.37C9.25013 1217.3 7.76156 1217.3 6.84348 1216.37C5.9254 1215.44 5.92541 1213.93 6.84348 1213L42.1411 1177.24C43.0591 1176.31 44.5477 1176.31 45.4657 1177.24Z" fill="#91040C"/>
<path d="M6.84338 1195.94C7.75956 1195.02 9.24501 1195.02 10.1612 1195.94L46.6993 1232.96C47.6153 1233.89 47.6154 1235.39 46.6993 1236.32C45.7832 1237.25 44.2977 1237.25 43.3815 1236.32L6.84338 1199.31C5.92721 1198.38 5.92721 1196.87 6.84338 1195.94Z" fill="#91040C"/>
<path d="M45.7169 1214.31C46.6286 1213.39 48.1068 1213.39 49.0184 1214.31L53.2882 1218.64C54.1999 1219.56 54.1999 1221.06 53.2882 1221.99C52.3765 1222.91 50.8984 1222.91 49.9867 1221.99L45.7169 1217.66C44.8053 1216.73 44.8053 1215.23 45.7169 1214.31ZM24.2325 1213.58C25.1442 1212.66 26.6224 1212.66 27.5341 1213.58C28.4456 1214.51 28.4457 1216 27.5341 1216.93L23.0634 1221.46C22.1517 1222.38 20.6735 1222.38 19.7618 1221.46C18.8502 1220.54 18.8502 1219.04 19.7618 1218.11L24.2325 1213.58ZM25.5602 1177.24C26.4719 1176.32 27.9501 1176.32 28.8617 1177.24L45.3902 1194L48.2101 1191.14C49.1218 1190.21 50.6 1190.21 51.5117 1191.14C52.4232 1192.06 52.4232 1193.56 51.5117 1194.48L48.7852 1197.25L65.6846 1212.58C66.6453 1213.46 66.7267 1214.95 65.8668 1215.93C65.0069 1216.9 63.531 1216.98 62.5703 1216.11L43.7851 1199.06L25.5602 1180.59C24.6485 1179.66 24.6485 1178.16 25.5602 1177.24ZM21.1761 1189.43C22.0878 1188.51 23.566 1188.51 24.4777 1189.43L28.7474 1193.76C29.659 1194.68 29.6591 1196.18 28.7474 1197.11C27.8357 1198.03 26.3575 1198.03 25.4459 1197.11L21.1761 1192.78C20.2645 1191.85 20.2644 1190.36 21.1761 1189.43Z" fill="#91040C"/>
<path d="M38.4592 1335.91C37.3459 1334.8 35.5408 1334.8 34.4275 1335.91C33.3142 1337.02 33.3142 1338.83 34.4275 1339.94C35.5408 1341.06 37.3459 1341.06 38.4592 1339.94C39.5725 1338.83 39.5725 1337.02 38.4592 1335.91Z" fill="#91040C"/>
<path d="M37.7658 1336.6L37.8321 1336.67C38.4741 1337.39 38.4741 1338.47 37.8321 1339.18L37.766 1339.25C37.0356 1339.98 35.8511 1339.98 35.1207 1339.25L35.0547 1339.18C34.3912 1338.45 34.4134 1337.31 35.121 1336.6L34.4276 1335.91L34.3264 1336.02C33.3153 1337.14 33.3489 1338.86 34.4274 1339.94C35.5407 1341.06 37.346 1341.06 38.4593 1339.94C39.5726 1338.83 39.5724 1337.02 38.4591 1335.91L38.353 1335.81C37.2339 1334.8 35.5062 1334.83 34.4276 1335.91L35.121 1336.6C35.8285 1335.9 36.962 1335.88 37.6961 1336.54L37.7658 1336.6Z" fill="#91040C"/>
<path d="M64.5144 1347.32C65.4474 1346.41 65.469 1344.91 64.5626 1343.98L29.8895 1308.18C28.9831 1307.24 27.4918 1307.22 26.5587 1308.13C25.6256 1309.04 25.604 1310.54 26.5105 1311.47L61.1836 1347.27C62.09 1348.21 63.5813 1348.23 64.5144 1347.32Z" fill="#91040C"/>
<path d="M45.4638 1367.25C46.3819 1366.33 46.3819 1364.85 45.4638 1363.93L10.1662 1328.72C9.24818 1327.81 7.75961 1327.81 6.84153 1328.72C5.92345 1329.64 5.92345 1331.12 6.84153 1332.04L42.1391 1367.25C43.0572 1368.16 44.5457 1368.16 45.4638 1367.25Z" fill="#91040C"/>
<path d="M6.84143 1348.54C7.7576 1349.47 9.24306 1349.47 10.1592 1348.54L46.6974 1311.52C47.6134 1310.59 47.6135 1309.09 46.6974 1308.16C45.7812 1307.23 44.2958 1307.23 43.3796 1308.16L6.84143 1345.18C5.92525 1346.11 5.92525 1347.61 6.84143 1348.54Z" fill="#91040C"/>
<path d="M45.715 1330.17C46.6267 1331.1 48.1048 1331.1 49.0165 1330.17L53.2863 1325.84C54.1979 1324.92 54.198 1323.42 53.2863 1322.5C52.3746 1321.57 50.8964 1321.57 49.9847 1322.5L45.715 1326.82C44.8033 1327.75 44.8034 1329.25 45.715 1330.17ZM24.2306 1330.9C25.1423 1331.83 26.6204 1331.83 27.5321 1330.9C28.4437 1329.98 28.4438 1328.48 27.5321 1327.55L23.0614 1323.02C22.1497 1322.1 20.6716 1322.1 19.7599 1323.02C18.8483 1323.95 18.8482 1325.44 19.7599 1326.37L24.2306 1330.9ZM25.5582 1367.24C26.4699 1368.17 27.9481 1368.17 28.8598 1367.24L45.3883 1350.49L48.2082 1353.34C49.1199 1354.27 50.598 1354.27 51.5097 1353.34C52.4212 1352.42 52.4212 1350.92 51.5097 1350L48.7832 1347.23L65.6826 1331.9C66.6433 1331.03 66.7248 1329.53 65.8649 1328.56C65.005 1327.58 63.529 1327.5 62.5684 1328.37L43.7831 1345.42L25.5582 1363.9C24.6466 1364.82 24.6466 1366.32 25.5582 1367.24ZM21.1742 1355.05C22.0859 1355.98 23.564 1355.98 24.4757 1355.05L28.7455 1350.72C29.6571 1349.8 29.6571 1348.3 28.7455 1347.38C27.8338 1346.45 26.3556 1346.45 25.4439 1347.38L21.1742 1351.7C20.2625 1352.63 20.2625 1354.13 21.1742 1355.05Z" fill="#91040C"/>
<path d="M38.4416 1401.43C37.3283 1400.32 35.5233 1400.32 34.4099 1401.43C33.2966 1402.54 33.2966 1404.35 34.4099 1405.46C35.5233 1406.57 37.3283 1406.57 38.4416 1405.46C39.555 1404.35 39.555 1402.54 38.4416 1401.43Z" fill="#91040C"/>
<path d="M37.7482 1402.12L37.8145 1402.19C38.4565 1402.9 38.4565 1403.99 37.8145 1404.7L37.7484 1404.77C37.0181 1405.5 35.8335 1405.5 35.1031 1404.77L35.0371 1404.7C34.3736 1403.96 34.3958 1402.83 35.1034 1402.12L34.4101 1401.43L34.3088 1401.54C33.2977 1402.65 33.3313 1404.38 34.4098 1405.46C35.5231 1406.57 37.3284 1406.57 38.4418 1405.46C39.555 1404.35 39.5548 1402.54 38.4415 1401.43L38.3354 1401.33C37.2163 1400.32 35.4886 1400.35 34.4101 1401.43L35.1034 1402.12C35.811 1401.41 36.9444 1401.39 37.6785 1402.06L37.7482 1402.12Z" fill="#91040C"/>
<path d="M64.5144 1412.78C65.4474 1411.87 65.469 1410.38 64.5626 1409.44L29.8895 1373.64C28.9831 1372.71 27.4918 1372.69 26.5587 1373.6C25.6256 1374.5 25.604 1376 26.5105 1376.94L61.1836 1412.73C62.09 1413.67 63.5813 1413.69 64.5144 1412.78Z" fill="#91040C"/>
<path d="M45.4638 1432.71C46.3819 1431.8 46.3819 1430.31 45.4638 1429.4L10.1662 1394.19C9.24818 1393.27 7.75961 1393.27 6.84153 1394.19C5.92345 1395.1 5.92345 1396.59 6.84153 1397.5L42.1391 1432.71C43.0572 1433.63 44.5457 1433.63 45.4638 1432.71Z" fill="#91040C"/>
<path d="M6.83947 1414C7.75565 1414.93 9.24111 1414.93 10.1573 1414L46.6954 1376.99C47.6114 1376.06 47.6115 1374.55 46.6954 1373.62C45.7793 1372.7 44.2938 1372.7 43.3776 1373.62L6.83947 1410.64C5.9233 1411.57 5.9233 1413.07 6.83947 1414Z" fill="#91040C"/>
<path d="M45.715 1395.75C46.6267 1396.68 48.1048 1396.68 49.0165 1395.75L53.2863 1391.36C54.1979 1390.42 54.198 1388.9 53.2863 1387.97C52.3746 1387.03 50.8964 1387.03 49.9847 1387.97L45.715 1392.36C44.8033 1393.29 44.8034 1394.81 45.715 1395.75ZM24.2306 1396.49C25.1423 1397.42 26.6204 1397.42 27.5321 1396.49C28.4437 1395.55 28.4438 1394.03 27.5321 1393.09L23.0614 1388.5C22.1497 1387.56 20.6716 1387.56 19.7599 1388.5C18.8483 1389.44 18.8482 1390.96 19.7599 1391.89L24.2306 1396.49ZM25.5582 1433.32C26.4699 1434.26 27.9481 1434.26 28.8598 1433.32L45.3883 1416.34L48.2082 1419.23C49.1199 1420.17 50.598 1420.17 51.5097 1419.23C52.4212 1418.3 52.4212 1416.78 51.5097 1415.84L48.7832 1413.04L65.6826 1397.5C66.6433 1396.61 66.7248 1395.1 65.8649 1394.11C65.005 1393.12 63.529 1393.04 62.5684 1393.92L43.7831 1411.2L25.5582 1429.93C24.6466 1430.86 24.6466 1432.38 25.5582 1433.32ZM21.1742 1420.96C22.0859 1421.9 23.564 1421.9 24.4757 1420.96L28.7455 1416.58C29.6571 1415.64 29.6571 1414.12 28.7455 1413.18C27.8338 1412.25 26.3556 1412.25 25.4439 1413.18L21.1742 1417.57C20.2625 1418.51 20.2625 1420.03 21.1742 1420.96Z" fill="#91040C"/>
</g>
<defs>
<clipPath id="clip0_2947_74164">
<rect width="1442" height="73" fill="white" transform="matrix(0 1 -1 0 73 0)"/>
</clipPath>
</defs>
</svg>
