<svg width="43" height="624" viewBox="0 0 43 624" fill="none" xmlns="http://www.w3.org/2000/svg">
<path d="M-0.205235 72.1377L37.1445 0H-0.205235V72.1377Z" fill="#91040C"/>
<path d="M-0.330235 84.2978L37.0195 156.436H-0.330235V84.2978Z" fill="#91040C"/>
<path d="M-0.330235 228.573L37.0195 156.436H-0.330235V228.573Z" fill="#91040C"/>
<path d="M-0.330235 246.007L37.0195 318.145H-0.330235V246.007Z" fill="#91040C"/>
<path d="M-0.330235 390.282L37.0195 318.145H-0.330235V390.282Z" fill="#91040C"/>
<path d="M-0.330235 407.714L37.0195 479.852H-0.330235V407.714Z" fill="#91040C"/>
<path d="M-0.330235 551.989L37.0195 479.852H-0.330235V551.989Z" fill="#91040C"/>
<path d="M-0.330956 624.002V569.423L27.9277 624.002H-0.330956Z" fill="#91040C"/>
<path d="M42.8145 325.84L42.8145 466.062L3.12711 398.174L42.8145 325.84Z" fill="#91040C"/>
<path d="M42.8145 166.164L42.8145 306.387L3.12711 238.498L42.8145 166.164Z" fill="#91040C"/>
<path d="M42.8145 5.67963L42.8145 145.902L3.12711 78.0135L42.8145 5.67963Z" fill="#91040C"/>
<path d="M3.12711 558.266L42.8145 490.377L42.8145 624.002L39.1945 624.002L3.12711 558.266Z" fill="#91040C"/>
</svg>
