<svg width="100" height="104" viewBox="0 0 100 104" fill="none" xmlns="http://www.w3.org/2000/svg">
<path d="M67.3415 31.64C67.3714 31.7757 67.2683 31.7765 67.1868 31.829C66.4495 32.3045 65.4726 32.7874 64.6003 32.9018C64.5386 32.8955 64.5537 33.0307 64.5654 33.058C64.6016 33.1418 65.8857 33.9022 66.099 34.0488C67.2847 34.8635 69.2004 36.1716 70.1835 37.1584C70.3044 37.2797 70.4465 37.4053 70.4315 37.5946C70.3911 37.731 70.1464 37.7048 70.0299 37.6914C68.4421 37.509 66.8193 36.9281 65.2193 36.8195C65.1248 36.8131 65.0444 36.7668 65.0693 36.9066C65.6601 37.3731 66.2083 37.9345 66.6664 38.5318C67.2376 39.2766 67.9828 40.4226 68.4269 41.2476C68.741 41.8307 69.0526 42.3638 68.0349 42.144C67.2481 41.9741 65.7348 41.0988 64.8788 40.7562C64.6647 40.6705 64.4124 40.5724 64.1855 40.5348C64.1207 40.5974 64.6429 41.2366 64.7168 41.3596C65.267 42.2761 65.8865 43.7205 66.1866 44.748C66.2689 45.0295 66.6496 45.9747 66.1262 45.8846C64.9266 45.4079 63.7163 44.9481 62.4813 44.5719C62.4558 44.6751 62.5023 44.7182 62.5425 44.7939C62.7043 45.0976 62.9017 45.3639 63.0338 45.6907C63.1783 46.048 63.3805 46.6007 63.337 46.973C63.1132 47.2912 61.6159 46.492 61.2858 46.365C61.1856 46.3265 61.1354 46.2989 61.1557 46.4317C62.5029 47.2527 63.9121 47.9793 65.2151 48.8729C67.2848 50.2923 69.2154 52.124 70.9088 53.97C73.329 56.6084 75.5084 59.4776 77.5368 62.4237L81.2921 55.0433C81.3194 55.0572 81.4449 55.0321 81.5366 55.0801C81.9032 55.2715 82.6149 55.7007 82.9965 55.7373L78.8164 64.1445L78.7665 64.4059C79.6484 65.9834 80.644 67.493 81.5957 69.0281C81.8814 69.4891 82.0996 70.0371 82.4596 70.4357C83.8669 71.0107 85.3121 71.5064 86.7003 72.1274C87.4544 72.4647 88.6114 72.97 89.2898 73.3877C89.6724 73.6231 89.8775 73.83 89.8765 74.3147C89.8754 74.8558 89.3479 75.2121 88.8418 75.2287C88.2336 75.0598 83.8255 72.8184 83.6283 73.0218C83.5875 73.0639 83.6527 73.1884 83.6887 73.2447C84.7115 74.8459 86.0297 76.3488 87.0303 77.9797C87.4245 78.9809 86.116 79.6441 85.4239 78.8911C84.7237 78.1294 83.9356 76.6221 83.3006 75.7139C82.9312 75.1856 82.5286 74.6747 82.1437 74.1574C82.0038 74.1322 82.0504 74.2128 82.0567 74.3071C82.1593 75.855 82.8377 77.667 82.9324 79.1727C83.0109 80.4199 81.8688 80.8853 81.1621 79.8699C80.842 78.0292 80.4024 76.2086 80.2191 74.3458L80.0253 74.3854L78.2329 77.9438C77.4604 78.7387 76.3876 77.9072 76.5733 76.9157C76.6524 76.4935 77.6197 74.8655 77.8964 74.3906C78.4185 73.4949 78.9945 72.6359 79.578 71.7802L77.001 67.66C74.557 72.9267 71.9069 78.1003 69.3283 83.302C68.1977 85.5825 67.1513 88.1003 65.9244 90.3088C65.7613 90.6024 65.62 90.8887 65.2632 90.9723C64.3632 91.1833 63.8734 90.4534 64.1083 89.6294L75.9288 65.8574L75.869 65.6677C73.6355 62.4419 71.2593 59.2997 68.5428 56.461C67.9505 55.8421 66.8264 54.6185 66.1739 54.1603C66.0645 54.0835 65.9724 54.0126 65.8272 54.0344C65.8058 54.1409 65.8804 54.2008 65.9284 54.2796C66.3128 54.911 66.8911 55.5296 67.3049 56.1841C68.2128 57.6202 68.9789 59.2169 69.5521 60.8143C69.7566 61.3839 70.3139 62.8355 70.3606 63.3544C70.3837 63.6114 70.2656 63.7974 70.0103 63.7001C69.5062 63.5077 68.4584 62.6433 67.9304 62.3087L66.5213 61.4781C66.4129 61.6017 67.0026 62.3336 67.1 62.5078C68.5575 65.1157 69.3281 68.3268 69.0396 71.3114L68.7124 71.3046C67.6609 70.48 66.8471 69.3215 65.9224 68.3526C65.8559 68.2831 65.453 67.8396 65.3853 67.9123C65.7124 69.2653 65.9756 70.7154 66.0787 72.1075C66.178 73.4465 66.171 75.3905 65.8737 76.6957C65.7747 77.1302 65.6233 77.4407 65.1273 77.1583C64.4003 76.2232 63.8622 75.1528 63.1636 74.2003C63.0826 74.0897 62.7358 73.5274 62.6076 73.6522C62.5867 74.3163 62.4284 75.0322 62.2733 75.6843C62.0061 76.8089 61.5765 78.1953 61.1033 79.2461C60.9276 79.6362 60.5188 80.7348 59.9937 80.3956C59.789 80.2632 59.1636 78.5391 59.0432 78.1919C58.8608 77.6659 58.6243 77.0048 58.5679 76.466C58.5613 76.4023 58.4465 76.4146 58.4093 76.4266C58.3296 76.4523 57.7339 77.6895 57.6077 77.8978C56.8776 79.1041 56.0307 80.1944 54.9795 81.1375C55.2344 85.3406 55.4751 89.5362 55.666 93.7412C55.725 95.0432 55.6602 96.4213 55.7906 97.7169C55.8141 97.9506 55.8504 98.3351 56.0432 98.4737C58.8611 99.1965 61.7577 99.6766 64.5772 100.417C65.1101 100.557 66.693 100.915 67.0259 101.25C67.695 101.924 67.1911 103.083 66.2299 103.105C65.2687 103.128 63.6102 102.77 62.5924 102.59C60.2148 102.169 57.6335 101.667 55.2838 101.125C54.8016 101.014 53.8168 100.815 53.4827 100.465C53.1115 100.075 53.2367 98.7672 53.204 98.22C52.9789 94.4604 52.8725 90.6838 52.6327 86.9317C52.5361 85.4206 52.3234 83.9051 52.2522 82.3921C52.2442 82.2216 52.3221 81.7364 52.3144 81.6986C52.2543 81.4039 51.8782 81.9016 51.7798 81.9778C51.627 82.0963 50.8168 82.7039 50.6818 82.6054C50.3283 81.9501 50.1619 81.2003 49.8056 80.5473C49.7318 80.4123 49.6215 80.0952 49.4492 80.1475C49.3713 80.1714 48.637 81.2817 48.4922 81.4679C48.0563 82.0288 47.5838 82.6545 47.1109 83.1786C46.9005 83.4119 45.9811 84.3923 45.7879 84.5057C45.5555 84.6421 45.4317 84.5475 45.2465 84.4092C44.4961 83.8483 43.1308 82.3102 42.5705 81.5321C42.424 81.3288 41.7443 80.1056 41.5561 80.1498C41.3544 80.1971 40.7399 81.8631 40.5168 82.0775C40.3293 82.2577 39.8498 82.2102 39.8225 82.2355C39.8094 82.2476 39.7751 82.5251 39.7646 82.5873C39.3476 85.0508 39.4207 88.0191 39.2535 90.5295C38.9521 93.4772 39.1795 96.5485 39.0011 99.4871C38.9569 100.215 38.9736 100.483 38.2737 100.779C37.5991 101.064 36.7047 101.232 35.9815 101.39C33.4777 101.936 30.8983 102.359 28.3696 102.741C27.4641 102.878 26.4192 103.103 25.5202 103.173C24.021 103.292 23.9331 101.59 24.9856 101.126C25.6943 100.813 27.083 100.697 27.9029 100.508C28.7592 100.311 29.6058 100.038 30.4624 99.8488C32.0541 99.4975 33.8059 99.3374 35.3504 98.93C35.5666 98.873 36.1001 98.7661 36.1883 98.5687L37.0413 79.2672C36.9262 79.2432 36.9168 79.2981 36.8673 79.3765C36.5423 79.8932 36.3094 80.8596 36.0432 81.4547C35.9941 81.5643 35.8211 81.993 35.6948 81.9729C35.5775 81.9543 34.966 81.4371 34.8315 81.3179C34.0865 80.6581 33.2204 79.6432 32.6602 78.8196C32.293 78.2797 31.9734 77.5549 31.5778 77.0627C31.5184 76.9889 31.4742 76.9106 31.3609 76.9332C31.2764 77.7813 31.0333 78.648 30.7581 79.4534C30.674 79.6993 30.3441 80.653 30.228 80.799C30.0017 81.0833 29.6875 80.68 29.5314 80.4956C29.0938 79.9787 28.6986 79.2093 28.4027 78.5956C27.6984 77.1346 27.1757 75.6035 27.0679 73.9682C26.9461 73.8192 26.7332 74.5706 26.7003 74.6411C26.4026 75.2821 25.4984 76.9245 25.0112 77.3689C24.1893 78.119 23.9653 76.2731 23.8672 75.7474C23.7035 74.8705 23.5968 73.9428 23.5339 73.0526C23.4379 71.6923 23.4342 70.3307 23.6593 68.985L23.4356 69.0446C22.5567 69.8835 21.7769 70.8446 20.8751 71.6587C20.3497 72.1331 20.1541 71.8234 20.1222 71.2262C19.9981 68.8954 20.9724 65.5844 21.9732 63.4831C22.0516 63.3183 22.5947 62.4415 22.5229 62.3614L20.0924 63.8113C19.5911 63.9967 18.6936 64.8655 18.8058 63.7867C18.9855 62.0605 20.3668 58.991 21.2499 57.4613C21.3762 57.2425 22.55 55.5125 22.4599 55.4223C22.1021 55.5505 21.7376 55.8886 21.4493 56.1464C19.7859 57.635 17.7889 60.0031 16.4359 61.7972C14.1102 64.8811 11.9902 68.1543 10.3032 71.6337L10.3065 71.8207C10.7768 72.3388 11.2389 72.8803 11.6544 73.443C12.1917 74.1707 13.2845 75.6767 13.6339 76.4484C13.8792 76.9903 13.7469 77.6248 13.1197 77.7859C12.2913 77.9986 11.9825 77.314 11.5768 76.7379C11.0152 75.9408 10.5414 75.0747 9.95046 74.2966C9.91383 74.2756 9.78453 74.2737 9.77316 74.283C9.69801 74.3452 9.4844 75.9646 9.45741 76.2078C9.3832 76.872 9.39552 77.5624 9.32984 78.225C9.28911 78.6363 9.22453 79.5452 9.09839 79.8861C8.83742 80.592 7.84816 80.4921 7.47399 79.8915C7.20196 79.4548 7.38289 78.5085 7.44431 77.9809C7.59129 76.7199 7.90515 75.4461 7.9983 74.1812C8.00525 74.0869 8.0504 74.0061 7.91099 74.0314L4.91005 78.855C4.28281 79.6832 2.72234 79.2607 3.14072 78.0962C4.03936 76.4315 5.36316 74.8386 6.23844 73.1805C6.27838 73.1049 6.32574 73.0622 6.29985 72.9587C6.20181 72.8618 3.97842 73.7447 3.69629 73.8573C3.08909 74.0997 1.58815 74.9055 1.0872 74.9745C0.100784 75.1103 -0.521412 73.7128 0.594941 73.0922C1.48774 72.5958 3.08009 72.02 4.0752 71.6497C5.11403 71.2632 6.20434 70.9978 7.2168 70.5627C9.25658 67.1784 11.0152 63.7392 13.3186 60.5114C16.6074 55.9032 20.9583 51.3314 25.8498 48.4324C26.611 47.9813 27.4144 47.6033 28.1838 47.1691C28.3921 47.0514 29.8179 46.2679 29.8402 46.1739C29.8688 46.0532 29.6768 45.8131 29.5281 45.9226L26.0612 47.7603C25.6849 47.881 25.616 47.7546 25.623 47.3857C25.6321 46.9072 25.8629 45.9791 26.0132 45.5048C26.0576 45.3646 26.4078 44.6085 26.3734 44.5723C25.2032 45.005 24.1059 45.6149 22.9664 46.1214C22.6304 46.2306 22.6991 45.857 22.7414 45.641C22.9667 44.4908 24.1309 42.1997 24.7692 41.1706C24.8399 41.0567 25.1951 40.6894 25.111 40.5981C24.6143 40.8262 21.2764 42.1475 21.0088 42.0199C20.5864 41.8184 21.3584 40.7771 21.5251 40.5151C22.1032 39.6065 22.8974 38.4786 23.6899 37.7564C23.9196 37.547 24.2621 37.3709 24.4476 37.1904C24.5093 37.1305 24.5666 37.107 24.5429 37.0024C23.6287 37.0221 22.7092 36.9759 21.7948 36.9994C21.0354 37.0189 20.2226 37.1843 19.459 37.1311C18.9556 37.0961 19.0327 36.9153 19.3377 36.6258C19.7665 36.2189 20.6484 35.6388 21.1644 35.2971C22.372 34.4973 23.6754 33.8443 24.9746 33.2079C24.9986 33.1789 24.9983 32.9981 24.9769 32.9722C24.943 32.9309 24.1415 32.7105 23.9618 32.6311C23.6269 32.4834 23.1937 32.2428 22.902 32.0185C24.4108 31.9806 25.6767 31.2961 26.9367 30.5307C30.0639 28.6315 33.0541 26.2293 36.1253 24.1951C38.963 22.3154 41.9035 20.5923 44.7792 18.7715L44.9777 18.8199C49.5029 21.4444 53.7994 24.4144 58.1693 27.2753C60.5833 28.8559 64.4404 31.569 67.342 31.6398L67.3415 31.64ZM36.7761 29.1984C34.3514 29.4598 32.3031 31.5786 32.1189 34.0065C31.6836 39.7427 39.3081 42.124 42.1024 37.1073C44.3095 33.1446 41.2459 28.7166 36.7761 29.1984ZM51.8629 29.1982C47.6644 29.6255 45.628 35.086 48.6224 38.1397C51.2232 40.7921 55.3791 40.2668 57.1789 37.0338C59.3444 33.1442 56.1946 28.7574 51.8629 29.1981V29.1982ZM57.7462 51.6994C57.8086 51.6381 57.2883 50.1954 57.2097 50.1232C57.0192 49.9479 56.8487 50.1817 56.8894 50.3756C56.9068 50.4587 57.5005 51.6095 57.5542 51.6578C57.6079 51.7061 57.7198 51.7255 57.7463 51.6994H57.7462ZM60.0193 50.5646C59.8662 50.7096 60.9405 51.6171 61.1541 51.672C61.4121 51.7384 61.4989 51.5421 61.3433 51.3538C61.2547 51.2468 60.4565 50.7623 60.2741 50.6563C60.1914 50.6081 60.1496 50.5296 60.0195 50.5644L60.0193 50.5646ZM25.8495 52.4007C25.5968 52.6494 24.0565 54.1341 24.0354 54.3201C24.027 54.3941 24.035 54.4612 24.0977 54.5109C24.2019 54.5847 24.3858 54.5191 24.4762 54.44C24.6585 54.0327 26.0319 53.0127 26.1119 52.727C26.1607 52.5531 26.0226 52.3557 25.8495 52.4007ZM30.769 52.7183C30.5447 52.7609 30.0027 54.3442 29.8069 54.6014C29.9597 55.1332 30.1283 54.8871 30.3197 54.5394C30.5898 54.0488 30.7463 53.4636 31.0336 52.9766C31.0998 52.8451 30.8757 52.6979 30.7688 52.7181L30.769 52.7183ZM45.1286 54.6571C45.1117 54.6473 45.0025 54.402 44.9303 54.3192C43.1117 52.2273 39.9999 52.177 38.4412 54.5811C36.4425 57.6638 39.7597 61.5584 41.9011 63.5915C42.9786 64.6145 44.1465 65.5695 45.2791 66.5263C45.7462 66.1778 46.1985 65.8037 46.6373 65.4208C49.2923 63.1032 55.0351 58.0278 51.845 54.2223C50.1036 52.1448 47.367 52.2505 45.5942 54.2223C45.4794 54.3499 45.3166 54.766 45.1286 54.6571ZM63.2953 54.8471C63.3891 54.7149 62.9792 54.0636 62.8864 53.9126C62.7939 53.7621 62.2888 52.993 62.1347 53.0248C62.048 53.0428 62.0455 53.1337 62.0664 53.2165C62.187 53.6963 62.7605 54.37 62.9543 54.8551C62.9961 54.9581 63.2669 54.8871 63.2953 54.8471ZM27.0674 56.1789C27.0046 56.1064 26.6443 56.4989 26.5936 56.5563C26.4394 56.731 25.6234 57.7457 25.5791 57.8789C25.446 58.2774 25.8694 58.152 26.0849 57.8773C26.2857 57.6216 26.8405 56.7464 26.9954 56.4531C27.0428 56.3634 27.0862 56.2859 27.0676 56.1789H27.0674ZM59.2612 59.4585C59.148 58.8036 59.0735 58.1253 58.9435 57.4741C58.8925 57.2182 58.672 57.2937 58.7075 57.5155L59.0203 59.3528L59.261 59.4585H59.2612ZM30.9812 57.5667C30.9501 57.5343 30.7516 57.5624 30.7429 57.6749L30.3505 59.6476L30.589 59.4766C30.5211 59.1877 31.0964 57.6867 30.981 57.5665L30.9812 57.5667ZM63.5537 60.4048C63.6525 60.3118 63.0056 59.3031 62.8902 59.2079C62.7969 59.1311 62.7137 59.1051 62.6057 59.1735C62.5015 59.2507 62.5585 59.2906 62.5937 59.3772C62.6208 59.444 63.2252 60.3038 63.2708 60.3412C63.3398 60.398 63.5133 60.4428 63.5539 60.4046L63.5537 60.4048ZM27.6356 62.9286C27.5254 62.9079 27.4727 62.9813 27.4203 63.0597C27.3344 63.1881 26.8667 64.4452 26.8866 64.5235C26.9499 64.7726 27.1594 64.7164 27.2611 64.4777C27.3266 64.3236 27.6888 62.9879 27.6356 62.9286ZM59.7613 65.5832C59.6535 65.5095 59.3918 65.6144 59.4517 65.7918C59.6785 66.295 59.6567 66.9641 59.8081 67.4602C59.8936 67.7404 60.0585 67.7279 60.0867 67.4398C60.1047 67.2563 59.8392 65.6365 59.7613 65.5832ZM28.6465 68.9211C28.942 69.1738 29.1662 67.7848 29.1561 67.6268C29.1451 67.4508 29.0058 67.304 28.8933 67.4448C28.7668 67.6032 28.5079 68.8024 28.6465 68.9209V68.9211ZM33.5066 71.4443V72.9267C33.5066 72.9702 33.6498 73.084 33.7295 72.9601C33.8258 72.8105 33.6687 71.791 33.6313 71.5391C33.6149 71.4286 33.6648 71.4337 33.5066 71.4441V71.4443ZM56.7364 71.4447C56.6463 71.3367 56.5986 71.5134 56.5807 71.5694C56.4349 72.0279 56.3278 72.5035 56.1688 72.9579C56.2449 72.9484 56.3108 73.0016 56.3591 72.9159C56.4213 72.8056 56.7852 71.5031 56.7366 71.4447H56.7364Z" fill="#23140D"/>
<path d="M22.8996 32.0172C22.0999 32.0373 20.0898 31.1433 19.4594 30.6292C19.0679 30.31 18.4856 29.2579 18.2799 28.78C18.1756 28.5373 17.9479 28.023 18.2935 27.8824C18.4307 27.8266 19.1443 28.3224 19.3407 28.4138C21.2051 29.2809 23.4196 28.8991 25.1287 27.8419C28.3339 25.8591 29.4522 21.4624 30.9692 18.2234C32.2464 15.4964 33.9487 13.0254 36.0045 10.8283C36.2733 10.5412 37.5281 9.24923 37.762 9.11512C37.8847 9.04476 37.9763 9.04255 38.1125 9.0558C38.0816 9.41946 37.8119 9.6834 37.6894 10.0518C37.0102 12.0941 37.7482 14.2528 40.2732 13.5801C41.9401 13.136 41.8841 11.5424 41.8397 10.1569C41.7819 8.35137 41.6482 7.11494 42.3304 5.35362C43.5121 2.30254 47.8957 -0.579097 51.2088 0.10041C51.5083 0.161782 51.4642 0.354732 51.2367 0.502088C50.5849 0.924433 50.1182 0.944627 49.5399 1.6448C46.528 5.2913 51.1204 8.36572 53.3585 10.7578C55.559 13.1098 57.0976 15.4208 58.4518 18.3474C59.5323 20.6825 60.2366 23.1164 61.8496 25.171C63.9142 27.8007 67.3794 29.7586 70.6413 27.9673C70.7544 27.9053 70.9901 27.6851 71.046 27.6712C71.4303 27.5759 71.4085 28.1312 71.3649 28.3751C71.273 28.8893 70.4277 29.9533 70.0242 30.3155C69.4854 30.7992 68.0547 31.6561 67.3396 31.6386C64.438 31.5676 60.5809 28.8544 58.167 27.2741C53.7969 24.4131 49.5006 21.4431 44.9753 18.8187L44.7769 18.7702C41.9011 20.591 38.9608 22.3142 36.123 24.1938C33.0518 26.2281 30.0616 28.6304 26.9343 30.5295C25.6743 31.2946 24.4084 31.9792 22.8996 32.0172Z" fill="#91040C"/>
<path d="M85.7739 32.7733C85.7753 32.9052 85.7868 33.037 85.7593 33.1681C84.8228 37.6304 83.2284 42.0674 82.7447 46.6205C82.5429 48.5195 82.1207 52.8058 85.2215 52.1865C87.5626 51.7189 90.5651 48.4343 92.2421 46.7735C93.5604 45.468 94.8986 44.1684 96.1913 42.8366C96.9568 42.0477 97.6505 41.1814 98.4611 40.4366C98.5389 40.365 98.5909 40.2787 98.7145 40.2801C98.7228 40.2877 98.8417 40.2645 98.9317 40.3445C98.9903 40.3964 99.69 41.5825 99.7181 41.6555C99.9578 42.2795 99.8408 42.3969 99.4413 42.8675C98.1663 44.3701 96.0116 46.188 94.486 47.504C92.5833 49.1451 88.2874 52.6384 85.8651 53.0192C85.6037 53.0603 84.7159 52.9613 84.5874 53.0361C84.5601 53.0519 84.3006 53.5325 84.2862 53.5896C84.2619 53.6868 84.3367 53.7912 84.3137 53.8311C84.3018 53.8515 84.1877 53.8699 84.1408 53.9436C84.009 54.1509 83.8579 54.5581 83.7363 54.8104C83.6683 54.9513 83.6515 55.0006 83.5772 55.1466C83.4038 55.4866 83.4557 55.7792 82.9965 55.7354C82.6149 55.6989 81.9032 55.2695 81.5366 55.0781C81.445 55.0303 81.3193 55.0554 81.292 55.0413C81.2873 55.039 81.3028 54.9577 81.271 54.9388C81.1637 54.8746 81.0099 54.8648 80.946 54.7249C80.7901 54.3833 81.3768 53.6502 81.5587 53.3195C81.7164 53.0326 81.9147 52.5272 82.0653 52.2825C82.0879 52.2457 82.1798 52.2411 82.2047 52.2033C82.2916 52.072 82.2166 51.7165 82.1698 51.5586C81.9586 50.8453 81.8145 49.9694 81.6027 49.2863C81.5868 49.2348 81.4831 49.2366 81.4813 49.2008C81.3137 45.5557 81.6181 42.1575 82.2532 38.6234C82.5244 37.1148 82.8847 35.4688 83.2344 34.0522C83.3037 33.7714 83.4283 32.7211 83.6405 32.5979C83.6795 32.5752 84.4251 32.5179 84.5407 32.5176C84.7298 32.5171 85.6698 32.5856 85.7409 32.6484C85.7721 32.676 85.7625 32.7657 85.7737 32.7736L85.7739 32.7733Z" fill="#91040C"/>
<path d="M86.5303 32.8997C86.4294 33.2264 86.3154 33.5626 86.2314 33.8941C85.3678 37.299 84.2008 41.264 83.6423 44.68C83.4837 45.6508 83.076 48.4811 83.1902 49.3269C83.206 49.4439 83.4036 50.1738 83.5064 49.8428C85.0206 44.276 86.9554 38.8407 88.9208 33.4239C88.9325 33.3105 88.6523 33.1899 88.5505 33.1519C88.6157 33.0263 88.7603 33.1123 88.852 33.1336C89.181 33.21 89.4396 33.224 89.7497 33.278C87.5871 38.8658 85.697 44.5573 83.9573 50.2936L83.9422 50.6257C84.0749 50.6265 84.2409 50.6632 84.3152 50.5252C86.2642 46.9115 88.1494 43.2631 90.0958 39.6482C90.9284 38.1017 91.8965 36.5274 92.6778 34.9735C92.7276 34.8748 92.7647 34.7757 92.7797 34.6659C92.9499 34.7534 93.2806 34.8599 93.474 34.9181L84.7631 51.0035C84.8122 51.0551 85.0869 50.8294 85.1423 50.7839C86.2857 49.8474 87.3122 48.4788 88.296 47.3749L96.2514 36.8106C96.436 36.9847 96.6441 37.1887 96.8196 37.3784C96.571 37.5849 96.3618 37.8843 96.1633 38.142C93.0364 42.202 89.8348 47.0185 86.1523 50.5318C85.9709 50.7049 85.3645 51.1318 85.2634 51.2834C85.1029 51.5243 85.2143 51.6788 85.5018 51.5859C85.7893 51.4929 86.3809 51.0534 86.6763 50.8663C87.6692 50.2376 88.6259 49.5551 89.4979 48.7656L98.2715 39.5863C98.5043 39.5477 98.4208 39.6113 98.4795 39.7231C98.5326 39.8239 98.6909 40.2599 98.7134 40.2802C98.5897 40.2788 98.5378 40.3651 98.46 40.4367C97.6494 41.1815 96.9557 42.0478 96.1902 42.8367C94.8975 44.1687 93.5593 45.4683 92.241 46.7736C90.5639 48.4344 87.5615 51.719 85.2203 52.1867C82.1196 52.8059 82.5418 48.5196 82.7436 46.6206C83.2273 42.0676 84.8217 37.6305 85.7582 33.1682C85.7857 33.0371 85.7742 32.9053 85.7728 32.7734C85.8042 32.7955 86.4298 32.8918 86.5303 32.8997Z" fill="#23140D"/>
<path d="M93.4744 34.918C94.6217 35.2635 95.3778 35.9861 96.252 36.8104L88.2965 47.3747C87.3128 48.4786 86.2862 49.8473 85.1429 50.7838C85.0873 50.8292 84.8128 51.0551 84.7637 51.0034L93.4746 34.918H93.4744Z" fill="#91040C"/>
<path d="M89.7489 33.2793C90.6113 33.4296 91.9092 34.1251 92.7365 34.5388C92.7933 34.5672 92.7729 34.664 92.7789 34.6672C92.7641 34.777 92.7268 34.8761 92.6771 34.9748C91.8958 36.5287 90.9277 38.1031 90.095 39.6495C88.1487 43.2644 86.2635 46.9128 84.3145 50.5265C84.2401 50.6646 84.0742 50.6278 83.9414 50.627L83.9566 50.2949C85.6962 44.5588 87.5862 38.8673 89.7489 33.2793Z" fill="#91040C"/>
<path d="M96.8213 37.3773C96.8507 37.409 97.061 37.5193 97.1376 37.6142C97.3728 37.9067 97.6219 38.4999 97.8652 38.7626C97.9499 38.854 98.118 38.8728 98.1361 38.9019C98.1543 38.9311 98.2883 39.5202 98.2732 39.5849L89.4996 48.7642C88.6276 49.5537 87.6707 50.2362 86.678 50.8649C86.3825 51.052 85.7909 51.4914 85.5036 51.5844C85.2161 51.6774 85.1046 51.5231 85.2652 51.282C85.3662 51.1304 85.9726 50.7036 86.154 50.5304C89.8365 47.0172 93.038 42.2007 96.165 38.1405C96.3633 37.8831 96.5727 37.5836 96.8213 37.377V37.3773Z" fill="#91040C"/>
<path d="M88.552 33.1527C88.654 33.1905 88.9342 33.3112 88.9224 33.4247C86.9568 38.8415 85.022 44.2767 83.508 49.8436C83.4052 50.1744 83.2075 49.4446 83.1918 49.3277C83.0776 48.4817 83.4853 45.6515 83.6439 44.6808C84.2023 41.2648 85.3694 37.2998 86.233 33.8948C86.3169 33.5633 86.4311 33.2271 86.5318 32.9004C87.1655 32.9499 87.9082 32.9135 88.5519 33.1527H88.552Z" fill="#91040C"/>
<path d="M45.1282 54.6567C45.3162 54.7655 45.479 54.3495 45.5937 54.2219C47.3665 52.2501 50.1032 52.1444 51.8446 54.2219C55.0347 58.0274 49.292 63.1028 46.6368 65.4204C46.1982 65.8033 45.7458 66.1774 45.2786 66.5259C44.146 65.569 42.9782 64.6142 41.9007 63.5911C39.7592 61.5578 36.442 57.6634 38.4408 54.5806C39.9995 52.1766 43.1113 52.2269 44.9299 54.3187C45.0018 54.4016 45.1111 54.6469 45.1282 54.6567ZM48.9564 58.3384C48.9169 58.2988 48.801 58.2617 48.745 58.2606C48.3774 58.2536 47.7309 59.4951 47.3077 59.6429C46.7947 59.1013 46.2123 58.6157 45.7502 58.0389C45.7502 57.937 46.1837 57.5361 46.2873 57.438C46.6821 57.0639 47.8972 56.4241 46.985 55.9898C46.2979 56.385 45.7265 57.0186 45.1439 57.5612C44.7259 57.37 43.6889 56.0447 43.32 56.0532C43.1725 56.0567 42.8702 56.3887 43.006 56.5553L44.5571 57.9717C44.619 58.0356 44.6449 58.1233 44.5869 58.1975L43.0063 59.5866C42.8088 59.5866 41.8789 58.3841 41.6807 58.3838C41.6234 58.3838 41.5934 58.4169 41.5511 58.4447C40.9392 58.8468 42.3023 59.7089 42.3994 60.0706C42.47 60.3338 41.7098 60.5708 41.9613 61.0065C42.224 61.462 42.7725 61.0008 42.9128 60.6571L43.0045 60.658C43.4551 61.0665 43.8478 61.545 44.2996 61.9508C44.4774 62.1104 44.9441 62.5601 45.1477 62.5482C45.3751 62.535 45.9327 62.0047 46.1319 61.8247C46.3094 61.6644 47.1113 60.753 47.1831 60.7284C47.6168 60.5794 47.9741 61.5966 48.3842 61.4311C49.0445 61.1648 48.3037 60.5727 48.0257 60.3062C47.946 60.2297 47.8081 60.2393 47.8321 60.1222C48.0077 59.7376 49.4131 58.7965 48.9562 58.3382L48.9564 58.3384Z" fill="#91040C"/>
<path d="M36.7747 29.1982C41.2446 28.7164 44.3082 33.1445 42.1011 37.1072C39.3068 42.1239 31.6821 39.7425 32.1175 34.0064C32.3018 31.5785 34.3501 29.4597 36.7747 29.1982ZM37.2771 31.9085C33.6663 32.3373 34.4689 37.7717 38.0135 37.1223C41.33 36.5147 40.5054 31.525 37.2771 31.9085Z" fill="#EFDBBF"/>
<path d="M51.8618 29.1967C56.1936 28.7559 59.3434 33.1427 57.1778 37.0324C55.378 40.2654 51.222 40.7906 48.6213 38.1384C45.6269 35.0846 47.6633 29.624 51.8618 29.1969V29.1967ZM51.9858 31.9072C49.397 32.2781 49.1142 36.6741 51.9214 37.1113C56.0165 37.749 56.1803 31.3062 51.9858 31.9072Z" fill="#EFDBBF"/>
<path d="M25.8482 52.3991C26.0214 52.3541 26.1593 52.5515 26.1106 52.7253C26.0305 53.0111 24.657 54.031 24.4748 54.4384C24.3845 54.5174 24.2007 54.5832 24.0964 54.5092C24.0337 54.4595 24.0256 54.3925 24.034 54.3185C24.055 54.1325 25.5953 52.6477 25.8482 52.3991Z" fill="#91040C"/>
<path d="M30.7686 52.7167C30.8755 52.6965 31.0995 52.8437 31.0333 52.9751C30.7459 53.4622 30.5896 54.0473 30.3194 54.538C30.1281 54.8857 29.9595 55.1318 29.8066 54.6C30.0024 54.3428 30.5444 52.7593 30.7687 52.7169L30.7686 52.7167Z" fill="#91040C"/>
<path d="M63.2945 54.8466C63.2661 54.8867 62.9953 54.9577 62.9535 54.8547C62.7599 54.3694 62.1862 53.6957 62.0656 53.2161C62.0447 53.1333 62.0471 53.0424 62.1339 53.0244C62.2879 52.9925 62.7929 53.7617 62.8856 53.9122C62.9784 54.0633 63.3883 54.7144 63.2945 54.8466Z" fill="#91040C"/>
<path d="M27.0666 56.1769C27.0854 56.284 27.042 56.3613 26.9944 56.4511C26.8396 56.7444 26.2848 57.6195 26.084 57.8753C25.8683 58.1498 25.445 58.2754 25.5781 57.8768C25.6225 57.7437 26.4384 56.7291 26.5926 56.5543C26.6435 56.4967 27.0036 56.1043 27.0664 56.1769H27.0666Z" fill="#91040C"/>
<path d="M59.7596 65.5824C59.8373 65.6357 60.1027 67.2556 60.0847 67.439C60.0565 67.7271 59.8918 67.7396 59.8063 67.4594C59.655 66.9634 59.6767 66.2943 59.4502 65.791C59.3904 65.6137 59.652 65.5087 59.7596 65.5824Z" fill="#91040C"/>
<path d="M57.7433 51.6986C57.7168 51.7246 57.6039 51.7044 57.5512 51.657C57.4986 51.6095 56.9042 50.4579 56.8869 50.3748C56.8463 50.1807 57.0167 49.9471 57.207 50.1223C57.2856 50.1948 57.8054 51.6372 57.7431 51.6986H57.7433Z" fill="#91040C"/>
<path d="M60.0189 50.5633C60.149 50.5285 60.1908 50.607 60.2736 50.6552C60.4559 50.7612 61.2541 51.2457 61.3427 51.3527C61.4985 51.5409 61.4117 51.7371 61.1536 51.6709C60.9401 51.616 59.8658 50.7083 60.0188 50.5635L60.0189 50.5633Z" fill="#91040C"/>
<path d="M27.6338 62.9274C27.687 62.9867 27.3251 64.3223 27.2596 64.4765C27.158 64.7153 26.9488 64.7714 26.8854 64.5222C26.8655 64.444 27.3328 63.1869 27.4186 63.0585C27.471 62.9801 27.5237 62.9067 27.6338 62.9274Z" fill="#91040C"/>
<path d="M28.6471 68.9192C28.5086 68.8006 28.7673 67.6015 28.8937 67.4431C29.0062 67.3021 29.1453 67.4491 29.1564 67.625C29.1663 67.7831 28.9424 69.1721 28.6471 68.9194V68.9192Z" fill="#91040C"/>
<path d="M59.2601 59.458L59.0195 59.3522L58.707 57.515C58.6715 57.2932 58.8917 57.2176 58.9428 57.4735C59.0725 58.1248 59.1471 58.8031 59.2603 59.458H59.2601Z" fill="#91040C"/>
<path d="M63.5519 60.4035C63.5114 60.4415 63.338 60.3969 63.2691 60.3401C63.2236 60.3027 62.6195 59.4429 62.5924 59.3761C62.5574 59.2895 62.5003 59.2496 62.6044 59.1725C62.7123 59.104 62.7954 59.1299 62.8887 59.2069C63.004 59.302 63.6505 60.3108 63.5518 60.4037L63.5519 60.4035Z" fill="#91040C"/>
<path d="M30.9797 57.5652C31.0951 57.6852 30.5202 59.1862 30.588 59.4753L30.3496 59.6463L30.7418 57.6735C30.7503 57.5609 30.9488 57.533 30.9799 57.5653L30.9797 57.5652Z" fill="#91040C"/>
<path d="M33.5059 71.4427C33.6638 71.4321 33.6141 71.4271 33.6305 71.5377C33.6679 71.7896 33.8249 72.8091 33.7286 72.9587C33.649 73.0825 33.5059 72.9688 33.5059 72.9252V71.4428V71.4427Z" fill="#91040C"/>
<path d="M56.7353 71.4425C56.7839 71.5009 56.4202 72.8034 56.3581 72.9137C56.3098 72.9994 56.2442 72.9462 56.168 72.9557C56.3268 72.5013 56.4338 72.0256 56.5796 71.5672C56.5974 71.5112 56.6451 71.3344 56.7351 71.4425H56.7353Z" fill="#91040C"/>
<path d="M48.9551 58.3367C49.412 58.795 48.0065 59.7361 47.831 60.1207C47.8068 60.2378 47.9446 60.2281 48.0245 60.3047C48.3026 60.5711 49.0433 61.1632 48.3831 61.4295C47.9728 61.595 47.6156 60.5778 47.1819 60.7268C47.1101 60.7515 46.3082 61.6629 46.1308 61.8232C45.9316 62.0034 45.3739 62.5335 45.1466 62.5467C44.9429 62.5585 44.4762 62.1089 44.2985 61.9492C43.8466 61.5435 43.454 61.0649 43.0034 60.6565L42.9117 60.6555C42.7715 60.9993 42.2228 61.4605 41.9601 61.005C41.7088 60.5691 42.4688 60.3323 42.3982 60.0691C42.3012 59.7073 40.938 58.8455 41.55 58.4432C41.5923 58.4154 41.6221 58.3821 41.6796 58.3823C41.8777 58.3826 42.8076 59.5851 43.0051 59.5851L44.5858 58.1959C44.6437 58.1218 44.6179 58.0341 44.556 57.9702L43.0048 56.5537C42.8692 56.3871 43.1715 56.0552 43.3188 56.0517C43.6878 56.0432 44.7247 57.3684 45.1428 57.5597C45.7252 57.0171 46.2967 56.3835 46.9838 55.9883C47.896 56.4226 46.6808 57.0624 46.2861 57.4364C46.1826 57.5346 45.749 57.9355 45.749 58.0374C46.2112 58.6142 46.7934 59.0998 47.3065 59.6414C47.7298 59.4934 48.3764 58.2519 48.7438 58.259C48.8 58.2601 48.9159 58.2972 48.9552 58.3368L48.9551 58.3367ZM44.6999 58.9108C44.4235 59.1861 44.1778 59.5018 43.8905 59.7736C43.7918 59.8669 43.397 60.1 43.4202 60.2362L45.1515 61.7927C45.378 61.6389 46.7634 60.3102 46.7634 60.1819C46.336 59.5739 45.6903 59.1454 45.1826 58.6038C45.0424 58.5099 44.8237 58.7876 44.7001 58.9108H44.6999Z" fill="#23140D"/>
<path d="M37.2774 31.9077C40.5057 31.5243 41.3303 36.5139 38.0137 37.1215C34.4694 37.7708 33.6667 32.3365 37.2774 31.9077Z" fill="#23140D"/>
<path d="M51.9856 31.9068C56.1801 31.3059 56.0162 37.7486 51.9212 37.111C49.1139 36.6738 49.3967 32.2777 51.9856 31.9068Z" fill="#23140D"/>
<path d="M44.7008 58.912C44.8246 58.7888 45.0431 58.5111 45.1833 58.605C45.6909 59.1467 46.3366 59.5751 46.7641 60.1831C46.7641 60.3114 45.3789 61.6401 45.1522 61.7939L43.4209 60.2374C43.3977 60.1012 43.7927 59.8681 43.8912 59.7748C44.1786 59.503 44.4242 59.1873 44.7007 58.912H44.7008Z" fill="#91040C"/>
</svg>
