<svg width="307" height="322" viewBox="0 0 307 322" fill="none" xmlns="http://www.w3.org/2000/svg">
<rect width="307" height="322" fill="#EFDBBF"/>
<path d="M72.5605 133.428V232.43" stroke="#23140D" stroke-width="42"/>
<path d="M174.898 27.3535L195.269 66.3752L219.056 27.3535H219.398V93.65H130.057V27.6988L154.186 66.7171L174.556 27.3535H174.898Z" fill="#91040C"/>
<path d="M40.6314 27.3535L49.1165 68.1348C48.0397 68.5907 44.4426 67.4664 44.0554 68.7038C43.8414 69.3893 45.5363 75.5349 45.91 76.6969C49.1369 86.7705 56.0356 96.4877 66.6131 99.336L67.126 68.9951C66.8543 67.5178 64.429 68.3028 63.2096 68.1382C62.717 68.0731 62.6389 68.3336 62.7204 67.6447L72.5608 27.3535H72.9004L82.0411 68.1074C80.448 68.8992 78.984 67.6481 77.3162 68.4844V99.3326C88.6919 96.4192 96.8237 86.0096 99.2353 74.6643C99.4358 73.7149 100.224 69.2933 100.098 68.7106C99.8434 67.5521 96.2598 68.9266 95.6891 68.1074L105.169 27.3535H105.849L115.02 68.481H110.604C110.064 88.1484 97.4249 107.85 77.2958 111.195C77.8563 115.991 76.6029 122.301 77.3366 126.901C77.5778 128.416 80.6008 130.253 80.7163 132.234C80.8658 132.374 81.1851 132.282 81.4195 132.021C82.3672 130.959 83.1076 128.93 84.3746 127.778C92.4113 120.481 104.181 131.637 97.5064 141.125C93.1688 147.291 85.7707 145.317 82.0037 139.672C81.6097 139.082 81.4059 137.358 80.6926 138.273C79.9147 139.274 79.4324 140.865 78.3013 141.965C73.1994 146.914 65.9847 144.484 63.2197 138.404C59.874 146.657 48.5696 147.315 45.5669 138.393C41.6607 126.787 58.4168 120.231 63.2197 131.884C64.2897 130.225 65.5057 128.751 66.9629 127.425L66.7999 111.209C62.8665 109.917 59.0995 108.885 55.4718 106.805C45.3699 101.016 37.9209 90.0816 34.9521 78.8391C34.5003 77.1322 33.5187 68.858 33.1213 68.5187C32.8427 68.2788 30.7232 68.6044 30.1016 68.481V63.3396L39.9521 27.3535H40.6314ZM68.2503 130.63C68.1076 130.746 66.9697 132.268 66.8644 132.488C63.4711 139.418 73.3896 144.803 77.1939 138.112C80.465 132.361 73.2673 126.503 68.2503 130.63Z" fill="#91040C"/>
<path d="M218.854 97.1889C218.903 97.2296 219.307 97.0974 219.552 97.4229C222.977 101.973 226.806 111.543 228.882 117.015C233.962 130.393 236.305 144.822 238.209 159.227L238.551 171.097C238.551 171.097 239.702 213.933 239.609 232.982C239.56 242.519 240.137 254.646 239.229 263.837C239.111 265.031 240.089 265.031 238.558 266.021C238.061 265.502 237.311 265.685 236.668 265.671C230.745 265.549 224.784 265.682 218.861 265.682C218.834 233.637 218.885 201.578 218.885 169.527C218.885 168.903 218.516 168.442 218.516 168.381C218.516 166.859 218.878 165.516 218.878 164.16C218.878 141.835 218.844 119.507 218.861 97.1855L218.854 97.1889Z" fill="#91040C"/>
<path d="M130.057 96.2889C130.582 95.8932 132.832 95.6442 133.623 95.593C141.846 95.0575 150.318 95.9171 158.507 95.9649C178.633 96.0842 198.765 95.8625 218.893 95.9205C219.568 95.8045 219.34 96.5925 219.381 96.63C219.364 119.086 219.398 141.555 219.398 164.018C219.398 165.382 219.04 166.733 219.04 168.265C217.332 175.2 215.423 181.841 211.597 187.937L209.497 191.116C209.412 183.045 207.987 175.152 204.673 167.801C204.376 167.142 203.923 165.935 203.36 165.536C203.207 169.667 203.558 173.852 203.354 177.98C203.122 182.605 201.622 188.128 201.652 192.48L197.363 201.322C196.913 202.083 193.385 207.234 193.057 207.411C192.682 207.616 192.185 207.452 191.769 207.493C190.93 200.705 189.103 192.245 185.373 186.439C185.158 186.105 185.407 185.829 184.609 186.003C184.388 190.823 184.261 197.062 182.901 201.691C181.912 205.061 177.354 214.309 175.009 216.819C174.773 217.072 174.705 217.505 174.211 217.382C173.791 217.28 169.993 210.989 169.543 210.109C168.296 207.674 166.922 204.327 166.195 201.691C164.828 196.727 164.106 191.14 164.146 186.003C163.355 185.822 163.028 187.316 162.779 187.872C160.021 194.043 158.828 201.199 157.669 207.831C156.786 208.585 153.513 204.607 152.957 203.85C150.588 200.64 149.841 197.696 148.324 194.159C148.106 193.651 148.075 193.03 147.444 192.822C147.454 188.711 146.391 184.478 146.084 180.367C145.726 175.561 145.736 170.693 145.736 165.877C145.218 165.959 144.989 167.033 144.802 167.494C141.768 174.95 139.749 182.336 139.258 190.434C133.514 183.721 131.864 174.95 130.057 166.556V96.2855V96.2889Z" fill="#23140D"/>
<path d="M130.056 176.967C130.056 212.925 129.827 229.172 129.858 265.138C129.858 265.138 113.694 265.126 110.926 265.138C110.926 223.611 109.847 206.296 111.589 165.04C111.819 159.64 111.959 154.874 112.702 149.475C115.296 130.597 121.754 112.714 130.056 96.3027V176.967Z" fill="#91040C"/>
<path d="M103.772 251.719C96.3862 258.913 86.3838 258.027 76.9577 258.034C72.6192 258.037 68.3518 257.735 64.0472 257.66C60.4984 257.598 57.0784 258.233 53.2991 257.594C47.5336 256.623 45.9609 249.065 50.9028 245.718C52.8755 244.382 54.8549 244.238 56.9598 243.609C57.458 243.462 57.5495 243.798 57.4546 242.912C49.4453 242.998 43.6324 234.404 51.8484 229.164L57.4479 227.461C51.9128 226.987 44.917 222.633 49.0318 216.353C52.6687 210.808 60.2442 212.703 65.7521 212.621C74.1309 212.497 88.326 211.004 95.9252 213.713C111.486 219.258 115.591 240.193 103.762 251.713L103.772 251.719Z" fill="#91040C"/>
<path d="M201.871 191.996C201.841 187.675 203.322 182.193 203.551 177.602C203.753 173.505 203.406 169.347 203.558 165.25C204.113 165.643 204.561 166.841 204.854 167.498C208.126 174.798 209.533 182.63 209.617 190.642L211.69 187.486C215.467 181.435 217.352 174.843 219.038 167.959C219.038 168.02 219.398 168.48 219.398 169.103C219.398 201.114 219.348 233.129 219.375 265.137C213.545 265.137 207.701 265.137 201.871 265.137C202.245 242.637 201.377 220.069 201.855 197.569C201.895 195.649 201.885 193.892 201.871 191.999V191.996Z" fill="#EFDBBF"/>
<path d="M147.748 192.735C147.748 192.796 147.38 193.254 147.384 193.873C147.435 217.628 147.397 241.386 147.408 265.138C141.631 265.138 135.834 265.114 130.057 265.138L130.414 259.598C130.383 228.667 130.397 197.733 130.397 166.805C132.2 175.092 133.847 183.75 139.579 190.378C140.069 182.38 142.08 175.092 145.111 167.731C145.298 167.276 145.526 166.216 146.043 166.135C146.043 170.893 146.033 175.695 146.39 180.44C146.697 184.498 147.758 188.677 147.748 192.735Z" fill="#EFDBBF"/>
<path d="M147.237 186.67C147.875 186.896 147.91 187.557 148.132 188.094C149.677 191.861 150.44 194.996 152.849 198.415C153.418 199.221 156.746 203.457 157.645 202.654C158.829 195.592 160.04 187.971 162.848 181.399C163.101 180.804 163.435 179.216 164.24 179.409C164.198 184.879 164.934 190.833 166.326 196.115L165.979 264.773C165.09 264.773 163.57 265.136 162.681 265.136H152.616C151.013 265.136 148.805 264.773 146.89 264.773C146.879 239.152 146.914 213.523 146.865 187.898C146.865 187.23 147.237 186.736 147.237 186.67Z" fill="#91040C"/>
<path d="M182.246 198.542C183.647 193.951 183.777 187.763 184.01 182.983C184.833 182.81 184.576 183.084 184.798 183.416C188.649 189.174 190.536 197.561 191.402 204.297C191.831 204.26 192.348 204.419 192.732 204.216C193.07 204.04 196.713 198.931 197.178 198.177L201.606 189.408C201.62 191.302 201.631 193.055 201.588 194.973C201.089 217.455 201.997 240.001 201.606 262.485C195.288 262.485 188.945 262.482 182.598 262.485L182.246 198.542Z" fill="#91040C"/>
<path d="M182.784 201.492L183.131 265.137C177.241 265.137 171.33 265.137 165.439 265.137L165.786 201.492C166.525 204.095 167.923 207.399 169.193 209.803C169.651 210.672 173.515 216.881 173.942 216.982C174.445 217.104 174.514 216.676 174.753 216.427C177.14 213.948 181.778 204.819 182.784 201.492Z" fill="#EFDBBF"/>
<path d="M172.896 67.2106C184.38 65.7655 185.853 84.4376 174.137 84.805C163.517 85.1377 162.061 68.5725 172.896 67.2106Z" fill="#23140D"/>
<path d="M140.817 77.0096C145.404 76.0559 149.047 79.6571 147.307 84.2603C145.315 89.5313 136.99 87.9786 137.137 81.9226C137.188 79.8086 138.706 77.4503 140.817 77.0096Z" fill="#23140D"/>
<path d="M205.93 76.9525C214.91 75.651 213.959 87.898 206.004 86.4616C200.05 85.3859 200.528 77.7334 205.93 76.9525Z" fill="#23140D"/>
<path d="M173.995 114.379C174.138 114.47 174.799 114.47 174.942 114.379C175.116 114.268 176.391 111.415 176.879 110.735C181.997 103.613 194.066 100.835 202.263 103.465C203.729 103.937 204.598 104.715 204.305 106.334C200.991 106.415 197.936 105.408 194.574 105.647C184.758 106.348 177.551 114.338 176.432 123.76C176.037 127.083 177.032 137.775 175.938 139.771C175.372 140.802 173.534 140.866 173.313 139.138C172.488 132.757 173.957 126.844 172.157 120.066C169.705 110.85 160.67 104.489 150.936 105.651C149.661 105.802 146.207 107.863 145.985 105.476C145.818 103.681 149.944 102.815 151.328 102.674C158.505 101.937 166.814 103.913 171.373 109.732C172.072 110.624 173.77 114.234 173.998 114.379H173.995Z" fill="#91040C"/>
<path d="M149.521 111.472C161.005 109.674 165.449 125.473 155.527 129.734C141.435 135.782 135.586 113.657 149.521 111.472ZM148.357 124.317C151.722 127.11 157.395 122.97 154.717 118.91C151.174 113.544 143.593 120.364 148.357 124.317Z" fill="#EFDBBF"/>
<path d="M196.933 111.433C210.046 109.751 211.845 129.26 199.912 130.677C185.976 132.328 184.44 113.037 196.933 111.433ZM197.972 116.86C192.825 117.138 192.58 124.557 197.212 125.253C204.161 126.3 203.729 116.547 197.972 116.86Z" fill="#EFDBBF"/>
<path d="M161.876 140.696C163.546 140.087 165.113 143.052 166.326 144.117C170.439 147.721 177.749 147.852 182.012 144.453C183.241 143.472 185.219 139.365 187.066 140.802C189.021 142.327 184.557 146.893 183.348 147.732C177.775 151.606 167.89 150.927 162.982 145.941C161.986 144.931 159.815 141.447 161.876 140.692V140.696Z" fill="#91040C"/>
<path d="M148.439 124.5C143.531 120.289 151.339 113.025 154.992 118.741C157.754 123.066 151.91 127.476 148.439 124.5Z" fill="#91040C"/>
<path d="M197.571 116.64C203.001 116.315 203.408 126.481 196.855 125.39C192.487 124.664 192.718 116.931 197.571 116.64Z" fill="#91040C"/>
<path d="M100.469 280.621C101.354 280.842 102.122 281.142 102.773 281.52C103.424 281.897 103.971 282.333 104.414 282.828C104.857 283.323 105.208 283.844 105.469 284.391C105.729 284.924 105.911 285.471 106.016 286.031C106.133 286.591 106.191 287.125 106.191 287.633C106.191 288.362 106.126 289.02 105.996 289.605C105.866 290.178 105.658 290.706 105.371 291.188C105.098 291.656 104.733 292.086 104.277 292.477C103.835 292.854 103.301 293.199 102.676 293.512C103.639 293.876 104.414 294.326 105 294.859C105.586 295.393 106.035 295.973 106.348 296.598C106.66 297.21 106.868 297.848 106.973 298.512C107.077 299.163 107.129 299.794 107.129 300.406C107.129 301.799 106.875 303.03 106.367 304.098C105.859 305.165 105.143 306.064 104.219 306.793C103.294 307.509 102.168 308.056 100.84 308.434C99.5247 308.811 98.0599 309 96.4453 309H83.2812V280.289H97.3633C98.5352 280.289 99.5703 280.4 100.469 280.621ZM98.1055 296.441C97.5326 296.363 96.9531 296.324 96.3672 296.324H89.043V304.039H96.5234C97.1875 304.039 97.7995 303.961 98.3594 303.805C98.9193 303.648 99.401 303.414 99.8047 303.102C100.221 302.776 100.54 302.372 100.762 301.891C100.996 301.396 101.113 300.816 101.113 300.152C101.113 299.319 100.977 298.655 100.703 298.16C100.43 297.652 100.065 297.262 99.6094 296.988C99.1667 296.715 98.6654 296.533 98.1055 296.441ZM99.2383 290.836C99.6029 290.576 99.8958 290.237 100.117 289.82C100.339 289.404 100.449 288.902 100.449 288.316C100.449 287.704 100.345 287.203 100.137 286.812C99.9414 286.409 99.668 286.09 99.3164 285.855C98.9648 285.621 98.5547 285.458 98.0859 285.367C97.6172 285.276 97.1224 285.23 96.6016 285.23H89.043V291.598H96.4453C96.9661 291.598 97.4674 291.539 97.9492 291.422C98.431 291.305 98.8607 291.109 99.2383 290.836ZM115.821 308.805C114.48 308.245 113.334 307.464 112.384 306.461C111.446 305.458 110.723 304.267 110.216 302.887C109.721 301.507 109.473 299.996 109.473 298.355C109.473 296.715 109.721 295.204 110.216 293.824C110.723 292.444 111.446 291.259 112.384 290.27C113.334 289.267 114.48 288.486 115.821 287.926C117.162 287.366 118.673 287.086 120.352 287.086C122.058 287.086 123.582 287.366 124.923 287.926C126.277 288.486 127.416 289.267 128.341 290.27C129.278 291.259 129.994 292.444 130.489 293.824C130.984 295.204 131.231 296.715 131.231 298.355C131.231 299.996 130.984 301.507 130.489 302.887C129.994 304.267 129.278 305.458 128.341 306.461C127.416 307.464 126.277 308.245 124.923 308.805C123.582 309.365 122.058 309.645 120.352 309.645C118.673 309.645 117.162 309.365 115.821 308.805ZM115.509 300.738C115.678 301.533 115.964 302.242 116.368 302.867C116.772 303.479 117.299 303.974 117.95 304.352C118.601 304.729 119.402 304.918 120.352 304.918C121.342 304.918 122.162 304.736 122.813 304.371C123.477 303.993 124.005 303.505 124.395 302.906C124.786 302.294 125.059 301.598 125.216 300.816C125.385 300.022 125.47 299.202 125.47 298.355C125.47 297.522 125.385 296.708 125.216 295.914C125.059 295.12 124.786 294.423 124.395 293.824C124.005 293.212 123.477 292.724 122.813 292.359C122.162 291.982 121.342 291.793 120.352 291.793C119.402 291.793 118.601 291.982 117.95 292.359C117.299 292.737 116.772 293.238 116.368 293.863C115.964 294.475 115.671 295.178 115.489 295.973C115.32 296.754 115.235 297.548 115.235 298.355C115.235 299.163 115.326 299.957 115.509 300.738ZM151.759 309H137.795V314.117H132.599V304.527H134.806C135.327 303.551 135.757 302.529 136.095 301.461C136.447 300.38 136.727 299.293 136.935 298.199C137.143 297.105 137.293 296.038 137.384 294.996C137.476 293.941 137.541 292.952 137.58 292.027C137.619 291.103 137.632 290.27 137.619 289.527C137.619 288.785 137.625 288.18 137.638 287.711H154.279V304.527H156.955V314.117H151.759V309ZM141.213 302.418C140.978 303.173 140.692 303.876 140.353 304.527H148.771V292.203H142.443C142.443 292.594 142.436 293.076 142.423 293.648C142.423 294.221 142.397 294.859 142.345 295.562C142.306 296.253 142.241 296.988 142.15 297.77C142.072 298.551 141.948 299.332 141.779 300.113C141.623 300.895 141.434 301.663 141.213 302.418ZM160.1 300.66C160.308 300.361 160.595 300.1 160.959 299.879C161.324 299.658 161.812 299.456 162.424 299.273C162.229 299.221 162.008 299.15 161.76 299.059C161.526 298.954 161.272 298.824 160.998 298.668C160.738 298.499 160.471 298.29 160.198 298.043C159.937 297.783 159.69 297.464 159.455 297.086C159.286 296.839 159.149 296.578 159.045 296.305C158.954 296.018 158.883 295.745 158.83 295.484C158.778 295.211 158.746 294.957 158.733 294.723C158.72 294.488 158.713 294.286 158.713 294.117C158.713 293.362 158.804 292.691 158.987 292.105C159.169 291.507 159.403 290.986 159.69 290.543C159.976 290.1 160.302 289.723 160.666 289.41C161.031 289.098 161.402 288.844 161.78 288.648C162.196 288.414 162.659 288.238 163.166 288.121C163.674 287.991 164.169 287.9 164.651 287.848C165.133 287.783 165.582 287.743 165.998 287.73C166.415 287.717 166.741 287.711 166.975 287.711H178.42V309H172.873V301.168H169.26C168.466 301.168 167.782 301.201 167.209 301.266C166.649 301.318 166.187 301.454 165.823 301.676C165.458 301.884 165.178 302.197 164.983 302.613C164.801 303.03 164.696 303.596 164.67 304.312L164.592 306.363C164.566 306.663 164.527 307.053 164.475 307.535C164.436 308.017 164.312 308.505 164.104 309H158.264C158.433 308.714 158.57 308.44 158.674 308.18C158.778 307.906 158.857 307.646 158.909 307.398C158.974 307.138 159.019 306.878 159.045 306.617C159.084 306.357 159.117 306.083 159.143 305.797L159.416 303.238C159.482 302.665 159.56 302.171 159.651 301.754C159.742 301.337 159.892 300.973 160.1 300.66ZM164.866 296.129C165.087 296.48 165.373 296.741 165.725 296.91C166.09 297.079 166.493 297.177 166.936 297.203C167.379 297.229 167.821 297.242 168.264 297.242H172.873V291.871H168.42C167.952 291.871 167.483 291.884 167.014 291.91C166.545 291.936 166.122 292.04 165.745 292.223C165.38 292.392 165.08 292.665 164.846 293.043C164.625 293.408 164.514 293.928 164.514 294.605C164.514 295.27 164.631 295.777 164.866 296.129ZM196.527 299.879H188.402V309H182.874V287.711H188.402V295.406H196.527V287.711H202.034V309H196.527V299.879ZM211.605 308.805C210.264 308.245 209.118 307.464 208.168 306.461C207.23 305.458 206.508 304.267 206 302.887C205.505 301.507 205.258 299.996 205.258 298.355C205.258 296.715 205.505 295.204 206 293.824C206.508 292.444 207.23 291.259 208.168 290.27C209.118 289.267 210.264 288.486 211.605 287.926C212.947 287.366 214.457 287.086 216.137 287.086C217.842 287.086 219.366 287.366 220.707 287.926C222.061 288.486 223.201 289.267 224.125 290.27C225.062 291.259 225.779 292.444 226.273 293.824C226.768 295.204 227.016 296.715 227.016 298.355C227.016 299.996 226.768 301.507 226.273 302.887C225.779 304.267 225.062 305.458 224.125 306.461C223.201 307.464 222.061 308.245 220.707 308.805C219.366 309.365 217.842 309.645 216.137 309.645C214.457 309.645 212.947 309.365 211.605 308.805ZM211.293 300.738C211.462 301.533 211.749 302.242 212.152 302.867C212.556 303.479 213.083 303.974 213.734 304.352C214.385 304.729 215.186 304.918 216.137 304.918C217.126 304.918 217.947 304.736 218.598 304.371C219.262 303.993 219.789 303.505 220.18 302.906C220.57 302.294 220.844 301.598 221 300.816C221.169 300.022 221.254 299.202 221.254 298.355C221.254 297.522 221.169 296.708 221 295.914C220.844 295.12 220.57 294.423 220.18 293.824C219.789 293.212 219.262 292.724 218.598 292.359C217.947 291.982 217.126 291.793 216.137 291.793C215.186 291.793 214.385 291.982 213.734 292.359C213.083 292.737 212.556 293.238 212.152 293.863C211.749 294.475 211.456 295.178 211.273 295.973C211.104 296.754 211.02 297.548 211.02 298.355C211.02 299.163 211.111 299.957 211.293 300.738ZM235.747 300.836H235.825L243.579 287.711H249.38V309H243.872V296.168H243.774L236.255 309H230.22V287.711H235.747V300.836ZM237.212 279.82C237.29 280.146 237.427 280.432 237.622 280.68C237.83 280.914 238.104 281.103 238.442 281.246C238.794 281.376 239.243 281.441 239.79 281.441C240.324 281.441 240.766 281.389 241.118 281.285C241.483 281.168 241.769 280.999 241.977 280.777C242.186 280.556 242.329 280.283 242.407 279.957C242.485 279.632 242.518 279.247 242.505 278.805H246.489C246.489 279.833 246.32 280.712 245.981 281.441C245.643 282.171 245.174 282.77 244.575 283.238C243.989 283.694 243.286 284.033 242.466 284.254C241.645 284.462 240.753 284.566 239.79 284.566C238.813 284.566 237.915 284.462 237.095 284.254C236.274 284.033 235.565 283.694 234.966 283.238C234.367 282.77 233.898 282.171 233.559 281.441C233.234 280.712 233.071 279.833 233.071 278.805H237.075C237.088 279.169 237.134 279.508 237.212 279.82Z" fill="black"/>
</svg>
