<svg width="307" height="322" viewBox="0 0 307 322" fill="none" xmlns="http://www.w3.org/2000/svg">
<rect width="307" height="322" fill="#EFDBBF"/>
<path d="M101.465 280.289H121.504V309H115.508V285.23H107.09L107.109 289.566C107.122 292.184 107.064 294.495 106.934 296.5C106.816 298.492 106.621 300.23 106.348 301.715C106.087 303.186 105.749 304.423 105.332 305.426C104.928 306.428 104.447 307.236 103.887 307.848C103.327 308.447 102.689 308.876 101.973 309.137C101.257 309.397 100.469 309.527 99.6094 309.527C98.9062 309.527 98.2812 309.482 97.7344 309.391C97.2005 309.312 96.6667 309.163 96.1328 308.941L96.1133 303.453C96.2956 303.544 96.4844 303.622 96.6797 303.688C96.888 303.74 97.0898 303.785 97.2852 303.824C97.4805 303.85 97.6562 303.87 97.8125 303.883C97.9818 303.896 98.112 303.902 98.2031 303.902C98.5547 303.902 98.8802 303.857 99.1797 303.766C99.4922 303.661 99.7656 303.447 100 303.121C100.247 302.796 100.462 302.327 100.645 301.715C100.827 301.103 100.977 300.289 101.094 299.273C101.224 298.258 101.315 297.001 101.367 295.504C101.432 294.007 101.465 292.216 101.465 290.133V280.289ZM130.333 309.02C129.083 308.59 127.989 307.919 127.052 307.008C126.127 306.083 125.398 304.892 124.864 303.434C124.33 301.975 124.063 300.204 124.063 298.121C124.063 296.676 124.252 295.289 124.63 293.961C125.02 292.62 125.619 291.441 126.427 290.426C127.247 289.41 128.289 288.603 129.552 288.004C130.828 287.392 132.358 287.086 134.141 287.086C136.029 287.086 137.618 287.398 138.907 288.023C140.196 288.635 141.231 289.508 142.013 290.641C142.807 291.773 143.373 293.141 143.712 294.742C144.05 296.344 144.22 298.121 144.22 300.074H129.63C129.63 300.27 129.649 300.53 129.688 300.855C129.727 301.181 129.805 301.533 129.923 301.91C130.04 302.288 130.209 302.672 130.43 303.062C130.652 303.44 130.945 303.785 131.309 304.098C131.687 304.41 132.143 304.664 132.677 304.859C133.223 305.055 133.874 305.152 134.63 305.152C135.02 305.152 135.404 305.1 135.782 304.996C136.173 304.879 136.531 304.716 136.856 304.508C137.182 304.286 137.462 304.026 137.696 303.727C137.943 303.414 138.119 303.062 138.223 302.672H143.946C143.946 303.062 143.861 303.512 143.692 304.02C143.523 304.514 143.263 305.022 142.911 305.543C142.572 306.051 142.143 306.552 141.622 307.047C141.101 307.542 140.483 307.984 139.766 308.375C139.05 308.753 138.236 309.059 137.325 309.293C136.427 309.527 135.424 309.645 134.317 309.645C132.898 309.645 131.57 309.436 130.333 309.02ZM131.309 292.555C130.88 292.932 130.522 293.434 130.235 294.059C129.962 294.684 129.825 295.465 129.825 296.402H138.477C138.477 295.465 138.334 294.684 138.048 294.059C137.774 293.434 137.423 292.939 136.993 292.574C136.576 292.197 136.114 291.936 135.606 291.793C135.098 291.637 134.61 291.559 134.141 291.559C133.686 291.559 133.204 291.637 132.696 291.793C132.188 291.936 131.726 292.19 131.309 292.555ZM175.216 287.711V309H147.13V287.711H152.658V304.527H158.42V287.711H163.927V304.527H169.689V287.711H175.216ZM193.342 309V296.168H193.245L185.725 309H179.69V287.711H185.217V300.836H185.295L193.049 287.711H198.85V309H193.342ZM208.87 300.836H208.948L216.702 287.711H222.503V309H216.995V296.168H216.898L209.378 309H203.343V287.711H208.87V300.836ZM210.335 279.82C210.413 280.146 210.55 280.432 210.745 280.68C210.954 280.914 211.227 281.103 211.566 281.246C211.917 281.376 212.366 281.441 212.913 281.441C213.447 281.441 213.89 281.389 214.241 281.285C214.606 281.168 214.892 280.999 215.101 280.777C215.309 280.556 215.452 280.283 215.53 279.957C215.609 279.632 215.641 279.247 215.628 278.805H219.613C219.613 279.833 219.443 280.712 219.105 281.441C218.766 282.171 218.297 282.77 217.698 283.238C217.113 283.694 216.409 284.033 215.589 284.254C214.769 284.462 213.877 284.566 212.913 284.566C211.937 284.566 211.038 284.462 210.218 284.254C209.398 284.033 208.688 283.694 208.089 283.238C207.49 282.77 207.021 282.171 206.683 281.441C206.357 280.712 206.195 279.833 206.195 278.805H210.198C210.211 279.169 210.257 279.508 210.335 279.82Z" fill="black"/>
<path d="M106.775 119.248C105.822 134.099 104.188 152.726 116.163 163.751C120.009 159.863 124.752 155.404 129.696 152.956C133.556 151.043 138.243 150.626 141.734 148.998C144.321 147.788 146.094 145.374 149.509 144.254C154.669 142.557 160.636 142.94 165.149 146.077C166.422 146.96 167.569 148.935 168.703 149.478C174.705 152.351 180.324 151.363 187.661 156.253C194.295 160.67 195.15 166.52 200.77 156.587C206.514 146.431 206.173 131.866 204.824 120.646C214.094 122.691 224.317 124.089 232.579 129.404C235.152 131.059 237.301 135.392 238.9 138.036C247.009 151.446 254.471 170.088 244.742 184.598L234.734 178.386C233.858 184.966 231.403 191.254 228.469 197.167C224.199 194.336 219.094 191.915 214.261 190.246C213.44 190.42 211.639 198.934 210.916 200.826C209.567 204.352 204.567 213.277 201.34 214.946C200.304 215.482 200.317 215.036 199.601 214.584C198.016 213.59 189.17 206.049 188.488 206.209C182.473 221.297 169.837 233.066 155.086 239.563C141.456 232.217 128.041 221.679 123.444 206.203C122.165 205.277 113.652 213.443 111.997 214.584C109.73 216.149 106.19 210.313 104.939 208.38C101.615 203.232 98.5268 196.339 98.4225 190.197C97.2124 190.086 96.1067 190.211 94.9245 190.531C93.7422 190.851 84.3191 195.644 83.123 196.464C80.2091 190.872 78.1784 184.709 77.5525 178.379C76.7736 177.545 69.9445 184.584 67.58 183.881C57.7257 170.102 65.4033 151.293 72.6914 138.029C73.9571 135.719 74.8612 133.208 76.5789 131.136C81.3287 125.411 99.2362 120.785 106.768 119.248H106.775ZM218.051 160.976C227.043 157.394 232.766 144.101 226.973 135.705C224.783 132.534 221.563 135.949 218.858 137.785L218.058 160.976H218.051ZM93.5058 137.431C84.8754 131.038 81.4887 137.152 82.5179 145.951C83.0325 150.389 88.144 159.585 92.5391 160.969C93.6449 161.317 93.6101 160.99 93.4293 160.072C92.1149 153.422 92.8382 144.143 93.5127 137.431H93.5058ZM170.059 168.634H141.546C145.691 175.166 159.906 174.588 166.158 172.036C166.665 171.827 171.214 169.552 170.059 168.634Z" fill="#830B06"/>
<path d="M82.9415 196.59C84.1392 195.768 93.5324 190.986 94.7579 190.645C95.9835 190.303 97.0419 190.199 98.2604 190.31C98.3648 196.465 101.456 203.371 104.785 208.529C106.038 210.466 109.582 216.314 111.852 214.746C113.51 213.603 122.04 205.413 123.314 206.347C127.916 221.855 141.348 232.414 154.996 239.773C169.765 233.264 182.417 221.464 188.44 206.354C189.115 206.194 197.98 213.749 199.567 214.746C200.284 215.199 200.27 215.645 201.308 215.108C204.539 213.435 209.545 204.493 210.896 200.96C211.62 199.064 213.424 190.533 214.245 190.359C219.085 192.025 224.196 194.457 228.471 197.294C250.788 212.09 258.468 241.133 261.894 266.293H222.204C222.267 263.017 221.55 234.281 219.071 234.247C218.319 234.24 217.748 236.519 217.999 237.341L219.419 266.293H92.6899C93.2191 258.745 93.1077 251.176 93.3584 243.614C93.4141 241.99 95.3011 235.397 93.0311 234.937C91.1371 234.553 90.7263 240.805 90.6149 242.262C89.9812 250.235 90.4756 258.361 89.2153 266.3H49.5254C53.6615 240.226 60.4157 213.958 82.7117 197.74C83.0251 197.51 82.8788 196.646 82.9485 196.604L82.9415 196.59Z" fill="#190C01"/>
<path d="M221.746 100.032C231.034 107.816 238.938 118.121 250.923 122.138C252.677 122.723 260.007 124.115 260.175 124.77C261.104 128.411 248.428 134.719 245.493 135.882C243.466 136.69 241.314 137.107 239.21 137.63C237.603 134.984 235.45 130.646 232.858 128.989C224.556 123.67 214.283 122.277 204.968 120.223C173.562 113.316 138.223 112.369 106.433 118.831C98.8647 120.369 80.8699 125 76.0969 130.73C74.3708 132.805 73.4623 135.318 72.1904 137.63C68.2211 137.128 50.4219 128.989 51.2256 124.763C51.3933 123.872 58.3466 122.862 59.9889 122.333C72.9102 118.19 80.6043 107.739 90.3669 100.032C114.791 80.7316 137.356 79.9309 167.615 81.205C189.782 82.138 204.625 85.682 221.746 100.032Z" fill="#190C01"/>
<path d="M90.5242 100.031C90.0847 89.8838 94.515 78.6868 100.131 70.3326C104.68 63.563 111.818 59.497 111.462 49.989C116.457 53.7283 118.934 59.8585 117.043 65.9747C134.653 59.5804 144.623 38.6878 130.976 23.2442C145.921 19.3521 163.879 28.179 167.647 43.7059C169.342 50.691 166.893 56.4111 168.449 62.3675C170.249 69.2692 179.87 72.5567 186.038 69.7209C194.982 65.6064 192.226 53.6727 191.703 45.8119C211.308 54.9724 222.73 78.9649 221.697 100.024C204.604 85.6997 189.785 82.162 167.654 81.2306C137.444 79.9587 114.915 80.758 90.5312 100.024L90.5242 100.031Z" fill="#830B06"/>
<path d="M205.049 120.773C206.391 131.895 206.739 146.35 200.996 156.424C195.379 166.276 194.524 160.474 187.892 156.092C180.551 151.242 174.934 152.229 168.942 149.372C167.808 148.834 166.661 146.881 165.389 145.998C160.877 142.893 154.913 142.514 149.754 144.19C146.341 145.301 144.568 147.696 141.982 148.896C138.499 150.517 133.807 150.931 129.949 152.822C125.006 155.251 120.265 159.673 116.42 163.53C104.449 152.594 106.083 134.11 107.035 119.386C138.659 112.983 173.815 113.921 205.056 120.766L205.049 120.773ZM139.466 142.617C148.684 133.468 131.506 120.876 126.223 132.571C122.142 141.61 133.049 148.979 139.466 142.617ZM176.345 129.197C168.455 130.978 169.762 145.501 179.647 144.943C190.937 144.308 190.437 126.017 176.345 129.197Z" fill="#EFDBBF"/>
<path d="M218.425 161.024L219.197 137.685C221.808 135.837 224.916 132.4 227.03 135.592C232.622 144.034 227.097 157.419 218.418 161.024H218.425Z" fill="#EFDBBF"/>
<path d="M92.9881 136.974C92.3327 143.792 91.6301 153.217 92.907 159.971C93.0827 160.904 93.1232 161.243 92.0422 160.883C87.7721 159.477 82.8129 150.137 82.3061 145.629C81.3062 136.692 84.6033 130.481 92.9814 136.974H92.9881Z" fill="#EFDBBF"/>
<path d="M170.569 168.545C171.746 169.439 167.108 171.636 166.591 171.831C160.216 174.29 145.722 174.855 141.496 168.545H170.569Z" fill="#EFDBBF"/>
<path d="M139.541 142.703C132.836 149.214 121.44 141.673 125.704 132.433C131.224 120.476 149.172 133.35 139.541 142.703Z" fill="#190C01"/>
<path d="M176.003 128.823C190.416 125.535 190.928 144.476 179.381 145.134C169.27 145.712 167.933 130.659 176.003 128.823Z" fill="#190C01"/>
</svg>
