<svg width="279" height="111" viewBox="0 0 279 111" fill="none" xmlns="http://www.w3.org/2000/svg">
<g clip-path="url(#clip0_2915_46182)">
<path d="M13.7845 0.513672V22.2702H8.19698V0.513672H0V54.8383H8.19698V30.9594H13.7845V54.8383H21.9815V0.513672H13.7845Z" fill="#EFDBBF"/>
<mask id="mask0_2915_46182" style="mask-type:luminance" maskUnits="userSpaceOnUse" x="0" y="0" width="279" height="111">
<path d="M279 0H0V111H279V0Z" fill="white"/>
</mask>
<g mask="url(#mask0_2915_46182)">
<path d="M35.9831 55.4286H34.3853C27.8523 55.4286 24.373 51.8501 24.373 45.1309V34.2527H32.4944V43.7509C32.4944 46.2349 33.2886 47.5483 35.1795 47.5483C37.0703 47.5483 37.8645 46.2349 37.8645 42.8753V41.6381C37.8645 37.7646 37.5052 36.3845 34.5271 32.511L29.3083 25.7918C25.829 21.2616 24.8079 17.7592 24.8079 12.3534V10.6022C24.8079 3.3596 28.4384 0 34.8864 0H36.4085C43.159 0 45.7684 2.99794 45.7684 9.4221V18.3303H37.8645V10.5166C37.8645 8.68927 37.5052 7.29975 35.5387 7.29975C33.5722 7.29975 33.1468 8.54651 33.1468 11.0971V12.1155C33.1468 15.1801 33.7235 16.8646 36.4842 20.4431L41.7125 27.2384C45.4091 32.0542 46.572 34.8332 46.572 40.9719V42.7231C46.572 50.6795 43.159 55.4286 35.9831 55.4286Z" fill="#EFDBBF"/>
</g>
<path d="M48.8887 0.513672V54.8383H67.9677V46.5868H57.0857V30.8928H65.2826V22.6413H57.0857V8.39398H67.5328V0.513672H48.8887Z" fill="#EFDBBF"/>
<path d="M87.0474 16.4266L89.2219 36.508H84.9391L87.0474 16.4266ZM82.3297 0.513672L75.7305 54.8383H83.0576L84.1449 44.6167H90.0917L91.179 54.8383H99.0829L92.0583 0.513672H82.3391H82.3297Z" fill="#EFDBBF"/>
<mask id="mask1_2915_46182" style="mask-type:luminance" maskUnits="userSpaceOnUse" x="0" y="0" width="279" height="111">
<path d="M279 0H0V111H279V0Z" fill="white"/>
</mask>
<g mask="url(#mask1_2915_46182)">
<path d="M108.593 22.8602H110.768C113.018 22.8602 113.746 21.4041 113.746 18.9867V11.3919C113.746 9.05067 113.236 7.88956 110.768 7.88956H108.593V22.8602ZM108.593 54.8478H100.396V0.513672H113.67C119.116 0.513672 121.867 2.85492 121.867 8.90791V18.5489C121.867 23.0791 119.769 24.8303 118.313 25.487C120.128 26.2865 121.867 27.7521 121.867 31.3972V50.4603C121.867 52.6493 122.302 53.6772 122.662 54.4766V54.8383H114.54C114.181 54.2577 113.746 53.306 113.746 50.3842V34.024C113.746 31.6161 113.311 30.5883 110.702 30.5883H108.593V54.8288V54.8478Z" fill="#EFDBBF"/>
</g>
<path d="M123.391 0.513672V8.39398H130.283V54.8383H138.414V8.39398H145.306V0.513672H123.391Z" fill="#EFDBBF"/>
<path d="M164.309 16.4266L166.484 36.508H162.201L164.3 16.4266H164.309ZM159.591 0.513672L152.992 54.8383H160.319L161.407 44.6167H167.353L168.441 54.8383H176.345L169.311 0.513672H159.591Z" fill="#EFDBBF"/>
<path d="M192.095 0.513672V29.6461L185.052 0.513672H177.658V54.8383H185.052V23.5836L192.889 54.8383H199.564V0.513672H192.095Z" fill="#EFDBBF"/>
<mask id="mask2_2915_46182" style="mask-type:luminance" maskUnits="userSpaceOnUse" x="0" y="0" width="279" height="111">
<path d="M279 0H0V111H279V0Z" fill="white"/>
</mask>
<g mask="url(#mask2_2915_46182)">
<path d="M210.804 46.958H212.761C215.229 46.958 215.957 45.6446 215.957 42.7228V12.1247C215.957 8.98405 215.163 7.88956 213.13 7.88956H210.804V46.958ZM202.607 0.513672H215.153C222.188 0.513672 224.372 4.52996 224.372 10.9541V44.0362C224.372 50.6792 221.904 54.8383 215.153 54.8383H202.607V0.513672Z" fill="#EFDBBF"/>
<path d="M8.19698 102.386H10.154C12.6217 102.386 13.3496 101.072 13.3496 98.1505V67.5525C13.3496 64.4118 12.546 63.3173 10.5228 63.3173H8.19698V102.386ZM0 55.9414H12.546C19.5801 55.9414 21.7546 59.9577 21.7546 66.3819V99.4639C21.7546 106.107 19.287 110.266 12.546 110.266H0V55.9414Z" fill="#EFDBBF"/>
</g>
<path d="M24.666 55.9434V110.277H43.745V102.026H32.863V86.3225H41.06V78.071H32.863V63.8332H43.3101V55.9434H24.666Z" fill="#EFDBBF"/>
<mask id="mask3_2915_46182" style="mask-type:luminance" maskUnits="userSpaceOnUse" x="0" y="0" width="279" height="111">
<path d="M279 0H0V111H279V0Z" fill="white"/>
</mask>
<g mask="url(#mask3_2915_46182)">
<path d="M56.8014 110.857H55.2036C48.6706 110.857 45.1914 107.278 45.1914 100.559V89.6807H53.3128V99.1694C53.3128 101.653 54.1069 102.967 55.9978 102.967C57.8887 102.967 58.6829 101.653 58.6829 98.2938V97.0566C58.6829 93.183 58.3236 91.803 55.3455 87.9295L50.1172 81.2103C46.6379 76.6801 45.6169 73.1777 45.6169 67.7719V66.0207C45.6169 58.7876 49.2379 55.4375 55.6953 55.4375H57.2174C63.9679 55.4375 66.5773 58.4354 66.5773 64.8596V73.7678H58.6734V65.9541C58.6734 64.1268 58.3141 62.7372 56.3476 62.7372C54.3811 62.7372 53.9557 63.984 53.9557 66.5346V67.553C53.9557 70.6176 54.5324 72.3021 57.2931 75.8806L62.5119 82.6664C66.2086 87.4822 67.3715 90.2612 67.3715 96.3903V98.1415C67.3715 106.098 63.9584 110.847 56.7825 110.847" fill="#EFDBBF"/>
</g>
<path d="M77.9138 55.9434H69.7168V110.277H77.9138V55.9434Z" fill="#EFDBBF"/>
<mask id="mask4_2915_46182" style="mask-type:luminance" maskUnits="userSpaceOnUse" x="0" y="0" width="279" height="111">
<path d="M279 0H0V111H279V0Z" fill="white"/>
</mask>
<g mask="url(#mask4_2915_46182)">
<path d="M88.578 111.001C83.794 111.001 80.7402 106.689 80.7402 101.065V67.1071C80.7402 61.0446 83.066 55.4199 90.8281 55.4199H92.4259C101.2 55.4199 102.221 61.1874 102.221 67.6116V73.1601H94.2411V67.031C94.2411 64.6231 93.6644 63.3097 91.6317 63.3097C89.8921 63.3097 89.0979 64.6231 89.0979 67.031V98.7997C89.0979 101.36 90.119 102.673 91.783 102.673C93.8913 102.673 94.8273 101.217 94.8273 99.1708V85.5897H91.1306V77.2621H102.589V110.268H97.9473C97.8716 109.973 97.2193 107.27 96.5669 104.938C95.9902 106.766 93.2295 111.001 89.0979 111.001H88.5874H88.578Z" fill="#EFDBBF"/>
</g>
<path d="M119.845 55.9434V85.0853L112.802 55.9434H105.408V110.277H112.802V79.0228L120.639 110.277H127.314V55.9434H119.845Z" fill="#EFDBBF"/>
<mask id="mask5_2915_46182" style="mask-type:luminance" maskUnits="userSpaceOnUse" x="0" y="0" width="279" height="111">
<path d="M279 0H0V111H279V0Z" fill="white"/>
</mask>
<g mask="url(#mask5_2915_46182)">
<path d="M148.708 110.857H147.11C140.577 110.857 137.098 107.278 137.098 100.559V89.6807H145.219V99.1694C145.219 101.653 146.013 102.967 147.904 102.967C149.795 102.967 150.589 101.653 150.589 98.2938V97.0566C150.589 93.183 150.23 91.803 147.252 87.9295L142.023 81.2103C138.544 76.6801 137.523 73.1777 137.523 67.7719V66.0207C137.523 58.7876 141.154 55.4375 147.602 55.4375H149.124C155.865 55.4375 158.484 58.4354 158.484 64.8596V73.7678H150.58V65.9541C150.58 64.1268 150.22 62.7372 148.254 62.7372C146.287 62.7372 145.862 63.984 145.862 66.5346V67.553C145.862 70.6176 146.439 72.3021 149.199 75.8806L154.418 82.6664C158.115 87.4822 159.278 90.2612 159.278 96.3903V98.1415C159.278 106.098 155.874 110.847 148.689 110.847" fill="#EFDBBF"/>
<path d="M175.047 99.2455V86.6161H183.103V99.1789C183.103 105.023 181.212 110.933 173.308 110.933H171.492C163.22 110.933 161.414 104.946 161.414 99.4644V66.3157C161.414 60.7672 163.806 55.4375 171.209 55.4375H173.09C182.081 55.4375 183.103 61.4239 183.103 66.7535V76.4707H175.047V66.9058C175.047 64.5741 174.319 63.3273 172.287 63.3273C170.254 63.3273 169.743 64.498 169.743 66.9058V99.1789C169.743 101.587 170.538 102.9 172.353 102.9C174.31 102.9 175.038 101.444 175.038 99.2455" fill="#EFDBBF"/>
</g>
<path d="M199.488 55.9434V77.7094H193.9V55.9434H185.703V110.277H193.9V86.3986H199.488V110.277H207.685V55.9434H199.488Z" fill="#EFDBBF"/>
<mask id="mask6_2915_46182" style="mask-type:luminance" maskUnits="userSpaceOnUse" x="0" y="0" width="279" height="111">
<path d="M279 0H0V111H279V0Z" fill="white"/>
</mask>
<g mask="url(#mask6_2915_46182)">
<path d="M224.589 67.4769C224.589 64.6312 223.644 63.3178 221.762 63.3178C219.654 63.3178 218.86 64.7073 218.86 67.4769V98.7316C218.86 101.063 219.512 102.891 221.838 102.891C224.013 102.891 224.599 101.063 224.599 98.7316V67.4769H224.589ZM232.928 98.151C232.928 105.746 230.385 110.933 222.481 110.933H221.101C213.263 110.933 210.512 105.746 210.512 98.151V67.9242C210.512 60.4055 213.339 55.4375 221.025 55.4375H222.405C230.385 55.4375 232.919 60.4055 232.919 67.848V98.151H232.928Z" fill="#EFDBBF"/>
<path d="M249.615 67.4769C249.615 64.6312 248.669 63.3178 246.788 63.3178C244.68 63.3178 243.885 64.7073 243.885 67.4769V98.7316C243.885 101.063 244.538 102.891 246.854 102.891C249.029 102.891 249.615 101.063 249.615 98.7316V67.4769ZM257.954 98.151C257.954 105.746 255.41 110.933 247.506 110.933H246.126C238.288 110.933 235.537 105.746 235.537 98.151V67.9242C235.537 60.4055 238.364 55.4375 246.06 55.4375H247.44C255.42 55.4375 257.954 60.4055 257.954 67.848V98.151Z" fill="#EFDBBF"/>
</g>
<path d="M260.791 55.9434V110.277H278.991V101.874H268.988V55.9434H260.791Z" fill="#EFDBBF"/>
</g>
<defs>
<clipPath id="clip0_2915_46182">
<rect width="279" height="111" fill="white"/>
</clipPath>
</defs>
</svg>
