<svg width="307" height="322" viewBox="0 0 307 322" fill="none" xmlns="http://www.w3.org/2000/svg">
<rect width="307" height="322" fill="#EFDBBF"/>
<path d="M104.824 298.004C103.652 298.46 102.324 298.688 100.84 298.688H94.2773V309H88.2812V280.289H101.328C102.852 280.289 104.173 280.497 105.293 280.914C106.426 281.331 107.363 281.936 108.105 282.73C108.848 283.525 109.401 284.488 109.766 285.621C110.13 286.754 110.312 288.043 110.312 289.488C110.312 290.829 110.098 292.066 109.668 293.199C109.238 294.319 108.613 295.289 107.793 296.109C106.986 296.917 105.996 297.548 104.824 298.004ZM94.2773 293.727H99.9609C101.315 293.727 102.376 293.395 103.145 292.73C103.926 292.066 104.316 290.986 104.316 289.488C104.316 288.733 104.212 288.089 104.004 287.555C103.809 287.021 103.522 286.585 103.145 286.246C102.78 285.895 102.324 285.641 101.777 285.484C101.243 285.315 100.638 285.23 99.9609 285.23H94.2773V293.727ZM122.286 303.395L126.641 287.711H132.559L125.235 308.648C124.818 309.872 124.441 310.934 124.102 311.832C123.764 312.743 123.425 313.525 123.087 314.176C122.761 314.84 122.41 315.38 122.032 315.797C121.667 316.227 121.238 316.565 120.743 316.812C120.248 317.06 119.669 317.229 119.005 317.32C118.341 317.424 117.553 317.477 116.641 317.477C116.277 317.477 115.932 317.464 115.606 317.438C115.294 317.424 114.916 317.398 114.473 317.359V312.887C114.695 312.913 114.968 312.939 115.294 312.965C115.619 312.991 115.893 313.004 116.114 313.004C116.7 313.004 117.195 312.893 117.598 312.672C118.002 312.451 118.321 312.184 118.555 311.871C118.803 311.572 118.979 311.259 119.083 310.934C119.187 310.608 119.239 310.335 119.239 310.113L111.446 287.711H117.638L122.208 303.395H122.286ZM143.713 304.918C144.351 304.918 144.904 304.794 145.373 304.547C145.841 304.286 146.232 303.967 146.545 303.59C146.857 303.212 147.085 302.809 147.228 302.379C147.384 301.949 147.463 301.559 147.463 301.207H153.224C153.224 301.559 153.159 302.014 153.029 302.574C152.912 303.134 152.71 303.727 152.423 304.352C152.137 304.977 151.753 305.608 151.271 306.246C150.802 306.871 150.21 307.438 149.494 307.945C148.791 308.44 147.964 308.844 147.013 309.156C146.063 309.482 144.963 309.645 143.713 309.645C142.085 309.645 140.646 309.397 139.396 308.902C138.159 308.408 137.117 307.685 136.271 306.734C135.438 305.771 134.8 304.586 134.357 303.18C133.927 301.773 133.713 300.165 133.713 298.355C133.713 296.546 133.947 294.944 134.416 293.551C134.897 292.145 135.574 290.966 136.447 290.016C137.319 289.052 138.367 288.323 139.591 287.828C140.828 287.333 142.202 287.086 143.713 287.086C144.364 287.086 145.034 287.138 145.724 287.242C146.427 287.346 147.117 287.529 147.795 287.789C148.472 288.036 149.116 288.362 149.728 288.766C150.353 289.169 150.907 289.677 151.388 290.289C151.883 290.888 152.287 291.598 152.599 292.418C152.925 293.225 153.133 294.163 153.224 295.23H147.463C147.358 294.671 147.215 294.182 147.033 293.766C146.851 293.336 146.61 292.978 146.31 292.691C146.024 292.392 145.666 292.171 145.236 292.027C144.819 291.871 144.311 291.793 143.713 291.793C142.788 291.793 142.046 292.008 141.486 292.438C140.939 292.867 140.516 293.408 140.216 294.059C139.917 294.71 139.715 295.419 139.611 296.188C139.52 296.956 139.474 297.678 139.474 298.355C139.474 299.059 139.513 299.801 139.591 300.582C139.67 301.35 139.852 302.06 140.138 302.711C140.425 303.349 140.848 303.876 141.408 304.293C141.968 304.71 142.736 304.918 143.713 304.918ZM166.174 295.719C166.37 295.693 166.578 295.654 166.799 295.602C167.034 295.549 167.248 295.465 167.444 295.348C167.639 295.217 167.802 295.048 167.932 294.84C168.062 294.618 168.127 294.326 168.127 293.961C168.127 293.609 168.069 293.29 167.952 293.004C167.847 292.704 167.665 292.451 167.405 292.242C167.144 292.021 166.793 291.852 166.35 291.734C165.92 291.617 165.38 291.559 164.729 291.559C163.987 291.559 163.388 291.637 162.932 291.793C162.489 291.936 162.138 292.145 161.877 292.418C161.617 292.678 161.428 292.991 161.311 293.355C161.194 293.707 161.109 294.085 161.057 294.488H155.53C155.53 294.228 155.569 293.87 155.647 293.414C155.738 292.945 155.894 292.438 156.116 291.891C156.35 291.344 156.669 290.79 157.073 290.23C157.489 289.671 158.03 289.163 158.694 288.707C159.371 288.238 160.191 287.854 161.155 287.555C162.118 287.255 163.271 287.099 164.612 287.086C166.513 287.086 168.049 287.281 169.221 287.672C170.406 288.049 171.324 288.551 171.975 289.176C172.639 289.788 173.082 290.478 173.303 291.246C173.537 292.001 173.655 292.757 173.655 293.512V304.801C173.655 305.439 173.687 305.966 173.752 306.383C173.83 306.786 173.928 307.112 174.045 307.359C174.162 307.594 174.293 307.77 174.436 307.887C174.592 307.991 174.755 308.069 174.924 308.121V309H168.811C168.707 308.753 168.59 308.427 168.459 308.023C168.342 307.607 168.284 307.105 168.284 306.52C167.854 306.962 167.431 307.372 167.014 307.75C166.61 308.128 166.155 308.46 165.647 308.746C165.139 309.02 164.553 309.234 163.889 309.391C163.225 309.56 162.424 309.645 161.487 309.645C160.536 309.645 159.657 309.501 158.85 309.215C158.056 308.941 157.366 308.531 156.78 307.984C156.194 307.438 155.738 306.754 155.412 305.934C155.087 305.113 154.924 304.163 154.924 303.082C154.924 302.21 155.061 301.402 155.334 300.66C155.608 299.905 155.992 299.247 156.487 298.688C156.995 298.115 157.607 297.646 158.323 297.281C159.052 296.904 159.866 296.65 160.764 296.52L166.174 295.719ZM162.151 305.562C162.489 305.667 162.854 305.719 163.245 305.719C163.453 305.719 163.72 305.699 164.045 305.66C164.371 305.608 164.716 305.517 165.08 305.387C165.445 305.257 165.81 305.081 166.174 304.859C166.539 304.625 166.864 304.326 167.151 303.961C167.437 303.596 167.672 303.154 167.854 302.633C168.036 302.099 168.127 301.474 168.127 300.758V298.609C167.789 298.792 167.45 298.961 167.112 299.117C166.773 299.26 166.324 299.384 165.764 299.488L164.299 299.762C163.661 299.879 163.101 300.016 162.62 300.172C162.138 300.328 161.734 300.536 161.409 300.797C161.096 301.044 160.855 301.35 160.686 301.715C160.53 302.079 160.452 302.535 160.452 303.082C160.452 303.538 160.523 303.935 160.666 304.273C160.81 304.599 161.005 304.872 161.252 305.094C161.513 305.302 161.812 305.458 162.151 305.562ZM186.175 292.203L186.058 296.168C185.993 298.395 185.849 300.348 185.628 302.027C185.407 303.707 185.042 305.113 184.534 306.246C184.04 307.366 183.363 308.212 182.503 308.785C181.657 309.358 180.57 309.645 179.241 309.645C178.616 309.645 178.07 309.605 177.601 309.527C177.132 309.462 176.748 309.365 176.448 309.234V304.605C176.631 304.684 176.859 304.755 177.132 304.82C177.418 304.885 177.764 304.918 178.167 304.918C178.584 304.918 178.955 304.794 179.28 304.547C179.606 304.286 179.886 303.824 180.12 303.16C180.355 302.483 180.537 301.552 180.667 300.367C180.797 299.182 180.882 297.652 180.921 295.777L181.077 287.711H198.206V309H192.698V292.203H186.175ZM224.574 309H217.367L211.117 300.016L208.891 302.262V309H203.363V287.711H208.891V295.797L216.859 287.711H224.203L215.414 296.559L224.574 309ZM236.587 295.719C236.782 295.693 236.99 295.654 237.212 295.602C237.446 295.549 237.661 295.465 237.856 295.348C238.052 295.217 238.214 295.048 238.345 294.84C238.475 294.618 238.54 294.326 238.54 293.961C238.54 293.609 238.481 293.29 238.364 293.004C238.26 292.704 238.078 292.451 237.817 292.242C237.557 292.021 237.205 291.852 236.762 291.734C236.333 291.617 235.792 291.559 235.141 291.559C234.399 291.559 233.8 291.637 233.345 291.793C232.902 291.936 232.55 292.145 232.29 292.418C232.029 292.678 231.841 292.991 231.723 293.355C231.606 293.707 231.522 294.085 231.47 294.488H225.942C225.942 294.228 225.981 293.87 226.059 293.414C226.151 292.945 226.307 292.438 226.528 291.891C226.762 291.344 227.082 290.79 227.485 290.23C227.902 289.671 228.442 289.163 229.106 288.707C229.783 288.238 230.604 287.854 231.567 287.555C232.531 287.255 233.683 287.099 235.024 287.086C236.925 287.086 238.462 287.281 239.634 287.672C240.818 288.049 241.736 288.551 242.387 289.176C243.052 289.788 243.494 290.478 243.716 291.246C243.95 292.001 244.067 292.757 244.067 293.512V304.801C244.067 305.439 244.1 305.966 244.165 306.383C244.243 306.786 244.341 307.112 244.458 307.359C244.575 307.594 244.705 307.77 244.848 307.887C245.005 307.991 245.167 308.069 245.337 308.121V309H239.223C239.119 308.753 239.002 308.427 238.872 308.023C238.755 307.607 238.696 307.105 238.696 306.52C238.266 306.962 237.843 307.372 237.427 307.75C237.023 308.128 236.567 308.46 236.059 308.746C235.552 309.02 234.966 309.234 234.302 309.391C233.637 309.56 232.837 309.645 231.899 309.645C230.949 309.645 230.07 309.501 229.262 309.215C228.468 308.941 227.778 308.531 227.192 307.984C226.606 307.438 226.151 306.754 225.825 305.934C225.499 305.113 225.337 304.163 225.337 303.082C225.337 302.21 225.473 301.402 225.747 300.66C226.02 299.905 226.404 299.247 226.899 298.688C227.407 298.115 228.019 297.646 228.735 297.281C229.464 296.904 230.278 296.65 231.177 296.52L236.587 295.719ZM232.563 305.562C232.902 305.667 233.266 305.719 233.657 305.719C233.865 305.719 234.132 305.699 234.458 305.66C234.783 305.608 235.128 305.517 235.493 305.387C235.858 305.257 236.222 305.081 236.587 304.859C236.951 304.625 237.277 304.326 237.563 303.961C237.85 303.596 238.084 303.154 238.266 302.633C238.449 302.099 238.54 301.474 238.54 300.758V298.609C238.201 298.792 237.863 298.961 237.524 299.117C237.186 299.26 236.736 299.384 236.177 299.488L234.712 299.762C234.074 299.879 233.514 300.016 233.032 300.172C232.55 300.328 232.147 300.536 231.821 300.797C231.509 301.044 231.268 301.35 231.098 301.715C230.942 302.079 230.864 302.535 230.864 303.082C230.864 303.538 230.936 303.935 231.079 304.273C231.222 304.599 231.417 304.872 231.665 305.094C231.925 305.302 232.225 305.458 232.563 305.562Z" fill="black"/>
<path d="M60.8657 257.46C45.2511 253.053 54.7863 166.685 60.8669 151.242C65.189 140.256 78.0846 134.002 77.223 121.063C77.0182 117.988 75.6834 115.245 75.7752 111.882C76.1495 98.6674 85.7259 94.0558 93.1342 85.4531C103.346 73.5857 105.493 61.1188 111.715 47.5943C121.849 25.5587 145.79 17.6471 168.488 25.0016C198.7 34.796 193.559 64.4894 211.052 84.0428C216.575 90.2199 223.609 93.534 226.857 102.108C230.6 111.973 225.635 118.235 227.267 127.084C228.898 135.934 238.948 141.399 242.613 149.134C249.04 162.708 251.385 258.42 236.936 264.089C235.171 264.78 208.706 267.825 207.745 265.857C202.88 227.847 171.036 224.311 194.477 150.501C188.975 148.054 173.537 137.408 170.437 133.762C168.763 131.795 164.767 128.078 166.172 125.751C163.312 126.202 163.898 127.79 161.023 128.565C152.669 130.836 146.916 129.619 139.635 124.867C140.715 137.207 122.247 145.438 113.539 149.175C134.769 239.781 102.04 226.963 97.6168 266.741L60.8657 257.46ZM153.502 45.2462C149.342 51.6277 145.345 55.8937 138.693 59.7156C127.704 66.0195 117.894 64.856 116.764 80.8274C113.946 120.548 161.581 148.21 182.853 105.211C187.033 96.7635 192.295 76.0607 184.886 68.5651C181.334 64.9689 168.982 61.3445 163.46 57.5226C159.109 54.5046 154.914 50.5699 153.502 45.2462Z" fill="#830B06"/>
<path d="M112.627 200.821C111.251 196.811 109.374 188.517 109.14 184.254C107.368 151.904 143.893 148.789 152.569 175.453C161.467 149.67 198.127 151.96 196.581 183.55C196.313 188.997 194.185 196.395 192.511 201.525C191.479 204.703 189.001 207.909 188.546 211.933C187.829 218.246 197.077 229.422 199.619 235.574C200.955 238.808 201.946 240.767 200.092 244.163C195.987 251.675 186.255 250.421 182.692 242.634C181.905 240.915 180.587 232.346 179.129 237.85C177.8 242.881 176.855 248.737 171.153 249.209C163.462 249.85 161.66 239.019 162.185 231.818H160.441C161.444 239.928 157.356 254.508 148.808 247.644C144.732 244.368 145.228 238.012 144.692 232.875C144.558 231.6 144.919 231.719 143.531 231.825C143.327 239.689 142.517 250.075 133.957 248.666C128.662 247.792 127.706 241.81 127.205 236.483C127.135 235.75 126.091 235.898 125.741 236.039C125.193 236.257 124.726 239.851 124.388 240.76C121.275 249.159 114.68 251.999 108.102 246.785C102.674 242.479 104.767 238.343 107.269 232.755C109.548 227.654 116.639 218.993 117.17 214.364C117.607 210.559 114.907 205.506 113.688 201.962C113.467 201.321 112.668 200.947 112.621 200.814L112.627 200.821Z" fill="#23140D"/>
<path d="M91.8283 186.316C96.5397 161.813 101.006 152.98 120.417 142.847C127.606 139.092 140.533 137.168 139.647 124.793C145.665 129.559 152.953 130.712 159.845 128.435C162.218 127.65 164.102 125.953 166.463 125.507C165.297 127.848 166.236 131.681 167.618 133.647C170.178 137.303 183.623 141.631 188.16 144.091C205.151 153.277 209.524 163.652 213.693 184.902C215.909 196.202 216.929 207.941 219.559 219.157L231.186 266.225H216.609C208.684 244.714 198.171 224.694 192.702 201.874C194.376 196.718 196.504 189.3 196.772 183.834C198.311 152.132 161.659 149.834 152.761 175.709C144.09 148.95 107.566 152.075 109.333 184.541C109.566 188.827 111.443 197.143 112.819 201.167C107.455 224.326 97.0003 244.982 88.0383 266.225H75.502C78.2541 250.088 83.2045 234.205 86.4115 218.287C88.5281 207.757 89.7992 196.881 91.8283 186.316Z" fill="#EFDBBF"/>
<path d="M97.6172 266.225C98.3035 257.808 101.078 250.019 103.489 242.203L106.393 248.938C113.356 255.9 123.715 253.164 126.068 242.188C128.438 254.02 140.475 257.963 143.965 244.648C144.241 243.595 143.279 242.528 145.127 242.895C145.678 257.603 161.323 255.419 161.845 241.475C161.986 253.391 175.044 257.327 179.478 246.471C180.088 244.973 180.212 242.358 180.329 242.181C181.262 240.789 182.095 245.072 182.411 245.68C187.702 255.786 198.097 254.917 202.567 244.606C202.878 243.885 202.256 243.263 203.787 243.602C205.876 251.002 208.703 258.239 209.073 266.218H97.6172V266.225Z" fill="#23140D"/>
<path d="M153.392 45.5254C154.806 50.8444 159.006 54.7756 163.361 57.7909C168.89 61.6093 181.249 65.2305 184.812 68.8235C192.229 76.3124 186.962 96.9968 182.776 105.437C161.48 148.391 113.791 120.76 116.612 81.0749C117.743 65.1178 127.571 66.2802 138.565 59.9819C145.226 56.1635 149.227 51.9082 153.392 45.5254ZM134.832 75.9672C126.369 77.5946 129.275 89.9235 136.713 89.1979C145.643 88.3173 144.398 74.1285 134.832 75.9672ZM166.628 75.9672C158.737 77.7355 162.032 90.5506 169.83 89.0711C178.272 87.4719 176.583 73.7339 166.628 75.9672ZM147.75 99.7796C147.319 104 156.885 103.07 156.92 100.829C156.948 99.1033 149.178 99.9487 147.75 99.7796Z" fill="#EFDBBF"/>
<path d="M166.527 75.3703C176.223 73.1152 177.869 86.9869 169.646 88.6017C162.051 90.0955 158.841 77.1558 166.527 75.3703Z" fill="#190C01"/>
<path d="M134.662 76.0784C144.609 74.3256 145.911 87.851 136.619 88.6905C128.88 89.3889 125.857 77.6298 134.662 76.0784Z" fill="#190C01"/>
<path d="M147.725 99.1822C149.094 99.3623 156.55 98.4694 156.516 100.3C156.482 102.686 147.311 103.669 147.725 99.1822Z" fill="#190C01"/>
</svg>
