<svg width="307" height="322" viewBox="0 0 307 322" fill="none" xmlns="http://www.w3.org/2000/svg">
<rect width="307" height="322" fill="#EFDBBF"/>
<path d="M98.8867 309H91.2891L82.4023 296.285L79.4727 299.273V309H73.4766V280.289H79.4727V291.969L90.4492 280.289H98.2031L86.4844 292.047L98.8867 309ZM114.395 309V296.168H114.298L106.778 309H100.743V287.711H106.27V300.836H106.348L114.102 287.711H119.903V309H114.395ZM145.763 309H138.556L132.306 300.016L130.08 302.262V309H124.552V287.711H130.08V295.797L138.048 287.711H145.392L136.603 296.559L145.763 309ZM161.702 309V296.168H161.604L154.084 309H148.049V287.711H153.577V300.836H153.655L161.409 287.711H167.209V309H161.702ZM187.23 287.711H195.296V309H190.101V291.871H190.023L186.019 309H180.98L176.995 291.871H176.898V309H171.702V287.711H180.023L183.616 303.16H183.714L187.23 287.711ZM204.887 308.805C203.546 308.245 202.4 307.464 201.449 306.461C200.512 305.458 199.789 304.267 199.281 302.887C198.786 301.507 198.539 299.996 198.539 298.355C198.539 296.715 198.786 295.204 199.281 293.824C199.789 292.444 200.512 291.259 201.449 290.27C202.4 289.267 203.546 288.486 204.887 287.926C206.228 287.366 207.738 287.086 209.418 287.086C211.124 287.086 212.647 287.366 213.988 287.926C215.342 288.486 216.482 289.267 217.406 290.27C218.344 291.259 219.06 292.444 219.555 293.824C220.049 295.204 220.297 296.715 220.297 298.355C220.297 299.996 220.049 301.507 219.555 302.887C219.06 304.267 218.344 305.458 217.406 306.461C216.482 307.464 215.342 308.245 213.988 308.805C212.647 309.365 211.124 309.645 209.418 309.645C207.738 309.645 206.228 309.365 204.887 308.805ZM204.574 300.738C204.743 301.533 205.03 302.242 205.434 302.867C205.837 303.479 206.365 303.974 207.016 304.352C207.667 304.729 208.467 304.918 209.418 304.918C210.408 304.918 211.228 304.736 211.879 304.371C212.543 303.993 213.07 303.505 213.461 302.906C213.852 302.294 214.125 301.598 214.281 300.816C214.451 300.022 214.535 299.202 214.535 298.355C214.535 297.522 214.451 296.708 214.281 295.914C214.125 295.12 213.852 294.423 213.461 293.824C213.07 293.212 212.543 292.724 211.879 292.359C211.228 291.982 210.408 291.793 209.418 291.793C208.467 291.793 207.667 291.982 207.016 292.359C206.365 292.737 205.837 293.238 205.434 293.863C205.03 294.475 204.737 295.178 204.555 295.973C204.385 296.754 204.301 297.548 204.301 298.355C204.301 299.163 204.392 299.957 204.574 300.738ZM231.274 287.965C231.782 287.665 232.342 287.444 232.954 287.301C233.579 287.158 234.282 287.086 235.063 287.086C235.714 287.086 236.385 287.164 237.075 287.32C237.765 287.477 238.436 287.73 239.087 288.082C239.751 288.421 240.376 288.87 240.962 289.43C241.548 289.977 242.062 290.654 242.505 291.461C242.947 292.268 243.299 293.212 243.559 294.293C243.82 295.361 243.95 296.585 243.95 297.965C243.95 299.684 243.761 301.259 243.384 302.691C243.019 304.124 242.459 305.354 241.704 306.383C240.962 307.411 240.018 308.212 238.872 308.785C237.739 309.358 236.404 309.645 234.868 309.645C234.334 309.645 233.794 309.592 233.247 309.488C232.7 309.384 232.166 309.208 231.645 308.961C231.124 308.714 230.63 308.382 230.161 307.965C229.705 307.535 229.302 307.001 228.95 306.363H228.872V317.242H223.345V287.711H228.618V290.758H228.696C229.074 290.12 229.471 289.573 229.887 289.117C230.304 288.648 230.766 288.264 231.274 287.965ZM230.395 303.746C230.747 304.098 231.17 304.384 231.665 304.605C232.16 304.814 232.746 304.918 233.423 304.918C234.1 304.918 234.686 304.814 235.18 304.605C235.675 304.384 236.098 304.098 236.45 303.746C236.802 303.395 237.088 302.991 237.309 302.535C237.544 302.079 237.726 301.611 237.856 301.129C237.986 300.634 238.071 300.152 238.11 299.684C238.162 299.202 238.188 298.759 238.188 298.355C238.188 297.613 238.104 296.865 237.934 296.109C237.765 295.354 237.492 294.677 237.114 294.078C236.749 293.479 236.261 292.991 235.649 292.613C235.037 292.236 234.295 292.047 233.423 292.047C232.537 292.047 231.789 292.236 231.177 292.613C230.578 292.991 230.089 293.479 229.712 294.078C229.347 294.677 229.08 295.354 228.911 296.109C228.742 296.865 228.657 297.613 228.657 298.355C228.657 298.759 228.677 299.202 228.716 299.684C228.768 300.152 228.859 300.634 228.989 301.129C229.119 301.611 229.295 302.079 229.516 302.535C229.751 302.991 230.044 303.395 230.395 303.746ZM256.88 295.719C257.076 295.693 257.284 295.654 257.505 295.602C257.74 295.549 257.955 295.465 258.15 295.348C258.345 295.217 258.508 295.048 258.638 294.84C258.768 294.618 258.834 294.326 258.834 293.961C258.834 293.609 258.775 293.29 258.658 293.004C258.554 292.704 258.371 292.451 258.111 292.242C257.851 292.021 257.499 291.852 257.056 291.734C256.627 291.617 256.086 291.559 255.435 291.559C254.693 291.559 254.094 291.637 253.638 291.793C253.196 291.936 252.844 292.145 252.584 292.418C252.323 292.678 252.134 292.991 252.017 293.355C251.9 293.707 251.815 294.085 251.763 294.488H246.236C246.236 294.228 246.275 293.87 246.353 293.414C246.444 292.945 246.601 292.438 246.822 291.891C247.056 291.344 247.375 290.79 247.779 290.23C248.196 289.671 248.736 289.163 249.4 288.707C250.077 288.238 250.897 287.854 251.861 287.555C252.824 287.255 253.977 287.099 255.318 287.086C257.219 287.086 258.755 287.281 259.927 287.672C261.112 288.049 262.03 288.551 262.681 289.176C263.345 289.788 263.788 290.478 264.009 291.246C264.244 292.001 264.361 292.757 264.361 293.512V304.801C264.361 305.439 264.393 305.966 264.459 306.383C264.537 306.786 264.634 307.112 264.752 307.359C264.869 307.594 264.999 307.77 265.142 307.887C265.298 307.991 265.461 308.069 265.63 308.121V309H259.517C259.413 308.753 259.296 308.427 259.166 308.023C259.048 307.607 258.99 307.105 258.99 306.52C258.56 306.962 258.137 307.372 257.72 307.75C257.317 308.128 256.861 308.46 256.353 308.746C255.845 309.02 255.259 309.234 254.595 309.391C253.931 309.56 253.13 309.645 252.193 309.645C251.242 309.645 250.364 309.501 249.556 309.215C248.762 308.941 248.072 308.531 247.486 307.984C246.9 307.438 246.444 306.754 246.119 305.934C245.793 305.113 245.63 304.163 245.63 303.082C245.63 302.21 245.767 301.402 246.041 300.66C246.314 299.905 246.698 299.247 247.193 298.688C247.701 298.115 248.313 297.646 249.029 297.281C249.758 296.904 250.572 296.65 251.47 296.52L256.88 295.719ZM252.857 305.562C253.196 305.667 253.56 305.719 253.951 305.719C254.159 305.719 254.426 305.699 254.752 305.66C255.077 305.608 255.422 305.517 255.787 305.387C256.151 305.257 256.516 305.081 256.88 304.859C257.245 304.625 257.571 304.326 257.857 303.961C258.143 303.596 258.378 303.154 258.56 302.633C258.742 302.099 258.834 301.474 258.834 300.758V298.609C258.495 298.792 258.157 298.961 257.818 299.117C257.479 299.26 257.03 299.384 256.47 299.488L255.005 299.762C254.367 299.879 253.808 300.016 253.326 300.172C252.844 300.328 252.44 300.536 252.115 300.797C251.802 301.044 251.561 301.35 251.392 301.715C251.236 302.079 251.158 302.535 251.158 303.082C251.158 303.538 251.229 303.935 251.373 304.273C251.516 304.599 251.711 304.872 251.959 305.094C252.219 305.302 252.518 305.458 252.857 305.562Z" fill="black"/>
<path d="M64.148 198.425C64.28 198.155 64.1378 197.412 64.3916 196.908C71.1637 183.676 81.6975 172.8 93.5919 164.052C90.2312 159.767 85.6725 156.372 82.1646 152.117C73.7325 141.903 66.9959 128.137 66.1583 114.726C61.5031 40.0005 149.215 3.55619 206.961 43.2933C243.669 68.5565 254.02 116.747 225.556 152.723C222.267 156.881 218.307 160.479 214.926 164.561C218.535 167.37 222.424 169.925 225.825 172.989C233.298 179.722 239.222 188.363 243.355 197.402L230.156 205.29L249.446 217.25C250.01 219.891 251.106 222.461 251.477 225.393L230.663 237.602C236.811 239.475 242.593 242.712 246.893 247.547C248.974 249.888 250.325 253.14 253 254.911V260H153.5H54C56.5941 248.183 67.2548 242.116 77.347 237.353L55.5819 224.337C55.922 222.423 56.1118 221.169 56.5332 219.286L76.8342 204.267C72.3872 202.751 68.1584 200.873 64.148 198.42V198.425Z" fill="#91040C"/>
<path d="M251.5 225C251.835 227.736 251.88 231.259 252 234.078C252.04 235.071 252.214 237.258 252.214 238.548L253 255C250.365 253.2 249.035 249.895 246.985 247.516C242.75 242.602 237.06 239.307 231 237.409L251.5 225Z" fill="#EFDBBF"/>
<path d="M55.5646 224C54.9388 226.571 55.1152 230.397 54.9957 233.206C54.9558 234.195 54.7823 236.375 54.7823 237.661L54 260C56.034 254.054 58.2174 250.799 60.2585 248.429C64.4752 243.532 71.0544 240.393 77 237.179L55.5646 224Z" fill="#EFDBBF"/>
<path d="M191.161 77.0336C246.34 121.547 167.481 191.144 118.88 150.958C62.3768 104.236 138.992 34.9465 191.161 77.0336Z" fill="#23140D"/>
<path d="M204.047 76.8745C224.962 98.3062 224.911 126.319 206.249 149.165C205.214 150.428 199.507 156.873 198.599 157.283C197.504 157.778 195.7 156.712 194.681 156.111C194.38 155.934 193.677 156.101 194.033 155.252C194.456 154.237 200.322 149.191 201.657 147.655C227.454 118.076 214.545 81.2387 180.447 66.1663C129.14 43.487 66.1721 96.1898 105.142 146.362C107.4 149.267 111.976 152.833 113.53 155.222C113.836 155.691 114.325 156.56 114.009 157.005C113.907 157.146 110.926 158.015 110.676 158C107.899 157.868 96.8048 142.776 95.0721 139.675C69.5406 93.9825 117.943 50.5231 163.635 56.5642C178.042 58.4684 193.972 66.5704 204.037 76.8796L204.047 76.8745Z" fill="#EFDBBF"/>
<path d="M129 203.274L104.465 221L80 204.029C88.1246 201.025 94.6121 197.61 99.599 190.255C100.428 189.029 103.075 182.995 103.489 183C104.313 183 104.257 183.365 104.667 183.846C106.804 186.394 108.355 190.052 110.826 192.869C115.454 198.147 121.921 202.337 129 203.274Z" fill="#EFDBBF"/>
<path d="M205.49 185.109C205.714 185.27 207.087 189.111 207.827 190.134C213.046 197.4 221.592 200.016 228.117 204.925C228.556 205.254 229.128 205.391 228.975 206.099L205.745 220L181 205.092C187.357 202.769 193.311 200.158 197.827 194.956C200.092 192.345 201.964 188.003 203.959 185.857C204.306 185.483 204.969 184.724 205.485 185.103L205.49 185.109Z" fill="#EFDBBF"/>
<path d="M177.99 203.997L177.146 205.406L155.228 218.735L154.035 219C147.527 215.232 140.747 211.543 134.683 207.105C133.769 206.441 131.02 204.806 131 203.752C138.392 202.203 143.066 198.954 147.588 193.162C148.669 191.772 153.459 183.756 154.495 184.006C155.116 184.156 158.244 190.263 159.098 191.457C163.458 197.565 170.3 203.047 178 203.997H177.99Z" fill="#EFDBBF"/>
<path d="M178 238.499C169.249 240.253 161.927 246.675 156.857 253.542L153.752 259C151.051 251.628 144.975 245.236 138.006 241.418C136.5 240.593 129.995 238.674 130 238.249C130.026 236.47 133.686 235.845 134.963 235.11C141.258 231.482 147.212 227.189 153.793 224L178 238.499Z" fill="#EFDBBF"/>
<path d="M229 238.002C218.177 240.99 208.87 248.741 204.495 259C200.291 249.286 191.949 240.221 181 238.502L205.975 224L229 238.002Z" fill="#EFDBBF"/>
<path d="M128.995 237.466L120.677 241.565C113.303 245.765 108.74 251.748 104.76 259C101.152 251.849 96.4927 246.07 89.3533 242.066C88.3633 241.51 79.596 238.007 80.0145 237.466C88.7461 234.098 96.5794 229.072 104.341 224C112.129 229.177 120.217 234.053 129 237.466H128.995Z" fill="#EFDBBF"/>
<path d="M250 217L230 204.949L243.684 197C247.189 204.456 248.284 209.144 250 217Z" fill="#EFDBBF"/>
<path d="M64.5019 198C68.4529 200.474 72.6239 202.359 77 203.885L57 219C58.9455 210.113 60.6459 206.011 64.5019 198Z" fill="#EFDBBF"/>
<path d="M165 123L153.988 154L144 123H165Z" fill="#91040C"/>
<path d="M126.69 101.167C140.053 98.9465 140.673 119.604 127.105 117.9C117.55 116.698 117.852 102.635 126.69 101.167ZM128.144 105.956C124.043 106.594 124.79 112.609 128.525 112.609C133.032 112.609 132.363 105.305 128.144 105.956Z" fill="#EFDBBF"/>
<path d="M178.488 101.073C190.19 99.7319 191.621 117.349 179.834 117.985C169.237 118.558 167.436 102.341 178.488 101.073ZM178.463 106.403C174.405 107.277 176.307 113.817 180.744 112.519C184.261 111.494 183.296 105.358 178.463 106.403Z" fill="#EFDBBF"/>
<path d="M156.758 74.7819C157.585 73.9177 162.994 68.2242 163.884 69.1803C164.229 69.5531 163.727 71.0439 163.392 71.6381C162.894 72.5078 155.323 80 154.726 80C152.291 78.077 149.061 75.1709 147.15 72.6699C146.134 71.341 144.731 69.9582 145.045 68.0946C145.987 66.9818 153.768 76.0405 154.794 76.6995C155.805 76.8724 156.182 75.3761 156.763 74.7765L156.758 74.7819Z" fill="#EFDBBF"/>
<path d="M189.868 84.1448C190.31 84.5716 189.534 85.7116 189.123 86.1836C186.962 88.6845 174.833 97.8142 171.594 99.9083C169.042 101.555 166.532 101.42 169.032 98.9441C172.797 95.2179 180.676 89.5483 185.238 86.4498C185.998 85.9325 189.081 83.3814 189.868 84.1397V84.1448Z" fill="#EFDBBF"/>
<path d="M148.163 86.1575C149.121 87.0241 152.57 89.9596 152.858 90.7811C153.527 92.7197 151.678 91.9483 150.427 91.1768C147.272 89.2282 135.997 79.7506 133.916 76.9504C131.287 73.4088 134.984 75.5428 136.671 76.73C140.232 79.2396 144.907 83.202 148.163 86.1525V86.1575Z" fill="#EFDBBF"/>
<path d="M174.889 75.109C175.22 75.463 174.738 76.8789 174.417 77.4432C173.925 78.2999 166.956 84.215 165.602 85.3538C164.352 86.4055 160.193 90.2275 159.19 90.643C156.535 91.7357 156.35 90.1505 158.332 88.1805C161.252 85.282 165.406 81.8448 168.637 79.2233C169.525 78.5 174.116 74.2728 174.894 75.109H174.889Z" fill="#EFDBBF"/>
<path d="M139.898 100.883C139.332 101.453 137.124 99.7785 136.604 99.3872C132.897 96.6086 127.462 91.9478 124.092 88.7581C122.006 86.7819 120.671 83.4981 124.107 85.7715C127.044 87.7081 131.612 91.7497 134.299 94.1965C135.212 95.0286 140.821 99.9617 139.898 100.888V100.883Z" fill="#EFDBBF"/>
<path d="M128.101 106.044C132.832 105.357 133.589 113 128.529 113C124.34 113 123.496 106.71 128.101 106.044Z" fill="#030102"/>
<path d="M178.36 106.13C183.468 104.989 184.489 111.695 180.771 112.816C176.08 114.228 174.07 107.086 178.36 106.13Z" fill="#030102"/>
</svg>
