<svg width="552" height="279" viewBox="0 0 552 279" fill="none" xmlns="http://www.w3.org/2000/svg">
<path d="M104.507 138.385C98.0762 140.669 92.9312 145.358 86.6607 148.032C50.7933 163.348 16.6676 147.924 0 114.215C41.8164 108.814 58.8859 36.9072 104.588 44.9416C115.842 46.9166 121.992 55.045 131.277 59.8011C127.271 42.8591 124.605 0.00112954 124.605 0.00112954L427.395 1.34355C427.395 1.34355 423.804 49.4962 423.389 67.1772L430.758 57.7858C486.495 19.3605 503.337 106.677 552 108.827V118.232C536.82 147.602 505.213 161.051 473.271 152.17C464.723 149.792 453.133 142.617 446.153 137.041C436.787 129.558 422.036 103.816 422.036 92.0327V69.8643H133.97C134.051 89.1979 128.691 106.973 117.678 122.706C114.047 127.892 107.482 133.494 104.507 138.385Z" fill="#91040C"/>
<path d="M104.786 137.241C107.754 132.387 114.306 126.826 117.929 121.678C128.919 106.063 134.266 88.4198 134.186 69.2168H421.634V91.2336C421.634 102.929 436.354 128.479 445.7 135.907C461.917 165.458 475.18 196.09 461.556 229.735C446.422 267.114 409.642 271.022 374.841 278.596H174.295C148.224 271.888 123.918 269.595 104.238 249.125C76.1217 219.854 85.427 168.912 104.773 137.241H104.786Z" fill="#EFDBBF"/>
<path d="M141.708 205.244C111.311 172.85 155.506 128.581 187.651 155.294C222.745 184.468 174.294 239.95 141.708 205.244Z" fill="#91040C"/>
<path d="M268.376 149.462C316.876 141.419 323.693 210.892 278.622 214.436C235.648 217.823 228.911 156.001 268.376 149.462Z" fill="#91040C"/>
<path d="M376.208 149.259C405.711 144.901 427.623 173.404 411.651 198.997C392.689 229.401 344.17 211.993 350.031 175.145C351.922 163.225 364.246 151.026 376.208 149.259Z" fill="#91040C"/>
</svg>
