<svg width="307" height="322" viewBox="0 0 307 322" fill="none" xmlns="http://www.w3.org/2000/svg">
<rect width="307" height="322" fill="#EFDBBF"/>
<path d="M95.0664 291.637C95.7435 291.663 96.4596 291.76 97.2148 291.93C97.9831 292.086 98.7513 292.34 99.5195 292.691C100.301 293.043 101.004 293.544 101.629 294.195C102.254 294.833 102.762 295.654 103.152 296.656C103.543 297.646 103.738 298.87 103.738 300.328C103.738 301.773 103.543 302.991 103.152 303.98C102.762 304.97 102.26 305.79 101.648 306.441C101.049 307.079 100.379 307.574 99.6367 307.926C98.8945 308.264 98.1719 308.518 97.4688 308.688C96.7786 308.844 96.1406 308.935 95.5547 308.961C94.9818 308.987 94.5586 309 94.2852 309H80.2812V280.289H101.18V285.23H86.2773V291.598H93.4062C93.8359 291.598 94.3893 291.611 95.0664 291.637ZM86.2773 304.039H92.7617C93.3086 304.039 93.8685 304 94.4414 303.922C95.0273 303.844 95.5612 303.674 96.043 303.414C96.5378 303.154 96.9414 302.77 97.2539 302.262C97.5664 301.741 97.7227 301.051 97.7227 300.191C97.7227 299.293 97.5664 298.59 97.2539 298.082C96.9544 297.561 96.5573 297.171 96.0625 296.91C95.5677 296.65 95.0078 296.487 94.3828 296.422C93.7708 296.357 93.1523 296.324 92.5273 296.324H86.2773V304.039ZM117.274 295.719C117.47 295.693 117.678 295.654 117.899 295.602C118.134 295.549 118.348 295.465 118.544 295.348C118.739 295.217 118.902 295.048 119.032 294.84C119.162 294.618 119.227 294.326 119.227 293.961C119.227 293.609 119.169 293.29 119.052 293.004C118.947 292.704 118.765 292.451 118.505 292.242C118.244 292.021 117.893 291.852 117.45 291.734C117.02 291.617 116.48 291.559 115.829 291.559C115.087 291.559 114.488 291.637 114.032 291.793C113.589 291.936 113.238 292.145 112.977 292.418C112.717 292.678 112.528 292.991 112.411 293.355C112.294 293.707 112.209 294.085 112.157 294.488H106.63C106.63 294.228 106.669 293.87 106.747 293.414C106.838 292.945 106.994 292.438 107.216 291.891C107.45 291.344 107.769 290.79 108.173 290.23C108.589 289.671 109.13 289.163 109.794 288.707C110.471 288.238 111.291 287.854 112.255 287.555C113.218 287.255 114.371 287.099 115.712 287.086C117.613 287.086 119.149 287.281 120.321 287.672C121.506 288.049 122.424 288.551 123.075 289.176C123.739 289.788 124.182 290.478 124.403 291.246C124.638 292.001 124.755 292.757 124.755 293.512V304.801C124.755 305.439 124.787 305.966 124.852 306.383C124.93 306.786 125.028 307.112 125.145 307.359C125.263 307.594 125.393 307.77 125.536 307.887C125.692 307.991 125.855 308.069 126.024 308.121V309H119.911C119.807 308.753 119.69 308.427 119.559 308.023C119.442 307.607 119.384 307.105 119.384 306.52C118.954 306.962 118.531 307.372 118.114 307.75C117.71 308.128 117.255 308.46 116.747 308.746C116.239 309.02 115.653 309.234 114.989 309.391C114.325 309.56 113.524 309.645 112.587 309.645C111.636 309.645 110.757 309.501 109.95 309.215C109.156 308.941 108.466 308.531 107.88 307.984C107.294 307.438 106.838 306.754 106.513 305.934C106.187 305.113 106.024 304.163 106.024 303.082C106.024 302.21 106.161 301.402 106.434 300.66C106.708 299.905 107.092 299.247 107.587 298.688C108.095 298.115 108.707 297.646 109.423 297.281C110.152 296.904 110.966 296.65 111.864 296.52L117.274 295.719ZM113.251 305.562C113.589 305.667 113.954 305.719 114.345 305.719C114.553 305.719 114.82 305.699 115.145 305.66C115.471 305.608 115.816 305.517 116.18 305.387C116.545 305.257 116.91 305.081 117.274 304.859C117.639 304.625 117.964 304.326 118.251 303.961C118.537 303.596 118.772 303.154 118.954 302.633C119.136 302.099 119.227 301.474 119.227 300.758V298.609C118.889 298.792 118.55 298.961 118.212 299.117C117.873 299.26 117.424 299.384 116.864 299.488L115.399 299.762C114.761 299.879 114.201 300.016 113.72 300.172C113.238 300.328 112.834 300.536 112.509 300.797C112.196 301.044 111.955 301.35 111.786 301.715C111.63 302.079 111.552 302.535 111.552 303.082C111.552 303.538 111.623 303.935 111.766 304.273C111.91 304.599 112.105 304.872 112.352 305.094C112.613 305.302 112.912 305.458 113.251 305.562ZM142.041 280.484C142.34 280.315 142.529 280.139 142.607 279.957H147.607C147.62 281.051 147.431 281.949 147.041 282.652C146.65 283.342 146.129 283.902 145.478 284.332C144.84 284.749 144.098 285.055 143.252 285.25C142.418 285.432 141.559 285.556 140.673 285.621C140.061 285.673 139.43 285.758 138.779 285.875C138.128 285.979 137.49 286.148 136.865 286.383C136.24 286.604 135.647 286.904 135.088 287.281C134.528 287.646 134.026 288.102 133.584 288.648C133.141 289.195 132.776 289.846 132.49 290.602C132.203 291.357 132.028 292.242 131.963 293.258C132.171 292.581 132.503 291.943 132.959 291.344C133.414 290.732 133.981 290.204 134.658 289.762C135.348 289.306 136.142 288.948 137.041 288.688C137.939 288.414 138.935 288.277 140.029 288.277C141.487 288.277 142.802 288.525 143.974 289.02C145.146 289.501 146.142 290.185 146.963 291.07C147.783 291.956 148.408 293.023 148.838 294.273C149.28 295.523 149.502 296.91 149.502 298.434C149.502 300.126 149.248 301.663 148.74 303.043C148.245 304.423 147.529 305.608 146.591 306.598C145.667 307.574 144.534 308.336 143.193 308.883C141.852 309.417 140.341 309.684 138.662 309.684C136.214 309.684 134.189 309.182 132.588 308.18C130.986 307.177 129.755 305.543 128.896 303.277C128.61 302.509 128.388 301.695 128.232 300.836C128.076 299.977 127.959 299.169 127.88 298.414C127.815 297.659 127.776 297.001 127.763 296.441C127.75 295.882 127.744 295.51 127.744 295.328C127.744 293.297 127.978 291.441 128.447 289.762C128.916 288.069 129.658 286.598 130.673 285.348C131.702 284.098 133.017 283.089 134.619 282.32C136.233 281.552 138.186 281.064 140.478 280.855C141.207 280.79 141.728 280.667 142.041 280.484ZM138.857 292.379C137.907 292.379 137.093 292.542 136.416 292.867C135.752 293.18 135.205 293.609 134.775 294.156C134.345 294.703 134.033 295.341 133.838 296.07C133.642 296.786 133.545 297.548 133.545 298.355C133.545 299.163 133.629 299.964 133.798 300.758C133.981 301.539 134.274 302.242 134.677 302.867C135.081 303.479 135.608 303.974 136.259 304.352C136.91 304.729 137.711 304.918 138.662 304.918C139.664 304.918 140.491 304.736 141.142 304.371C141.806 303.993 142.334 303.505 142.724 302.906C143.115 302.294 143.388 301.598 143.545 300.816C143.701 300.022 143.779 299.202 143.779 298.355C143.779 297.522 143.688 296.741 143.505 296.012C143.323 295.283 143.037 294.651 142.646 294.117C142.255 293.57 141.748 293.147 141.123 292.848C140.498 292.535 139.742 292.379 138.857 292.379ZM162.393 295.719C162.588 295.693 162.797 295.654 163.018 295.602C163.252 295.549 163.467 295.465 163.662 295.348C163.858 295.217 164.021 295.048 164.151 294.84C164.281 294.618 164.346 294.326 164.346 293.961C164.346 293.609 164.287 293.29 164.17 293.004C164.066 292.704 163.884 292.451 163.623 292.242C163.363 292.021 163.011 291.852 162.569 291.734C162.139 291.617 161.599 291.559 160.948 291.559C160.205 291.559 159.607 291.637 159.151 291.793C158.708 291.936 158.357 292.145 158.096 292.418C157.836 292.678 157.647 292.991 157.53 293.355C157.412 293.707 157.328 294.085 157.276 294.488H151.748C151.748 294.228 151.787 293.87 151.866 293.414C151.957 292.945 152.113 292.438 152.334 291.891C152.569 291.344 152.888 290.79 153.291 290.23C153.708 289.671 154.248 289.163 154.912 288.707C155.59 288.238 156.41 287.854 157.373 287.555C158.337 287.255 159.489 287.099 160.83 287.086C162.732 287.086 164.268 287.281 165.44 287.672C166.625 288.049 167.543 288.551 168.194 289.176C168.858 289.788 169.301 290.478 169.522 291.246C169.756 292.001 169.873 292.757 169.873 293.512V304.801C169.873 305.439 169.906 305.966 169.971 306.383C170.049 306.786 170.147 307.112 170.264 307.359C170.381 307.594 170.511 307.77 170.655 307.887C170.811 307.991 170.974 308.069 171.143 308.121V309H165.03C164.926 308.753 164.808 308.427 164.678 308.023C164.561 307.607 164.502 307.105 164.502 306.52C164.073 306.962 163.649 307.372 163.233 307.75C162.829 308.128 162.373 308.46 161.866 308.746C161.358 309.02 160.772 309.234 160.108 309.391C159.444 309.56 158.643 309.645 157.705 309.645C156.755 309.645 155.876 309.501 155.069 309.215C154.274 308.941 153.584 308.531 152.998 307.984C152.412 307.438 151.957 306.754 151.631 305.934C151.306 305.113 151.143 304.163 151.143 303.082C151.143 302.21 151.28 301.402 151.553 300.66C151.827 299.905 152.211 299.247 152.705 298.688C153.213 298.115 153.825 297.646 154.541 297.281C155.271 296.904 156.084 296.65 156.983 296.52L162.393 295.719ZM158.37 305.562C158.708 305.667 159.073 305.719 159.463 305.719C159.672 305.719 159.939 305.699 160.264 305.66C160.59 305.608 160.935 305.517 161.299 305.387C161.664 305.257 162.028 305.081 162.393 304.859C162.758 304.625 163.083 304.326 163.37 303.961C163.656 303.596 163.89 303.154 164.073 302.633C164.255 302.099 164.346 301.474 164.346 300.758V298.609C164.008 298.792 163.669 298.961 163.33 299.117C162.992 299.26 162.543 299.384 161.983 299.488L160.518 299.762C159.88 299.879 159.32 300.016 158.838 300.172C158.357 300.328 157.953 300.536 157.627 300.797C157.315 301.044 157.074 301.35 156.905 301.715C156.748 302.079 156.67 302.535 156.67 303.082C156.67 303.538 156.742 303.935 156.885 304.273C157.028 304.599 157.224 304.872 157.471 305.094C157.732 305.302 158.031 305.458 158.37 305.562ZM191.027 299.684C190.676 300.335 190.448 301.253 190.344 302.438L190.148 305.152C190.096 305.777 190.038 306.305 189.973 306.734C189.921 307.151 189.862 307.503 189.797 307.789C189.732 308.062 189.667 308.297 189.602 308.492C189.536 308.674 189.478 308.844 189.426 309H183.195C183.391 308.635 183.54 308.323 183.645 308.062C183.762 307.802 183.853 307.529 183.918 307.242C183.996 306.956 184.055 306.624 184.094 306.246C184.146 305.868 184.204 305.374 184.27 304.762L184.543 302.047C184.634 301.214 184.745 300.458 184.875 299.781C185.018 299.091 185.233 298.479 185.52 297.945C185.819 297.411 186.229 296.949 186.75 296.559C187.271 296.168 187.961 295.836 188.82 295.562C188.443 295.432 188.033 295.263 187.59 295.055C187.16 294.846 186.704 294.495 186.223 294C185.598 293.375 185.103 292.613 184.738 291.715C184.374 290.803 184.191 289.807 184.191 288.727C184.191 288.049 184.263 287.405 184.406 286.793C184.549 286.168 184.751 285.582 185.012 285.035C185.272 284.488 185.578 283.987 185.93 283.531C186.294 283.076 186.685 282.672 187.102 282.32C187.701 281.812 188.352 281.422 189.055 281.148C189.771 280.875 190.507 280.673 191.262 280.543C192.03 280.413 192.811 280.341 193.605 280.328C194.413 280.302 195.207 280.289 195.988 280.289H207.98V309H202.18V297.672H196.828C195.917 297.672 195.083 297.698 194.328 297.75C193.586 297.802 192.935 297.978 192.375 298.277C191.815 298.564 191.366 299.033 191.027 299.684ZM190.402 287.789C190.259 288.193 190.188 288.674 190.188 289.234C190.188 289.859 190.272 290.387 190.441 290.816C190.624 291.233 190.858 291.585 191.145 291.871C191.444 292.145 191.776 292.359 192.141 292.516C192.518 292.659 192.896 292.763 193.273 292.828C193.664 292.893 194.042 292.932 194.406 292.945C194.784 292.958 195.122 292.965 195.422 292.965H202.18V285.328H195.422C195.344 285.328 195.188 285.335 194.953 285.348C194.719 285.348 194.452 285.361 194.152 285.387C193.866 285.4 193.573 285.426 193.273 285.465C192.974 285.504 192.72 285.562 192.512 285.641C192.251 285.745 191.984 285.888 191.711 286.07C191.438 286.24 191.184 286.467 190.949 286.754C190.728 287.04 190.546 287.385 190.402 287.789ZM212.649 287.711H226.966V292.203H218.177V309H212.649V287.711ZM239.349 295.719C239.545 295.693 239.753 295.654 239.974 295.602C240.209 295.549 240.423 295.465 240.619 295.348C240.814 295.217 240.977 295.048 241.107 294.84C241.237 294.618 241.302 294.326 241.302 293.961C241.302 293.609 241.244 293.29 241.127 293.004C241.022 292.704 240.84 292.451 240.58 292.242C240.319 292.021 239.968 291.852 239.525 291.734C239.095 291.617 238.555 291.559 237.904 291.559C237.162 291.559 236.563 291.637 236.107 291.793C235.664 291.936 235.313 292.145 235.052 292.418C234.792 292.678 234.603 292.991 234.486 293.355C234.369 293.707 234.284 294.085 234.232 294.488H228.705C228.705 294.228 228.744 293.87 228.822 293.414C228.913 292.945 229.069 292.438 229.291 291.891C229.525 291.344 229.844 290.79 230.248 290.23C230.664 289.671 231.205 289.163 231.869 288.707C232.546 288.238 233.366 287.854 234.33 287.555C235.293 287.255 236.446 287.099 237.787 287.086C239.688 287.086 241.224 287.281 242.396 287.672C243.581 288.049 244.499 288.551 245.15 289.176C245.814 289.788 246.257 290.478 246.478 291.246C246.712 292.001 246.83 292.757 246.83 293.512V304.801C246.83 305.439 246.862 305.966 246.927 306.383C247.005 306.786 247.103 307.112 247.22 307.359C247.337 307.594 247.468 307.77 247.611 307.887C247.767 307.991 247.93 308.069 248.099 308.121V309H241.986C241.882 308.753 241.765 308.427 241.634 308.023C241.517 307.607 241.459 307.105 241.459 306.52C241.029 306.962 240.606 307.372 240.189 307.75C239.785 308.128 239.33 308.46 238.822 308.746C238.314 309.02 237.728 309.234 237.064 309.391C236.4 309.56 235.599 309.645 234.662 309.645C233.711 309.645 232.832 309.501 232.025 309.215C231.231 308.941 230.541 308.531 229.955 307.984C229.369 307.438 228.913 306.754 228.587 305.934C228.262 305.113 228.099 304.163 228.099 303.082C228.099 302.21 228.236 301.402 228.509 300.66C228.783 299.905 229.167 299.247 229.662 298.688C230.17 298.115 230.782 297.646 231.498 297.281C232.227 296.904 233.041 296.65 233.939 296.52L239.349 295.719ZM235.326 305.562C235.664 305.667 236.029 305.719 236.42 305.719C236.628 305.719 236.895 305.699 237.22 305.66C237.546 305.608 237.891 305.517 238.255 305.387C238.62 305.257 238.985 305.081 239.349 304.859C239.714 304.625 240.039 304.326 240.326 303.961C240.612 303.596 240.847 303.154 241.029 302.633C241.211 302.099 241.302 301.474 241.302 300.758V298.609C240.964 298.792 240.625 298.961 240.287 299.117C239.948 299.26 239.499 299.384 238.939 299.488L237.474 299.762C236.836 299.879 236.276 300.016 235.795 300.172C235.313 300.328 234.909 300.536 234.584 300.797C234.271 301.044 234.03 301.35 233.861 301.715C233.705 302.079 233.627 302.535 233.627 303.082C233.627 303.538 233.698 303.935 233.841 304.273C233.985 304.599 234.18 304.872 234.427 305.094C234.688 305.302 234.987 305.458 235.326 305.562Z" fill="black"/>
<path d="M180.188 136.741C184.638 146.666 199.975 170.228 210.239 173.401C211.388 173.753 211.403 173.424 211.225 172.421C210.35 167.608 209.201 162.833 208.489 157.968C208.222 156.164 208.57 153.769 208.377 152.459C242.945 173.686 255.582 217.359 264 255H225.435L213.799 207.988C211.062 202.27 211.032 207.681 211.537 211.02C213.687 225.271 220.036 240.607 222.468 255H83.7825L95.493 208.744C95.9973 207.584 94.9516 206.087 93.8095 206.349C91.3769 206.91 83.345 249.484 80.8234 255H43C52.4114 217.247 63.5878 174.075 98.6227 152.459C98.6153 152.534 99.1641 152.953 99.0306 153.911C98.1554 160.355 96.5238 167.017 96.7612 173.416C109.673 164.18 119.626 150.094 126.805 136C142.49 152.526 164.087 152.856 180.203 136.748L180.188 136.741ZM176.472 144.226C173.439 145.311 171.125 147.512 168.077 148.844C160.067 152.347 151.086 152.758 142.698 150.243C138.248 148.911 134.696 146 130.498 144.226C127.035 158.305 132.76 181.028 149.491 183.057C171.37 185.721 179.795 162.496 176.472 144.226Z" fill="#190C01"/>
<path d="M94.1977 83.9779C85.7099 76.3869 96.0063 68.9743 103.218 65.7848C104.562 65.19 107.579 65.0636 108.284 64.4837C108.839 64.0227 112.667 53.7551 114.145 51.3313C135.061 17.0193 191.046 25.8445 199.338 65.3238C207.751 64.7439 223.293 75.807 214.273 83.9854C206.025 83.9556 197.755 84.03 189.507 83.9854C165.762 83.8664 141.958 83.8515 118.213 83.9854C110.22 84.03 102.19 83.9482 94.1977 83.9854V83.9779Z" fill="#190C01"/>
<path d="M213.344 84C228.446 99.354 239.222 118.621 240 140.756C238.415 142.489 233.275 133.706 232.238 132.534C230.438 130.503 227.609 127.516 225.565 125.82C224.728 125.126 224.372 124.006 222.972 124.334C224.069 129.801 225.587 135.252 227.216 140.584C228.846 145.917 233.223 155.087 233.919 159.994C234.26 162.421 234.386 163.974 231.497 163.966C225.631 163.966 212.329 148.523 208.589 143.684C207.471 142.235 206.649 138.934 205.204 140.375C206.293 143.893 207.619 148.388 208.152 151.966C208.345 153.28 207.997 155.662 208.263 157.462C208.982 162.309 210.13 167.073 210.996 171.882C211.181 172.883 211.159 173.219 210.011 172.861C199.761 169.694 184.444 146.185 180 136.283C184.429 131.862 191.058 119.629 191.769 113.424C192.924 103.334 189.732 93.8801 188.888 84.0075C197.028 84.0523 205.189 83.9776 213.329 84.0075L213.344 84Z" fill="#830B06"/>
<path d="M118.756 84.025C117.407 92.6541 114.11 102.48 115.091 111.236C115.946 118.9 121.679 130.072 127 135.62C119.745 149.7 109.695 163.78 96.64 173C96.3927 166.607 98.049 159.952 98.9333 153.514C99.0607 152.564 98.5136 152.138 98.5211 152.063C99.0008 148.429 100.769 144.615 100.395 140.847C98.2288 143.643 96.3552 146.776 94.002 149.423C91.8811 151.801 76.48 166.719 73.7895 164.019L85.0236 123.648C83.6147 123.319 83.24 124.434 82.4006 125.136C80.1373 127.036 76.8622 130.363 74.8986 132.606C73.7745 133.893 69.3977 140.72 68.9031 140.839C67.8314 141.101 67.1044 139.912 67.0145 138.985C66.7972 136.756 69.083 128.03 69.8399 125.316C74.449 108.671 83.5997 96.7069 94.7664 84.0101C102.748 83.9727 110.767 84.0549 118.749 84.0101L118.756 84.025Z" fill="#830B06"/>
<path d="M189.839 84.095C190.691 93.9426 193.92 103.359 192.746 113.415C192.029 119.6 185.339 131.792 180.869 136.199C164.628 152.217 142.862 151.89 127.054 135.455C121.74 129.932 116.029 118.811 115.177 111.182C114.205 102.458 117.487 92.6772 118.832 84.095C142.481 83.961 166.19 83.9759 189.839 84.095ZM134.326 93.9128C125.036 95.93 127.921 110.876 138.482 108.502C146.652 106.671 144.865 91.6277 134.326 93.9128ZM170.203 93.9501C162.094 95.6174 162.908 107.973 170.779 108.695C182.947 109.805 182.118 91.5012 170.203 93.9501ZM149.97 120.687C147.99 121.305 148.446 123.158 150.606 123.545C152.078 123.806 159.612 123.977 159.941 122.421C160.487 119.831 151.443 120.233 149.97 120.687Z" fill="#EFDBBF"/>
<path d="M176.309 144C179.587 161.783 171.276 184.389 149.692 181.796C133.186 179.814 127.537 157.703 130.954 144C135.088 145.727 138.6 148.561 142.99 149.857C151.265 152.305 160.125 151.904 168.027 148.495C171.034 147.198 173.317 145.056 176.309 144Z" fill="#EFDBBF"/>
<path d="M169.08 91.2256C181.753 88.7798 182.635 107.052 169.692 105.952C161.321 105.239 160.454 92.8982 169.08 91.2256Z" fill="#190C01"/>
<path d="M134.024 92.2344C145.366 89.9611 147.288 104.926 138.496 106.748C127.131 109.103 124.026 94.2337 134.024 92.2344Z" fill="#190C01"/>
<path d="M149.345 129.496C150.915 128.821 160.556 128.223 159.975 132.075C159.624 134.388 151.592 134.134 150.023 133.746C147.72 133.171 147.234 130.415 149.345 129.496Z" fill="#190C01"/>
<path d="M149 110.624C153.023 111.023 158.269 109.467 164.04 110.198C170.536 111.021 177.461 114.15 179.522 114.869C182.086 115.764 173.918 119.738 164.925 120.813C160.263 121.37 153.61 120.474 149.885 120.813" stroke="#23140D" stroke-width="2" stroke-linecap="round"/>
<path d="M155.003 106.507C153.628 106.021 153.061 108.246 152.95 109.42L156.91 109.795C156.847 108.901 156.377 106.992 155.003 106.507Z" fill="#23140D" stroke="#23140D" stroke-linecap="round"/>
</svg>
