<svg width="302" height="107" viewBox="0 0 302 107" fill="none" xmlns="http://www.w3.org/2000/svg">
<path d="M128.116 101.002C128.116 101.002 134.922 78.7864 110.767 56.7042C103.178 49.766 122.493 6.00195 122.493 6.00195" stroke="#91040C" stroke-width="12" stroke-linecap="round"/>
<path d="M15.5579 97.002C15.5579 97.002 18.9611 86.4788 6.88352 76.0188C3.08875 72.7323 12.7464 52.002 12.7464 52.002" stroke="#91040C" stroke-width="12" stroke-linecap="round"/>
<path d="M286.442 99.002C286.442 99.002 283.039 88.245 295.116 77.5525C298.911 74.193 289.254 53.002 289.254 53.002" stroke="#91040C" stroke-width="12" stroke-linecap="round"/>
<path d="M54.5748 97.002C54.5748 97.002 50.1506 81.568 65.8514 66.2267C70.7846 61.4064 58.2297 31.002 58.2297 31.002" stroke="#91040C" stroke-width="12" stroke-linecap="round"/>
<path d="M173.619 97.002C173.619 97.002 168.854 81.568 185.763 66.2267C191.076 61.4064 177.555 31.002 177.555 31.002" stroke="#91040C" stroke-width="12" stroke-linecap="round"/>
<path d="M251.585 97.002C254.017 90.2034 255.051 73.1099 239.725 59.1243C224.399 45.1386 238.813 24.5487 247.936 16.002" stroke="#91040C" stroke-width="12" stroke-linecap="round"/>
</svg>
