<svg width="307" height="322" viewBox="0 0 307 322" fill="none" xmlns="http://www.w3.org/2000/svg">
<rect width="307" height="322" fill="#EFDBBF"/>
<path d="M118.395 292.027L123.355 292.047C123.915 292.047 124.443 291.969 124.938 291.812C125.445 291.656 125.882 291.422 126.246 291.109C126.624 290.784 126.923 290.387 127.145 289.918C127.366 289.449 127.477 288.902 127.477 288.277C127.477 287.483 127.32 286.826 127.008 286.305C126.695 285.784 126.292 285.374 125.797 285.074C125.302 284.775 124.749 284.566 124.137 284.449C123.525 284.332 122.913 284.273 122.301 284.273C121.507 284.273 120.81 284.358 120.211 284.527C119.625 284.684 119.117 284.892 118.688 285.152C118.271 285.413 117.919 285.706 117.633 286.031C117.359 286.344 117.145 286.663 116.988 286.988C116.832 287.301 116.721 287.6 116.656 287.887C116.591 288.16 116.559 288.382 116.559 288.551H111.031C111.031 288.147 111.077 287.646 111.168 287.047C111.272 286.448 111.467 285.816 111.754 285.152C112.04 284.488 112.444 283.824 112.965 283.16C113.499 282.496 114.202 281.897 115.074 281.363C115.947 280.829 117.008 280.4 118.258 280.074C119.521 279.736 121.025 279.566 122.77 279.566C124.605 279.566 126.181 279.814 127.496 280.309C128.824 280.79 129.911 281.415 130.758 282.184C131.604 282.939 132.229 283.785 132.633 284.723C133.036 285.66 133.238 286.578 133.238 287.477C133.238 287.984 133.173 288.518 133.043 289.078C132.926 289.638 132.698 290.185 132.359 290.719C132.034 291.253 131.585 291.747 131.012 292.203C130.452 292.659 129.723 293.03 128.824 293.316V293.395C129.111 293.473 129.443 293.57 129.82 293.688C130.198 293.805 130.582 293.974 130.973 294.195C131.376 294.404 131.767 294.677 132.145 295.016C132.535 295.354 132.88 295.777 133.18 296.285C133.479 296.793 133.72 297.405 133.902 298.121C134.098 298.824 134.195 299.651 134.195 300.602C134.195 301.852 133.928 303.03 133.395 304.137C132.861 305.243 132.079 306.214 131.051 307.047C130.035 307.867 128.772 308.518 127.262 309C125.764 309.482 124.046 309.723 122.105 309.723C121.116 309.723 120.133 309.664 119.156 309.547C118.18 309.443 117.249 309.254 116.363 308.98C115.491 308.707 114.677 308.349 113.922 307.906C113.167 307.451 112.509 306.891 111.949 306.227C111.402 305.549 110.973 304.755 110.66 303.844C110.348 302.919 110.191 301.852 110.191 300.641H115.719C115.719 301.122 115.829 301.624 116.051 302.145C116.285 302.652 116.656 303.121 117.164 303.551C117.672 303.967 118.336 304.312 119.156 304.586C119.977 304.859 120.973 304.996 122.145 304.996C123.238 304.996 124.169 304.872 124.938 304.625C125.706 304.365 126.331 304.026 126.812 303.609C127.294 303.18 127.646 302.698 127.867 302.164C128.089 301.617 128.199 301.057 128.199 300.484C128.199 299.586 128.043 298.87 127.73 298.336C127.431 297.789 127.047 297.372 126.578 297.086C126.109 296.799 125.602 296.617 125.055 296.539C124.508 296.448 123.993 296.402 123.512 296.402H118.395V292.027ZM153.317 287.711H161.384V309H156.188V291.871H156.11L152.106 309H147.067L143.083 291.871H142.985V309H137.79V287.711H146.11L149.704 303.16H149.802L153.317 287.711ZM170.564 309.02C169.314 308.59 168.22 307.919 167.283 307.008C166.358 306.083 165.629 304.892 165.095 303.434C164.561 301.975 164.295 300.204 164.295 298.121C164.295 296.676 164.483 295.289 164.861 293.961C165.252 292.62 165.851 291.441 166.658 290.426C167.478 289.41 168.52 288.603 169.783 288.004C171.059 287.392 172.589 287.086 174.373 287.086C176.261 287.086 177.849 287.398 179.138 288.023C180.427 288.635 181.463 289.508 182.244 290.641C183.038 291.773 183.604 293.141 183.943 294.742C184.282 296.344 184.451 298.121 184.451 300.074H169.861C169.861 300.27 169.88 300.53 169.92 300.855C169.959 301.181 170.037 301.533 170.154 301.91C170.271 302.288 170.44 302.672 170.662 303.062C170.883 303.44 171.176 303.785 171.541 304.098C171.918 304.41 172.374 304.664 172.908 304.859C173.455 305.055 174.106 305.152 174.861 305.152C175.252 305.152 175.636 305.1 176.013 304.996C176.404 304.879 176.762 304.716 177.088 304.508C177.413 304.286 177.693 304.026 177.927 303.727C178.175 303.414 178.351 303.062 178.455 302.672H184.177C184.177 303.062 184.093 303.512 183.923 304.02C183.754 304.514 183.494 305.022 183.142 305.543C182.804 306.051 182.374 306.552 181.853 307.047C181.332 307.542 180.714 307.984 179.998 308.375C179.282 308.753 178.468 309.059 177.556 309.293C176.658 309.527 175.655 309.645 174.548 309.645C173.129 309.645 171.801 309.436 170.564 309.02ZM171.541 292.555C171.111 292.932 170.753 293.434 170.466 294.059C170.193 294.684 170.056 295.465 170.056 296.402H178.709C178.709 295.465 178.565 294.684 178.279 294.059C178.005 293.434 177.654 292.939 177.224 292.574C176.808 292.197 176.345 291.936 175.838 291.793C175.33 291.637 174.841 291.559 174.373 291.559C173.917 291.559 173.435 291.637 172.927 291.793C172.42 291.936 171.957 292.19 171.541 292.555ZM192.889 300.836H192.967L200.721 287.711H206.522V309H201.014V296.168H200.916L193.397 309H187.362V287.711H192.889V300.836ZM194.354 279.82C194.432 280.146 194.569 280.432 194.764 280.68C194.972 280.914 195.246 281.103 195.584 281.246C195.936 281.376 196.385 281.441 196.932 281.441C197.466 281.441 197.909 281.389 198.26 281.285C198.625 281.168 198.911 280.999 199.12 280.777C199.328 280.556 199.471 280.283 199.549 279.957C199.627 279.632 199.66 279.247 199.647 278.805H203.631C203.631 279.833 203.462 280.712 203.123 281.441C202.785 282.171 202.316 282.77 201.717 283.238C201.131 283.694 200.428 284.033 199.608 284.254C198.787 284.462 197.896 284.566 196.932 284.566C195.955 284.566 195.057 284.462 194.237 284.254C193.416 284.033 192.707 283.694 192.108 283.238C191.509 282.77 191.04 282.171 190.702 281.441C190.376 280.712 190.213 279.833 190.213 278.805H194.217C194.23 279.169 194.276 279.508 194.354 279.82Z" fill="black"/>
<path d="M79.582 56.9648C75.4569 57.1122 67.6486 59.8819 69.4165 69.7822C71.6264 82.1575 99.4718 69.3402 79.582 56.9648Z" stroke="#1C130B" stroke-width="13"/>
<path d="M147.588 20.3801C150.882 33.0749 145.566 47.7931 130.672 48.0902C140.113 59.3075 148.748 71.4723 149.996 86.6402C152.147 112.672 140.298 130.963 121.828 147.665C109.527 158.786 90.2837 169.16 82.4864 183.927C67.1495 212.986 97.1225 238.447 116.825 206.112C131.244 182.449 133.95 165.515 160.468 150.05C182.95 136.929 239.206 123.793 241.075 92.277C242.122 74.6842 218.634 55.8949 203.16 73.7607C191.351 87.395 198.456 102.346 208.033 114.704C209.435 116.51 212.246 117.731 211.988 120.244C211.513 121.842 185.39 132.939 181.564 133.477C164.866 112.118 155.361 81.3086 171.906 57.0593C207.63 4.70645 297.711 42.5096 274.625 111.275C260.883 152.21 214.244 161.299 181.685 180.024C156.368 194.582 159.574 208.047 145.187 229.559C103.18 292.374 12.544 245.369 42.1787 174.251C53.9311 146.043 77.903 135.934 99.6438 118.317C109.721 110.151 120.015 96.1071 110.132 83.8218C96.2767 100.66 75.4865 104.691 54.5191 103.912C48.0186 103.671 45.5618 99.9533 40.906 106.337C34.9291 114.535 36.822 132.762 22.7337 131.582C25.3032 128.097 28.2031 124.54 28.3642 119.939L14.2758 120.742L13.873 119.144C23.5714 114.704 31.7876 108.328 40.4468 102.258L33.608 98.2509C25.3274 92.0762 33.9786 79.1165 40.0683 74.1863C43.7494 71.2074 48.4536 69.4328 52.1509 66.1568C60.5282 58.7455 63.6455 49.7282 74.3588 42.5257C83.9766 36.0619 95.2296 34.7371 103.84 29.3572C106.41 27.7513 110.494 22.2831 112.532 21.9539C114.24 21.6809 113.523 22.2912 113.837 23.0941C115.287 26.8118 114.707 32.5369 113.748 36.4152C121.038 38.3262 129.858 36.9531 135.884 32.3923C139.847 29.3893 142.062 24.9089 145.316 21.7211C146.025 21.0306 145.993 19.9626 147.58 20.3721L147.588 20.3801ZM83.6786 60.0061C76.8237 53.1488 65.168 63.234 72.2484 70.9986C79.3288 78.7632 90.7107 67.048 83.6786 60.0061ZM46.907 84.6248C42.6942 83.9021 37.3698 86.1183 38.433 91.0565C40.7046 94.3245 48.0106 85.5642 46.907 84.6248Z" fill="#830B06"/>
<path d="M201.655 198.962C203.312 203.604 202.447 207.705 200.66 212.08C197.896 218.845 188.228 224.424 193.579 232.464C199.763 241.756 216.884 235.508 223.916 229.655C244.933 212.153 235.831 184.415 216.237 170.304L246.42 154.643C278.059 183.043 279.522 236.218 236.171 254.002C218.686 261.171 191.356 262.22 178.706 245.712C161.116 222.761 189.408 213.154 201.663 198.962H201.655Z" fill="#830B06"/>
<path d="M37.8274 92.4837C35.0798 84.7416 46.5558 82.84 47.3247 84.2118C51.1584 91.0511 41.3575 93.9772 37.8274 92.4837Z" fill="#23140D"/>
</svg>
