<svg width="164" height="610" viewBox="0 0 164 610" fill="none" xmlns="http://www.w3.org/2000/svg">
<rect width="164" height="610" transform="matrix(-1 0 0 1 164 0)" fill="#23140D"/>
<path d="M77.9221 94.3911C76.6049 97.1541 77.777 100.462 80.5399 101.779C83.3029 103.096 86.6104 101.924 87.9276 99.161C89.2447 96.398 88.0727 93.0904 85.3097 91.7733C82.5468 90.4561 79.2392 91.6282 77.9221 94.3911Z" fill="#EFDBBF"/>
<path d="M79.6426 95.2117L79.7276 95.0448C80.6127 93.4071 82.5999 92.7028 84.3187 93.418L84.4892 93.4938C86.3017 94.3578 87.0709 96.5285 86.2068 98.341L86.1221 98.5073C85.2076 100.2 83.1159 100.895 81.3599 100.058L80.5396 101.779L80.8003 101.895C83.5074 103.021 86.6514 101.838 87.9274 99.1613C89.2446 96.3983 88.0724 93.0903 85.3094 91.7731C82.5465 90.4562 79.2391 91.6286 77.9219 94.3915L77.8058 94.6515C76.6796 97.3587 77.8631 100.503 80.5396 101.779L81.3599 100.058C79.604 99.2208 78.8278 97.1582 79.5668 95.3822L79.6426 95.2117Z" fill="#EFDBBF"/>
<path d="M82.7524 38.915C80.4551 37.8046 77.6585 38.7511 76.5059 41.029L32.4155 128.165C31.263 130.443 32.191 133.19 34.4883 134.3C36.7855 135.411 39.5822 134.464 40.7348 132.186L84.8251 45.0501C85.9776 42.7723 85.0495 40.0254 82.7524 38.915Z" fill="#EFDBBF"/>
<path d="M131.644 60.8865C129.343 59.8081 126.58 60.7873 125.472 63.0735L82.8668 150.971C81.7588 153.257 82.7254 155.985 85.0256 157.063C87.3259 158.142 90.0892 157.162 91.1973 154.876L133.802 66.9786C134.91 64.6925 133.944 61.9649 131.644 60.8865Z" fill="#EFDBBF"/>
<path d="M121.302 144.207C122.408 141.925 121.443 139.203 119.147 138.127L27.5957 95.2097C25.3002 94.1339 22.5426 95.1109 21.4368 97.3922C20.331 99.6735 21.2957 102.395 23.5911 103.472L115.143 146.389C117.438 147.465 120.196 146.488 121.302 144.207Z" fill="#EFDBBF"/>
<path d="M62.6227 84.8245C63.7472 82.5456 62.7875 79.837 60.479 78.7748L49.6675 73.7995C47.359 72.7373 44.5759 73.7234 43.4514 76.0022C42.3269 78.281 43.2867 80.9897 45.5951 82.0519L56.4066 87.0271C58.715 88.0894 61.4981 87.1031 62.6227 84.8245ZM77.9269 123.712C79.0514 121.434 78.0916 118.725 75.7832 117.663C73.4747 116.601 70.6916 117.587 69.5671 119.865L64.0533 131.04C62.9288 133.319 63.8886 136.027 66.197 137.09C68.5055 138.152 71.2886 137.166 72.4131 134.887L77.9269 123.712ZM144.557 97.3637C145.681 95.0849 144.721 92.3763 142.413 91.314L100.561 72.0547L104.039 65.0064C105.163 62.7276 104.203 60.019 101.895 58.9567C99.5866 57.8947 96.804 58.8807 95.6795 61.1591L92.3171 67.9739L52.8649 47.0993C50.6221 45.9127 47.7904 46.7481 46.54 48.9647C45.2896 51.1813 46.0939 53.9404 48.3367 55.127L92.1932 78.3304L138.34 99.5663C140.649 100.629 143.432 99.6425 144.557 97.3637ZM124.763 113.42C125.888 111.141 124.928 108.432 122.619 107.37L111.807 102.395C109.499 101.333 106.716 102.319 105.591 104.598C104.467 106.876 105.427 109.585 107.736 110.647L118.547 115.622C120.856 116.685 123.639 115.698 124.763 113.42Z" fill="#EFDBBF"/>
<path d="M77.9162 388.389C76.5991 391.152 77.7711 394.46 80.5341 395.777C83.297 397.094 86.6046 395.922 87.9217 393.159C89.2389 390.396 88.0668 387.088 85.3039 385.771C82.5409 384.454 79.2334 385.626 77.9162 388.389Z" fill="#EFDBBF"/>
<path d="M79.6367 389.21L79.7217 389.043C80.6068 387.405 82.594 386.701 84.3128 387.416L84.4833 387.492C86.2959 388.356 87.065 390.527 86.201 392.339L86.1162 392.505C85.2017 394.198 83.11 394.893 81.354 394.056L80.5338 395.777L80.7944 395.893C83.5016 397.019 86.6455 395.836 87.9216 393.159C89.2387 390.396 88.0665 387.088 85.3036 385.771C82.5406 384.454 79.2332 385.627 77.9161 388.39L77.7999 388.65C76.6737 391.357 77.8572 394.501 80.5338 395.777L81.354 394.056C79.5982 393.219 78.822 391.156 79.5609 389.38L79.6367 389.21Z" fill="#EFDBBF"/>
<path d="M82.7465 332.913C80.4493 331.803 77.6526 332.749 76.5 335.027L32.4097 422.163C31.2571 424.441 32.1852 427.188 34.4824 428.298C36.7796 429.409 39.5763 428.462 40.7289 426.184L84.8192 339.048C85.9717 336.77 85.0437 334.023 82.7465 332.913Z" fill="#EFDBBF"/>
<path d="M131.636 354.885C129.335 353.806 126.572 354.785 125.464 357.072L82.859 444.969C81.7509 447.255 82.7176 449.983 85.0178 451.061C87.3181 452.14 90.0813 451.161 91.1895 448.874L133.794 360.977C134.903 358.691 133.936 355.963 131.636 354.885Z" fill="#EFDBBF"/>
<path d="M121.296 438.205C122.402 435.923 121.437 433.201 119.142 432.125L27.5899 389.208C25.2943 388.132 22.5367 389.109 21.4309 391.39C20.3251 393.672 21.2899 396.393 23.5852 397.47L115.137 440.387C117.433 441.463 120.19 440.486 121.296 438.205Z" fill="#EFDBBF"/>
<path d="M62.6169 378.822C63.7414 376.544 62.7816 373.835 60.4731 372.773L49.6616 367.798C47.3531 366.735 44.5701 367.721 43.4455 370C42.3211 372.279 43.2808 374.988 45.5893 376.05L56.4008 381.025C58.7092 382.087 61.4923 381.101 62.6169 378.822ZM77.921 417.71C79.0456 415.432 78.0858 412.723 75.7773 411.661C73.4689 410.599 70.6857 411.585 69.5612 413.863L64.0474 425.038C62.9229 427.317 63.8827 430.025 66.1912 431.088C68.4996 432.15 71.2827 431.164 72.4072 428.885L77.921 417.71ZM144.551 391.362C145.675 389.083 144.715 386.374 142.407 385.312L100.555 366.053L104.033 359.004C105.157 356.726 104.197 354.017 101.889 352.955C99.5807 351.893 96.7982 352.879 95.6736 355.157L92.3112 361.972L52.8591 341.097C50.6163 339.911 47.7845 340.746 46.5341 342.963C45.2838 345.179 46.0881 347.938 48.3308 349.125L92.1873 372.328L138.335 393.564C140.643 394.627 143.426 393.641 144.551 391.362ZM124.757 407.418C125.882 405.139 124.922 402.43 122.614 401.368L111.801 396.393C109.493 395.331 106.71 396.317 105.585 398.596C104.461 400.874 105.421 403.583 107.73 404.645L118.541 409.62C120.85 410.683 123.633 409.696 124.757 407.418Z" fill="#EFDBBF"/>
<path fill-rule="evenodd" clip-rule="evenodd" d="M68.6402 190.802C61.4915 189.94 54.8246 191.264 48.9606 194.711C44.1113 197.562 40.3778 201.572 37.7142 206.79C36.3652 209.433 35.0809 213.212 34.8396 217.557C34.3337 226.669 41.4237 234.525 43.6516 239.172C61.5275 268.496 75.0202 290.305 75.0202 290.305C75.0202 290.305 96.5288 278.987 128.106 260.825C131.523 258.197 141.171 254.131 145.018 246.316C147.025 242.239 147.815 238.23 147.908 235.042C148.247 223.444 142.309 213.269 132.009 207.801C125.403 204.293 117.922 203.152 110.643 204.543C107.141 205.212 104.818 206.141 99.9082 208.836L95.2521 211.392L92.4047 206.893C88.7333 201.092 86.3912 198.578 81.9441 195.663C78.6011 193.472 72.6038 191.281 68.6402 190.802Z" fill="#91040C"/>
<path fill-rule="evenodd" clip-rule="evenodd" d="M68.6402 484.802C61.4915 483.94 54.8246 485.264 48.9606 488.711C44.1113 491.562 40.3778 495.572 37.7142 500.79C36.3652 503.433 35.0809 507.212 34.8396 511.557C34.3337 520.669 41.4237 528.525 43.6516 533.172C61.5275 562.496 75.0202 584.305 75.0202 584.305C75.0202 584.305 96.5288 572.987 128.106 554.825C131.523 552.197 141.171 548.131 145.018 540.316C147.025 536.239 147.815 532.23 147.908 529.042C148.247 517.444 142.309 507.269 132.009 501.801C125.403 498.293 117.922 497.152 110.643 498.543C107.141 499.212 104.818 500.141 99.9082 502.836L95.2521 505.392L92.4047 500.893C88.7333 495.092 86.3912 492.578 81.9441 489.663C78.6011 487.472 72.6038 485.281 68.6402 484.802Z" fill="#91040C"/>
</svg>
